<?xml version="1.0" encoding="utf-8" standalone="no"?>
<!DOCTYPE svg PUBLIC "-//W3C//DTD SVG 1.1//EN"
  "http://www.w3.org/Graphics/SVG/1.1/DTD/svg11.dtd">
<svg xmlns:xlink="http://www.w3.org/1999/xlink" width="540.326562pt" height="337.074375pt" viewBox="0 0 540.326562 337.074375" xmlns="http://www.w3.org/2000/svg" version="1.1">
 <metadata>
  <rdf:RDF xmlns:dc="http://purl.org/dc/elements/1.1/" xmlns:cc="http://creativecommons.org/ns#" xmlns:rdf="http://www.w3.org/1999/02/22-rdf-syntax-ns#">
   <cc:Work>
    <dc:type rdf:resource="http://purl.org/dc/dcmitype/StillImage"/>
    <dc:date>2023-08-21T12:20:27.818693</dc:date>
    <dc:format>image/svg+xml</dc:format>
    <dc:creator>
     <cc:Agent>
      <dc:title>Matplotlib v3.7.1, https://matplotlib.org/</dc:title>
     </cc:Agent>
    </dc:creator>
   </cc:Work>
  </rdf:RDF>
 </metadata>
 <defs>
  <style type="text/css">*{stroke-linejoin: round; stroke-linecap: butt}</style>
 </defs>
 <g id="figure_1">
  <g id="patch_1">
   <path d="M 0 337.074375 
L 540.326562 337.074375 
L 540.326562 0 
L 0 0 
z
" style="fill: #ffffff"/>
  </g>
  <g id="axes_1">
   <g id="patch_2">
    <path d="M 34.240625 299.518125 
L 369.040625 299.518125 
L 369.040625 22.318125 
L 34.240625 22.318125 
z
" style="fill: #ffffff"/>
   </g>
   <g id="matplotlib.axis_1">
    <g id="xtick_1">
     <g id="line2d_1">
      <path d="M 49.458807 299.518125 
L 49.458807 22.318125 
" clip-path="url(#p02ee4a2c99)" style="fill: none; stroke: #b0b0b0; stroke-width: 0.8; stroke-linecap: square"/>
     </g>
     <g id="line2d_2">
      <defs>
       <path id="m446c733fcd" d="M 0 0 
L 0 3.5 
" style="stroke: #000000; stroke-width: 0.8"/>
      </defs>
      <g>
       <use xlink:href="#m446c733fcd" x="49.458807" y="299.518125" style="stroke: #000000; stroke-width: 0.8"/>
      </g>
     </g>
     <g id="text_1">
      <!-- 200 -->
      <g transform="translate(39.915057 314.116563) scale(0.1 -0.1)">
       <defs>
        <path id="DejaVuSans-32" d="M 1228 531 
L 3431 531 
L 3431 0 
L 469 0 
L 469 531 
Q 828 903 1448 1529 
Q 2069 2156 2228 2338 
Q 2531 2678 2651 2914 
Q 2772 3150 2772 3378 
Q 2772 3750 2511 3984 
Q 2250 4219 1831 4219 
Q 1534 4219 1204 4116 
Q 875 4013 500 3803 
L 500 4441 
Q 881 4594 1212 4672 
Q 1544 4750 1819 4750 
Q 2544 4750 2975 4387 
Q 3406 4025 3406 3419 
Q 3406 3131 3298 2873 
Q 3191 2616 2906 2266 
Q 2828 2175 2409 1742 
Q 1991 1309 1228 531 
z
" transform="scale(0.015625)"/>
        <path id="DejaVuSans-30" d="M 2034 4250 
Q 1547 4250 1301 3770 
Q 1056 3291 1056 2328 
Q 1056 1369 1301 889 
Q 1547 409 2034 409 
Q 2525 409 2770 889 
Q 3016 1369 3016 2328 
Q 3016 3291 2770 3770 
Q 2525 4250 2034 4250 
z
M 2034 4750 
Q 2819 4750 3233 4129 
Q 3647 3509 3647 2328 
Q 3647 1150 3233 529 
Q 2819 -91 2034 -91 
Q 1250 -91 836 529 
Q 422 1150 422 2328 
Q 422 3509 836 4129 
Q 1250 4750 2034 4750 
z
" transform="scale(0.015625)"/>
       </defs>
       <use xlink:href="#DejaVuSans-32"/>
       <use xlink:href="#DejaVuSans-30" x="63.623047"/>
       <use xlink:href="#DejaVuSans-30" x="127.246094"/>
      </g>
     </g>
    </g>
    <g id="xtick_2">
     <g id="line2d_3">
      <path d="M 201.640625 299.518125 
L 201.640625 22.318125 
" clip-path="url(#p02ee4a2c99)" style="fill: none; stroke: #b0b0b0; stroke-width: 0.8; stroke-linecap: square"/>
     </g>
     <g id="line2d_4">
      <g>
       <use xlink:href="#m446c733fcd" x="201.640625" y="299.518125" style="stroke: #000000; stroke-width: 0.8"/>
      </g>
     </g>
     <g id="text_2">
      <!-- 500 -->
      <g transform="translate(192.096875 314.116563) scale(0.1 -0.1)">
       <defs>
        <path id="DejaVuSans-35" d="M 691 4666 
L 3169 4666 
L 3169 4134 
L 1269 4134 
L 1269 2991 
Q 1406 3038 1543 3061 
Q 1681 3084 1819 3084 
Q 2600 3084 3056 2656 
Q 3513 2228 3513 1497 
Q 3513 744 3044 326 
Q 2575 -91 1722 -91 
Q 1428 -91 1123 -41 
Q 819 9 494 109 
L 494 744 
Q 775 591 1075 516 
Q 1375 441 1709 441 
Q 2250 441 2565 725 
Q 2881 1009 2881 1497 
Q 2881 1984 2565 2268 
Q 2250 2553 1709 2553 
Q 1456 2553 1204 2497 
Q 953 2441 691 2322 
L 691 4666 
z
" transform="scale(0.015625)"/>
       </defs>
       <use xlink:href="#DejaVuSans-35"/>
       <use xlink:href="#DejaVuSans-30" x="63.623047"/>
       <use xlink:href="#DejaVuSans-30" x="127.246094"/>
      </g>
     </g>
    </g>
    <g id="xtick_3">
     <g id="line2d_5">
      <path d="M 353.822443 299.518125 
L 353.822443 22.318125 
" clip-path="url(#p02ee4a2c99)" style="fill: none; stroke: #b0b0b0; stroke-width: 0.8; stroke-linecap: square"/>
     </g>
     <g id="line2d_6">
      <g>
       <use xlink:href="#m446c733fcd" x="353.822443" y="299.518125" style="stroke: #000000; stroke-width: 0.8"/>
      </g>
     </g>
     <g id="text_3">
      <!-- 800 -->
      <g transform="translate(344.278693 314.116563) scale(0.1 -0.1)">
       <defs>
        <path id="DejaVuSans-38" d="M 2034 2216 
Q 1584 2216 1326 1975 
Q 1069 1734 1069 1313 
Q 1069 891 1326 650 
Q 1584 409 2034 409 
Q 2484 409 2743 651 
Q 3003 894 3003 1313 
Q 3003 1734 2745 1975 
Q 2488 2216 2034 2216 
z
M 1403 2484 
Q 997 2584 770 2862 
Q 544 3141 544 3541 
Q 544 4100 942 4425 
Q 1341 4750 2034 4750 
Q 2731 4750 3128 4425 
Q 3525 4100 3525 3541 
Q 3525 3141 3298 2862 
Q 3072 2584 2669 2484 
Q 3125 2378 3379 2068 
Q 3634 1759 3634 1313 
Q 3634 634 3220 271 
Q 2806 -91 2034 -91 
Q 1263 -91 848 271 
Q 434 634 434 1313 
Q 434 1759 690 2068 
Q 947 2378 1403 2484 
z
M 1172 3481 
Q 1172 3119 1398 2916 
Q 1625 2713 2034 2713 
Q 2441 2713 2670 2916 
Q 2900 3119 2900 3481 
Q 2900 3844 2670 4047 
Q 2441 4250 2034 4250 
Q 1625 4250 1398 4047 
Q 1172 3844 1172 3481 
z
" transform="scale(0.015625)"/>
       </defs>
       <use xlink:href="#DejaVuSans-38"/>
       <use xlink:href="#DejaVuSans-30" x="63.623047"/>
       <use xlink:href="#DejaVuSans-30" x="127.246094"/>
      </g>
     </g>
    </g>
    <g id="text_4">
     <!-- Traces -->
     <g transform="translate(185.774219 327.794688) scale(0.1 -0.1)">
      <defs>
       <path id="DejaVuSans-54" d="M -19 4666 
L 3928 4666 
L 3928 4134 
L 2272 4134 
L 2272 0 
L 1638 0 
L 1638 4134 
L -19 4134 
L -19 4666 
z
" transform="scale(0.015625)"/>
       <path id="DejaVuSans-72" d="M 2631 2963 
Q 2534 3019 2420 3045 
Q 2306 3072 2169 3072 
Q 1681 3072 1420 2755 
Q 1159 2438 1159 1844 
L 1159 0 
L 581 0 
L 581 3500 
L 1159 3500 
L 1159 2956 
Q 1341 3275 1631 3429 
Q 1922 3584 2338 3584 
Q 2397 3584 2469 3576 
Q 2541 3569 2628 3553 
L 2631 2963 
z
" transform="scale(0.015625)"/>
       <path id="DejaVuSans-61" d="M 2194 1759 
Q 1497 1759 1228 1600 
Q 959 1441 959 1056 
Q 959 750 1161 570 
Q 1363 391 1709 391 
Q 2188 391 2477 730 
Q 2766 1069 2766 1631 
L 2766 1759 
L 2194 1759 
z
M 3341 1997 
L 3341 0 
L 2766 0 
L 2766 531 
Q 2569 213 2275 61 
Q 1981 -91 1556 -91 
Q 1019 -91 701 211 
Q 384 513 384 1019 
Q 384 1609 779 1909 
Q 1175 2209 1959 2209 
L 2766 2209 
L 2766 2266 
Q 2766 2663 2505 2880 
Q 2244 3097 1772 3097 
Q 1472 3097 1187 3025 
Q 903 2953 641 2809 
L 641 3341 
Q 956 3463 1253 3523 
Q 1550 3584 1831 3584 
Q 2591 3584 2966 3190 
Q 3341 2797 3341 1997 
z
" transform="scale(0.015625)"/>
       <path id="DejaVuSans-63" d="M 3122 3366 
L 3122 2828 
Q 2878 2963 2633 3030 
Q 2388 3097 2138 3097 
Q 1578 3097 1268 2742 
Q 959 2388 959 1747 
Q 959 1106 1268 751 
Q 1578 397 2138 397 
Q 2388 397 2633 464 
Q 2878 531 3122 666 
L 3122 134 
Q 2881 22 2623 -34 
Q 2366 -91 2075 -91 
Q 1284 -91 818 406 
Q 353 903 353 1747 
Q 353 2603 823 3093 
Q 1294 3584 2113 3584 
Q 2378 3584 2631 3529 
Q 2884 3475 3122 3366 
z
" transform="scale(0.015625)"/>
       <path id="DejaVuSans-65" d="M 3597 1894 
L 3597 1613 
L 953 1613 
Q 991 1019 1311 708 
Q 1631 397 2203 397 
Q 2534 397 2845 478 
Q 3156 559 3463 722 
L 3463 178 
Q 3153 47 2828 -22 
Q 2503 -91 2169 -91 
Q 1331 -91 842 396 
Q 353 884 353 1716 
Q 353 2575 817 3079 
Q 1281 3584 2069 3584 
Q 2775 3584 3186 3129 
Q 3597 2675 3597 1894 
z
M 3022 2063 
Q 3016 2534 2758 2815 
Q 2500 3097 2075 3097 
Q 1594 3097 1305 2825 
Q 1016 2553 972 2059 
L 3022 2063 
z
" transform="scale(0.015625)"/>
       <path id="DejaVuSans-73" d="M 2834 3397 
L 2834 2853 
Q 2591 2978 2328 3040 
Q 2066 3103 1784 3103 
Q 1356 3103 1142 2972 
Q 928 2841 928 2578 
Q 928 2378 1081 2264 
Q 1234 2150 1697 2047 
L 1894 2003 
Q 2506 1872 2764 1633 
Q 3022 1394 3022 966 
Q 3022 478 2636 193 
Q 2250 -91 1575 -91 
Q 1294 -91 989 -36 
Q 684 19 347 128 
L 347 722 
Q 666 556 975 473 
Q 1284 391 1588 391 
Q 1994 391 2212 530 
Q 2431 669 2431 922 
Q 2431 1156 2273 1281 
Q 2116 1406 1581 1522 
L 1381 1569 
Q 847 1681 609 1914 
Q 372 2147 372 2553 
Q 372 3047 722 3315 
Q 1072 3584 1716 3584 
Q 2034 3584 2315 3537 
Q 2597 3491 2834 3397 
z
" transform="scale(0.015625)"/>
      </defs>
      <use xlink:href="#DejaVuSans-54"/>
      <use xlink:href="#DejaVuSans-72" x="46.333984"/>
      <use xlink:href="#DejaVuSans-61" x="87.447266"/>
      <use xlink:href="#DejaVuSans-63" x="148.726562"/>
      <use xlink:href="#DejaVuSans-65" x="203.707031"/>
      <use xlink:href="#DejaVuSans-73" x="265.230469"/>
     </g>
    </g>
   </g>
   <g id="matplotlib.axis_2">
    <g id="ytick_1">
     <g id="line2d_7">
      <path d="M 34.240625 286.920078 
L 369.040625 286.920078 
" clip-path="url(#p02ee4a2c99)" style="fill: none; stroke: #b0b0b0; stroke-width: 0.8; stroke-linecap: square"/>
     </g>
     <g id="line2d_8">
      <defs>
       <path id="md4e680d3fe" d="M 0 0 
L -3.5 0 
" style="stroke: #000000; stroke-width: 0.8"/>
      </defs>
      <g>
       <use xlink:href="#md4e680d3fe" x="34.240625" y="286.920078" style="stroke: #000000; stroke-width: 0.8"/>
      </g>
     </g>
     <g id="text_5">
      <!-- 0 -->
      <g transform="translate(20.878125 290.719296) scale(0.1 -0.1)">
       <use xlink:href="#DejaVuSans-30"/>
      </g>
     </g>
    </g>
    <g id="ytick_2">
     <g id="line2d_9">
      <path d="M 34.240625 231.131652 
L 369.040625 231.131652 
" clip-path="url(#p02ee4a2c99)" style="fill: none; stroke: #b0b0b0; stroke-width: 0.8; stroke-linecap: square"/>
     </g>
     <g id="line2d_10">
      <g>
       <use xlink:href="#md4e680d3fe" x="34.240625" y="231.131652" style="stroke: #000000; stroke-width: 0.8"/>
      </g>
     </g>
     <g id="text_6">
      <!-- 2 -->
      <g transform="translate(20.878125 234.930871) scale(0.1 -0.1)">
       <use xlink:href="#DejaVuSans-32"/>
      </g>
     </g>
    </g>
    <g id="ytick_3">
     <g id="line2d_11">
      <path d="M 34.240625 175.343227 
L 369.040625 175.343227 
" clip-path="url(#p02ee4a2c99)" style="fill: none; stroke: #b0b0b0; stroke-width: 0.8; stroke-linecap: square"/>
     </g>
     <g id="line2d_12">
      <g>
       <use xlink:href="#md4e680d3fe" x="34.240625" y="175.343227" style="stroke: #000000; stroke-width: 0.8"/>
      </g>
     </g>
     <g id="text_7">
      <!-- 4 -->
      <g transform="translate(20.878125 179.142445) scale(0.1 -0.1)">
       <defs>
        <path id="DejaVuSans-34" d="M 2419 4116 
L 825 1625 
L 2419 1625 
L 2419 4116 
z
M 2253 4666 
L 3047 4666 
L 3047 1625 
L 3713 1625 
L 3713 1100 
L 3047 1100 
L 3047 0 
L 2419 0 
L 2419 1100 
L 313 1100 
L 313 1709 
L 2253 4666 
z
" transform="scale(0.015625)"/>
       </defs>
       <use xlink:href="#DejaVuSans-34"/>
      </g>
     </g>
    </g>
    <g id="ytick_4">
     <g id="line2d_13">
      <path d="M 34.240625 119.554801 
L 369.040625 119.554801 
" clip-path="url(#p02ee4a2c99)" style="fill: none; stroke: #b0b0b0; stroke-width: 0.8; stroke-linecap: square"/>
     </g>
     <g id="line2d_14">
      <g>
       <use xlink:href="#md4e680d3fe" x="34.240625" y="119.554801" style="stroke: #000000; stroke-width: 0.8"/>
      </g>
     </g>
     <g id="text_8">
      <!-- 6 -->
      <g transform="translate(20.878125 123.35402) scale(0.1 -0.1)">
       <defs>
        <path id="DejaVuSans-36" d="M 2113 2584 
Q 1688 2584 1439 2293 
Q 1191 2003 1191 1497 
Q 1191 994 1439 701 
Q 1688 409 2113 409 
Q 2538 409 2786 701 
Q 3034 994 3034 1497 
Q 3034 2003 2786 2293 
Q 2538 2584 2113 2584 
z
M 3366 4563 
L 3366 3988 
Q 3128 4100 2886 4159 
Q 2644 4219 2406 4219 
Q 1781 4219 1451 3797 
Q 1122 3375 1075 2522 
Q 1259 2794 1537 2939 
Q 1816 3084 2150 3084 
Q 2853 3084 3261 2657 
Q 3669 2231 3669 1497 
Q 3669 778 3244 343 
Q 2819 -91 2113 -91 
Q 1303 -91 875 529 
Q 447 1150 447 2328 
Q 447 3434 972 4092 
Q 1497 4750 2381 4750 
Q 2619 4750 2861 4703 
Q 3103 4656 3366 4563 
z
" transform="scale(0.015625)"/>
       </defs>
       <use xlink:href="#DejaVuSans-36"/>
      </g>
     </g>
    </g>
    <g id="ytick_5">
     <g id="line2d_15">
      <path d="M 34.240625 63.766376 
L 369.040625 63.766376 
" clip-path="url(#p02ee4a2c99)" style="fill: none; stroke: #b0b0b0; stroke-width: 0.8; stroke-linecap: square"/>
     </g>
     <g id="line2d_16">
      <g>
       <use xlink:href="#md4e680d3fe" x="34.240625" y="63.766376" style="stroke: #000000; stroke-width: 0.8"/>
      </g>
     </g>
     <g id="text_9">
      <!-- 8 -->
      <g transform="translate(20.878125 67.565594) scale(0.1 -0.1)">
       <use xlink:href="#DejaVuSans-38"/>
      </g>
     </g>
    </g>
    <g id="text_10">
     <!-- Seconds -->
     <g transform="translate(14.798437 181.925156) rotate(-90) scale(0.1 -0.1)">
      <defs>
       <path id="DejaVuSans-53" d="M 3425 4513 
L 3425 3897 
Q 3066 4069 2747 4153 
Q 2428 4238 2131 4238 
Q 1616 4238 1336 4038 
Q 1056 3838 1056 3469 
Q 1056 3159 1242 3001 
Q 1428 2844 1947 2747 
L 2328 2669 
Q 3034 2534 3370 2195 
Q 3706 1856 3706 1288 
Q 3706 609 3251 259 
Q 2797 -91 1919 -91 
Q 1588 -91 1214 -16 
Q 841 59 441 206 
L 441 856 
Q 825 641 1194 531 
Q 1563 422 1919 422 
Q 2459 422 2753 634 
Q 3047 847 3047 1241 
Q 3047 1584 2836 1778 
Q 2625 1972 2144 2069 
L 1759 2144 
Q 1053 2284 737 2584 
Q 422 2884 422 3419 
Q 422 4038 858 4394 
Q 1294 4750 2059 4750 
Q 2388 4750 2728 4690 
Q 3069 4631 3425 4513 
z
" transform="scale(0.015625)"/>
       <path id="DejaVuSans-6f" d="M 1959 3097 
Q 1497 3097 1228 2736 
Q 959 2375 959 1747 
Q 959 1119 1226 758 
Q 1494 397 1959 397 
Q 2419 397 2687 759 
Q 2956 1122 2956 1747 
Q 2956 2369 2687 2733 
Q 2419 3097 1959 3097 
z
M 1959 3584 
Q 2709 3584 3137 3096 
Q 3566 2609 3566 1747 
Q 3566 888 3137 398 
Q 2709 -91 1959 -91 
Q 1206 -91 779 398 
Q 353 888 353 1747 
Q 353 2609 779 3096 
Q 1206 3584 1959 3584 
z
" transform="scale(0.015625)"/>
       <path id="DejaVuSans-6e" d="M 3513 2113 
L 3513 0 
L 2938 0 
L 2938 2094 
Q 2938 2591 2744 2837 
Q 2550 3084 2163 3084 
Q 1697 3084 1428 2787 
Q 1159 2491 1159 1978 
L 1159 0 
L 581 0 
L 581 3500 
L 1159 3500 
L 1159 2956 
Q 1366 3272 1645 3428 
Q 1925 3584 2291 3584 
Q 2894 3584 3203 3211 
Q 3513 2838 3513 2113 
z
" transform="scale(0.015625)"/>
       <path id="DejaVuSans-64" d="M 2906 2969 
L 2906 4863 
L 3481 4863 
L 3481 0 
L 2906 0 
L 2906 525 
Q 2725 213 2448 61 
Q 2172 -91 1784 -91 
Q 1150 -91 751 415 
Q 353 922 353 1747 
Q 353 2572 751 3078 
Q 1150 3584 1784 3584 
Q 2172 3584 2448 3432 
Q 2725 3281 2906 2969 
z
M 947 1747 
Q 947 1113 1208 752 
Q 1469 391 1925 391 
Q 2381 391 2643 752 
Q 2906 1113 2906 1747 
Q 2906 2381 2643 2742 
Q 2381 3103 1925 3103 
Q 1469 3103 1208 2742 
Q 947 2381 947 1747 
z
" transform="scale(0.015625)"/>
      </defs>
      <use xlink:href="#DejaVuSans-53"/>
      <use xlink:href="#DejaVuSans-65" x="63.476562"/>
      <use xlink:href="#DejaVuSans-63" x="125"/>
      <use xlink:href="#DejaVuSans-6f" x="179.980469"/>
      <use xlink:href="#DejaVuSans-6e" x="241.162109"/>
      <use xlink:href="#DejaVuSans-64" x="304.541016"/>
      <use xlink:href="#DejaVuSans-73" x="368.017578"/>
     </g>
    </g>
    <g id="text_11">
     <!-- 1e6 -->
     <g transform="translate(34.240625 19.318125) scale(0.1 -0.1)">
      <defs>
       <path id="DejaVuSans-31" d="M 794 531 
L 1825 531 
L 1825 4091 
L 703 3866 
L 703 4441 
L 1819 4666 
L 2450 4666 
L 2450 531 
L 3481 531 
L 3481 0 
L 794 0 
L 794 531 
z
" transform="scale(0.015625)"/>
      </defs>
      <use xlink:href="#DejaVuSans-31"/>
      <use xlink:href="#DejaVuSans-65" x="63.623047"/>
      <use xlink:href="#DejaVuSans-36" x="125.146484"/>
     </g>
    </g>
   </g>
   <g id="line2d_17">
    <path d="M 49.458807 286.917623 
L 201.640625 286.91634 
L 353.822443 286.915559 
" clip-path="url(#p02ee4a2c99)" style="fill: none; stroke: #1f77b4; stroke-width: 1.5; stroke-linecap: square"/>
    <defs>
     <path id="ma02597922a" d="M 0 3 
C 0.795609 3 1.55874 2.683901 2.12132 2.12132 
C 2.683901 1.55874 3 0.795609 3 0 
C 3 -0.795609 2.683901 -1.55874 2.12132 -2.12132 
C 1.55874 -2.683901 0.795609 -3 0 -3 
C -0.795609 -3 -1.55874 -2.683901 -2.12132 -2.12132 
C -2.683901 -1.55874 -3 -0.795609 -3 0 
C -3 0.795609 -2.683901 1.55874 -2.12132 2.12132 
C -1.55874 2.683901 -0.795609 3 0 3 
z
" style="stroke: #1f77b4"/>
    </defs>
    <g clip-path="url(#p02ee4a2c99)">
     <use xlink:href="#ma02597922a" x="49.458807" y="286.917623" style="fill: #1f77b4; stroke: #1f77b4"/>
     <use xlink:href="#ma02597922a" x="201.640625" y="286.91634" style="fill: #1f77b4; stroke: #1f77b4"/>
     <use xlink:href="#ma02597922a" x="353.822443" y="286.915559" style="fill: #1f77b4; stroke: #1f77b4"/>
    </g>
   </g>
   <g id="line2d_18">
    <path d="M 49.458807 286.918125 
L 201.640625 286.916981 
L 353.822443 286.916005 
" clip-path="url(#p02ee4a2c99)" style="fill: none; stroke: #ff7f0e; stroke-width: 1.5; stroke-linecap: square"/>
    <defs>
     <path id="m23e90cdc57" d="M 0 3 
C 0.795609 3 1.55874 2.683901 2.12132 2.12132 
C 2.683901 1.55874 3 0.795609 3 0 
C 3 -0.795609 2.683901 -1.55874 2.12132 -2.12132 
C 1.55874 -2.683901 0.795609 -3 0 -3 
C -0.795609 -3 -1.55874 -2.683901 -2.12132 -2.12132 
C -2.683901 -1.55874 -3 -0.795609 -3 0 
C -3 0.795609 -2.683901 1.55874 -2.12132 2.12132 
C -1.55874 2.683901 -0.795609 3 0 3 
z
" style="stroke: #ff7f0e"/>
    </defs>
    <g clip-path="url(#p02ee4a2c99)">
     <use xlink:href="#m23e90cdc57" x="49.458807" y="286.918125" style="fill: #ff7f0e; stroke: #ff7f0e"/>
     <use xlink:href="#m23e90cdc57" x="201.640625" y="286.916981" style="fill: #ff7f0e; stroke: #ff7f0e"/>
     <use xlink:href="#m23e90cdc57" x="353.822443" y="286.916005" style="fill: #ff7f0e; stroke: #ff7f0e"/>
    </g>
   </g>
   <g id="line2d_19">
    <path d="M 49.458807 286.91726 
L 201.640625 286.910928 
L 353.822443 286.912992 
" clip-path="url(#p02ee4a2c99)" style="fill: none; stroke: #2ca02c; stroke-width: 1.5; stroke-linecap: square"/>
    <defs>
     <path id="md40497ef8d" d="M 0 3 
C 0.795609 3 1.55874 2.683901 2.12132 2.12132 
C 2.683901 1.55874 3 0.795609 3 0 
C 3 -0.795609 2.683901 -1.55874 2.12132 -2.12132 
C 1.55874 -2.683901 0.795609 -3 0 -3 
C -0.795609 -3 -1.55874 -2.683901 -2.12132 -2.12132 
C -2.683901 -1.55874 -3 -0.795609 -3 0 
C -3 0.795609 -2.683901 1.55874 -2.12132 2.12132 
C -1.55874 2.683901 -0.795609 3 0 3 
z
" style="stroke: #2ca02c"/>
    </defs>
    <g clip-path="url(#p02ee4a2c99)">
     <use xlink:href="#md40497ef8d" x="49.458807" y="286.91726" style="fill: #2ca02c; stroke: #2ca02c"/>
     <use xlink:href="#md40497ef8d" x="201.640625" y="286.910928" style="fill: #2ca02c; stroke: #2ca02c"/>
     <use xlink:href="#md40497ef8d" x="353.822443" y="286.912992" style="fill: #2ca02c; stroke: #2ca02c"/>
    </g>
   </g>
   <g id="line2d_20">
    <path d="M 49.458807 286.904792 
L 201.640625 286.9056 
L 353.822443 286.896925 
" clip-path="url(#p02ee4a2c99)" style="fill: none; stroke: #d62728; stroke-width: 1.5; stroke-linecap: square"/>
    <defs>
     <path id="m77b96b714c" d="M 0 3 
C 0.795609 3 1.55874 2.683901 2.12132 2.12132 
C 2.683901 1.55874 3 0.795609 3 0 
C 3 -0.795609 2.683901 -1.55874 2.12132 -2.12132 
C 1.55874 -2.683901 0.795609 -3 0 -3 
C -0.795609 -3 -1.55874 -2.683901 -2.12132 -2.12132 
C -2.683901 -1.55874 -3 -0.795609 -3 0 
C -3 0.795609 -2.683901 1.55874 -2.12132 2.12132 
C -1.55874 2.683901 -0.795609 3 0 3 
z
" style="stroke: #d62728"/>
    </defs>
    <g clip-path="url(#p02ee4a2c99)">
     <use xlink:href="#m77b96b714c" x="49.458807" y="286.904792" style="fill: #d62728; stroke: #d62728"/>
     <use xlink:href="#m77b96b714c" x="201.640625" y="286.9056" style="fill: #d62728; stroke: #d62728"/>
     <use xlink:href="#m77b96b714c" x="353.822443" y="286.896925" style="fill: #d62728; stroke: #d62728"/>
    </g>
   </g>
   <g id="line2d_21">
    <path d="M 49.458807 286.911542 
L 201.640625 286.911263 
L 353.822443 286.904429 
" clip-path="url(#p02ee4a2c99)" style="fill: none; stroke: #9467bd; stroke-width: 1.5; stroke-linecap: square"/>
    <defs>
     <path id="m0e9141f9f3" d="M 0 3 
C 0.795609 3 1.55874 2.683901 2.12132 2.12132 
C 2.683901 1.55874 3 0.795609 3 0 
C 3 -0.795609 2.683901 -1.55874 2.12132 -2.12132 
C 1.55874 -2.683901 0.795609 -3 0 -3 
C -0.795609 -3 -1.55874 -2.683901 -2.12132 -2.12132 
C -2.683901 -1.55874 -3 -0.795609 -3 0 
C -3 0.795609 -2.683901 1.55874 -2.12132 2.12132 
C -1.55874 2.683901 -0.795609 3 0 3 
z
" style="stroke: #9467bd"/>
    </defs>
    <g clip-path="url(#p02ee4a2c99)">
     <use xlink:href="#m0e9141f9f3" x="49.458807" y="286.911542" style="fill: #9467bd; stroke: #9467bd"/>
     <use xlink:href="#m0e9141f9f3" x="201.640625" y="286.911263" style="fill: #9467bd; stroke: #9467bd"/>
     <use xlink:href="#m0e9141f9f3" x="353.822443" y="286.904429" style="fill: #9467bd; stroke: #9467bd"/>
    </g>
   </g>
   <g id="line2d_22">
    <path d="M 49.458807 286.905015 
L 201.640625 286.903592 
L 353.822443 286.880942 
" clip-path="url(#p02ee4a2c99)" style="fill: none; stroke: #8c564b; stroke-width: 1.5; stroke-linecap: square"/>
    <defs>
     <path id="m762f9a5c62" d="M 0 3 
C 0.795609 3 1.55874 2.683901 2.12132 2.12132 
C 2.683901 1.55874 3 0.795609 3 0 
C 3 -0.795609 2.683901 -1.55874 2.12132 -2.12132 
C 1.55874 -2.683901 0.795609 -3 0 -3 
C -0.795609 -3 -1.55874 -2.683901 -2.12132 -2.12132 
C -2.683901 -1.55874 -3 -0.795609 -3 0 
C -3 0.795609 -2.683901 1.55874 -2.12132 2.12132 
C -1.55874 2.683901 -0.795609 3 0 3 
z
" style="stroke: #8c564b"/>
    </defs>
    <g clip-path="url(#p02ee4a2c99)">
     <use xlink:href="#m762f9a5c62" x="49.458807" y="286.905015" style="fill: #8c564b; stroke: #8c564b"/>
     <use xlink:href="#m762f9a5c62" x="201.640625" y="286.903592" style="fill: #8c564b; stroke: #8c564b"/>
     <use xlink:href="#m762f9a5c62" x="353.822443" y="286.880942" style="fill: #8c564b; stroke: #8c564b"/>
    </g>
   </g>
   <g id="line2d_23">
    <path d="M 49.458807 286.915726 
L 201.640625 286.913383 
L 353.822443 286.91369 
" clip-path="url(#p02ee4a2c99)" style="fill: none; stroke: #e377c2; stroke-width: 1.5; stroke-linecap: square"/>
    <defs>
     <path id="mf1f5b012f3" d="M 0 3 
C 0.795609 3 1.55874 2.683901 2.12132 2.12132 
C 2.683901 1.55874 3 0.795609 3 0 
C 3 -0.795609 2.683901 -1.55874 2.12132 -2.12132 
C 1.55874 -2.683901 0.795609 -3 0 -3 
C -0.795609 -3 -1.55874 -2.683901 -2.12132 -2.12132 
C -2.683901 -1.55874 -3 -0.795609 -3 0 
C -3 0.795609 -2.683901 1.55874 -2.12132 2.12132 
C -1.55874 2.683901 -0.795609 3 0 3 
z
" style="stroke: #e377c2"/>
    </defs>
    <g clip-path="url(#p02ee4a2c99)">
     <use xlink:href="#mf1f5b012f3" x="49.458807" y="286.915726" style="fill: #e377c2; stroke: #e377c2"/>
     <use xlink:href="#mf1f5b012f3" x="201.640625" y="286.913383" style="fill: #e377c2; stroke: #e377c2"/>
     <use xlink:href="#mf1f5b012f3" x="353.822443" y="286.91369" style="fill: #e377c2; stroke: #e377c2"/>
    </g>
   </g>
   <g id="line2d_24">
    <path d="M 49.458807 286.89991 
L 201.640625 286.898599 
L 353.822443 286.894108 
" clip-path="url(#p02ee4a2c99)" style="fill: none; stroke: #7f7f7f; stroke-width: 1.5; stroke-linecap: square"/>
    <defs>
     <path id="m93ac7f627b" d="M 0 3 
C 0.795609 3 1.55874 2.683901 2.12132 2.12132 
C 2.683901 1.55874 3 0.795609 3 0 
C 3 -0.795609 2.683901 -1.55874 2.12132 -2.12132 
C 1.55874 -2.683901 0.795609 -3 0 -3 
C -0.795609 -3 -1.55874 -2.683901 -2.12132 -2.12132 
C -2.683901 -1.55874 -3 -0.795609 -3 0 
C -3 0.795609 -2.683901 1.55874 -2.12132 2.12132 
C -1.55874 2.683901 -0.795609 3 0 3 
z
" style="stroke: #7f7f7f"/>
    </defs>
    <g clip-path="url(#p02ee4a2c99)">
     <use xlink:href="#m93ac7f627b" x="49.458807" y="286.89991" style="fill: #7f7f7f; stroke: #7f7f7f"/>
     <use xlink:href="#m93ac7f627b" x="201.640625" y="286.898599" style="fill: #7f7f7f; stroke: #7f7f7f"/>
     <use xlink:href="#m93ac7f627b" x="353.822443" y="286.894108" style="fill: #7f7f7f; stroke: #7f7f7f"/>
    </g>
   </g>
   <g id="line2d_25">
    <path d="M 49.458807 276.462705 
L 201.640625 230.593238 
L 353.822443 162.598026 
" clip-path="url(#p02ee4a2c99)" style="fill: none; stroke: #bcbd22; stroke-width: 1.5; stroke-linecap: square"/>
    <defs>
     <path id="me1fa3ba44b" d="M 0 3 
C 0.795609 3 1.55874 2.683901 2.12132 2.12132 
C 2.683901 1.55874 3 0.795609 3 0 
C 3 -0.795609 2.683901 -1.55874 2.12132 -2.12132 
C 1.55874 -2.683901 0.795609 -3 0 -3 
C -0.795609 -3 -1.55874 -2.683901 -2.12132 -2.12132 
C -2.683901 -1.55874 -3 -0.795609 -3 0 
C -3 0.795609 -2.683901 1.55874 -2.12132 2.12132 
C -1.55874 2.683901 -0.795609 3 0 3 
z
" style="stroke: #bcbd22"/>
    </defs>
    <g clip-path="url(#p02ee4a2c99)">
     <use xlink:href="#me1fa3ba44b" x="49.458807" y="276.462705" style="fill: #bcbd22; stroke: #bcbd22"/>
     <use xlink:href="#me1fa3ba44b" x="201.640625" y="230.593238" style="fill: #bcbd22; stroke: #bcbd22"/>
     <use xlink:href="#me1fa3ba44b" x="353.822443" y="162.598026" style="fill: #bcbd22; stroke: #bcbd22"/>
    </g>
   </g>
   <g id="line2d_26">
    <path d="M 49.458807 275.310729 
L 201.640625 196.191891 
L 353.822443 34.918125 
" clip-path="url(#p02ee4a2c99)" style="fill: none; stroke: #17becf; stroke-width: 1.5; stroke-linecap: square"/>
    <defs>
     <path id="mbfe41adb38" d="M 0 3 
C 0.795609 3 1.55874 2.683901 2.12132 2.12132 
C 2.683901 1.55874 3 0.795609 3 0 
C 3 -0.795609 2.683901 -1.55874 2.12132 -2.12132 
C 1.55874 -2.683901 0.795609 -3 0 -3 
C -0.795609 -3 -1.55874 -2.683901 -2.12132 -2.12132 
C -2.683901 -1.55874 -3 -0.795609 -3 0 
C -3 0.795609 -2.683901 1.55874 -2.12132 2.12132 
C -1.55874 2.683901 -0.795609 3 0 3 
z
" style="stroke: #17becf"/>
    </defs>
    <g clip-path="url(#p02ee4a2c99)">
     <use xlink:href="#mbfe41adb38" x="49.458807" y="275.310729" style="fill: #17becf; stroke: #17becf"/>
     <use xlink:href="#mbfe41adb38" x="201.640625" y="196.191891" style="fill: #17becf; stroke: #17becf"/>
     <use xlink:href="#mbfe41adb38" x="353.822443" y="34.918125" style="fill: #17becf; stroke: #17becf"/>
    </g>
   </g>
   <g id="line2d_27">
    <path d="M 49.458807 281.573678 
L 201.640625 250.47587 
L 353.822443 190.224371 
" clip-path="url(#p02ee4a2c99)" style="fill: none; stroke: #1f77b4; stroke-width: 1.5; stroke-linecap: square"/>
    <g clip-path="url(#p02ee4a2c99)">
     <use xlink:href="#ma02597922a" x="49.458807" y="281.573678" style="fill: #1f77b4; stroke: #1f77b4"/>
     <use xlink:href="#ma02597922a" x="201.640625" y="250.47587" style="fill: #1f77b4; stroke: #1f77b4"/>
     <use xlink:href="#ma02597922a" x="353.822443" y="190.224371" style="fill: #1f77b4; stroke: #1f77b4"/>
    </g>
   </g>
   <g id="line2d_28">
    <path d="M 49.458807 277.090575 
L 201.640625 221.389068 
L 353.822443 60.875615 
" clip-path="url(#p02ee4a2c99)" style="fill: none; stroke: #ff7f0e; stroke-width: 1.5; stroke-linecap: square"/>
    <g clip-path="url(#p02ee4a2c99)">
     <use xlink:href="#m23e90cdc57" x="49.458807" y="277.090575" style="fill: #ff7f0e; stroke: #ff7f0e"/>
     <use xlink:href="#m23e90cdc57" x="201.640625" y="221.389068" style="fill: #ff7f0e; stroke: #ff7f0e"/>
     <use xlink:href="#m23e90cdc57" x="353.822443" y="60.875615" style="fill: #ff7f0e; stroke: #ff7f0e"/>
    </g>
   </g>
   <g id="line2d_29">
    <path d="M 49.458807 269.528538 
L 201.640625 233.043326 
L 353.822443 206.423795 
" clip-path="url(#p02ee4a2c99)" style="fill: none; stroke: #2ca02c; stroke-width: 1.5; stroke-linecap: square"/>
    <g clip-path="url(#p02ee4a2c99)">
     <use xlink:href="#md40497ef8d" x="49.458807" y="269.528538" style="fill: #2ca02c; stroke: #2ca02c"/>
     <use xlink:href="#md40497ef8d" x="201.640625" y="233.043326" style="fill: #2ca02c; stroke: #2ca02c"/>
     <use xlink:href="#md40497ef8d" x="353.822443" y="206.423795" style="fill: #2ca02c; stroke: #2ca02c"/>
    </g>
   </g>
   <g id="line2d_30">
    <path d="M 49.458807 268.143507 
L 201.640625 245.820438 
L 353.822443 200.949054 
" clip-path="url(#p02ee4a2c99)" style="fill: none; stroke: #d62728; stroke-width: 1.5; stroke-linecap: square"/>
    <g clip-path="url(#p02ee4a2c99)">
     <use xlink:href="#m77b96b714c" x="49.458807" y="268.143507" style="fill: #d62728; stroke: #d62728"/>
     <use xlink:href="#m77b96b714c" x="201.640625" y="245.820438" style="fill: #d62728; stroke: #d62728"/>
     <use xlink:href="#m77b96b714c" x="353.822443" y="200.949054" style="fill: #d62728; stroke: #d62728"/>
    </g>
   </g>
   <g id="line2d_31">
    <path d="M 49.458807 268.547889 
L 201.640625 242.692743 
L 353.822443 208.848807 
" clip-path="url(#p02ee4a2c99)" style="fill: none; stroke: #9467bd; stroke-width: 1.5; stroke-linecap: square"/>
    <g clip-path="url(#p02ee4a2c99)">
     <use xlink:href="#m0e9141f9f3" x="49.458807" y="268.547889" style="fill: #9467bd; stroke: #9467bd"/>
     <use xlink:href="#m0e9141f9f3" x="201.640625" y="242.692743" style="fill: #9467bd; stroke: #9467bd"/>
     <use xlink:href="#m0e9141f9f3" x="353.822443" y="208.848807" style="fill: #9467bd; stroke: #9467bd"/>
    </g>
   </g>
   <g id="line2d_32">
    <path d="M 49.458807 276.19241 
L 201.640625 260.976228 
L 353.822443 243.909963 
" clip-path="url(#p02ee4a2c99)" style="fill: none; stroke: #8c564b; stroke-width: 1.5; stroke-linecap: square"/>
    <g clip-path="url(#p02ee4a2c99)">
     <use xlink:href="#m762f9a5c62" x="49.458807" y="276.19241" style="fill: #8c564b; stroke: #8c564b"/>
     <use xlink:href="#m762f9a5c62" x="201.640625" y="260.976228" style="fill: #8c564b; stroke: #8c564b"/>
     <use xlink:href="#m762f9a5c62" x="353.822443" y="243.909963" style="fill: #8c564b; stroke: #8c564b"/>
    </g>
   </g>
   <g id="patch_3">
    <path d="M 34.240625 299.518125 
L 34.240625 22.318125 
" style="fill: none; stroke: #000000; stroke-width: 0.8; stroke-linejoin: miter; stroke-linecap: square"/>
   </g>
   <g id="patch_4">
    <path d="M 369.040625 299.518125 
L 369.040625 22.318125 
" style="fill: none; stroke: #000000; stroke-width: 0.8; stroke-linejoin: miter; stroke-linecap: square"/>
   </g>
   <g id="patch_5">
    <path d="M 34.240625 299.518125 
L 369.040625 299.518125 
" style="fill: none; stroke: #000000; stroke-width: 0.8; stroke-linejoin: miter; stroke-linecap: square"/>
   </g>
   <g id="patch_6">
    <path d="M 34.240625 22.318125 
L 369.040625 22.318125 
" style="fill: none; stroke: #000000; stroke-width: 0.8; stroke-linejoin: miter; stroke-linecap: square"/>
   </g>
   <g id="text_12">
    <!-- Seconds per Traces for P2P -->
    <g transform="translate(120.494375 16.318125) scale(0.12 -0.12)">
     <defs>
      <path id="DejaVuSans-20" transform="scale(0.015625)"/>
      <path id="DejaVuSans-70" d="M 1159 525 
L 1159 -1331 
L 581 -1331 
L 581 3500 
L 1159 3500 
L 1159 2969 
Q 1341 3281 1617 3432 
Q 1894 3584 2278 3584 
Q 2916 3584 3314 3078 
Q 3713 2572 3713 1747 
Q 3713 922 3314 415 
Q 2916 -91 2278 -91 
Q 1894 -91 1617 61 
Q 1341 213 1159 525 
z
M 3116 1747 
Q 3116 2381 2855 2742 
Q 2594 3103 2138 3103 
Q 1681 3103 1420 2742 
Q 1159 2381 1159 1747 
Q 1159 1113 1420 752 
Q 1681 391 2138 391 
Q 2594 391 2855 752 
Q 3116 1113 3116 1747 
z
" transform="scale(0.015625)"/>
      <path id="DejaVuSans-66" d="M 2375 4863 
L 2375 4384 
L 1825 4384 
Q 1516 4384 1395 4259 
Q 1275 4134 1275 3809 
L 1275 3500 
L 2222 3500 
L 2222 3053 
L 1275 3053 
L 1275 0 
L 697 0 
L 697 3053 
L 147 3053 
L 147 3500 
L 697 3500 
L 697 3744 
Q 697 4328 969 4595 
Q 1241 4863 1831 4863 
L 2375 4863 
z
" transform="scale(0.015625)"/>
      <path id="DejaVuSans-50" d="M 1259 4147 
L 1259 2394 
L 2053 2394 
Q 2494 2394 2734 2622 
Q 2975 2850 2975 3272 
Q 2975 3691 2734 3919 
Q 2494 4147 2053 4147 
L 1259 4147 
z
M 628 4666 
L 2053 4666 
Q 2838 4666 3239 4311 
Q 3641 3956 3641 3272 
Q 3641 2581 3239 2228 
Q 2838 1875 2053 1875 
L 1259 1875 
L 1259 0 
L 628 0 
L 628 4666 
z
" transform="scale(0.015625)"/>
     </defs>
     <use xlink:href="#DejaVuSans-53"/>
     <use xlink:href="#DejaVuSans-65" x="63.476562"/>
     <use xlink:href="#DejaVuSans-63" x="125"/>
     <use xlink:href="#DejaVuSans-6f" x="179.980469"/>
     <use xlink:href="#DejaVuSans-6e" x="241.162109"/>
     <use xlink:href="#DejaVuSans-64" x="304.541016"/>
     <use xlink:href="#DejaVuSans-73" x="368.017578"/>
     <use xlink:href="#DejaVuSans-20" x="420.117188"/>
     <use xlink:href="#DejaVuSans-70" x="451.904297"/>
     <use xlink:href="#DejaVuSans-65" x="515.380859"/>
     <use xlink:href="#DejaVuSans-72" x="576.904297"/>
     <use xlink:href="#DejaVuSans-20" x="618.017578"/>
     <use xlink:href="#DejaVuSans-54" x="649.804688"/>
     <use xlink:href="#DejaVuSans-72" x="696.138672"/>
     <use xlink:href="#DejaVuSans-61" x="737.251953"/>
     <use xlink:href="#DejaVuSans-63" x="798.53125"/>
     <use xlink:href="#DejaVuSans-65" x="853.511719"/>
     <use xlink:href="#DejaVuSans-73" x="915.035156"/>
     <use xlink:href="#DejaVuSans-20" x="967.134766"/>
     <use xlink:href="#DejaVuSans-66" x="998.921875"/>
     <use xlink:href="#DejaVuSans-6f" x="1034.126953"/>
     <use xlink:href="#DejaVuSans-72" x="1095.308594"/>
     <use xlink:href="#DejaVuSans-20" x="1136.421875"/>
     <use xlink:href="#DejaVuSans-50" x="1168.208984"/>
     <use xlink:href="#DejaVuSans-32" x="1228.511719"/>
     <use xlink:href="#DejaVuSans-50" x="1292.134766"/>
    </g>
   </g>
   <g id="legend_1">
    <g id="patch_7">
     <path d="M 376.040625 279.843125 
L 531.126563 279.843125 
Q 533.126563 279.843125 533.126563 277.843125 
L 533.126563 43.993125 
Q 533.126563 41.993125 531.126563 41.993125 
L 376.040625 41.993125 
Q 374.040625 41.993125 374.040625 43.993125 
L 374.040625 277.843125 
Q 374.040625 279.843125 376.040625 279.843125 
z
" style="fill: #ffffff; opacity: 0.8; stroke: #cccccc; stroke-linejoin: miter"/>
    </g>
    <g id="line2d_33">
     <path d="M 378.040625 50.091563 
L 388.040625 50.091563 
L 398.040625 50.091563 
" style="fill: none; stroke: #1f77b4; stroke-width: 1.5; stroke-linecap: square"/>
     <g>
      <use xlink:href="#ma02597922a" x="388.040625" y="50.091563" style="fill: #1f77b4; stroke: #1f77b4"/>
     </g>
    </g>
    <g id="text_13">
     <!-- Baseline OCPA -->
     <g transform="translate(406.040625 53.591563) scale(0.1 -0.1)">
      <defs>
       <path id="DejaVuSans-42" d="M 1259 2228 
L 1259 519 
L 2272 519 
Q 2781 519 3026 730 
Q 3272 941 3272 1375 
Q 3272 1813 3026 2020 
Q 2781 2228 2272 2228 
L 1259 2228 
z
M 1259 4147 
L 1259 2741 
L 2194 2741 
Q 2656 2741 2882 2914 
Q 3109 3088 3109 3444 
Q 3109 3797 2882 3972 
Q 2656 4147 2194 4147 
L 1259 4147 
z
M 628 4666 
L 2241 4666 
Q 2963 4666 3353 4366 
Q 3744 4066 3744 3513 
Q 3744 3084 3544 2831 
Q 3344 2578 2956 2516 
Q 3422 2416 3680 2098 
Q 3938 1781 3938 1306 
Q 3938 681 3513 340 
Q 3088 0 2303 0 
L 628 0 
L 628 4666 
z
" transform="scale(0.015625)"/>
       <path id="DejaVuSans-6c" d="M 603 4863 
L 1178 4863 
L 1178 0 
L 603 0 
L 603 4863 
z
" transform="scale(0.015625)"/>
       <path id="DejaVuSans-69" d="M 603 3500 
L 1178 3500 
L 1178 0 
L 603 0 
L 603 3500 
z
M 603 4863 
L 1178 4863 
L 1178 4134 
L 603 4134 
L 603 4863 
z
" transform="scale(0.015625)"/>
       <path id="DejaVuSans-4f" d="M 2522 4238 
Q 1834 4238 1429 3725 
Q 1025 3213 1025 2328 
Q 1025 1447 1429 934 
Q 1834 422 2522 422 
Q 3209 422 3611 934 
Q 4013 1447 4013 2328 
Q 4013 3213 3611 3725 
Q 3209 4238 2522 4238 
z
M 2522 4750 
Q 3503 4750 4090 4092 
Q 4678 3434 4678 2328 
Q 4678 1225 4090 567 
Q 3503 -91 2522 -91 
Q 1538 -91 948 565 
Q 359 1222 359 2328 
Q 359 3434 948 4092 
Q 1538 4750 2522 4750 
z
" transform="scale(0.015625)"/>
       <path id="DejaVuSans-43" d="M 4122 4306 
L 4122 3641 
Q 3803 3938 3442 4084 
Q 3081 4231 2675 4231 
Q 1875 4231 1450 3742 
Q 1025 3253 1025 2328 
Q 1025 1406 1450 917 
Q 1875 428 2675 428 
Q 3081 428 3442 575 
Q 3803 722 4122 1019 
L 4122 359 
Q 3791 134 3420 21 
Q 3050 -91 2638 -91 
Q 1578 -91 968 557 
Q 359 1206 359 2328 
Q 359 3453 968 4101 
Q 1578 4750 2638 4750 
Q 3056 4750 3426 4639 
Q 3797 4528 4122 4306 
z
" transform="scale(0.015625)"/>
       <path id="DejaVuSans-41" d="M 2188 4044 
L 1331 1722 
L 3047 1722 
L 2188 4044 
z
M 1831 4666 
L 2547 4666 
L 4325 0 
L 3669 0 
L 3244 1197 
L 1141 1197 
L 716 0 
L 50 0 
L 1831 4666 
z
" transform="scale(0.015625)"/>
      </defs>
      <use xlink:href="#DejaVuSans-42"/>
      <use xlink:href="#DejaVuSans-61" x="68.603516"/>
      <use xlink:href="#DejaVuSans-73" x="129.882812"/>
      <use xlink:href="#DejaVuSans-65" x="181.982422"/>
      <use xlink:href="#DejaVuSans-6c" x="243.505859"/>
      <use xlink:href="#DejaVuSans-69" x="271.289062"/>
      <use xlink:href="#DejaVuSans-6e" x="299.072266"/>
      <use xlink:href="#DejaVuSans-65" x="362.451172"/>
      <use xlink:href="#DejaVuSans-20" x="423.974609"/>
      <use xlink:href="#DejaVuSans-4f" x="455.761719"/>
      <use xlink:href="#DejaVuSans-43" x="534.472656"/>
      <use xlink:href="#DejaVuSans-50" x="604.296875"/>
      <use xlink:href="#DejaVuSans-41" x="658.224609"/>
     </g>
    </g>
    <g id="line2d_34">
     <path d="M 378.040625 64.769688 
L 388.040625 64.769688 
L 398.040625 64.769688 
" style="fill: none; stroke: #ff7f0e; stroke-width: 1.5; stroke-linecap: square"/>
     <g>
      <use xlink:href="#m23e90cdc57" x="388.040625" y="64.769688" style="fill: #ff7f0e; stroke: #ff7f0e"/>
     </g>
    </g>
    <g id="text_14">
     <!-- Baseline Happy Path -->
     <g transform="translate(406.040625 68.269688) scale(0.1 -0.1)">
      <defs>
       <path id="DejaVuSans-48" d="M 628 4666 
L 1259 4666 
L 1259 2753 
L 3553 2753 
L 3553 4666 
L 4184 4666 
L 4184 0 
L 3553 0 
L 3553 2222 
L 1259 2222 
L 1259 0 
L 628 0 
L 628 4666 
z
" transform="scale(0.015625)"/>
       <path id="DejaVuSans-79" d="M 2059 -325 
Q 1816 -950 1584 -1140 
Q 1353 -1331 966 -1331 
L 506 -1331 
L 506 -850 
L 844 -850 
Q 1081 -850 1212 -737 
Q 1344 -625 1503 -206 
L 1606 56 
L 191 3500 
L 800 3500 
L 1894 763 
L 2988 3500 
L 3597 3500 
L 2059 -325 
z
" transform="scale(0.015625)"/>
       <path id="DejaVuSans-74" d="M 1172 4494 
L 1172 3500 
L 2356 3500 
L 2356 3053 
L 1172 3053 
L 1172 1153 
Q 1172 725 1289 603 
Q 1406 481 1766 481 
L 2356 481 
L 2356 0 
L 1766 0 
Q 1100 0 847 248 
Q 594 497 594 1153 
L 594 3053 
L 172 3053 
L 172 3500 
L 594 3500 
L 594 4494 
L 1172 4494 
z
" transform="scale(0.015625)"/>
       <path id="DejaVuSans-68" d="M 3513 2113 
L 3513 0 
L 2938 0 
L 2938 2094 
Q 2938 2591 2744 2837 
Q 2550 3084 2163 3084 
Q 1697 3084 1428 2787 
Q 1159 2491 1159 1978 
L 1159 0 
L 581 0 
L 581 4863 
L 1159 4863 
L 1159 2956 
Q 1366 3272 1645 3428 
Q 1925 3584 2291 3584 
Q 2894 3584 3203 3211 
Q 3513 2838 3513 2113 
z
" transform="scale(0.015625)"/>
      </defs>
      <use xlink:href="#DejaVuSans-42"/>
      <use xlink:href="#DejaVuSans-61" x="68.603516"/>
      <use xlink:href="#DejaVuSans-73" x="129.882812"/>
      <use xlink:href="#DejaVuSans-65" x="181.982422"/>
      <use xlink:href="#DejaVuSans-6c" x="243.505859"/>
      <use xlink:href="#DejaVuSans-69" x="271.289062"/>
      <use xlink:href="#DejaVuSans-6e" x="299.072266"/>
      <use xlink:href="#DejaVuSans-65" x="362.451172"/>
      <use xlink:href="#DejaVuSans-20" x="423.974609"/>
      <use xlink:href="#DejaVuSans-48" x="455.761719"/>
      <use xlink:href="#DejaVuSans-61" x="530.957031"/>
      <use xlink:href="#DejaVuSans-70" x="592.236328"/>
      <use xlink:href="#DejaVuSans-70" x="655.712891"/>
      <use xlink:href="#DejaVuSans-79" x="719.189453"/>
      <use xlink:href="#DejaVuSans-20" x="778.369141"/>
      <use xlink:href="#DejaVuSans-50" x="810.15625"/>
      <use xlink:href="#DejaVuSans-61" x="865.958984"/>
      <use xlink:href="#DejaVuSans-74" x="927.238281"/>
      <use xlink:href="#DejaVuSans-68" x="966.447266"/>
     </g>
    </g>
    <g id="line2d_35">
     <path d="M 378.040625 79.447813 
L 388.040625 79.447813 
L 398.040625 79.447813 
" style="fill: none; stroke: #2ca02c; stroke-width: 1.5; stroke-linecap: square"/>
     <g>
      <use xlink:href="#md40497ef8d" x="388.040625" y="79.447813" style="fill: #2ca02c; stroke: #2ca02c"/>
     </g>
    </g>
    <g id="text_15">
     <!-- Baseline Flower -->
     <g transform="translate(406.040625 82.947813) scale(0.1 -0.1)">
      <defs>
       <path id="DejaVuSans-46" d="M 628 4666 
L 3309 4666 
L 3309 4134 
L 1259 4134 
L 1259 2759 
L 3109 2759 
L 3109 2228 
L 1259 2228 
L 1259 0 
L 628 0 
L 628 4666 
z
" transform="scale(0.015625)"/>
       <path id="DejaVuSans-77" d="M 269 3500 
L 844 3500 
L 1563 769 
L 2278 3500 
L 2956 3500 
L 3675 769 
L 4391 3500 
L 4966 3500 
L 4050 0 
L 3372 0 
L 2619 2869 
L 1863 0 
L 1184 0 
L 269 3500 
z
" transform="scale(0.015625)"/>
      </defs>
      <use xlink:href="#DejaVuSans-42"/>
      <use xlink:href="#DejaVuSans-61" x="68.603516"/>
      <use xlink:href="#DejaVuSans-73" x="129.882812"/>
      <use xlink:href="#DejaVuSans-65" x="181.982422"/>
      <use xlink:href="#DejaVuSans-6c" x="243.505859"/>
      <use xlink:href="#DejaVuSans-69" x="271.289062"/>
      <use xlink:href="#DejaVuSans-6e" x="299.072266"/>
      <use xlink:href="#DejaVuSans-65" x="362.451172"/>
      <use xlink:href="#DejaVuSans-20" x="423.974609"/>
      <use xlink:href="#DejaVuSans-46" x="455.761719"/>
      <use xlink:href="#DejaVuSans-6c" x="513.28125"/>
      <use xlink:href="#DejaVuSans-6f" x="541.064453"/>
      <use xlink:href="#DejaVuSans-77" x="602.246094"/>
      <use xlink:href="#DejaVuSans-65" x="684.033203"/>
      <use xlink:href="#DejaVuSans-72" x="745.556641"/>
     </g>
    </g>
    <g id="line2d_36">
     <path d="M 378.040625 94.125938 
L 388.040625 94.125938 
L 398.040625 94.125938 
" style="fill: none; stroke: #d62728; stroke-width: 1.5; stroke-linecap: square"/>
     <g>
      <use xlink:href="#m77b96b714c" x="388.040625" y="94.125938" style="fill: #d62728; stroke: #d62728"/>
     </g>
    </g>
    <g id="text_16">
     <!-- Baseline Variant Model -->
     <g transform="translate(406.040625 97.625938) scale(0.1 -0.1)">
      <defs>
       <path id="DejaVuSans-56" d="M 1831 0 
L 50 4666 
L 709 4666 
L 2188 738 
L 3669 4666 
L 4325 4666 
L 2547 0 
L 1831 0 
z
" transform="scale(0.015625)"/>
       <path id="DejaVuSans-4d" d="M 628 4666 
L 1569 4666 
L 2759 1491 
L 3956 4666 
L 4897 4666 
L 4897 0 
L 4281 0 
L 4281 4097 
L 3078 897 
L 2444 897 
L 1241 4097 
L 1241 0 
L 628 0 
L 628 4666 
z
" transform="scale(0.015625)"/>
      </defs>
      <use xlink:href="#DejaVuSans-42"/>
      <use xlink:href="#DejaVuSans-61" x="68.603516"/>
      <use xlink:href="#DejaVuSans-73" x="129.882812"/>
      <use xlink:href="#DejaVuSans-65" x="181.982422"/>
      <use xlink:href="#DejaVuSans-6c" x="243.505859"/>
      <use xlink:href="#DejaVuSans-69" x="271.289062"/>
      <use xlink:href="#DejaVuSans-6e" x="299.072266"/>
      <use xlink:href="#DejaVuSans-65" x="362.451172"/>
      <use xlink:href="#DejaVuSans-20" x="423.974609"/>
      <use xlink:href="#DejaVuSans-56" x="455.761719"/>
      <use xlink:href="#DejaVuSans-61" x="516.419922"/>
      <use xlink:href="#DejaVuSans-72" x="577.699219"/>
      <use xlink:href="#DejaVuSans-69" x="618.8125"/>
      <use xlink:href="#DejaVuSans-61" x="646.595703"/>
      <use xlink:href="#DejaVuSans-6e" x="707.875"/>
      <use xlink:href="#DejaVuSans-74" x="771.253906"/>
      <use xlink:href="#DejaVuSans-20" x="810.462891"/>
      <use xlink:href="#DejaVuSans-4d" x="842.25"/>
      <use xlink:href="#DejaVuSans-6f" x="928.529297"/>
      <use xlink:href="#DejaVuSans-64" x="989.710938"/>
      <use xlink:href="#DejaVuSans-65" x="1053.1875"/>
      <use xlink:href="#DejaVuSans-6c" x="1114.710938"/>
     </g>
    </g>
    <g id="line2d_37">
     <path d="M 378.040625 108.804063 
L 388.040625 108.804063 
L 398.040625 108.804063 
" style="fill: none; stroke: #9467bd; stroke-width: 1.5; stroke-linecap: square"/>
     <g>
      <use xlink:href="#m0e9141f9f3" x="388.040625" y="108.804063" style="fill: #9467bd; stroke: #9467bd"/>
     </g>
    </g>
    <g id="text_17">
     <!-- Alignment OCPA -->
     <g transform="translate(406.040625 112.304063) scale(0.1 -0.1)">
      <defs>
       <path id="DejaVuSans-67" d="M 2906 1791 
Q 2906 2416 2648 2759 
Q 2391 3103 1925 3103 
Q 1463 3103 1205 2759 
Q 947 2416 947 1791 
Q 947 1169 1205 825 
Q 1463 481 1925 481 
Q 2391 481 2648 825 
Q 2906 1169 2906 1791 
z
M 3481 434 
Q 3481 -459 3084 -895 
Q 2688 -1331 1869 -1331 
Q 1566 -1331 1297 -1286 
Q 1028 -1241 775 -1147 
L 775 -588 
Q 1028 -725 1275 -790 
Q 1522 -856 1778 -856 
Q 2344 -856 2625 -561 
Q 2906 -266 2906 331 
L 2906 616 
Q 2728 306 2450 153 
Q 2172 0 1784 0 
Q 1141 0 747 490 
Q 353 981 353 1791 
Q 353 2603 747 3093 
Q 1141 3584 1784 3584 
Q 2172 3584 2450 3431 
Q 2728 3278 2906 2969 
L 2906 3500 
L 3481 3500 
L 3481 434 
z
" transform="scale(0.015625)"/>
       <path id="DejaVuSans-6d" d="M 3328 2828 
Q 3544 3216 3844 3400 
Q 4144 3584 4550 3584 
Q 5097 3584 5394 3201 
Q 5691 2819 5691 2113 
L 5691 0 
L 5113 0 
L 5113 2094 
Q 5113 2597 4934 2840 
Q 4756 3084 4391 3084 
Q 3944 3084 3684 2787 
Q 3425 2491 3425 1978 
L 3425 0 
L 2847 0 
L 2847 2094 
Q 2847 2600 2669 2842 
Q 2491 3084 2119 3084 
Q 1678 3084 1418 2786 
Q 1159 2488 1159 1978 
L 1159 0 
L 581 0 
L 581 3500 
L 1159 3500 
L 1159 2956 
Q 1356 3278 1631 3431 
Q 1906 3584 2284 3584 
Q 2666 3584 2933 3390 
Q 3200 3197 3328 2828 
z
" transform="scale(0.015625)"/>
      </defs>
      <use xlink:href="#DejaVuSans-41"/>
      <use xlink:href="#DejaVuSans-6c" x="68.408203"/>
      <use xlink:href="#DejaVuSans-69" x="96.191406"/>
      <use xlink:href="#DejaVuSans-67" x="123.974609"/>
      <use xlink:href="#DejaVuSans-6e" x="187.451172"/>
      <use xlink:href="#DejaVuSans-6d" x="250.830078"/>
      <use xlink:href="#DejaVuSans-65" x="348.242188"/>
      <use xlink:href="#DejaVuSans-6e" x="409.765625"/>
      <use xlink:href="#DejaVuSans-74" x="473.144531"/>
      <use xlink:href="#DejaVuSans-20" x="512.353516"/>
      <use xlink:href="#DejaVuSans-4f" x="544.140625"/>
      <use xlink:href="#DejaVuSans-43" x="622.851562"/>
      <use xlink:href="#DejaVuSans-50" x="692.675781"/>
      <use xlink:href="#DejaVuSans-41" x="746.603516"/>
     </g>
    </g>
    <g id="line2d_38">
     <path d="M 378.040625 123.482188 
L 388.040625 123.482188 
L 398.040625 123.482188 
" style="fill: none; stroke: #8c564b; stroke-width: 1.5; stroke-linecap: square"/>
     <g>
      <use xlink:href="#m762f9a5c62" x="388.040625" y="123.482188" style="fill: #8c564b; stroke: #8c564b"/>
     </g>
    </g>
    <g id="text_18">
     <!-- Alignment Happy Path -->
     <g transform="translate(406.040625 126.982188) scale(0.1 -0.1)">
      <use xlink:href="#DejaVuSans-41"/>
      <use xlink:href="#DejaVuSans-6c" x="68.408203"/>
      <use xlink:href="#DejaVuSans-69" x="96.191406"/>
      <use xlink:href="#DejaVuSans-67" x="123.974609"/>
      <use xlink:href="#DejaVuSans-6e" x="187.451172"/>
      <use xlink:href="#DejaVuSans-6d" x="250.830078"/>
      <use xlink:href="#DejaVuSans-65" x="348.242188"/>
      <use xlink:href="#DejaVuSans-6e" x="409.765625"/>
      <use xlink:href="#DejaVuSans-74" x="473.144531"/>
      <use xlink:href="#DejaVuSans-20" x="512.353516"/>
      <use xlink:href="#DejaVuSans-48" x="544.140625"/>
      <use xlink:href="#DejaVuSans-61" x="619.335938"/>
      <use xlink:href="#DejaVuSans-70" x="680.615234"/>
      <use xlink:href="#DejaVuSans-70" x="744.091797"/>
      <use xlink:href="#DejaVuSans-79" x="807.568359"/>
      <use xlink:href="#DejaVuSans-20" x="866.748047"/>
      <use xlink:href="#DejaVuSans-50" x="898.535156"/>
      <use xlink:href="#DejaVuSans-61" x="954.337891"/>
      <use xlink:href="#DejaVuSans-74" x="1015.617188"/>
      <use xlink:href="#DejaVuSans-68" x="1054.826172"/>
     </g>
    </g>
    <g id="line2d_39">
     <path d="M 378.040625 138.160313 
L 388.040625 138.160313 
L 398.040625 138.160313 
" style="fill: none; stroke: #e377c2; stroke-width: 1.5; stroke-linecap: square"/>
     <g>
      <use xlink:href="#mf1f5b012f3" x="388.040625" y="138.160313" style="fill: #e377c2; stroke: #e377c2"/>
     </g>
    </g>
    <g id="text_19">
     <!-- Alignment Flower -->
     <g transform="translate(406.040625 141.660313) scale(0.1 -0.1)">
      <use xlink:href="#DejaVuSans-41"/>
      <use xlink:href="#DejaVuSans-6c" x="68.408203"/>
      <use xlink:href="#DejaVuSans-69" x="96.191406"/>
      <use xlink:href="#DejaVuSans-67" x="123.974609"/>
      <use xlink:href="#DejaVuSans-6e" x="187.451172"/>
      <use xlink:href="#DejaVuSans-6d" x="250.830078"/>
      <use xlink:href="#DejaVuSans-65" x="348.242188"/>
      <use xlink:href="#DejaVuSans-6e" x="409.765625"/>
      <use xlink:href="#DejaVuSans-74" x="473.144531"/>
      <use xlink:href="#DejaVuSans-20" x="512.353516"/>
      <use xlink:href="#DejaVuSans-46" x="544.140625"/>
      <use xlink:href="#DejaVuSans-6c" x="601.660156"/>
      <use xlink:href="#DejaVuSans-6f" x="629.443359"/>
      <use xlink:href="#DejaVuSans-77" x="690.625"/>
      <use xlink:href="#DejaVuSans-65" x="772.412109"/>
      <use xlink:href="#DejaVuSans-72" x="833.935547"/>
     </g>
    </g>
    <g id="line2d_40">
     <path d="M 378.040625 152.838438 
L 388.040625 152.838438 
L 398.040625 152.838438 
" style="fill: none; stroke: #7f7f7f; stroke-width: 1.5; stroke-linecap: square"/>
     <g>
      <use xlink:href="#m93ac7f627b" x="388.040625" y="152.838438" style="fill: #7f7f7f; stroke: #7f7f7f"/>
     </g>
    </g>
    <g id="text_20">
     <!-- Alignment Variant Model -->
     <g transform="translate(406.040625 156.338438) scale(0.1 -0.1)">
      <use xlink:href="#DejaVuSans-41"/>
      <use xlink:href="#DejaVuSans-6c" x="68.408203"/>
      <use xlink:href="#DejaVuSans-69" x="96.191406"/>
      <use xlink:href="#DejaVuSans-67" x="123.974609"/>
      <use xlink:href="#DejaVuSans-6e" x="187.451172"/>
      <use xlink:href="#DejaVuSans-6d" x="250.830078"/>
      <use xlink:href="#DejaVuSans-65" x="348.242188"/>
      <use xlink:href="#DejaVuSans-6e" x="409.765625"/>
      <use xlink:href="#DejaVuSans-74" x="473.144531"/>
      <use xlink:href="#DejaVuSans-20" x="512.353516"/>
      <use xlink:href="#DejaVuSans-56" x="544.140625"/>
      <use xlink:href="#DejaVuSans-61" x="604.798828"/>
      <use xlink:href="#DejaVuSans-72" x="666.078125"/>
      <use xlink:href="#DejaVuSans-69" x="707.191406"/>
      <use xlink:href="#DejaVuSans-61" x="734.974609"/>
      <use xlink:href="#DejaVuSans-6e" x="796.253906"/>
      <use xlink:href="#DejaVuSans-74" x="859.632812"/>
      <use xlink:href="#DejaVuSans-20" x="898.841797"/>
      <use xlink:href="#DejaVuSans-4d" x="930.628906"/>
      <use xlink:href="#DejaVuSans-6f" x="1016.908203"/>
      <use xlink:href="#DejaVuSans-64" x="1078.089844"/>
      <use xlink:href="#DejaVuSans-65" x="1141.566406"/>
      <use xlink:href="#DejaVuSans-6c" x="1203.089844"/>
     </g>
    </g>
    <g id="line2d_41">
     <path d="M 378.040625 167.516563 
L 388.040625 167.516563 
L 398.040625 167.516563 
" style="fill: none; stroke: #bcbd22; stroke-width: 1.5; stroke-linecap: square"/>
     <g>
      <use xlink:href="#me1fa3ba44b" x="388.040625" y="167.516563" style="fill: #bcbd22; stroke: #bcbd22"/>
     </g>
    </g>
    <g id="text_21">
     <!-- Negative OCPA -->
     <g transform="translate(406.040625 171.016563) scale(0.1 -0.1)">
      <defs>
       <path id="DejaVuSans-4e" d="M 628 4666 
L 1478 4666 
L 3547 763 
L 3547 4666 
L 4159 4666 
L 4159 0 
L 3309 0 
L 1241 3903 
L 1241 0 
L 628 0 
L 628 4666 
z
" transform="scale(0.015625)"/>
       <path id="DejaVuSans-76" d="M 191 3500 
L 800 3500 
L 1894 563 
L 2988 3500 
L 3597 3500 
L 2284 0 
L 1503 0 
L 191 3500 
z
" transform="scale(0.015625)"/>
      </defs>
      <use xlink:href="#DejaVuSans-4e"/>
      <use xlink:href="#DejaVuSans-65" x="74.804688"/>
      <use xlink:href="#DejaVuSans-67" x="136.328125"/>
      <use xlink:href="#DejaVuSans-61" x="199.804688"/>
      <use xlink:href="#DejaVuSans-74" x="261.083984"/>
      <use xlink:href="#DejaVuSans-69" x="300.292969"/>
      <use xlink:href="#DejaVuSans-76" x="328.076172"/>
      <use xlink:href="#DejaVuSans-65" x="387.255859"/>
      <use xlink:href="#DejaVuSans-20" x="448.779297"/>
      <use xlink:href="#DejaVuSans-4f" x="480.566406"/>
      <use xlink:href="#DejaVuSans-43" x="559.277344"/>
      <use xlink:href="#DejaVuSans-50" x="629.101562"/>
      <use xlink:href="#DejaVuSans-41" x="683.029297"/>
     </g>
    </g>
    <g id="line2d_42">
     <path d="M 378.040625 182.194688 
L 388.040625 182.194688 
L 398.040625 182.194688 
" style="fill: none; stroke: #17becf; stroke-width: 1.5; stroke-linecap: square"/>
     <g>
      <use xlink:href="#mbfe41adb38" x="388.040625" y="182.194688" style="fill: #17becf; stroke: #17becf"/>
     </g>
    </g>
    <g id="text_22">
     <!-- Negative Happy Path -->
     <g transform="translate(406.040625 185.694688) scale(0.1 -0.1)">
      <use xlink:href="#DejaVuSans-4e"/>
      <use xlink:href="#DejaVuSans-65" x="74.804688"/>
      <use xlink:href="#DejaVuSans-67" x="136.328125"/>
      <use xlink:href="#DejaVuSans-61" x="199.804688"/>
      <use xlink:href="#DejaVuSans-74" x="261.083984"/>
      <use xlink:href="#DejaVuSans-69" x="300.292969"/>
      <use xlink:href="#DejaVuSans-76" x="328.076172"/>
      <use xlink:href="#DejaVuSans-65" x="387.255859"/>
      <use xlink:href="#DejaVuSans-20" x="448.779297"/>
      <use xlink:href="#DejaVuSans-48" x="480.566406"/>
      <use xlink:href="#DejaVuSans-61" x="555.761719"/>
      <use xlink:href="#DejaVuSans-70" x="617.041016"/>
      <use xlink:href="#DejaVuSans-70" x="680.517578"/>
      <use xlink:href="#DejaVuSans-79" x="743.994141"/>
      <use xlink:href="#DejaVuSans-20" x="803.173828"/>
      <use xlink:href="#DejaVuSans-50" x="834.960938"/>
      <use xlink:href="#DejaVuSans-61" x="890.763672"/>
      <use xlink:href="#DejaVuSans-74" x="952.042969"/>
      <use xlink:href="#DejaVuSans-68" x="991.251953"/>
     </g>
    </g>
    <g id="line2d_43">
     <path d="M 378.040625 196.872813 
L 388.040625 196.872813 
L 398.040625 196.872813 
" style="fill: none; stroke: #1f77b4; stroke-width: 1.5; stroke-linecap: square"/>
     <g>
      <use xlink:href="#ma02597922a" x="388.040625" y="196.872813" style="fill: #1f77b4; stroke: #1f77b4"/>
     </g>
    </g>
    <g id="text_23">
     <!-- Negative Flower -->
     <g transform="translate(406.040625 200.372813) scale(0.1 -0.1)">
      <use xlink:href="#DejaVuSans-4e"/>
      <use xlink:href="#DejaVuSans-65" x="74.804688"/>
      <use xlink:href="#DejaVuSans-67" x="136.328125"/>
      <use xlink:href="#DejaVuSans-61" x="199.804688"/>
      <use xlink:href="#DejaVuSans-74" x="261.083984"/>
      <use xlink:href="#DejaVuSans-69" x="300.292969"/>
      <use xlink:href="#DejaVuSans-76" x="328.076172"/>
      <use xlink:href="#DejaVuSans-65" x="387.255859"/>
      <use xlink:href="#DejaVuSans-20" x="448.779297"/>
      <use xlink:href="#DejaVuSans-46" x="480.566406"/>
      <use xlink:href="#DejaVuSans-6c" x="538.085938"/>
      <use xlink:href="#DejaVuSans-6f" x="565.869141"/>
      <use xlink:href="#DejaVuSans-77" x="627.050781"/>
      <use xlink:href="#DejaVuSans-65" x="708.837891"/>
      <use xlink:href="#DejaVuSans-72" x="770.361328"/>
     </g>
    </g>
    <g id="line2d_44">
     <path d="M 378.040625 211.550938 
L 388.040625 211.550938 
L 398.040625 211.550938 
" style="fill: none; stroke: #ff7f0e; stroke-width: 1.5; stroke-linecap: square"/>
     <g>
      <use xlink:href="#m23e90cdc57" x="388.040625" y="211.550938" style="fill: #ff7f0e; stroke: #ff7f0e"/>
     </g>
    </g>
    <g id="text_24">
     <!-- Negative Variant Model -->
     <g transform="translate(406.040625 215.050938) scale(0.1 -0.1)">
      <use xlink:href="#DejaVuSans-4e"/>
      <use xlink:href="#DejaVuSans-65" x="74.804688"/>
      <use xlink:href="#DejaVuSans-67" x="136.328125"/>
      <use xlink:href="#DejaVuSans-61" x="199.804688"/>
      <use xlink:href="#DejaVuSans-74" x="261.083984"/>
      <use xlink:href="#DejaVuSans-69" x="300.292969"/>
      <use xlink:href="#DejaVuSans-76" x="328.076172"/>
      <use xlink:href="#DejaVuSans-65" x="387.255859"/>
      <use xlink:href="#DejaVuSans-20" x="448.779297"/>
      <use xlink:href="#DejaVuSans-56" x="480.566406"/>
      <use xlink:href="#DejaVuSans-61" x="541.224609"/>
      <use xlink:href="#DejaVuSans-72" x="602.503906"/>
      <use xlink:href="#DejaVuSans-69" x="643.617188"/>
      <use xlink:href="#DejaVuSans-61" x="671.400391"/>
      <use xlink:href="#DejaVuSans-6e" x="732.679688"/>
      <use xlink:href="#DejaVuSans-74" x="796.058594"/>
      <use xlink:href="#DejaVuSans-20" x="835.267578"/>
      <use xlink:href="#DejaVuSans-4d" x="867.054688"/>
      <use xlink:href="#DejaVuSans-6f" x="953.333984"/>
      <use xlink:href="#DejaVuSans-64" x="1014.515625"/>
      <use xlink:href="#DejaVuSans-65" x="1077.992188"/>
      <use xlink:href="#DejaVuSans-6c" x="1139.515625"/>
     </g>
    </g>
    <g id="line2d_45">
     <path d="M 378.040625 226.229063 
L 388.040625 226.229063 
L 398.040625 226.229063 
" style="fill: none; stroke: #2ca02c; stroke-width: 1.5; stroke-linecap: square"/>
     <g>
      <use xlink:href="#md40497ef8d" x="388.040625" y="226.229063" style="fill: #2ca02c; stroke: #2ca02c"/>
     </g>
    </g>
    <g id="text_25">
     <!-- VAE OCPA -->
     <g transform="translate(406.040625 229.729063) scale(0.1 -0.1)">
      <defs>
       <path id="DejaVuSans-45" d="M 628 4666 
L 3578 4666 
L 3578 4134 
L 1259 4134 
L 1259 2753 
L 3481 2753 
L 3481 2222 
L 1259 2222 
L 1259 531 
L 3634 531 
L 3634 0 
L 628 0 
L 628 4666 
z
" transform="scale(0.015625)"/>
      </defs>
      <use xlink:href="#DejaVuSans-56"/>
      <use xlink:href="#DejaVuSans-41" x="62.033203"/>
      <use xlink:href="#DejaVuSans-45" x="130.441406"/>
      <use xlink:href="#DejaVuSans-20" x="193.625"/>
      <use xlink:href="#DejaVuSans-4f" x="225.412109"/>
      <use xlink:href="#DejaVuSans-43" x="304.123047"/>
      <use xlink:href="#DejaVuSans-50" x="373.947266"/>
      <use xlink:href="#DejaVuSans-41" x="427.875"/>
     </g>
    </g>
    <g id="line2d_46">
     <path d="M 378.040625 240.907188 
L 388.040625 240.907188 
L 398.040625 240.907188 
" style="fill: none; stroke: #d62728; stroke-width: 1.5; stroke-linecap: square"/>
     <g>
      <use xlink:href="#m77b96b714c" x="388.040625" y="240.907188" style="fill: #d62728; stroke: #d62728"/>
     </g>
    </g>
    <g id="text_26">
     <!-- VAE Happy Path -->
     <g transform="translate(406.040625 244.407188) scale(0.1 -0.1)">
      <use xlink:href="#DejaVuSans-56"/>
      <use xlink:href="#DejaVuSans-41" x="62.033203"/>
      <use xlink:href="#DejaVuSans-45" x="130.441406"/>
      <use xlink:href="#DejaVuSans-20" x="193.625"/>
      <use xlink:href="#DejaVuSans-48" x="225.412109"/>
      <use xlink:href="#DejaVuSans-61" x="300.607422"/>
      <use xlink:href="#DejaVuSans-70" x="361.886719"/>
      <use xlink:href="#DejaVuSans-70" x="425.363281"/>
      <use xlink:href="#DejaVuSans-79" x="488.839844"/>
      <use xlink:href="#DejaVuSans-20" x="548.019531"/>
      <use xlink:href="#DejaVuSans-50" x="579.806641"/>
      <use xlink:href="#DejaVuSans-61" x="635.609375"/>
      <use xlink:href="#DejaVuSans-74" x="696.888672"/>
      <use xlink:href="#DejaVuSans-68" x="736.097656"/>
     </g>
    </g>
    <g id="line2d_47">
     <path d="M 378.040625 255.585312 
L 388.040625 255.585312 
L 398.040625 255.585312 
" style="fill: none; stroke: #9467bd; stroke-width: 1.5; stroke-linecap: square"/>
     <g>
      <use xlink:href="#m0e9141f9f3" x="388.040625" y="255.585312" style="fill: #9467bd; stroke: #9467bd"/>
     </g>
    </g>
    <g id="text_27">
     <!-- VAE Flower -->
     <g transform="translate(406.040625 259.085312) scale(0.1 -0.1)">
      <use xlink:href="#DejaVuSans-56"/>
      <use xlink:href="#DejaVuSans-41" x="62.033203"/>
      <use xlink:href="#DejaVuSans-45" x="130.441406"/>
      <use xlink:href="#DejaVuSans-20" x="193.625"/>
      <use xlink:href="#DejaVuSans-46" x="225.412109"/>
      <use xlink:href="#DejaVuSans-6c" x="282.931641"/>
      <use xlink:href="#DejaVuSans-6f" x="310.714844"/>
      <use xlink:href="#DejaVuSans-77" x="371.896484"/>
      <use xlink:href="#DejaVuSans-65" x="453.683594"/>
      <use xlink:href="#DejaVuSans-72" x="515.207031"/>
     </g>
    </g>
    <g id="line2d_48">
     <path d="M 378.040625 270.263438 
L 388.040625 270.263438 
L 398.040625 270.263438 
" style="fill: none; stroke: #8c564b; stroke-width: 1.5; stroke-linecap: square"/>
     <g>
      <use xlink:href="#m762f9a5c62" x="388.040625" y="270.263438" style="fill: #8c564b; stroke: #8c564b"/>
     </g>
    </g>
    <g id="text_28">
     <!-- VAE Variant Model -->
     <g transform="translate(406.040625 273.763438) scale(0.1 -0.1)">
      <use xlink:href="#DejaVuSans-56"/>
      <use xlink:href="#DejaVuSans-41" x="62.033203"/>
      <use xlink:href="#DejaVuSans-45" x="130.441406"/>
      <use xlink:href="#DejaVuSans-20" x="193.625"/>
      <use xlink:href="#DejaVuSans-56" x="225.412109"/>
      <use xlink:href="#DejaVuSans-61" x="286.070312"/>
      <use xlink:href="#DejaVuSans-72" x="347.349609"/>
      <use xlink:href="#DejaVuSans-69" x="388.462891"/>
      <use xlink:href="#DejaVuSans-61" x="416.246094"/>
      <use xlink:href="#DejaVuSans-6e" x="477.525391"/>
      <use xlink:href="#DejaVuSans-74" x="540.904297"/>
      <use xlink:href="#DejaVuSans-20" x="580.113281"/>
      <use xlink:href="#DejaVuSans-4d" x="611.900391"/>
      <use xlink:href="#DejaVuSans-6f" x="698.179688"/>
      <use xlink:href="#DejaVuSans-64" x="759.361328"/>
      <use xlink:href="#DejaVuSans-65" x="822.837891"/>
      <use xlink:href="#DejaVuSans-6c" x="884.361328"/>
     </g>
    </g>
   </g>
  </g>
 </g>
 <defs>
  <clipPath id="p02ee4a2c99">
   <rect x="34.240625" y="22.318125" width="334.8" height="277.2"/>
  </clipPath>
 </defs>
</svg>
