<?xml version="1.0" encoding="UTF-8" standalone="no"?>
<!DOCTYPE svg PUBLIC "-//W3C//DTD SVG 1.1//EN"
 "http://www.w3.org/Graphics/SVG/1.1/DTD/svg11.dtd">
<!-- Generated by graphviz version 7.1.0 (20230121.1956)
 -->
<!-- Pages: 1 -->
<svg width="518pt" height="1878pt"
 viewBox="0.00 0.00 517.50 1877.61" xmlns="http://www.w3.org/2000/svg" xmlns:xlink="http://www.w3.org/1999/xlink">
<g id="graph0" class="graph" transform="scale(1 1) rotate(0) translate(4 1873.61)">
<!-- application1 -->
<g id="node1" class="node">
<title>application1</title>
<ellipse fill="#05b202" stroke="#05b202" cx="159" cy="-1819.08" rx="50.57" ry="50.57"/>
<text text-anchor="middle" x="159" y="-1815.68" font-family="Times New Roman,serif" font-size="13.00">application1</text>
</g>
<!-- Create application -->
<g id="node16" class="node">
<title>Create application</title>
<polygon fill="none" stroke="black" points="295.5,-1732.55 22.5,-1732.55 22.5,-1684.55 295.5,-1684.55 295.5,-1732.55"/>
<text text-anchor="middle" x="159" y="-1699.75" font-family="Times New Roman,serif" font-size="36.00">Create application</text>
</g>
<!-- application1&#45;&gt;Create application -->
<g id="edge12" class="edge">
<title>application1&#45;&gt;Create application</title>
<path fill="none" stroke="#05b202" d="M159,-1768.26C159,-1760.14 159,-1751.89 159,-1744.24"/>
<polygon fill="#05b202" stroke="#05b202" points="162.5,-1744.32 159,-1734.32 155.5,-1744.32 162.5,-1744.32"/>
</g>
<!-- application2 -->
<g id="node2" class="node">
<title>application2</title>
<ellipse fill="none" stroke="#05b202" cx="159" cy="-1376.94" rx="50.57" ry="50.57"/>
<text text-anchor="middle" x="159" y="-1373.54" font-family="Times New Roman,serif" font-size="13.00">application2</text>
</g>
<!-- Accept -->
<g id="node22" class="node">
<title>Accept</title>
<polygon fill="none" stroke="black" points="217.5,-1290.41 100.5,-1290.41 100.5,-1242.41 217.5,-1242.41 217.5,-1290.41"/>
<text text-anchor="middle" x="159" y="-1257.61" font-family="Times New Roman,serif" font-size="36.00">Accept</text>
</g>
<!-- application2&#45;&gt;Accept -->
<g id="edge2" class="edge">
<title>application2&#45;&gt;Accept</title>
<path fill="none" stroke="#05b202" d="M159,-1326.12C159,-1318 159,-1309.75 159,-1302.1"/>
<polygon fill="#05b202" stroke="#05b202" points="162.5,-1302.19 159,-1292.19 155.5,-1302.19 162.5,-1302.19"/>
</g>
<!-- application4 -->
<g id="node3" class="node">
<title>application4</title>
<ellipse fill="none" stroke="#05b202" cx="159" cy="-1155.88" rx="50.57" ry="50.57"/>
<text text-anchor="middle" x="159" y="-1152.48" font-family="Times New Roman,serif" font-size="13.00">application4</text>
</g>
<!-- Create offer -->
<g id="node20" class="node">
<title>Create offer</title>
<polygon fill="none" stroke="black" points="302,-1069.34 116,-1069.34 116,-1021.34 302,-1021.34 302,-1069.34"/>
<text text-anchor="middle" x="209" y="-1036.54" font-family="Times New Roman,serif" font-size="36.00">Create offer</text>
</g>
<!-- application4&#45;&gt;Create offer -->
<g id="edge15" class="edge">
<title>application4&#45;&gt;Create offer</title>
<path fill="none" stroke="#05b202" d="M179.91,-1109.48C184.45,-1099.62 189.18,-1089.37 193.47,-1080.06"/>
<polygon fill="#05b202" stroke="#05b202" points="196.62,-1081.57 197.63,-1071.02 190.27,-1078.64 196.62,-1081.57"/>
</g>
<!-- application3 -->
<g id="node4" class="node">
<title>application3</title>
<ellipse fill="none" stroke="#05b202" cx="159" cy="-1598.01" rx="50.57" ry="50.57"/>
<text text-anchor="middle" x="159" y="-1594.61" font-family="Times New Roman,serif" font-size="13.00">application3</text>
</g>
<!-- Submit -->
<g id="node21" class="node">
<title>Submit</title>
<polygon fill="none" stroke="black" points="218.5,-1511.48 99.5,-1511.48 99.5,-1463.48 218.5,-1463.48 218.5,-1511.48"/>
<text text-anchor="middle" x="159" y="-1478.68" font-family="Times New Roman,serif" font-size="36.00">Submit</text>
</g>
<!-- application3&#45;&gt;Submit -->
<g id="edge13" class="edge">
<title>application3&#45;&gt;Submit</title>
<path fill="none" stroke="#05b202" d="M159,-1547.19C159,-1539.07 159,-1530.82 159,-1523.17"/>
<polygon fill="#05b202" stroke="#05b202" points="162.5,-1523.26 159,-1513.26 155.5,-1523.26 162.5,-1523.26"/>
</g>
<!-- application6 -->
<g id="node5" class="node">
<title>application6</title>
<ellipse fill="none" stroke="#05b202" cx="159" cy="-271.6" rx="50.57" ry="50.57"/>
<text text-anchor="middle" x="159" y="-268.2" font-family="Times New Roman,serif" font-size="13.00">application6</text>
</g>
<!-- Cancel offer -->
<g id="node18" class="node">
<title>Cancel offer</title>
<polygon fill="none" stroke="black" points="304.5,-185.07 113.5,-185.07 113.5,-137.07 304.5,-137.07 304.5,-185.07"/>
<text text-anchor="middle" x="209" y="-152.27" font-family="Times New Roman,serif" font-size="36.00">Cancel offer</text>
</g>
<!-- application6&#45;&gt;Cancel offer -->
<g id="edge4" class="edge">
<title>application6&#45;&gt;Cancel offer</title>
<path fill="none" stroke="#05b202" d="M179.91,-225.2C184.45,-215.35 189.18,-205.1 193.47,-195.79"/>
<polygon fill="#05b202" stroke="#05b202" points="196.62,-197.3 197.63,-186.75 190.27,-194.37 196.62,-197.3"/>
</g>
<!-- application7 -->
<g id="node6" class="node">
<title>application7</title>
<ellipse fill="#05b202" stroke="#05b202" cx="159" cy="-50.53" rx="50.57" ry="50.57"/>
<text text-anchor="middle" x="159" y="-47.13" font-family="Times New Roman,serif" font-size="13.00">application7</text>
</g>
<!-- offer1 -->
<g id="node7" class="node">
<title>offer1</title>
<ellipse fill="#a13ccd" stroke="#a13ccd" cx="259" cy="-1155.88" rx="31.67" ry="31.67"/>
<text text-anchor="middle" x="259" y="-1152.48" font-family="Times New Roman,serif" font-size="13.00">offer1</text>
</g>
<!-- offer1&#45;&gt;Create offer -->
<g id="edge20" class="edge">
<title>offer1&#45;&gt;Create offer</title>
<path fill="none" stroke="#a13ccd" d="M245.99,-1126.64C239.43,-1112.39 231.42,-1095 224.53,-1080.05"/>
<polygon fill="#a13ccd" stroke="#a13ccd" points="227.75,-1078.67 220.38,-1071.05 221.39,-1081.59 227.75,-1078.67"/>
</g>
<!-- offer6 -->
<g id="node8" class="node">
<title>offer6</title>
<ellipse fill="none" stroke="#a13ccd" cx="259" cy="-271.6" rx="31.67" ry="31.67"/>
<text text-anchor="middle" x="259" y="-268.2" font-family="Times New Roman,serif" font-size="13.00">offer6</text>
</g>
<!-- offer6&#45;&gt;Cancel offer -->
<g id="edge8" class="edge">
<title>offer6&#45;&gt;Cancel offer</title>
<path fill="none" stroke="#a13ccd" d="M245.99,-242.37C239.43,-228.12 231.42,-210.72 224.53,-195.77"/>
<polygon fill="#a13ccd" stroke="#a13ccd" points="227.75,-194.39 220.38,-186.78 221.39,-197.32 227.75,-194.39"/>
</g>
<!-- application5 -->
<g id="node9" class="node">
<title>application5</title>
<ellipse fill="none" stroke="#05b202" cx="159" cy="-934.81" rx="50.57" ry="50.57"/>
<text text-anchor="middle" x="159" y="-931.41" font-family="Times New Roman,serif" font-size="13.00">application5</text>
</g>
<!-- Complete -->
<g id="node23" class="node">
<title>Complete</title>
<polygon fill="none" stroke="black" points="154,-848.27 0,-848.27 0,-800.27 154,-800.27 154,-848.27"/>
<text text-anchor="middle" x="77" y="-815.47" font-family="Times New Roman,serif" font-size="36.00">Complete</text>
</g>
<!-- application5&#45;&gt;Complete -->
<g id="edge9" class="edge">
<title>application5&#45;&gt;Complete</title>
<path fill="none" stroke="#05b202" d="M128.7,-893.7C119.72,-881.81 110,-868.95 101.44,-857.62"/>
<polygon fill="#05b202" stroke="#05b202" points="104.29,-855.59 95.47,-849.72 98.71,-859.81 104.29,-855.59"/>
</g>
<!-- application8 -->
<g id="node10" class="node">
<title>application8</title>
<ellipse fill="none" stroke="#05b202" cx="159" cy="-713.74" rx="50.57" ry="50.57"/>
<text text-anchor="middle" x="159" y="-710.34" font-family="Times New Roman,serif" font-size="13.00">application8</text>
</g>
<!-- Call -->
<g id="node24" class="node">
<title>Call</title>
<polygon fill="none" stroke="black" points="246,-627.2 172,-627.2 172,-579.2 246,-579.2 246,-627.2"/>
<text text-anchor="middle" x="209" y="-594.4" font-family="Times New Roman,serif" font-size="36.00">Call</text>
</g>
<!-- application8&#45;&gt;Call -->
<g id="edge1" class="edge">
<title>application8&#45;&gt;Call</title>
<path fill="none" stroke="#05b202" d="M179.91,-667.34C184.45,-657.49 189.18,-647.23 193.47,-637.92"/>
<polygon fill="#05b202" stroke="#05b202" points="196.62,-639.43 197.63,-628.89 190.27,-636.51 196.62,-639.43"/>
</g>
<!-- application9 -->
<g id="node11" class="node">
<title>application9</title>
<ellipse fill="none" stroke="#05b202" cx="159" cy="-492.67" rx="50.57" ry="50.57"/>
<text text-anchor="middle" x="159" y="-489.27" font-family="Times New Roman,serif" font-size="13.00">application9</text>
</g>
<!-- Cancel application -->
<g id="node17" class="node">
<title>Cancel application</title>
<polygon fill="none" stroke="black" points="348,-406.14 70,-406.14 70,-358.14 348,-358.14 348,-406.14"/>
<text text-anchor="middle" x="209" y="-373.34" font-family="Times New Roman,serif" font-size="36.00">Cancel application</text>
</g>
<!-- application9&#45;&gt;Cancel application -->
<g id="edge19" class="edge">
<title>application9&#45;&gt;Cancel application</title>
<path fill="none" stroke="#05b202" d="M179.91,-446.27C184.45,-436.42 189.18,-426.16 193.47,-416.86"/>
<polygon fill="#05b202" stroke="#05b202" points="196.62,-418.37 197.63,-407.82 190.27,-415.44 196.62,-418.37"/>
</g>
<!-- offer2 -->
<g id="node12" class="node">
<title>offer2</title>
<ellipse fill="#a13ccd" stroke="#a13ccd" cx="259" cy="-50.53" rx="31.67" ry="31.67"/>
<text text-anchor="middle" x="259" y="-47.13" font-family="Times New Roman,serif" font-size="13.00">offer2</text>
</g>
<!-- offer3 -->
<g id="node13" class="node">
<title>offer3</title>
<ellipse fill="none" stroke="#a13ccd" cx="300" cy="-934.81" rx="31.67" ry="31.67"/>
<text text-anchor="middle" x="300" y="-931.41" font-family="Times New Roman,serif" font-size="13.00">offer3</text>
</g>
<!-- Send (mail and online) -->
<g id="node19" class="node">
<title>Send (mail and online)</title>
<polygon fill="none" stroke="black" points="509.5,-848.27 172.5,-848.27 172.5,-800.27 509.5,-800.27 509.5,-848.27"/>
<text text-anchor="middle" x="341" y="-815.47" font-family="Times New Roman,serif" font-size="36.00">Send (mail and online)</text>
</g>
<!-- offer3&#45;&gt;Send (mail and online) -->
<g id="edge7" class="edge">
<title>offer3&#45;&gt;Send (mail and online)</title>
<path fill="none" stroke="#a13ccd" d="M310.99,-904.72C316.28,-890.71 322.66,-873.82 328.17,-859.23"/>
<polygon fill="#a13ccd" stroke="#a13ccd" points="331.39,-860.61 331.65,-850.01 324.85,-858.13 331.39,-860.61"/>
</g>
<!-- offer4 -->
<g id="node14" class="node">
<title>offer4</title>
<ellipse fill="none" stroke="#a13ccd" cx="300" cy="-713.74" rx="31.67" ry="31.67"/>
<text text-anchor="middle" x="300" y="-710.34" font-family="Times New Roman,serif" font-size="13.00">offer4</text>
</g>
<!-- offer4&#45;&gt;Call -->
<g id="edge10" class="edge">
<title>offer4&#45;&gt;Call</title>
<path fill="none" stroke="#a13ccd" d="M280.03,-688.92C267.02,-673.4 249.89,-652.98 235.72,-636.07"/>
<polygon fill="#a13ccd" stroke="#a13ccd" points="238.69,-634.17 229.58,-628.75 233.33,-638.67 238.69,-634.17"/>
</g>
<!-- offer5 -->
<g id="node15" class="node">
<title>offer5</title>
<ellipse fill="none" stroke="#a13ccd" cx="259" cy="-492.67" rx="31.67" ry="31.67"/>
<text text-anchor="middle" x="259" y="-489.27" font-family="Times New Roman,serif" font-size="13.00">offer5</text>
</g>
<!-- offer5&#45;&gt;Cancel application -->
<g id="edge17" class="edge">
<title>offer5&#45;&gt;Cancel application</title>
<path fill="none" stroke="#a13ccd" d="M245.99,-463.44C239.43,-449.19 231.42,-431.79 224.53,-416.84"/>
<polygon fill="#a13ccd" stroke="#a13ccd" points="227.75,-415.46 220.38,-407.84 221.39,-418.39 227.75,-415.46"/>
</g>
<!-- Create application&#45;&gt;application3 -->
<g id="edge6" class="edge">
<title>Create application&#45;&gt;application3</title>
<path fill="none" stroke="#05b202" d="M159,-1684.26C159,-1677.07 159,-1668.79 159,-1660.28"/>
<polygon fill="#05b202" stroke="#05b202" points="162.5,-1660.54 159,-1650.54 155.5,-1660.54 162.5,-1660.54"/>
</g>
<!-- Cancel application&#45;&gt;application6 -->
<g id="edge16" class="edge">
<title>Cancel application&#45;&gt;application6</title>
<path fill="none" stroke="#05b202" d="M198.27,-357.85C194.23,-349.07 189.43,-338.66 184.61,-328.18"/>
<polygon fill="#05b202" stroke="#05b202" points="187.79,-326.74 180.43,-319.12 181.43,-329.67 187.79,-326.74"/>
</g>
<!-- Cancel application&#45;&gt;offer6 -->
<g id="edge22" class="edge">
<title>Cancel application&#45;&gt;offer6</title>
<path fill="none" stroke="#a13ccd" d="M219.73,-357.85C225.97,-344.29 234.01,-326.84 241.19,-311.27"/>
<polygon fill="#a13ccd" stroke="#a13ccd" points="244.34,-312.78 245.35,-302.23 237.99,-309.85 244.34,-312.78"/>
</g>
<!-- Cancel offer&#45;&gt;application7 -->
<g id="edge24" class="edge">
<title>Cancel offer&#45;&gt;application7</title>
<path fill="none" stroke="#05b202" d="M198.27,-136.78C194.23,-128 189.43,-117.59 184.61,-107.12"/>
<polygon fill="#05b202" stroke="#05b202" points="187.79,-105.67 180.43,-98.05 181.43,-108.6 187.79,-105.67"/>
</g>
<!-- Cancel offer&#45;&gt;offer2 -->
<g id="edge26" class="edge">
<title>Cancel offer&#45;&gt;offer2</title>
<path fill="none" stroke="#a13ccd" d="M219.73,-136.78C225.97,-123.22 234.01,-105.78 241.19,-90.2"/>
<polygon fill="#a13ccd" stroke="#a13ccd" points="244.34,-91.71 245.35,-81.17 237.99,-88.78 244.34,-91.71"/>
</g>
<!-- Send (mail and online)&#45;&gt;offer4 -->
<g id="edge5" class="edge">
<title>Send (mail and online)&#45;&gt;offer4</title>
<path fill="none" stroke="#a13ccd" d="M332.2,-799.99C327.21,-786.76 320.81,-769.83 315.04,-754.55"/>
<polygon fill="#a13ccd" stroke="#a13ccd" points="318.32,-753.33 311.51,-745.21 311.77,-755.8 318.32,-753.33"/>
</g>
<!-- Create offer&#45;&gt;application5 -->
<g id="edge23" class="edge">
<title>Create offer&#45;&gt;application5</title>
<path fill="none" stroke="#05b202" d="M198.27,-1021.06C194.23,-1012.28 189.43,-1001.86 184.61,-991.39"/>
<polygon fill="#05b202" stroke="#05b202" points="187.79,-989.94 180.43,-982.32 181.43,-992.87 187.79,-989.94"/>
</g>
<!-- Create offer&#45;&gt;offer3 -->
<g id="edge18" class="edge">
<title>Create offer&#45;&gt;offer3</title>
<path fill="none" stroke="#a13ccd" d="M228.52,-1021.06C241.42,-1005.68 258.5,-985.3 272.74,-968.32"/>
<polygon fill="#a13ccd" stroke="#a13ccd" points="275.17,-970.87 278.91,-960.96 269.8,-966.38 275.17,-970.87"/>
</g>
<!-- Submit&#45;&gt;application2 -->
<g id="edge14" class="edge">
<title>Submit&#45;&gt;application2</title>
<path fill="none" stroke="#05b202" d="M159,-1463.19C159,-1456 159,-1447.72 159,-1439.21"/>
<polygon fill="#05b202" stroke="#05b202" points="162.5,-1439.47 159,-1429.47 155.5,-1439.47 162.5,-1439.47"/>
</g>
<!-- Accept&#45;&gt;application4 -->
<g id="edge3" class="edge">
<title>Accept&#45;&gt;application4</title>
<path fill="none" stroke="#05b202" d="M159,-1242.13C159,-1234.94 159,-1226.66 159,-1218.14"/>
<polygon fill="#05b202" stroke="#05b202" points="162.5,-1218.4 159,-1208.4 155.5,-1218.4 162.5,-1218.4"/>
</g>
<!-- Complete&#45;&gt;application8 -->
<g id="edge25" class="edge">
<title>Complete&#45;&gt;application8</title>
<path fill="none" stroke="#05b202" d="M94.59,-799.99C102.62,-789.36 112.45,-776.35 121.99,-763.73"/>
<polygon fill="#05b202" stroke="#05b202" points="124.7,-765.94 127.94,-755.85 119.12,-761.72 124.7,-765.94"/>
</g>
<!-- Call&#45;&gt;application9 -->
<g id="edge21" class="edge">
<title>Call&#45;&gt;application9</title>
<path fill="none" stroke="#05b202" d="M198.27,-578.92C194.23,-570.14 189.43,-559.73 184.61,-549.25"/>
<polygon fill="#05b202" stroke="#05b202" points="187.79,-547.8 180.43,-540.19 181.43,-550.73 187.79,-547.8"/>
</g>
<!-- Call&#45;&gt;offer5 -->
<g id="edge11" class="edge">
<title>Call&#45;&gt;offer5</title>
<path fill="none" stroke="#a13ccd" d="M219.73,-578.92C225.97,-565.36 234.01,-547.91 241.19,-532.34"/>
<polygon fill="#a13ccd" stroke="#a13ccd" points="244.34,-533.85 245.35,-523.3 237.99,-530.92 244.34,-533.85"/>
</g>
</g>
</svg>
