<?xml version="1.0" encoding="UTF-8" standalone="no"?>
<!DOCTYPE svg PUBLIC "-//W3C//DTD SVG 1.1//EN"
 "http://www.w3.org/Graphics/SVG/1.1/DTD/svg11.dtd">
<!-- Generated by graphviz version 7.1.0 (20230121.1956)
 -->
<!-- Pages: 1 -->
<svg width="3149pt" height="359pt"
 viewBox="0.00 0.00 3148.50 358.55" xmlns="http://www.w3.org/2000/svg" xmlns:xlink="http://www.w3.org/1999/xlink">
<g id="graph0" class="graph" transform="scale(1 1) rotate(0) translate(4 354.55)">
<!-- application -->
<g id="node1" class="node">
<title>application</title>
<ellipse fill="#a13ccd" stroke="#a13ccd" cx="1616" cy="-304.44" rx="46.22" ry="46.22"/>
<text text-anchor="middle" x="1616" y="-301.04" font-family="Times New Roman,serif" font-size="13.00">application</text>
</g>
<!-- Shorten completion -->
<g id="node3" class="node">
<title>Shorten completion</title>
<polygon fill="none" stroke="black" points="292,-222.32 0,-222.32 0,-174.32 292,-174.32 292,-222.32"/>
<text text-anchor="middle" x="146" y="-189.52" font-family="Times New Roman,serif" font-size="36.00">Shorten completion</text>
</g>
<!-- application&#45;&gt;Shorten completion -->
<g id="edge1" class="edge">
<title>application&#45;&gt;Shorten completion</title>
<path fill="none" stroke="#a13ccd" d="M1569.39,-302.12C1399.7,-296.82 799.67,-274.9 303.69,-223.54"/>
<polygon fill="#a13ccd" stroke="#a13ccd" points="304.18,-220.07 293.87,-222.52 303.45,-227.04 304.18,-220.07"/>
</g>
<!-- Handle leads -->
<g id="node4" class="node">
<title>Handle leads</title>
<polygon fill="none" stroke="black" points="510,-222.32 310,-222.32 310,-174.32 510,-174.32 510,-222.32"/>
<text text-anchor="middle" x="410" y="-189.52" font-family="Times New Roman,serif" font-size="36.00">Handle leads</text>
</g>
<!-- application&#45;&gt;Handle leads -->
<g id="edge3" class="edge">
<title>application&#45;&gt;Handle leads</title>
<path fill="none" stroke="#a13ccd" d="M1569.55,-302.33C1418.32,-298.15 927.17,-280.49 521.67,-223.96"/>
<polygon fill="#a13ccd" stroke="#a13ccd" points="522.19,-220.5 511.8,-222.58 521.21,-227.44 522.19,-220.5"/>
</g>
<!-- Personal loan collection -->
<g id="node5" class="node">
<title>Personal loan collection</title>
<polygon fill="none" stroke="black" points="879.5,-222.32 528.5,-222.32 528.5,-174.32 879.5,-174.32 879.5,-222.32"/>
<text text-anchor="middle" x="704" y="-189.52" font-family="Times New Roman,serif" font-size="36.00">Personal loan collection</text>
</g>
<!-- application&#45;&gt;Personal loan collection -->
<g id="edge5" class="edge">
<title>application&#45;&gt;Personal loan collection</title>
<path fill="none" stroke="#a13ccd" d="M1569.85,-298.97C1455.3,-287.2 1149.24,-254.17 890.87,-223.72"/>
<polygon fill="#a13ccd" stroke="#a13ccd" points="891.61,-220.29 881.27,-222.59 890.79,-227.24 891.61,-220.29"/>
</g>
<!-- Create application -->
<g id="node6" class="node">
<title>Create application</title>
<polygon fill="none" stroke="black" points="1170.5,-222.32 897.5,-222.32 897.5,-174.32 1170.5,-174.32 1170.5,-222.32"/>
<text text-anchor="middle" x="1034" y="-189.52" font-family="Times New Roman,serif" font-size="36.00">Create application</text>
</g>
<!-- application&#45;&gt;Create application -->
<g id="edge7" class="edge">
<title>application&#45;&gt;Create application</title>
<path fill="none" stroke="#a13ccd" d="M1570.44,-295.95C1485.34,-281.28 1299.47,-248.16 1170.52,-224.8"/>
<polygon fill="#a13ccd" stroke="#a13ccd" points="1171.35,-221.39 1160.88,-223.05 1170.1,-228.28 1171.35,-221.39"/>
</g>
<!-- Accept offer -->
<g id="node7" class="node">
<title>Accept offer</title>
<polygon fill="none" stroke="black" points="1495,-222.32 1301,-222.32 1301,-174.32 1495,-174.32 1495,-222.32"/>
<text text-anchor="middle" x="1398" y="-189.52" font-family="Times New Roman,serif" font-size="36.00">Accept offer</text>
</g>
<!-- application&#45;&gt;Accept offer -->
<g id="edge9" class="edge">
<title>application&#45;&gt;Accept offer</title>
<path fill="none" stroke="#a13ccd" d="M1573.28,-285.54C1538.34,-269.65 1488.87,-246.16 1451.34,-227.71"/>
<polygon fill="#a13ccd" stroke="#a13ccd" points="1452.97,-224.61 1442.46,-223.32 1449.87,-230.88 1452.97,-224.61"/>
</g>
<!-- Complete -->
<g id="node9" class="node">
<title>Complete</title>
<polygon fill="none" stroke="black" points="1891,-222.32 1737,-222.32 1737,-174.32 1891,-174.32 1891,-222.32"/>
<text text-anchor="middle" x="1814" y="-189.52" font-family="Times New Roman,serif" font-size="36.00">Complete</text>
</g>
<!-- application&#45;&gt;Complete -->
<g id="edge15" class="edge">
<title>application&#45;&gt;Complete</title>
<path fill="none" stroke="#a13ccd" d="M1655.17,-279.81C1683.31,-264.38 1721.69,-244.15 1753.7,-227.83"/>
<polygon fill="#a13ccd" stroke="#a13ccd" points="1755.17,-231.01 1762.5,-223.36 1752,-224.76 1755.17,-231.01"/>
</g>
<!-- Accept -->
<g id="node10" class="node">
<title>Accept</title>
<polygon fill="none" stroke="black" points="2026.5,-222.32 1909.5,-222.32 1909.5,-174.32 2026.5,-174.32 2026.5,-222.32"/>
<text text-anchor="middle" x="1968" y="-189.52" font-family="Times New Roman,serif" font-size="36.00">Accept</text>
</g>
<!-- application&#45;&gt;Accept -->
<g id="edge17" class="edge">
<title>application&#45;&gt;Accept</title>
<path fill="none" stroke="#a13ccd" d="M1659.95,-289.8C1714.45,-274.24 1809.74,-247.66 1891,-222.32 1893.37,-221.59 1895.78,-220.82 1898.22,-220.04"/>
<polygon fill="#a13ccd" stroke="#a13ccd" points="1899.14,-223.43 1907.58,-217.02 1896.99,-216.76 1899.14,-223.43"/>
</g>
<!-- Validate -->
<g id="node11" class="node">
<title>Validate</title>
<polygon fill="none" stroke="black" points="2181,-222.32 2045,-222.32 2045,-174.32 2181,-174.32 2181,-222.32"/>
<text text-anchor="middle" x="2113" y="-189.52" font-family="Times New Roman,serif" font-size="36.00">Validate</text>
</g>
<!-- application&#45;&gt;Validate -->
<g id="edge19" class="edge">
<title>application&#45;&gt;Validate</title>
<path fill="none" stroke="#a13ccd" d="M1661.69,-295.2C1737.97,-282.09 1895.37,-254.61 2027,-222.32 2029.13,-221.8 2031.3,-221.25 2033.48,-220.69"/>
<polygon fill="#a13ccd" stroke="#a13ccd" points="2034.29,-224.1 2043.05,-218.13 2032.48,-217.33 2034.29,-224.1"/>
</g>
<!-- Pending -->
<g id="node12" class="node">
<title>Pending</title>
<polygon fill="none" stroke="black" points="2331,-222.32 2199,-222.32 2199,-174.32 2331,-174.32 2331,-222.32"/>
<text text-anchor="middle" x="2265" y="-189.52" font-family="Times New Roman,serif" font-size="36.00">Pending</text>
</g>
<!-- application&#45;&gt;Pending -->
<g id="edge21" class="edge">
<title>application&#45;&gt;Pending</title>
<path fill="none" stroke="#a13ccd" d="M1662.08,-298.93C1759.05,-289.45 1990.42,-264.74 2181,-222.32 2183.14,-221.85 2185.31,-221.34 2187.5,-220.81"/>
<polygon fill="#a13ccd" stroke="#a13ccd" points="2188.28,-224.22 2197.09,-218.33 2186.53,-217.44 2188.28,-224.22"/>
</g>
<!-- Cancel offer -->
<g id="node13" class="node">
<title>Cancel offer</title>
<polygon fill="none" stroke="black" points="413.5,-48 222.5,-48 222.5,0 413.5,0 413.5,-48"/>
<text text-anchor="middle" x="318" y="-15.2" font-family="Times New Roman,serif" font-size="36.00">Cancel offer</text>
</g>
<!-- application&#45;&gt;Cancel offer -->
<g id="edge23" class="edge">
<title>application&#45;&gt;Cancel offer</title>
<path fill="none" stroke="#a13ccd" d="M1569.72,-298.15C1499.19,-288.56 1361.99,-265.2 1253,-222.32 1213.34,-206.72 1210.1,-188.73 1170,-174.32 853.16,-60.48 750.88,-111.31 425.66,-50.22"/>
<polygon fill="#a13ccd" stroke="#a13ccd" points="426.45,-46.81 415.98,-48.38 425.15,-53.69 426.45,-46.81"/>
</g>
<!-- Cancel application -->
<g id="node15" class="node">
<title>Cancel application</title>
<polygon fill="none" stroke="black" points="710,-48 432,-48 432,0 710,0 710,-48"/>
<text text-anchor="middle" x="571" y="-15.2" font-family="Times New Roman,serif" font-size="36.00">Cancel application</text>
</g>
<!-- application&#45;&gt;Cancel application -->
<g id="edge29" class="edge">
<title>application&#45;&gt;Cancel application</title>
<path fill="none" stroke="#a13ccd" d="M1569.52,-304.15C1499.14,-303.16 1365.46,-291.84 1283,-222.32 1231.63,-179.02 1276.96,-122.65 1222,-84 1177.8,-52.92 808.69,-54.15 721.77,-48.94"/>
<polygon fill="#a13ccd" stroke="#a13ccd" points="722.09,-45.45 711.84,-48.16 721.54,-52.43 722.09,-45.45"/>
</g>
<!-- Create offer -->
<g id="node16" class="node">
<title>Create offer</title>
<polygon fill="none" stroke="black" points="1625,-48 1439,-48 1439,0 1625,0 1625,-48"/>
<text text-anchor="middle" x="1532" y="-15.2" font-family="Times New Roman,serif" font-size="36.00">Create offer</text>
</g>
<!-- application&#45;&gt;Create offer -->
<g id="edge33" class="edge">
<title>application&#45;&gt;Create offer</title>
<path fill="none" stroke="#a13ccd" d="M1583.5,-271.46C1573.02,-257.12 1562.56,-239.58 1556,-222.32 1535.25,-167.78 1527.52,-99.83 1527.21,-59.57"/>
<polygon fill="#a13ccd" stroke="#a13ccd" points="1530.7,-59.81 1527.31,-49.77 1523.7,-59.73 1530.7,-59.81"/>
</g>
<!-- Refuse offer -->
<g id="node17" class="node">
<title>Refuse offer</title>
<polygon fill="none" stroke="black" points="1835,-48 1643,-48 1643,0 1835,0 1835,-48"/>
<text text-anchor="middle" x="1739" y="-15.2" font-family="Times New Roman,serif" font-size="36.00">Refuse offer</text>
</g>
<!-- application&#45;&gt;Refuse offer -->
<g id="edge37" class="edge">
<title>application&#45;&gt;Refuse offer</title>
<path fill="none" stroke="#a13ccd" d="M1598.43,-261.38C1586.13,-214.29 1578.03,-137.59 1612,-84 1619.82,-71.67 1631.06,-61.82 1643.67,-53.98"/>
<polygon fill="#a13ccd" stroke="#a13ccd" points="1645.27,-57.1 1652.24,-49.12 1641.81,-51.01 1645.27,-57.1"/>
</g>
<!-- Deny -->
<g id="node18" class="node">
<title>Deny</title>
<polygon fill="none" stroke="black" points="1945,-48 1853,-48 1853,0 1945,0 1945,-48"/>
<text text-anchor="middle" x="1899" y="-15.2" font-family="Times New Roman,serif" font-size="36.00">Deny</text>
</g>
<!-- application&#45;&gt;Deny -->
<g id="edge41" class="edge">
<title>application&#45;&gt;Deny</title>
<path fill="none" stroke="#a13ccd" d="M1616.83,-258.07C1623.67,-201.03 1642.9,-107.67 1668,-84 1723.24,-31.91 1762.56,-70.74 1835,-48 1837.24,-47.3 1839.51,-46.54 1841.8,-45.74"/>
<polygon fill="#a13ccd" stroke="#a13ccd" points="1842.98,-49.03 1851.15,-42.29 1840.56,-42.47 1842.98,-49.03"/>
</g>
<!-- Submit -->
<g id="node19" class="node">
<title>Submit</title>
<polygon fill="none" stroke="black" points="2468.5,-222.32 2349.5,-222.32 2349.5,-174.32 2468.5,-174.32 2468.5,-222.32"/>
<text text-anchor="middle" x="2409" y="-189.52" font-family="Times New Roman,serif" font-size="36.00">Submit</text>
</g>
<!-- application&#45;&gt;Submit -->
<g id="edge45" class="edge">
<title>application&#45;&gt;Submit</title>
<path fill="none" stroke="#a13ccd" d="M1662.44,-301.4C1777.23,-295.86 2082.41,-277.04 2331,-222.32 2333.4,-221.79 2335.84,-221.21 2338.3,-220.59"/>
<polygon fill="#a13ccd" stroke="#a13ccd" points="2338.97,-224.04 2347.69,-218.02 2337.12,-217.28 2338.97,-224.04"/>
</g>
<!-- Assess potential fraud -->
<g id="node20" class="node">
<title>Assess potential fraud</title>
<polygon fill="none" stroke="black" points="2815.5,-222.32 2486.5,-222.32 2486.5,-174.32 2815.5,-174.32 2815.5,-222.32"/>
<text text-anchor="middle" x="2651" y="-189.52" font-family="Times New Roman,serif" font-size="36.00">Assess potential fraud</text>
</g>
<!-- application&#45;&gt;Assess potential fraud -->
<g id="edge47" class="edge">
<title>application&#45;&gt;Assess potential fraud</title>
<path fill="none" stroke="#a13ccd" d="M1662.28,-299.36C1790.65,-288.48 2161.33,-257.24 2469,-222.32 2471.06,-222.09 2473.12,-221.85 2475.21,-221.61"/>
<polygon fill="#a13ccd" stroke="#a13ccd" points="2475.4,-225.11 2484.93,-220.47 2474.59,-218.16 2475.4,-225.11"/>
</g>
<!-- Call incomplete files -->
<g id="node21" class="node">
<title>Call incomplete files</title>
<polygon fill="none" stroke="black" points="3140.5,-222.32 2833.5,-222.32 2833.5,-174.32 3140.5,-174.32 3140.5,-222.32"/>
<text text-anchor="middle" x="2987" y="-189.52" font-family="Times New Roman,serif" font-size="36.00">Call incomplete files</text>
</g>
<!-- application&#45;&gt;Call incomplete files -->
<g id="edge49" class="edge">
<title>application&#45;&gt;Call incomplete files</title>
<path fill="none" stroke="#a13ccd" d="M1662.49,-301.4C1822.97,-294.4 2367.72,-269.12 2816,-222.32 2817.94,-222.12 2819.9,-221.91 2821.86,-221.7"/>
<polygon fill="#a13ccd" stroke="#a13ccd" points="2822.17,-225.19 2831.72,-220.59 2821.39,-218.23 2822.17,-225.19"/>
</g>
<!-- Call -->
<g id="node22" class="node">
<title>Call</title>
<polygon fill="none" stroke="black" points="2037,-48 1963,-48 1963,0 2037,0 2037,-48"/>
<text text-anchor="middle" x="2000" y="-15.2" font-family="Times New Roman,serif" font-size="36.00">Call</text>
</g>
<!-- application&#45;&gt;Call -->
<g id="edge51" class="edge">
<title>application&#45;&gt;Call</title>
<path fill="none" stroke="#a13ccd" d="M1637.34,-263.12C1656.86,-235.81 1687.02,-200.14 1719,-174.32 1738.79,-158.35 1877.43,-84.67 1952.39,-47.12"/>
<polygon fill="#a13ccd" stroke="#a13ccd" points="1953.78,-50.34 1961.17,-42.75 1950.66,-44.08 1953.78,-50.34"/>
</g>
<!-- offer -->
<g id="node2" class="node">
<title>offer</title>
<ellipse fill="#05b202" stroke="#05b202" cx="1363" cy="-111.16" rx="27.33" ry="27.33"/>
<text text-anchor="middle" x="1363" y="-107.76" font-family="Times New Roman,serif" font-size="13.00">offer</text>
</g>
<!-- offer&#45;&gt;Accept offer -->
<g id="edge11" class="edge">
<title>offer&#45;&gt;Accept offer</title>
<path fill="none" stroke="#05b202" d="M1378.07,-134.23C1382.42,-143.11 1386.93,-153.56 1390.67,-163.37"/>
<polygon fill="#05b202" stroke="#05b202" points="1387.33,-164.41 1394.01,-172.63 1393.91,-162.04 1387.33,-164.41"/>
</g>
<!-- Return -->
<g id="node8" class="node">
<title>Return</title>
<polygon fill="none" stroke="black" points="841.5,-48 728.5,-48 728.5,0 841.5,0 841.5,-48"/>
<text text-anchor="middle" x="785" y="-15.2" font-family="Times New Roman,serif" font-size="36.00">Return</text>
</g>
<!-- offer&#45;&gt;Return -->
<g id="edge13" class="edge">
<title>offer&#45;&gt;Return</title>
<path fill="none" stroke="#05b202" d="M1336.68,-102.14C1319.85,-96.11 1297.94,-88.18 1278,-84 1091.37,-44.83 1034.01,-86.96 853.08,-50.51"/>
<polygon fill="#05b202" stroke="#05b202" points="853.82,-47.09 843.32,-48.49 852.4,-53.95 853.82,-47.09"/>
</g>
<!-- offer&#45;&gt;Cancel offer -->
<g id="edge25" class="edge">
<title>offer&#45;&gt;Cancel offer</title>
<path fill="none" stroke="#05b202" d="M1336.06,-105.06C1307.5,-98.91 1261.78,-88.8 1222,-84 869.04,-41.41 772.54,-93.46 425.65,-49.5"/>
<polygon fill="#05b202" stroke="#05b202" points="426.13,-46.03 415.76,-48.23 425.23,-52.98 426.13,-46.03"/>
</g>
<!-- Send (mail and online) -->
<g id="node14" class="node">
<title>Send (mail and online)</title>
<polygon fill="none" stroke="black" points="1196.5,-48 859.5,-48 859.5,0 1196.5,0 1196.5,-48"/>
<text text-anchor="middle" x="1028" y="-15.2" font-family="Times New Roman,serif" font-size="36.00">Send (mail and online)</text>
</g>
<!-- offer&#45;&gt;Send (mail and online) -->
<g id="edge27" class="edge">
<title>offer&#45;&gt;Send (mail and online)</title>
<path fill="none" stroke="#05b202" d="M1336.48,-102.92C1319.56,-97.31 1297.59,-89.59 1278,-84 1235.15,-71.78 1187.75,-60.38 1145.83,-50.92"/>
<polygon fill="#05b202" stroke="#05b202" points="1146.73,-47.54 1136.2,-48.77 1145.2,-54.37 1146.73,-47.54"/>
</g>
<!-- offer&#45;&gt;Cancel application -->
<g id="edge31" class="edge">
<title>offer&#45;&gt;Cancel application</title>
<path fill="none" stroke="#05b202" d="M1336.36,-104.04C1319.5,-97.93 1297.43,-89.9 1277.61,-85.96 1034.81,-36.91 964.61,-75.94 721.44,-51.23"/>
<path fill="none" stroke="white" d="M1337.04,-102.16C1320.19,-96.05 1298.11,-88.02 1278,-84 1033.84,-35.16 963.64,-74.19 721.65,-49.24"/>
<path fill="none" stroke="#05b202" d="M1337.72,-100.28C1320.87,-94.17 1298.8,-86.14 1278.39,-82.04 1032.86,-33.41 962.67,-72.44 721.85,-47.25"/>
<polygon fill="#05b202" stroke="#05b202" points="722.19,-45.77 711.87,-48.2 721.45,-52.74 722.19,-45.77"/>
</g>
<!-- offer&#45;&gt;Create offer -->
<g id="edge35" class="edge">
<title>offer&#45;&gt;Create offer</title>
<path fill="none" stroke="#05b202" d="M1386.1,-95.91C1407.52,-84.34 1440.18,-67.68 1469.21,-53.41"/>
<polygon fill="#05b202" stroke="#05b202" points="1470.5,-56.68 1477.94,-49.14 1467.42,-50.39 1470.5,-56.68"/>
</g>
<!-- offer&#45;&gt;Refuse offer -->
<g id="edge39" class="edge">
<title>offer&#45;&gt;Refuse offer</title>
<path fill="none" stroke="#05b202" d="M1389.56,-103.27C1439.26,-91.37 1548.44,-66.47 1631.66,-47.94"/>
<polygon fill="#05b202" stroke="#05b202" points="1632.22,-51.4 1641.22,-45.81 1630.7,-44.57 1632.22,-51.4"/>
</g>
<!-- offer&#45;&gt;Deny -->
<g id="edge43" class="edge">
<title>offer&#45;&gt;Deny</title>
<path fill="none" stroke="#05b202" d="M1390.25,-105.22C1477.88,-96.34 1749.01,-69.04 1834.48,-46.07 1836.7,-45.47 1838.99,-44.79 1841.26,-44.07"/>
<path fill="none" stroke="white" d="M1390.45,-107.21C1478.08,-98.33 1749.21,-71.03 1835,-48 1837.26,-47.39 1839.56,-46.71 1841.87,-45.98"/>
<path fill="none" stroke="#05b202" d="M1390.65,-109.2C1478.28,-100.32 1749.41,-73.02 1835.52,-49.93 1837.83,-49.31 1840.13,-48.63 1842.47,-47.88"/>
<polygon fill="#05b202" stroke="#05b202" points="1842.98,-49.29 1851.27,-42.7 1840.68,-42.68 1842.98,-49.29"/>
</g>
<!-- offer&#45;&gt;Call -->
<g id="edge53" class="edge">
<title>offer&#45;&gt;Call</title>
<path fill="none" stroke="#05b202" d="M1390.44,-107.57C1498.61,-97.91 1890.9,-63.8 1945,-48 1947.37,-47.31 1949.76,-46.5 1952.16,-45.6"/>
<polygon fill="#05b202" stroke="#05b202" points="1953.33,-48.9 1961.21,-41.82 1950.64,-42.44 1953.33,-48.9"/>
</g>
<!-- Send (online) -->
<g id="node23" class="node">
<title>Send (online)</title>
<polygon fill="none" stroke="black" points="1421,-48 1215,-48 1215,0 1421,0 1421,-48"/>
<text text-anchor="middle" x="1318" y="-15.2" font-family="Times New Roman,serif" font-size="36.00">Send (online)</text>
</g>
<!-- offer&#45;&gt;Send (online) -->
<g id="edge55" class="edge">
<title>offer&#45;&gt;Send (online)</title>
<path fill="none" stroke="#05b202" d="M1346.23,-89.55C1340.5,-80.24 1334.32,-69.01 1329.11,-58.55"/>
<polygon fill="#05b202" stroke="#05b202" points="1332.4,-57.31 1324.93,-49.8 1326.09,-60.33 1332.4,-57.31"/>
</g>
<!-- Shorten completion&#45;&gt;application -->
<g id="edge2" class="edge">
<title>Shorten completion&#45;&gt;application</title>
<path fill="none" stroke="#a13ccd" d="M292.26,-220.33C298.25,-221.04 304.18,-221.71 310,-222.32 791.09,-272.76 1374.73,-295.22 1558.1,-301.51"/>
<polygon fill="#a13ccd" stroke="#a13ccd" points="1557.97,-305 1568.08,-301.85 1558.21,-298.01 1557.97,-305"/>
</g>
<!-- Handle leads&#45;&gt;application -->
<g id="edge4" class="edge">
<title>Handle leads&#45;&gt;application</title>
<path fill="none" stroke="#a13ccd" d="M510.41,-219.55C516.36,-220.57 522.26,-221.51 528,-222.32 919.45,-277.84 1395.22,-296.61 1558.15,-301.76"/>
<polygon fill="#a13ccd" stroke="#a13ccd" points="1557.72,-305.25 1567.82,-302.06 1557.93,-298.25 1557.72,-305.25"/>
</g>
<!-- Personal loan collection&#45;&gt;application -->
<g id="edge6" class="edge">
<title>Personal loan collection&#45;&gt;application</title>
<path fill="none" stroke="#a13ccd" d="M879.97,-220.29C885.72,-220.98 891.41,-221.66 897,-222.32 1143.22,-251.43 1436.64,-283.25 1558.59,-296.77"/>
<polygon fill="#a13ccd" stroke="#a13ccd" points="1558.02,-300.22 1568.35,-297.85 1558.79,-293.27 1558.02,-300.22"/>
</g>
<!-- Create application&#45;&gt;application -->
<g id="edge8" class="edge">
<title>Create application&#45;&gt;application</title>
<path fill="none" stroke="#a13ccd" d="M1170.79,-222.77C1294.27,-244.55 1469.8,-276.03 1559.12,-292.49"/>
<polygon fill="#a13ccd" stroke="#a13ccd" points="1558.4,-295.91 1568.87,-294.29 1559.67,-289.03 1558.4,-295.91"/>
</g>
<!-- Accept offer&#45;&gt;application -->
<g id="edge10" class="edge">
<title>Accept offer&#45;&gt;application</title>
<path fill="none" stroke="#a13ccd" d="M1452.95,-222.82C1487.47,-238.71 1531.62,-259.76 1565.31,-276.36"/>
<polygon fill="#a13ccd" stroke="#a13ccd" points="1563.53,-279.39 1574.05,-280.69 1566.64,-273.11 1563.53,-279.39"/>
</g>
<!-- Accept offer&#45;&gt;offer -->
<g id="edge12" class="edge">
<title>Accept offer&#45;&gt;offer</title>
<path fill="none" stroke="#05b202" d="M1382.35,-174.05C1378.59,-166.3 1374.76,-157.46 1371.42,-148.93"/>
<polygon fill="#05b202" stroke="#05b202" points="1374.8,-147.98 1368.03,-139.83 1368.24,-150.42 1374.8,-147.98"/>
</g>
<!-- Return&#45;&gt;offer -->
<g id="edge14" class="edge">
<title>Return&#45;&gt;offer</title>
<path fill="none" stroke="#05b202" d="M841.82,-43.49C847.59,-45.23 853.38,-46.8 859,-48 1049.55,-88.84 1105.27,-43.97 1296,-84 1306.83,-86.27 1318.25,-89.65 1328.58,-93.23"/>
<polygon fill="#05b202" stroke="#05b202" points="1327.26,-96.47 1337.86,-96.62 1329.67,-89.9 1327.26,-96.47"/>
</g>
<!-- Complete&#45;&gt;application -->
<g id="edge16" class="edge">
<title>Complete&#45;&gt;application</title>
<path fill="none" stroke="#a13ccd" d="M1775.34,-222.67C1744.62,-239.52 1701.49,-262.21 1667.81,-279.25"/>
<polygon fill="#a13ccd" stroke="#a13ccd" points="1666.39,-276.04 1659.03,-283.66 1669.54,-282.29 1666.39,-276.04"/>
</g>
<!-- Accept&#45;&gt;application -->
<g id="edge18" class="edge">
<title>Accept&#45;&gt;application</title>
<path fill="none" stroke="#a13ccd" d="M1909.36,-222.21C1909.24,-222.25 1909.12,-222.29 1909,-222.32 1827.37,-247.77 1731.58,-274.48 1672.23,-290.01"/>
<polygon fill="#a13ccd" stroke="#a13ccd" points="1671.49,-286.59 1662.69,-292.49 1673.25,-293.37 1671.49,-286.59"/>
</g>
<!-- Validate&#45;&gt;application -->
<g id="edge20" class="edge">
<title>Validate&#45;&gt;application</title>
<path fill="none" stroke="#a13ccd" d="M2044.6,-222.42C1913.1,-254.65 1756,-282.08 1673.27,-295.19"/>
<polygon fill="#a13ccd" stroke="#a13ccd" points="1672.93,-291.7 1663.59,-296.7 1674.02,-298.61 1672.93,-291.7"/>
</g>
<!-- Pending&#45;&gt;application -->
<g id="edge22" class="edge">
<title>Pending&#45;&gt;application</title>
<path fill="none" stroke="#a13ccd" d="M2198.71,-222.39C2008.91,-264.6 1778.76,-289.26 1673.45,-298.82"/>
<polygon fill="#a13ccd" stroke="#a13ccd" points="1673.3,-295.32 1663.65,-299.7 1673.92,-302.29 1673.3,-295.32"/>
</g>
<!-- Cancel offer&#45;&gt;application -->
<g id="edge24" class="edge">
<title>Cancel offer&#45;&gt;application</title>
<path fill="none" stroke="#a13ccd" d="M413.72,-44.35C419.91,-45.62 426.04,-46.85 432,-48 766.49,-112.54 867.41,-59.13 1188,-174.32 1228.1,-188.73 1231.34,-206.72 1271,-222.32 1368.82,-260.8 1489.37,-283.57 1559.07,-294.76"/>
<polygon fill="#a13ccd" stroke="#a13ccd" points="1558.31,-298.18 1568.73,-296.29 1559.4,-291.27 1558.31,-298.18"/>
</g>
<!-- Cancel offer&#45;&gt;offer -->
<g id="edge26" class="edge">
<title>Cancel offer&#45;&gt;offer</title>
<path fill="none" stroke="#05b202" d="M413.87,-45.23C420,-46.29 426.08,-47.23 432,-48 788.43,-94.63 883.12,-40.93 1240,-84 1269.23,-87.53 1301.68,-93.92 1326.01,-99.51"/>
<polygon fill="#05b202" stroke="#05b202" points="1324.91,-102.84 1335.44,-101.74 1326.52,-96.03 1324.91,-102.84"/>
</g>
<!-- Send (mail and online)&#45;&gt;offer -->
<g id="edge28" class="edge">
<title>Send (mail and online)&#45;&gt;offer</title>
<path fill="none" stroke="#05b202" d="M1151.48,-48.44C1197.25,-58.35 1249.32,-70.69 1296,-84 1306.54,-87.01 1317.78,-90.63 1328.02,-94.21"/>
<polygon fill="#05b202" stroke="#05b202" points="1326.65,-97.44 1337.24,-97.54 1329.02,-90.85 1326.65,-97.44"/>
</g>
<!-- Cancel application&#45;&gt;application -->
<g id="edge30" class="edge">
<title>Cancel application&#45;&gt;application</title>
<path fill="none" stroke="#a13ccd" d="M710.25,-45.86C716.25,-46.63 722.19,-47.35 728,-48 784.67,-54.38 1193.35,-51.2 1240,-84 1294.96,-122.65 1249.63,-179.02 1301,-222.32 1374.66,-284.41 1489.17,-300.08 1558.03,-303.42"/>
<polygon fill="#a13ccd" stroke="#a13ccd" points="1557.86,-306.92 1567.99,-303.82 1558.14,-299.92 1557.86,-306.92"/>
</g>
<!-- Cancel application&#45;&gt;offer -->
<g id="edge32" class="edge">
<title>Cancel application&#45;&gt;offer</title>
<path fill="none" stroke="#05b202" d="M710.5,-43.93C716.48,-44.68 722.42,-45.38 728.22,-46.01 978.43,-73.73 1046.93,-32.67 1296.39,-82.04 1307.41,-84.25 1318.84,-87.59 1329.26,-91.19"/>
<path fill="none" stroke="white" d="M710.25,-45.91C716.25,-46.66 722.18,-47.37 728,-48 979.46,-75.45 1047.96,-34.39 1296,-84 1306.85,-86.17 1318.28,-89.51 1328.61,-93.08"/>
<path fill="none" stroke="#05b202" d="M710,-47.9C716.01,-48.65 721.95,-49.35 727.78,-49.99 980.49,-77.17 1048.99,-36.1 1295.61,-85.96 1306.29,-88.09 1317.71,-91.43 1327.95,-94.97"/>
<polygon fill="#05b202" stroke="#05b202" points="1327.29,-96.33 1337.89,-96.48 1329.7,-89.75 1327.29,-96.33"/>
</g>
<!-- Create offer&#45;&gt;application -->
<g id="edge34" class="edge">
<title>Create offer&#45;&gt;application</title>
<path fill="none" stroke="#a13ccd" d="M1538.54,-48.26C1544.09,-85.96 1551.15,-162.27 1574,-222.32 1577.99,-232.82 1583.42,-243.42 1589.1,-253.34"/>
<polygon fill="#a13ccd" stroke="#a13ccd" points="1585.93,-254.87 1594.03,-261.7 1591.96,-251.31 1585.93,-254.87"/>
</g>
<!-- Create offer&#45;&gt;offer -->
<g id="edge36" class="edge">
<title>Create offer&#45;&gt;offer</title>
<path fill="none" stroke="#05b202" d="M1491.67,-48.4C1463.32,-63.22 1425.86,-81.97 1398.61,-94.9"/>
<polygon fill="#05b202" stroke="#05b202" points="1397.27,-91.66 1389.71,-99.08 1400.25,-98 1397.27,-91.66"/>
</g>
<!-- Refuse offer&#45;&gt;application -->
<g id="edge38" class="edge">
<title>Refuse offer&#45;&gt;application</title>
<path fill="none" stroke="#a13ccd" d="M1671,-48.37C1655.01,-56.96 1639.81,-68.52 1630,-84 1599.28,-132.47 1602.97,-199.84 1609.39,-247.11"/>
<polygon fill="#a13ccd" stroke="#a13ccd" points="1605.9,-247.47 1610.79,-256.87 1612.83,-246.47 1605.9,-247.47"/>
</g>
<!-- Refuse offer&#45;&gt;offer -->
<g id="edge40" class="edge">
<title>Refuse offer&#45;&gt;offer</title>
<path fill="none" stroke="#05b202" d="M1642.87,-48.15C1564.35,-66.24 1457.54,-90.28 1401.23,-102.43"/>
<polygon fill="#05b202" stroke="#05b202" points="1400.53,-99 1391.49,-104.52 1402,-105.84 1400.53,-99"/>
</g>
<!-- Deny&#45;&gt;application -->
<g id="edge42" class="edge">
<title>Deny&#45;&gt;application</title>
<path fill="none" stroke="#a13ccd" d="M1852.58,-48.13C1780.41,-70.59 1741.14,-32.02 1686,-84 1662.26,-106.38 1643.79,-191.07 1631.24,-248.45"/>
<polygon fill="#a13ccd" stroke="#a13ccd" points="1627.85,-247.54 1629.13,-258.06 1634.69,-249.04 1627.85,-247.54"/>
</g>
<!-- Deny&#45;&gt;offer -->
<g id="edge44" class="edge">
<title>Deny&#45;&gt;offer</title>
<path fill="none" stroke="#05b202" d="M1853.26,-50C1767.87,-72.81 1502.49,-99.69 1402.05,-108.88"/>
<path fill="none" stroke="white" d="M1852.74,-48.07C1767.67,-70.82 1502.29,-97.7 1401.87,-106.89"/>
<path fill="none" stroke="#05b202" d="M1852.22,-46.14C1767.47,-68.83 1502.09,-95.71 1401.69,-104.9"/>
<polygon fill="#05b202" stroke="#05b202" points="1401.62,-103.4 1391.97,-107.79 1402.25,-110.37 1401.62,-103.4"/>
</g>
<!-- Submit&#45;&gt;application -->
<g id="edge46" class="edge">
<title>Submit&#45;&gt;application</title>
<path fill="none" stroke="#a13ccd" d="M2348.63,-222.41C2101.34,-276.79 1798.2,-295.67 1673.55,-301.32"/>
<polygon fill="#a13ccd" stroke="#a13ccd" points="1673.75,-297.81 1663.92,-301.74 1674.06,-304.8 1673.75,-297.81"/>
</g>
<!-- Assess potential fraud&#45;&gt;application -->
<g id="edge48" class="edge">
<title>Assess potential fraud&#45;&gt;application</title>
<path fill="none" stroke="#a13ccd" d="M2486.08,-222.43C2180.46,-257.09 1813.01,-288.12 1673.44,-299.16"/>
<polygon fill="#a13ccd" stroke="#a13ccd" points="1673.42,-295.65 1663.72,-299.92 1673.97,-302.63 1673.42,-295.65"/>
</g>
<!-- Call incomplete files&#45;&gt;application -->
<g id="edge50" class="edge">
<title>Call incomplete files&#45;&gt;application</title>
<path fill="none" stroke="#a13ccd" d="M2833.33,-222.39C2388.6,-268.79 1849.18,-294.02 1673.91,-301.24"/>
<polygon fill="#a13ccd" stroke="#a13ccd" points="1673.77,-297.74 1663.92,-301.65 1674.06,-304.74 1673.77,-297.74"/>
</g>
<!-- Call&#45;&gt;application -->
<g id="edge52" class="edge">
<title>Call&#45;&gt;application</title>
<path fill="none" stroke="#a13ccd" d="M1962.77,-47.34C1894.89,-84.95 1756.75,-158.38 1737,-174.32 1705.88,-199.44 1676.49,-233.9 1654.32,-260.89"/>
<polygon fill="#a13ccd" stroke="#a13ccd" points="1651.66,-258.61 1648.04,-268.57 1657.08,-263.04 1651.66,-258.61"/>
</g>
<!-- Call&#45;&gt;offer -->
<g id="edge54" class="edge">
<title>Call&#45;&gt;offer</title>
<path fill="none" stroke="#05b202" d="M1962.67,-48.09C1908.03,-63.74 1526,-97.1 1401.8,-107.2"/>
<polygon fill="#05b202" stroke="#05b202" points="1401.79,-103.69 1392.11,-107.98 1402.36,-110.67 1401.79,-103.69"/>
</g>
<!-- Send (online)&#45;&gt;offer -->
<g id="edge56" class="edge">
<title>Send (online)&#45;&gt;offer</title>
<path fill="none" stroke="#05b202" d="M1336.52,-48.5C1341.31,-56.47 1346.31,-65.56 1350.71,-74.28"/>
<polygon fill="#05b202" stroke="#05b202" points="1347.56,-75.79 1355.08,-83.25 1353.85,-72.73 1347.56,-75.79"/>
</g>
</g>
</svg>
