<?xml version="1.0" encoding="UTF-8" standalone="no"?>
<!DOCTYPE svg PUBLIC "-//W3C//DTD SVG 1.1//EN"
 "http://www.w3.org/Graphics/SVG/1.1/DTD/svg11.dtd">
<!-- Generated by graphviz version 7.1.0 (20230121.1956)
 -->
<!-- Pages: 1 -->
<svg width="253pt" height="712pt"
 viewBox="0.00 0.00 253.00 711.63" xmlns="http://www.w3.org/2000/svg" xmlns:xlink="http://www.w3.org/1999/xlink">
<g id="graph0" class="graph" transform="scale(1 1) rotate(0) translate(4 707.63)">
<!-- customer1 -->
<g id="node1" class="node">
<title>customer1</title>
<ellipse fill="#a13ccd" stroke="#a13ccd" cx="67" cy="-254.55" rx="44.7" ry="44.7"/>
<text text-anchor="middle" x="67" y="-251.15" font-family="Times New Roman,serif" font-size="13.00">customer1</text>
</g>
<!-- Closed Incident -->
<g id="node9" class="node">
<title>Closed Incident</title>
<polygon fill="none" stroke="black" points="238,-173.7 0,-173.7 0,-125.7 238,-125.7 238,-173.7"/>
<text text-anchor="middle" x="119" y="-140.9" font-family="Times New Roman,serif" font-size="36.00">Closed Incident</text>
</g>
<!-- customer1&#45;&gt;Closed Incident -->
<g id="edge7" class="edge">
<title>customer1&#45;&gt;Closed Incident</title>
<path fill="none" stroke="#a13ccd" d="M86.96,-214.08C91.91,-204.28 97.17,-193.87 101.97,-184.38"/>
<polygon fill="#a13ccd" stroke="#a13ccd" points="105.08,-185.99 106.46,-175.49 98.83,-182.84 105.08,-185.99"/>
</g>
<!-- incident2 -->
<g id="node2" class="node">
<title>incident2</title>
<ellipse fill="#05b202" stroke="#05b202" cx="67" cy="-44.85" rx="41.12" ry="41.12"/>
<text text-anchor="middle" x="67" y="-41.45" font-family="Times New Roman,serif" font-size="13.00">incident2</text>
</g>
<!-- incident4 -->
<g id="node3" class="node">
<title>incident4</title>
<ellipse fill="none" stroke="#05b202" cx="171" cy="-254.55" rx="41.12" ry="41.12"/>
<text text-anchor="middle" x="171" y="-251.15" font-family="Times New Roman,serif" font-size="13.00">incident4</text>
</g>
<!-- incident4&#45;&gt;Closed Incident -->
<g id="edge6" class="edge">
<title>incident4&#45;&gt;Closed Incident</title>
<path fill="none" stroke="#05b202" d="M152.67,-217.29C147.23,-206.53 141.3,-194.8 135.95,-184.22"/>
<polygon fill="#05b202" stroke="#05b202" points="139.16,-182.81 131.52,-175.46 132.91,-185.97 139.16,-182.81"/>
</g>
<!-- customer2 -->
<g id="node4" class="node">
<title>customer2</title>
<ellipse fill="#a13ccd" stroke="#a13ccd" cx="171" cy="-44.85" rx="44.7" ry="44.7"/>
<text text-anchor="middle" x="171" y="-41.45" font-family="Times New Roman,serif" font-size="13.00">customer2</text>
</g>
<!-- incident1 -->
<g id="node5" class="node">
<title>incident1</title>
<ellipse fill="#05b202" stroke="#05b202" cx="171" cy="-662.57" rx="41.12" ry="41.12"/>
<text text-anchor="middle" x="171" y="-659.17" font-family="Times New Roman,serif" font-size="13.00">incident1</text>
</g>
<!-- Active -->
<g id="node7" class="node">
<title>Active</title>
<polygon fill="none" stroke="black" points="226,-585.51 116,-585.51 116,-537.51 226,-537.51 226,-585.51"/>
<text text-anchor="middle" x="171" y="-552.71" font-family="Times New Roman,serif" font-size="36.00">Active</text>
</g>
<!-- incident1&#45;&gt;Active -->
<g id="edge1" class="edge">
<title>incident1&#45;&gt;Active</title>
<path fill="none" stroke="#05b202" d="M171,-621C171,-613.14 171,-604.98 171,-597.33"/>
<polygon fill="#05b202" stroke="#05b202" points="174.5,-597.36 171,-587.36 167.5,-597.36 174.5,-597.36"/>
</g>
<!-- incident3 -->
<g id="node6" class="node">
<title>incident3</title>
<ellipse fill="none" stroke="#05b202" cx="171" cy="-460.45" rx="41.12" ry="41.12"/>
<text text-anchor="middle" x="171" y="-457.05" font-family="Times New Roman,serif" font-size="13.00">incident3</text>
</g>
<!-- Resolved -->
<g id="node8" class="node">
<title>Resolved</title>
<polygon fill="none" stroke="black" points="245,-383.4 97,-383.4 97,-335.4 245,-335.4 245,-383.4"/>
<text text-anchor="middle" x="171" y="-350.6" font-family="Times New Roman,serif" font-size="36.00">Resolved</text>
</g>
<!-- incident3&#45;&gt;Resolved -->
<g id="edge2" class="edge">
<title>incident3&#45;&gt;Resolved</title>
<path fill="none" stroke="#05b202" d="M171,-418.88C171,-411.02 171,-402.86 171,-395.21"/>
<polygon fill="#05b202" stroke="#05b202" points="174.5,-395.24 171,-385.24 167.5,-395.24 174.5,-395.24"/>
</g>
<!-- Active&#45;&gt;incident3 -->
<g id="edge5" class="edge">
<title>Active&#45;&gt;incident3</title>
<path fill="none" stroke="#05b202" d="M171,-537.04C171,-529.8 171,-521.53 171,-513.17"/>
<polygon fill="#05b202" stroke="#05b202" points="174.5,-513.32 171,-503.32 167.5,-513.32 174.5,-513.32"/>
</g>
<!-- Resolved&#45;&gt;incident4 -->
<g id="edge4" class="edge">
<title>Resolved&#45;&gt;incident4</title>
<path fill="none" stroke="#05b202" d="M171,-335.06C171,-326.79 171,-317.13 171,-307.45"/>
<polygon fill="#05b202" stroke="#05b202" points="174.5,-307.67 171,-297.67 167.5,-307.67 174.5,-307.67"/>
</g>
<!-- Closed Incident&#45;&gt;incident2 -->
<g id="edge3" class="edge">
<title>Closed Incident&#45;&gt;incident2</title>
<path fill="none" stroke="#05b202" d="M107.2,-125.36C102.19,-115.46 96.18,-103.55 90.34,-92.01"/>
<polygon fill="#05b202" stroke="#05b202" points="93.6,-90.71 85.97,-83.36 87.35,-93.86 93.6,-90.71"/>
</g>
<!-- Closed Incident&#45;&gt;customer2 -->
<g id="edge8" class="edge">
<title>Closed Incident&#45;&gt;customer2</title>
<path fill="none" stroke="#a13ccd" d="M130.8,-125.36C135.34,-116.38 140.72,-105.75 146.03,-95.23"/>
<polygon fill="#a13ccd" stroke="#a13ccd" points="149.01,-97.09 150.4,-86.59 142.77,-93.93 149.01,-97.09"/>
</g>
</g>
</svg>
