<?xml version="1.0" encoding="UTF-8" standalone="no"?>
<!DOCTYPE svg PUBLIC "-//W3C//DTD SVG 1.1//EN"
 "http://www.w3.org/Graphics/SVG/1.1/DTD/svg11.dtd">
<!-- Generated by graphviz version 7.1.0 (20230121.1956)
 -->
<!-- Pages: 1 -->
<svg width="1786pt" height="367pt"
 viewBox="0.00 0.00 1785.50 367.39" xmlns="http://www.w3.org/2000/svg" xmlns:xlink="http://www.w3.org/1999/xlink">
<g id="graph0" class="graph" transform="scale(1 1) rotate(0) translate(4 363.39)">
<!-- incident -->
<g id="node1" class="node">
<title>incident</title>
<ellipse fill="#05b202" stroke="#05b202" cx="1020" cy="-322.76" rx="36.77" ry="36.77"/>
<text text-anchor="middle" x="1020" y="-319.36" font-family="Times New Roman,serif" font-size="13.00">incident</text>
</g>
<!-- Closed Incident -->
<g id="node3" class="node">
<title>Closed Incident</title>
<polygon fill="none" stroke="black" points="238,-250.12 0,-250.12 0,-202.12 238,-202.12 238,-250.12"/>
<text text-anchor="middle" x="119" y="-217.32" font-family="Times New Roman,serif" font-size="36.00">Closed Incident</text>
</g>
<!-- incident&#45;&gt;Closed Incident -->
<g id="edge1" class="edge">
<title>incident&#45;&gt;Closed Incident</title>
<path fill="none" stroke="#05b202" d="M982.96,-319.69C871.85,-312.91 532.57,-289.53 249.72,-251.7"/>
<polygon fill="#05b202" stroke="#05b202" points="250.3,-248.24 239.92,-250.38 249.36,-255.18 250.3,-248.24"/>
</g>
<!-- Awaiting Evidence -->
<g id="node4" class="node">
<title>Awaiting Evidence</title>
<polygon fill="none" stroke="black" points="543.5,-250.12 256.5,-250.12 256.5,-202.12 543.5,-202.12 543.5,-250.12"/>
<text text-anchor="middle" x="400" y="-217.32" font-family="Times New Roman,serif" font-size="36.00">Awaiting Evidence</text>
</g>
<!-- incident&#45;&gt;Awaiting Evidence -->
<g id="edge5" class="edge">
<title>incident&#45;&gt;Awaiting Evidence</title>
<path fill="none" stroke="#05b202" d="M983.4,-316.67C901.19,-304.64 698.21,-273.79 554.84,-251.67"/>
<polygon fill="#05b202" stroke="#05b202" points="555.67,-248.26 545.25,-250.19 554.6,-255.17 555.67,-248.26"/>
</g>
<!-- Awaiting Problem -->
<g id="node5" class="node">
<title>Awaiting Problem</title>
<polygon fill="none" stroke="black" points="838,-250.12 562,-250.12 562,-202.12 838,-202.12 838,-250.12"/>
<text text-anchor="middle" x="700" y="-217.32" font-family="Times New Roman,serif" font-size="36.00">Awaiting Problem</text>
</g>
<!-- incident&#45;&gt;Awaiting Problem -->
<g id="edge7" class="edge">
<title>incident&#45;&gt;Awaiting Problem</title>
<path fill="none" stroke="#05b202" d="M984.21,-312.42C936.08,-298.93 849.24,-273.44 784.14,-253.82"/>
<polygon fill="#05b202" stroke="#05b202" points="785.52,-250.58 774.93,-251.04 783.49,-257.28 785.52,-250.58"/>
</g>
<!-- Active -->
<g id="node6" class="node">
<title>Active</title>
<polygon fill="none" stroke="black" points="966,-250.12 856,-250.12 856,-202.12 966,-202.12 966,-250.12"/>
<text text-anchor="middle" x="911" y="-217.32" font-family="Times New Roman,serif" font-size="36.00">Active</text>
</g>
<!-- incident&#45;&gt;Active -->
<g id="edge9" class="edge">
<title>incident&#45;&gt;Active</title>
<path fill="none" stroke="#05b202" d="M990.09,-300.75C974.49,-288.16 955.57,-271.93 940.1,-257.91"/>
<polygon fill="#05b202" stroke="#05b202" points="942.74,-255.59 933.01,-251.41 938.01,-260.75 942.74,-255.59"/>
</g>
<!-- Awaiting User Info -->
<g id="node7" class="node">
<title>Awaiting User Info</title>
<polygon fill="none" stroke="black" points="1274,-250.12 984,-250.12 984,-202.12 1274,-202.12 1274,-250.12"/>
<text text-anchor="middle" x="1129" y="-217.32" font-family="Times New Roman,serif" font-size="36.00">Awaiting User Info</text>
</g>
<!-- incident&#45;&gt;Awaiting User Info -->
<g id="edge11" class="edge">
<title>incident&#45;&gt;Awaiting User Info</title>
<path fill="none" stroke="#05b202" d="M1044.51,-295.14C1057.23,-283.46 1073.03,-269.68 1087.55,-257.59"/>
<polygon fill="#05b202" stroke="#05b202" points="1089.72,-260.34 1095.21,-251.28 1085.27,-254.94 1089.72,-260.34"/>
</g>
<!-- New Incident -->
<g id="node8" class="node">
<title>New Incident</title>
<polygon fill="none" stroke="black" points="819,-48 611,-48 611,0 819,0 819,-48"/>
<text text-anchor="middle" x="715" y="-15.2" font-family="Times New Roman,serif" font-size="36.00">New Incident</text>
</g>
<!-- incident&#45;&gt;New Incident -->
<g id="edge13" class="edge">
<title>incident&#45;&gt;New Incident</title>
<path fill="none" stroke="#05b202" d="M1057.02,-318.59C1140.94,-310.29 1333.23,-282.63 1274,-202.12 1220.78,-129.77 977.77,-73.99 830.19,-45.64"/>
<polygon fill="#05b202" stroke="#05b202" points="831.26,-42.28 820.78,-43.85 829.95,-49.16 831.26,-42.28"/>
</g>
<!-- Resolved -->
<g id="node9" class="node">
<title>Resolved</title>
<polygon fill="none" stroke="black" points="1496,-250.12 1348,-250.12 1348,-202.12 1496,-202.12 1496,-250.12"/>
<text text-anchor="middle" x="1422" y="-217.32" font-family="Times New Roman,serif" font-size="36.00">Resolved</text>
</g>
<!-- incident&#45;&gt;Resolved -->
<g id="edge17" class="edge">
<title>incident&#45;&gt;Resolved</title>
<path fill="none" stroke="#05b202" d="M1055.82,-312.67C1113,-299.45 1227.78,-273.91 1325,-250.12 1328.8,-249.19 1332.68,-248.22 1336.61,-247.24"/>
<polygon fill="#05b202" stroke="#05b202" points="1337.45,-250.64 1346.29,-244.8 1335.74,-243.85 1337.45,-250.64"/>
</g>
<!-- Awaiting Vendor -->
<g id="node10" class="node">
<title>Awaiting Vendor</title>
<polygon fill="none" stroke="black" points="1777.5,-250.12 1514.5,-250.12 1514.5,-202.12 1777.5,-202.12 1777.5,-250.12"/>
<text text-anchor="middle" x="1646" y="-217.32" font-family="Times New Roman,serif" font-size="36.00">Awaiting Vendor</text>
</g>
<!-- incident&#45;&gt;Awaiting Vendor -->
<g id="edge19" class="edge">
<title>incident&#45;&gt;Awaiting Vendor</title>
<path fill="none" stroke="#05b202" d="M1056.53,-315.83C1136.44,-303.83 1331.99,-275.61 1496,-250.12 1498.35,-249.75 1500.71,-249.38 1503.1,-249.01"/>
<polygon fill="#05b202" stroke="#05b202" points="1503.54,-252.48 1512.87,-247.47 1502.45,-245.57 1503.54,-252.48"/>
</g>
<!-- customer -->
<g id="node2" class="node">
<title>customer</title>
<ellipse fill="#a13ccd" stroke="#a13ccd" cx="676" cy="-125.06" rx="41.12" ry="41.12"/>
<text text-anchor="middle" x="676" y="-121.66" font-family="Times New Roman,serif" font-size="13.00">customer</text>
</g>
<!-- customer&#45;&gt;Closed Incident -->
<g id="edge3" class="edge">
<title>customer&#45;&gt;Closed Incident</title>
<path fill="none" stroke="#a13ccd" d="M635.44,-134.18C560.41,-148.06 395.43,-177.23 256,-202.12 253.83,-202.5 251.65,-202.9 249.44,-203.29"/>
<polygon fill="#a13ccd" stroke="#a13ccd" points="249.02,-199.81 239.79,-205.01 250.25,-206.7 249.02,-199.81"/>
</g>
<!-- customer&#45;&gt;New Incident -->
<g id="edge15" class="edge">
<title>customer&#45;&gt;New Incident</title>
<path fill="none" stroke="#a13ccd" d="M684.9,-84.62C688.05,-76.07 691.65,-67.1 695.26,-58.78"/>
<polygon fill="#a13ccd" stroke="#a13ccd" points="698.43,-60.26 699.36,-49.71 692.06,-57.38 698.43,-60.26"/>
</g>
<!-- Closed Incident&#45;&gt;incident -->
<g id="edge2" class="edge">
<title>Closed Incident&#45;&gt;incident</title>
<path fill="none" stroke="#05b202" d="M238.21,-247.54C244.23,-248.46 250.18,-249.33 256,-250.12 525.47,-286.75 850.39,-310.14 971.52,-318.41"/>
<polygon fill="#05b202" stroke="#05b202" points="971.21,-321.89 981.42,-319.08 971.68,-314.91 971.21,-321.89"/>
</g>
<!-- Closed Incident&#45;&gt;customer -->
<g id="edge4" class="edge">
<title>Closed Incident&#45;&gt;customer</title>
<path fill="none" stroke="#a13ccd" d="M238.28,-202.07C377.32,-177.25 541.67,-148.19 623.89,-134.28"/>
<polygon fill="#a13ccd" stroke="#a13ccd" points="624.41,-137.75 633.69,-132.64 623.24,-130.85 624.41,-137.75"/>
</g>
<!-- Awaiting Evidence&#45;&gt;incident -->
<g id="edge6" class="edge">
<title>Awaiting Evidence&#45;&gt;incident</title>
<path fill="none" stroke="#05b202" d="M543.7,-248.18C681.67,-268.96 882.01,-299.63 972.54,-313.91"/>
<polygon fill="#05b202" stroke="#05b202" points="971.88,-317.35 982.3,-315.45 972.97,-310.44 971.88,-317.35"/>
</g>
<!-- Awaiting Problem&#45;&gt;incident -->
<g id="edge8" class="edge">
<title>Awaiting Problem&#45;&gt;incident</title>
<path fill="none" stroke="#05b202" d="M785.18,-250.56C845.83,-268.1 924.93,-291.58 974.14,-306.68"/>
<polygon fill="#05b202" stroke="#05b202" points="973.04,-310.01 983.62,-309.61 975.1,-303.32 973.04,-310.01"/>
</g>
<!-- Active&#45;&gt;incident -->
<g id="edge10" class="edge">
<title>Active&#45;&gt;incident</title>
<path fill="none" stroke="#05b202" d="M943.62,-250.32C957.42,-261.54 973.4,-275.24 987.21,-287.63"/>
<polygon fill="#05b202" stroke="#05b202" points="984.61,-290 994.37,-294.12 989.31,-284.81 984.61,-290"/>
</g>
<!-- Awaiting User Info&#45;&gt;incident -->
<g id="edge12" class="edge">
<title>Awaiting User Info&#45;&gt;incident</title>
<path fill="none" stroke="#05b202" d="M1108.11,-250.39C1094,-263.51 1075.13,-279.98 1058.42,-293.8"/>
<polygon fill="#05b202" stroke="#05b202" points="1056.61,-290.76 1051.08,-299.79 1061.04,-296.18 1056.61,-290.76"/>
</g>
<!-- New Incident&#45;&gt;incident -->
<g id="edge14" class="edge">
<title>New Incident&#45;&gt;incident</title>
<path fill="none" stroke="#05b202" d="M819.27,-41.42C969.81,-68.19 1235.99,-125.99 1292,-202.12 1350.86,-282.13 1161.28,-309.95 1068.24,-318.44"/>
<polygon fill="#05b202" stroke="#05b202" points="1068.03,-314.94 1058.37,-319.29 1068.63,-321.92 1068.03,-314.94"/>
</g>
<!-- New Incident&#45;&gt;customer -->
<g id="edge16" class="edge">
<title>New Incident&#45;&gt;customer</title>
<path fill="none" stroke="#a13ccd" d="M711.65,-48.32C708.79,-57.38 704.87,-68.08 700.65,-78.54"/>
<polygon fill="#a13ccd" stroke="#a13ccd" points="697.55,-76.88 696.93,-87.46 704.01,-79.57 697.55,-76.88"/>
</g>
<!-- Resolved&#45;&gt;incident -->
<g id="edge18" class="edge">
<title>Resolved&#45;&gt;incident</title>
<path fill="none" stroke="#05b202" d="M1347.64,-248.98C1346.08,-249.36 1344.53,-249.74 1343,-250.12 1245.6,-273.95 1130.57,-299.55 1067.31,-312.74"/>
<polygon fill="#05b202" stroke="#05b202" points="1066.69,-309.3 1057.6,-314.75 1068.1,-316.15 1066.69,-309.3"/>
</g>
<!-- Awaiting Vendor&#45;&gt;incident -->
<g id="edge20" class="edge">
<title>Awaiting Vendor&#45;&gt;incident</title>
<path fill="none" stroke="#05b202" d="M1513.5,-250.2C1350.4,-275.54 1156.26,-303.57 1067.87,-315.66"/>
<polygon fill="#05b202" stroke="#05b202" points="1067.56,-312.17 1058.12,-316.98 1068.5,-319.1 1067.56,-312.17"/>
</g>
</g>
</svg>
