<?xml version="1.0" encoding="UTF-8" standalone="no"?>
<!DOCTYPE svg PUBLIC "-//W3C//DTD SVG 1.1//EN"
 "http://www.w3.org/Graphics/SVG/1.1/DTD/svg11.dtd">
<!-- Generated by graphviz version 7.1.0 (20230121.1956)
 -->
<!-- Pages: 1 -->
<svg width="1251pt" height="511pt"
 viewBox="0.00 0.00 1250.50 511.40" xmlns="http://www.w3.org/2000/svg" xmlns:xlink="http://www.w3.org/1999/xlink">
<g id="graph0" class="graph" transform="scale(1 1) rotate(0) translate(4 507.4)">
<!-- order -->
<g id="node1" class="node">
<title>order</title>
<ellipse fill="#a13ccd" stroke="#a13ccd" cx="844.5" cy="-475.6" rx="27.59" ry="27.59"/>
<text text-anchor="middle" x="844.5" y="-472.2" font-family="Times New Roman,serif" font-size="13.00">order</text>
</g>
<!-- Place Order -->
<g id="node4" class="node">
<title>Place Order</title>
<polygon fill="none" stroke="black" points="624.5,-411.81 438.5,-411.81 438.5,-363.81 624.5,-363.81 624.5,-411.81"/>
<text text-anchor="middle" x="531.5" y="-379.01" font-family="Times New Roman,serif" font-size="36.00">Place Order</text>
</g>
<!-- order&#45;&gt;Place Order -->
<g id="edge1" class="edge">
<title>order&#45;&gt;Place Order</title>
<path fill="none" stroke="#a13ccd" d="M817.47,-468.22C774.37,-457.17 688.48,-433.86 622,-415.34"/>
<polygon fill="#a13ccd" stroke="#a13ccd" points="623.12,-412.02 612.54,-412.7 621.23,-418.76 623.12,-412.02"/>
</g>
<!-- Pay Order -->
<g id="node8" class="node">
<title>Pay Order</title>
<polygon fill="none" stroke="black" points="804.5,-411.81 642.5,-411.81 642.5,-363.81 804.5,-363.81 804.5,-411.81"/>
<text text-anchor="middle" x="723.5" y="-379.01" font-family="Times New Roman,serif" font-size="36.00">Pay Order</text>
</g>
<!-- order&#45;&gt;Pay Order -->
<g id="edge13" class="edge">
<title>order&#45;&gt;Pay Order</title>
<path fill="none" stroke="#a13ccd" d="M820.53,-461.2C803,-449.89 779.1,-433.27 759.35,-418.82"/>
<polygon fill="#a13ccd" stroke="#a13ccd" points="761.66,-416.17 751.54,-413.04 757.5,-421.8 761.66,-416.17"/>
</g>
<!-- Payment Reminder -->
<g id="node9" class="node">
<title>Payment Reminder</title>
<polygon fill="none" stroke="black" points="1110.5,-411.81 822.5,-411.81 822.5,-363.81 1110.5,-363.81 1110.5,-411.81"/>
<text text-anchor="middle" x="966.5" y="-379.01" font-family="Times New Roman,serif" font-size="36.00">Payment Reminder</text>
</g>
<!-- order&#45;&gt;Payment Reminder -->
<g id="edge15" class="edge">
<title>order&#45;&gt;Payment Reminder</title>
<path fill="none" stroke="#a13ccd" d="M864.74,-456.41C879.22,-445.43 899.21,-431.19 917.67,-418.6"/>
<polygon fill="#a13ccd" stroke="#a13ccd" points="919.56,-421.55 925.89,-413.05 915.65,-415.75 919.56,-421.55"/>
</g>
<!-- Confirm Order -->
<g id="node10" class="node">
<title>Confirm Order</title>
<polygon fill="none" stroke="black" points="1242.5,-241.27 1014.5,-241.27 1014.5,-193.27 1242.5,-193.27 1242.5,-241.27"/>
<text text-anchor="middle" x="1128.5" y="-208.47" font-family="Times New Roman,serif" font-size="36.00">Confirm Order</text>
</g>
<!-- order&#45;&gt;Confirm Order -->
<g id="edge17" class="edge">
<title>order&#45;&gt;Confirm Order</title>
<path fill="none" stroke="#a13ccd" d="M872.23,-471.98C934.13,-465.96 1079.64,-448.72 1110.5,-411.81 1147.58,-367.47 1138.93,-295.45 1131.96,-252.89"/>
<polygon fill="#a13ccd" stroke="#a13ccd" points="1135.45,-252.49 1130.33,-243.21 1128.54,-253.65 1135.45,-252.49"/>
</g>
<!-- item -->
<g id="node2" class="node">
<title>item</title>
<ellipse fill="#ba0d39" stroke="#ba0d39" cx="609.5" cy="-302.54" rx="25.04" ry="25.04"/>
<text text-anchor="middle" x="609.5" y="-299.14" font-family="Times New Roman,serif" font-size="13.00">item</text>
</g>
<!-- item&#45;&gt;Place Order -->
<g id="edge3" class="edge">
<title>item&#45;&gt;Place Order</title>
<path fill="none" stroke="#ba0d39" d="M597.71,-325.35C589.63,-334.87 579.14,-346.3 568.87,-356.84"/>
<path fill="none" stroke="white" d="M596.19,-324.06C588.16,-333.51 577.67,-344.95 567.44,-355.45"/>
<path fill="none" stroke="#ba0d39" d="M594.67,-322.76C586.68,-332.16 576.19,-343.59 566.01,-354.05"/>
<polygon fill="#ba0d39" stroke="#ba0d39" points="564.97,-352.97 560.42,-362.54 569.94,-357.9 564.97,-352.97"/>
</g>
<!-- Reorder Item -->
<g id="node5" class="node">
<title>Reorder Item</title>
<polygon fill="none" stroke="black" points="205,-241.27 0,-241.27 0,-193.27 205,-193.27 205,-241.27"/>
<text text-anchor="middle" x="102.5" y="-208.47" font-family="Times New Roman,serif" font-size="36.00">Reorder Item</text>
</g>
<!-- item&#45;&gt;Reorder Item -->
<g id="edge5" class="edge">
<title>item&#45;&gt;Reorder Item</title>
<path fill="none" stroke="#ba0d39" d="M584.6,-298.64C523.02,-290.62 359.77,-267.2 216.42,-242.3"/>
<polygon fill="#ba0d39" stroke="#ba0d39" points="217.21,-238.88 206.75,-240.61 216,-245.78 217.21,-238.88"/>
</g>
<!-- End Route -->
<g id="node6" class="node">
<title>End Route</title>
<polygon fill="none" stroke="black" points="498,-48 331,-48 331,0 498,0 498,-48"/>
<text text-anchor="middle" x="414.5" y="-15.2" font-family="Times New Roman,serif" font-size="36.00">End Route</text>
</g>
<!-- item&#45;&gt;End Route -->
<g id="edge7" class="edge">
<title>item&#45;&gt;End Route</title>
<path fill="none" stroke="#ba0d39" d="M584.13,-303.15C510.8,-301.43 302.39,-292.18 259.97,-242.56 208.09,-177.62 300.17,-96.11 362.93,-52.93"/>
<path fill="none" stroke="white" d="M584.18,-301.15C510.89,-299.43 302.48,-290.19 261.5,-241.27 209.42,-179.12 301.49,-97.61 364.06,-54.57"/>
<path fill="none" stroke="#ba0d39" d="M584.23,-299.15C510.98,-297.43 302.57,-288.19 263.03,-239.99 210.74,-180.61 302.82,-99.1 365.2,-56.22"/>
<polygon fill="#ba0d39" stroke="#ba0d39" points="365.85,-57.59 372.19,-49.1 361.94,-51.79 365.85,-57.59"/>
</g>
<!-- item&#45;&gt;Confirm Order -->
<g id="edge19" class="edge">
<title>item&#45;&gt;Confirm Order</title>
<path fill="none" stroke="#ba0d39" d="M633.81,-295.09C699,-284.06 878.84,-255.08 1002.67,-235.51"/>
<path fill="none" stroke="white" d="M634.14,-297.06C699.32,-286.04 879.16,-257.05 1002.99,-237.48"/>
<path fill="none" stroke="#ba0d39" d="M634.47,-299.04C699.64,-288.01 879.48,-259.02 1003.3,-239.46"/>
<polygon fill="#ba0d39" stroke="#ba0d39" points="1003.21,-240.99 1012.55,-235.97 1002.12,-234.08 1003.21,-240.99"/>
</g>
<!-- Item out of stock -->
<g id="node11" class="node">
<title>Item out of stock</title>
<polygon fill="none" stroke="black" points="535.5,-241.27 279.5,-241.27 279.5,-193.27 535.5,-193.27 535.5,-241.27"/>
<text text-anchor="middle" x="407.5" y="-208.47" font-family="Times New Roman,serif" font-size="36.00">Item out of stock</text>
</g>
<!-- item&#45;&gt;Item out of stock -->
<g id="edge21" class="edge">
<title>item&#45;&gt;Item out of stock</title>
<path fill="none" stroke="#ba0d39" d="M585.95,-293.56C557.29,-282.71 508.13,-262.75 468.61,-246.11"/>
<polygon fill="#ba0d39" stroke="#ba0d39" points="469.98,-242.88 459.4,-242.21 467.25,-249.33 469.98,-242.88"/>
</g>
<!-- Pick Item -->
<g id="node12" class="node">
<title>Pick Item</title>
<polygon fill="none" stroke="black" points="705.5,-241.27 553.5,-241.27 553.5,-193.27 705.5,-193.27 705.5,-241.27"/>
<text text-anchor="middle" x="629.5" y="-208.47" font-family="Times New Roman,serif" font-size="36.00">Pick Item</text>
</g>
<!-- item&#45;&gt;Pick Item -->
<g id="edge23" class="edge">
<title>item&#45;&gt;Pick Item</title>
<path fill="none" stroke="#ba0d39" d="M609.1,-277.46C610.43,-269.73 612.36,-261.02 614.57,-252.7"/>
<polygon fill="#ba0d39" stroke="#ba0d39" points="617.91,-253.76 617.31,-243.19 611.18,-251.83 617.91,-253.76"/>
</g>
<!-- Load Cargo -->
<g id="node13" class="node">
<title>Load Cargo</title>
<polygon fill="none" stroke="black" points="1031,-48 846,-48 846,0 1031,0 1031,-48"/>
<text text-anchor="middle" x="938.5" y="-15.2" font-family="Times New Roman,serif" font-size="36.00">Load Cargo</text>
</g>
<!-- item&#45;&gt;Load Cargo -->
<g id="edge25" class="edge">
<title>item&#45;&gt;Load Cargo</title>
<path fill="none" stroke="#ba0d39" d="M634.41,-297.89C698.42,-293.41 864.59,-278.63 900.04,-239.91 945.35,-192.26 941.09,-107.31 937.16,-59.87"/>
<path fill="none" stroke="white" d="M634.55,-299.88C698.6,-295.4 864.77,-280.62 901.5,-241.27 947.35,-192.16 943.09,-107.21 939.15,-59.71"/>
<path fill="none" stroke="#ba0d39" d="M634.69,-301.88C698.77,-297.39 864.95,-282.62 902.96,-242.64 949.34,-192.06 945.08,-107.11 941.15,-59.54"/>
<polygon fill="#ba0d39" stroke="#ba0d39" points="942.66,-59.66 938.32,-49.99 935.69,-60.25 942.66,-59.66"/>
</g>
<!-- Start Route -->
<g id="node14" class="node">
<title>Start Route</title>
<polygon fill="none" stroke="black" points="901.5,-241.27 723.5,-241.27 723.5,-193.27 901.5,-193.27 901.5,-241.27"/>
<text text-anchor="middle" x="812.5" y="-208.47" font-family="Times New Roman,serif" font-size="36.00">Start Route</text>
</g>
<!-- item&#45;&gt;Start Route -->
<g id="edge29" class="edge">
<title>item&#45;&gt;Start Route</title>
<path fill="none" stroke="#ba0d39" d="M630.89,-288.65C656.65,-277.31 700.1,-259.27 738.02,-244.04"/>
<path fill="none" stroke="white" d="M631.7,-290.48C657.42,-279.16 700.87,-261.12 738.76,-245.9"/>
<path fill="none" stroke="#ba0d39" d="M632.5,-292.31C658.18,-281.01 701.63,-262.96 739.51,-247.75"/>
<polygon fill="#ba0d39" stroke="#ba0d39" points="739.89,-249.21 747.88,-242.25 737.29,-242.71 739.89,-249.21"/>
</g>
<!-- delivery -->
<g id="node3" class="node">
<title>delivery</title>
<ellipse fill="#05b202" stroke="#05b202" cx="784.5" cy="-120.64" rx="36.77" ry="36.77"/>
<text text-anchor="middle" x="784.5" y="-117.24" font-family="Times New Roman,serif" font-size="13.00">delivery</text>
</g>
<!-- delivery&#45;&gt;End Route -->
<g id="edge9" class="edge">
<title>delivery&#45;&gt;End Route</title>
<path fill="none" stroke="#05b202" d="M748.64,-111.49C693.75,-98.15 587.34,-71.11 509.27,-50.8"/>
<polygon fill="#05b202" stroke="#05b202" points="510.47,-47.49 499.91,-48.36 508.7,-54.27 510.47,-47.49"/>
</g>
<!-- Fuel Car -->
<g id="node7" class="node">
<title>Fuel Car</title>
<polygon fill="none" stroke="black" points="827.5,-48 687.5,-48 687.5,0 827.5,0 827.5,-48"/>
<text text-anchor="middle" x="757.5" y="-15.2" font-family="Times New Roman,serif" font-size="36.00">Fuel Car</text>
</g>
<!-- delivery&#45;&gt;Fuel Car -->
<g id="edge11" class="edge">
<title>delivery&#45;&gt;Fuel Car</title>
<path fill="none" stroke="#05b202" d="M768.76,-87.07C765.83,-78.12 763.03,-68.39 760.78,-59.35"/>
<polygon fill="#05b202" stroke="#05b202" points="764.25,-58.8 758.59,-49.84 757.42,-60.37 764.25,-58.8"/>
</g>
<!-- delivery&#45;&gt;Load Cargo -->
<g id="edge27" class="edge">
<title>delivery&#45;&gt;Load Cargo</title>
<path fill="none" stroke="#05b202" d="M814.05,-97.93C834.11,-84.93 861.09,-68.24 884.84,-54.11"/>
<polygon fill="#05b202" stroke="#05b202" points="886.32,-57.3 893.15,-49.2 882.76,-51.28 886.32,-57.3"/>
</g>
<!-- delivery&#45;&gt;Start Route -->
<g id="edge31" class="edge">
<title>delivery&#45;&gt;Start Route</title>
<path fill="none" stroke="#05b202" d="M800.53,-154.04C803.57,-163.01 806.48,-172.78 808.84,-181.86"/>
<polygon fill="#05b202" stroke="#05b202" points="805.4,-182.51 811.14,-191.41 812.2,-180.87 805.4,-182.51"/>
</g>
<!-- Place Order&#45;&gt;order -->
<g id="edge2" class="edge">
<title>Place Order&#45;&gt;order</title>
<path fill="none" stroke="#a13ccd" d="M622.99,-412.22C684.34,-428.7 761.85,-450.07 807.08,-463.03"/>
<polygon fill="#a13ccd" stroke="#a13ccd" points="806.1,-466.39 816.68,-465.8 808.04,-459.67 806.1,-466.39"/>
</g>
<!-- Place Order&#45;&gt;item -->
<g id="edge4" class="edge">
<title>Place Order&#45;&gt;item</title>
<path fill="none" stroke="#ba0d39" d="M545.59,-362.31C555.62,-350.71 568.65,-336.8 580.34,-325.22"/>
<path fill="none" stroke="white" d="M547.1,-363.61C557.08,-352.07 570.11,-338.17 581.75,-326.64"/>
<path fill="none" stroke="#ba0d39" d="M548.62,-364.92C558.54,-353.44 571.57,-339.53 583.15,-328.06"/>
<polygon fill="#ba0d39" stroke="#ba0d39" points="584.07,-329.26 588.82,-319.79 579.2,-324.23 584.07,-329.26"/>
</g>
<!-- Reorder Item&#45;&gt;item -->
<g id="edge6" class="edge">
<title>Reorder Item&#45;&gt;item</title>
<path fill="none" stroke="#ba0d39" d="M205.28,-237.07C213.15,-238.53 220.96,-239.95 228.5,-241.27 355.18,-263.5 505.79,-285.54 573.56,-295.71"/>
<polygon fill="#ba0d39" stroke="#ba0d39" points="572.94,-299.16 583.35,-297.19 573.99,-292.24 572.94,-299.16"/>
</g>
<!-- End Route&#45;&gt;item -->
<g id="edge8" class="edge">
<title>End Route&#45;&gt;item</title>
<path fill="none" stroke="#ba0d39" d="M385.39,-49.86C330.6,-90.73 226.02,-177.47 281.03,-239.99 317.15,-284.06 495.01,-295.59 572.96,-298.54"/>
<path fill="none" stroke="white" d="M384.2,-48.26C329.33,-89.19 224.74,-175.93 279.5,-241.27 317.02,-286.05 494.88,-297.59 572.89,-300.54"/>
<path fill="none" stroke="#ba0d39" d="M383,-46.66C328.05,-87.65 223.47,-174.39 277.97,-242.56 316.89,-288.05 494.75,-299.58 572.81,-302.54"/>
<polygon fill="#ba0d39" stroke="#ba0d39" points="572.45,-304.02 582.57,-300.87 572.69,-297.03 572.45,-304.02"/>
</g>
<!-- End Route&#45;&gt;delivery -->
<g id="edge10" class="edge">
<title>End Route&#45;&gt;delivery</title>
<path fill="none" stroke="#05b202" d="M498.42,-45.02C572.7,-63.58 678.27,-90.65 738.26,-106.58"/>
<polygon fill="#05b202" stroke="#05b202" points="737.25,-109.93 747.81,-109.12 739.05,-103.16 737.25,-109.93"/>
</g>
<!-- Fuel Car&#45;&gt;delivery -->
<g id="edge12" class="edge">
<title>Fuel Car&#45;&gt;delivery</title>
<path fill="none" stroke="#05b202" d="M770.08,-48.37C772.75,-55.75 775.44,-64.19 777.83,-72.61"/>
<polygon fill="#05b202" stroke="#05b202" points="774.42,-73.38 780.4,-82.13 781.18,-71.56 774.42,-73.38"/>
</g>
<!-- Pay Order&#45;&gt;order -->
<g id="edge14" class="edge">
<title>Pay Order&#45;&gt;order</title>
<path fill="none" stroke="#a13ccd" d="M762.42,-412.09C779.61,-423.68 799.43,-437.7 815.33,-449.52"/>
<polygon fill="#a13ccd" stroke="#a13ccd" points="812.9,-452.07 822.99,-455.29 817.11,-446.48 812.9,-452.07"/>
</g>
<!-- Payment Reminder&#45;&gt;order -->
<g id="edge16" class="edge">
<title>Payment Reminder&#45;&gt;order</title>
<path fill="none" stroke="#a13ccd" d="M939.27,-412.24C921.11,-425.7 897.25,-442.4 877.95,-455.13"/>
<polygon fill="#a13ccd" stroke="#a13ccd" points="876.08,-452.17 869.6,-460.56 879.89,-458.04 876.08,-452.17"/>
</g>
<!-- Confirm Order&#45;&gt;order -->
<g id="edge18" class="edge">
<title>Confirm Order&#45;&gt;order</title>
<path fill="none" stroke="#a13ccd" d="M1140.95,-241.72C1154.9,-281.66 1169.06,-363.3 1128.5,-411.81 1097.78,-448.55 953.45,-465.81 883.05,-471.9"/>
<polygon fill="#a13ccd" stroke="#a13ccd" points="883.19,-468.38 873.52,-472.69 883.77,-475.35 883.19,-468.38"/>
</g>
<!-- Confirm Order&#45;&gt;item -->
<g id="edge20" class="edge">
<title>Confirm Order&#45;&gt;item</title>
<path fill="none" stroke="#ba0d39" d="M1014.42,-239.53C896.94,-258.67 721.09,-286.76 645.88,-298.29"/>
<path fill="none" stroke="white" d="M1014.1,-237.56C896.63,-256.7 720.77,-284.79 645.58,-296.31"/>
<path fill="none" stroke="#ba0d39" d="M1013.78,-235.58C896.31,-254.72 720.46,-282.81 645.28,-294.34"/>
<polygon fill="#ba0d39" stroke="#ba0d39" points="645.26,-292.82 635.9,-297.79 646.31,-299.74 645.26,-292.82"/>
</g>
<!-- Item out of stock&#45;&gt;item -->
<g id="edge22" class="edge">
<title>Item out of stock&#45;&gt;item</title>
<path fill="none" stroke="#ba0d39" d="M470.44,-241.69C505.81,-255.85 548.44,-273.52 577.16,-285.98"/>
<polygon fill="#ba0d39" stroke="#ba0d39" points="575.49,-289.07 586.05,-289.88 578.29,-282.66 575.49,-289.07"/>
</g>
<!-- Pick Item&#45;&gt;item -->
<g id="edge24" class="edge">
<title>Pick Item&#45;&gt;item</title>
<path fill="none" stroke="#ba0d39" d="M630,-241.76C628.59,-250.12 626.45,-259.7 624,-268.7"/>
<polygon fill="#ba0d39" stroke="#ba0d39" points="620.67,-267.63 621.21,-278.21 627.38,-269.61 620.67,-267.63"/>
</g>
<!-- Load Cargo&#45;&gt;item -->
<g id="edge26" class="edge">
<title>Load Cargo&#45;&gt;item</title>
<path fill="none" stroke="#ba0d39" d="M950.47,-47.98C961.99,-92.36 971.22,-187.8 920.96,-242.64 883.26,-282.28 719.59,-297.14 645.71,-301.76"/>
<path fill="none" stroke="white" d="M948.54,-48.48C960,-92.55 969.23,-188 919.5,-241.27 883.08,-280.29 719.41,-295.15 645.58,-299.76"/>
<path fill="none" stroke="#ba0d39" d="M946.6,-48.99C958.01,-92.75 967.24,-188.19 918.04,-239.91 882.9,-278.3 719.23,-293.15 645.46,-297.77"/>
<polygon fill="#ba0d39" stroke="#ba0d39" points="645.82,-296.24 636.05,-300.33 646.24,-303.23 645.82,-296.24"/>
</g>
<!-- Load Cargo&#45;&gt;delivery -->
<g id="edge28" class="edge">
<title>Load Cargo&#45;&gt;delivery</title>
<path fill="none" stroke="#05b202" d="M906.25,-48.46C883.08,-63.39 851.75,-82.63 826.62,-97.34"/>
<polygon fill="#05b202" stroke="#05b202" points="825.17,-94.13 818.28,-102.18 828.68,-100.18 825.17,-94.13"/>
</g>
<!-- Start Route&#45;&gt;item -->
<g id="edge30" class="edge">
<title>Start Route&#45;&gt;item</title>
<path fill="none" stroke="#ba0d39" d="M762.49,-243.47C725.66,-259.03 676.97,-278.84 644.58,-291.33"/>
<path fill="none" stroke="white" d="M761.71,-241.62C724.91,-257.18 676.22,-276.98 643.86,-289.47"/>
<path fill="none" stroke="#ba0d39" d="M760.93,-239.78C724.15,-255.33 675.47,-275.13 643.14,-287.6"/>
<polygon fill="#ba0d39" stroke="#ba0d39" points="642.65,-286.18 634.56,-293.02 645.15,-292.72 642.65,-286.18"/>
</g>
<!-- Start Route&#45;&gt;delivery -->
<g id="edge32" class="edge">
<title>Start Route&#45;&gt;delivery</title>
<path fill="none" stroke="#05b202" d="M799.66,-192.88C796.92,-185.5 794.14,-177.06 791.66,-168.64"/>
<polygon fill="#05b202" stroke="#05b202" points="795.06,-167.8 788.99,-159.12 788.32,-169.69 795.06,-167.8"/>
</g>
</g>
</svg>
