<?xml version="1.0" encoding="UTF-8" standalone="no"?>
<!DOCTYPE svg PUBLIC "-//W3C//DTD SVG 1.1//EN"
 "http://www.w3.org/Graphics/SVG/1.1/DTD/svg11.dtd">
<!-- Generated by graphviz version 7.1.0 (20230121.1956)
 -->
<!-- Pages: 1 -->
<svg width="836pt" height="1636pt"
 viewBox="0.00 0.00 836.00 1636.31" xmlns="http://www.w3.org/2000/svg" xmlns:xlink="http://www.w3.org/1999/xlink">
<g id="graph0" class="graph" transform="scale(1 1) rotate(0) translate(4 1632.31)">
<!-- item6 -->
<g id="node1" class="node">
<title>item6</title>
<ellipse fill="none" stroke="#05b202" cx="301" cy="-1227.24" rx="29.88" ry="29.88"/>
<text text-anchor="middle" x="301" y="-1223.84" font-family="Times New Roman,serif" font-size="13.00">item6</text>
</g>
<!-- itemskip_1 -->
<g id="node28" class="node">
<title>itemskip_1</title>
<polygon fill="#000000" stroke="black" points="184,-1060.8 130,-1060.8 130,-1024.8 184,-1024.8 184,-1060.8"/>
<text text-anchor="middle" x="157" y="-1039.1" font-family="Times New Roman,serif" font-size="14.00" fill="#ffffff">t5</text>
<text text-anchor="middle" x="117.5" y="-1064.6" font-family="Times New Roman,serif" font-size="14.00" fill="#ffffff">Test</text>
</g>
<!-- item6&#45;&gt;itemskip_1 -->
<g id="edge5" class="edge">
<title>item6&#45;&gt;itemskip_1</title>
<path fill="none" stroke="#05b202" d="M271.44,-1220.79C239.05,-1213.12 188.46,-1195.73 164,-1159.02 147,-1133.51 147.82,-1097.35 151.23,-1072.37"/>
<polygon fill="#05b202" stroke="#05b202" points="154.67,-1073.03 152.8,-1062.6 147.76,-1071.92 154.67,-1073.03"/>
</g>
<!-- Item out of stock -->
<g id="node29" class="node">
<title>Item out of stock</title>
<polygon fill="none" stroke="black" points="429,-1159.02 173,-1159.02 173,-1111.02 429,-1111.02 429,-1159.02"/>
<text text-anchor="middle" x="301" y="-1126.22" font-family="Times New Roman,serif" font-size="36.00">Item out of stock</text>
</g>
<!-- item6&#45;&gt;Item out of stock -->
<g id="edge17" class="edge">
<title>item6&#45;&gt;Item out of stock</title>
<path fill="none" stroke="#05b202" d="M301,-1197.19C301,-1188.77 301,-1179.48 301,-1170.74"/>
<polygon fill="#05b202" stroke="#05b202" points="304.5,-1170.81 301,-1160.81 297.5,-1170.81 304.5,-1170.81"/>
</g>
<!-- item7 -->
<g id="node2" class="node">
<title>item7</title>
<ellipse fill="none" stroke="#05b202" cx="339" cy="-1411.67" rx="29.88" ry="29.88"/>
<text text-anchor="middle" x="339" y="-1408.27" font-family="Times New Roman,serif" font-size="13.00">item7</text>
</g>
<!-- Confirm Order -->
<g id="node36" class="node">
<title>Confirm Order</title>
<polygon fill="none" stroke="black" points="493,-1343.45 265,-1343.45 265,-1295.45 493,-1295.45 493,-1343.45"/>
<text text-anchor="middle" x="379" y="-1310.65" font-family="Times New Roman,serif" font-size="36.00">Confirm Order</text>
</g>
<!-- item7&#45;&gt;Confirm Order -->
<g id="edge38" class="edge">
<title>item7&#45;&gt;Confirm Order</title>
<path fill="none" stroke="#05b202" d="M348.96,-1383.28C353.12,-1373.89 357.86,-1363.2 362.25,-1353.3"/>
<path fill="none" stroke="white" d="M350.78,-1384.09C354.95,-1374.7 359.69,-1364.01 364.08,-1354.11"/>
<path fill="none" stroke="#05b202" d="M352.61,-1384.9C356.78,-1375.51 361.51,-1364.82 365.9,-1354.92"/>
<polygon fill="#05b202" stroke="#05b202" points="367.19,-1355.72 368.04,-1345.16 360.79,-1352.89 367.19,-1355.72"/>
</g>
<!-- order2 -->
<g id="node3" class="node">
<title>order2</title>
<ellipse fill="none" stroke="#ba0d39" cx="457" cy="-1227.24" rx="32.43" ry="32.43"/>
<text text-anchor="middle" x="457" y="-1223.84" font-family="Times New Roman,serif" font-size="13.00">order2</text>
</g>
<!-- orderskip_1 -->
<g id="node30" class="node">
<title>orderskip_1</title>
<polygon fill="#000000" stroke="black" points="484,-968.59 430,-968.59 430,-932.59 484,-932.59 484,-968.59"/>
<text text-anchor="middle" x="457" y="-946.89" font-family="Times New Roman,serif" font-size="14.00" fill="#ffffff">t7</text>
<text text-anchor="middle" x="417.5" y="-972.39" font-family="Times New Roman,serif" font-size="14.00" fill="#ffffff">Test</text>
</g>
<!-- order2&#45;&gt;orderskip_1 -->
<g id="edge40" class="edge">
<title>order2&#45;&gt;orderskip_1</title>
<path fill="none" stroke="#ba0d39" d="M457,-1194.46C457,-1140.47 457,-1031.68 457,-980.04"/>
<polygon fill="#ba0d39" stroke="#ba0d39" points="460.5,-980.29 457,-970.29 453.5,-980.29 460.5,-980.29"/>
</g>
<!-- orderinit_loop_2 -->
<g id="node37" class="node">
<title>orderinit_loop_2</title>
<polygon fill="#000000" stroke="black" points="542,-1153.02 488,-1153.02 488,-1117.02 542,-1117.02 542,-1153.02"/>
<text text-anchor="middle" x="515" y="-1131.32" font-family="Times New Roman,serif" font-size="14.00" fill="#ffffff">t14</text>
<text text-anchor="middle" x="475.5" y="-1156.82" font-family="Times New Roman,serif" font-size="14.00" fill="#ffffff">Test</text>
</g>
<!-- order2&#45;&gt;orderinit_loop_2 -->
<g id="edge7" class="edge">
<title>order2&#45;&gt;orderinit_loop_2</title>
<path fill="none" stroke="#ba0d39" d="M474.09,-1199.66C481.53,-1188.08 490.24,-1174.53 497.71,-1162.92"/>
<polygon fill="#ba0d39" stroke="#ba0d39" points="500.6,-1164.89 503.07,-1154.58 494.72,-1161.1 500.6,-1164.89"/>
</g>
<!-- order4 -->
<g id="node4" class="node">
<title>order4</title>
<ellipse fill="none" stroke="#ba0d39" cx="419" cy="-1411.67" rx="32.43" ry="32.43"/>
<text text-anchor="middle" x="419" y="-1408.27" font-family="Times New Roman,serif" font-size="13.00">order4</text>
</g>
<!-- order4&#45;&gt;Confirm Order -->
<g id="edge31" class="edge">
<title>order4&#45;&gt;Confirm Order</title>
<path fill="none" stroke="#ba0d39" d="M406.12,-1381.63C402.22,-1372.81 397.89,-1363.06 393.87,-1353.98"/>
<polygon fill="#ba0d39" stroke="#ba0d39" points="397.19,-1352.83 389.93,-1345.11 390.79,-1355.67 397.19,-1352.83"/>
</g>
<!-- order5 -->
<g id="node5" class="node">
<title>order5</title>
<ellipse fill="none" stroke="#ba0d39" cx="517" cy="-1042.8" rx="32.43" ry="32.43"/>
<text text-anchor="middle" x="517" y="-1039.4" font-family="Times New Roman,serif" font-size="13.00">order5</text>
</g>
<!-- Payment Reminder -->
<g id="node32" class="node">
<title>Payment Reminder</title>
<polygon fill="none" stroke="black" points="828,-974.59 540,-974.59 540,-926.59 828,-926.59 828,-974.59"/>
<text text-anchor="middle" x="684" y="-941.79" font-family="Times New Roman,serif" font-size="36.00">Payment Reminder</text>
</g>
<!-- order5&#45;&gt;Payment Reminder -->
<g id="edge10" class="edge">
<title>order5&#45;&gt;Payment Reminder</title>
<path fill="none" stroke="#ba0d39" d="M545.33,-1026.5C568.72,-1013.86 602.57,-995.58 630.97,-980.24"/>
<polygon fill="#ba0d39" stroke="#ba0d39" points="632.29,-983.5 639.43,-975.67 628.96,-977.34 632.29,-983.5"/>
</g>
<!-- delivery6 -->
<g id="node6" class="node">
<title>delivery6</title>
<ellipse fill="none" stroke="#a13ccd" cx="170" cy="-445.29" rx="41.12" ry="41.12"/>
<text text-anchor="middle" x="170" y="-441.89" font-family="Times New Roman,serif" font-size="13.00">delivery6</text>
</g>
<!-- Start Route -->
<g id="node27" class="node">
<title>Start Route</title>
<polygon fill="none" stroke="black" points="259,-368.24 81,-368.24 81,-320.24 259,-320.24 259,-368.24"/>
<text text-anchor="middle" x="170" y="-335.44" font-family="Times New Roman,serif" font-size="36.00">Start Route</text>
</g>
<!-- delivery6&#45;&gt;Start Route -->
<g id="edge46" class="edge">
<title>delivery6&#45;&gt;Start Route</title>
<path fill="none" stroke="#a13ccd" d="M170,-403.72C170,-395.86 170,-387.7 170,-380.05"/>
<polygon fill="#a13ccd" stroke="#a13ccd" points="173.5,-380.08 170,-370.08 166.5,-380.08 173.5,-380.08"/>
</g>
<!-- item3 -->
<g id="node7" class="node">
<title>item3</title>
<ellipse fill="none" stroke="#05b202" cx="126" cy="-243.18" rx="29.88" ry="29.88"/>
<text text-anchor="middle" x="126" y="-239.78" font-family="Times New Roman,serif" font-size="13.00">item3</text>
</g>
<!-- End Route -->
<g id="node26" class="node">
<title>End Route</title>
<polygon fill="none" stroke="black" points="253.5,-166.12 86.5,-166.12 86.5,-118.12 253.5,-118.12 253.5,-166.12"/>
<text text-anchor="middle" x="170" y="-133.32" font-family="Times New Roman,serif" font-size="36.00">End Route</text>
</g>
<!-- item3&#45;&gt;End Route -->
<g id="edge15" class="edge">
<title>item3&#45;&gt;End Route</title>
<path fill="none" stroke="#05b202" d="M136.08,-214.56C141.32,-202.77 147.53,-188.79 153.08,-176.28"/>
<path fill="none" stroke="white" d="M137.91,-215.37C143.14,-203.58 149.35,-189.6 154.91,-177.09"/>
<path fill="none" stroke="#05b202" d="M139.73,-216.18C144.97,-204.39 151.18,-190.41 156.74,-177.91"/>
<polygon fill="#05b202" stroke="#05b202" points="158.11,-178.52 158.97,-167.96 151.71,-175.67 158.11,-178.52"/>
</g>
<!-- item5 -->
<g id="node8" class="node">
<title>item5</title>
<ellipse fill="none" stroke="#05b202" cx="259" cy="-849.53" rx="29.88" ry="29.88"/>
<text text-anchor="middle" x="259" y="-846.13" font-family="Times New Roman,serif" font-size="13.00">item5</text>
</g>
<!-- Pick Item -->
<g id="node24" class="node">
<title>Pick Item</title>
<polygon fill="none" stroke="black" points="335,-772.47 183,-772.47 183,-724.47 335,-724.47 335,-772.47"/>
<text text-anchor="middle" x="259" y="-739.67" font-family="Times New Roman,serif" font-size="36.00">Pick Item</text>
</g>
<!-- item5&#45;&gt;Pick Item -->
<g id="edge27" class="edge">
<title>item5&#45;&gt;Pick Item</title>
<path fill="none" stroke="#05b202" d="M259,-819.35C259,-808.33 259,-795.7 259,-784.22"/>
<polygon fill="#05b202" stroke="#05b202" points="262.5,-784.32 259,-774.32 255.5,-784.32 262.5,-784.32"/>
</g>
<!-- item8 -->
<g id="node9" class="node">
<title>item8</title>
<ellipse fill="#05b202" stroke="#05b202" cx="126" cy="-41.06" rx="29.88" ry="29.88"/>
<text text-anchor="middle" x="126" y="-37.66" font-family="Times New Roman,serif" font-size="13.00">item8</text>
</g>
<!-- order3 -->
<g id="node10" class="node">
<title>order3</title>
<ellipse fill="#ba0d39" stroke="#ba0d39" cx="496" cy="-445.29" rx="32.43" ry="32.43"/>
<text text-anchor="middle" x="496" y="-441.89" font-family="Times New Roman,serif" font-size="13.00">order3</text>
</g>
<!-- order7 -->
<g id="node11" class="node">
<title>order7</title>
<ellipse fill="none" stroke="#ba0d39" cx="584" cy="-849.53" rx="32.43" ry="32.43"/>
<text text-anchor="middle" x="584" y="-846.13" font-family="Times New Roman,serif" font-size="13.00">order7</text>
</g>
<!-- orderskip_4 -->
<g id="node31" class="node">
<title>orderskip_4</title>
<polygon fill="#000000" stroke="black" points="539,-766.47 485,-766.47 485,-730.47 539,-730.47 539,-766.47"/>
<text text-anchor="middle" x="512" y="-744.77" font-family="Times New Roman,serif" font-size="14.00" fill="#ffffff">t8</text>
<text text-anchor="middle" x="472.5" y="-770.27" font-family="Times New Roman,serif" font-size="14.00" fill="#ffffff">Test</text>
</g>
<!-- order7&#45;&gt;orderskip_4 -->
<g id="edge43" class="edge">
<title>order7&#45;&gt;orderskip_4</title>
<path fill="none" stroke="#ba0d39" d="M565.27,-822.76C554.74,-808.28 541.63,-790.24 531.05,-775.69"/>
<polygon fill="#ba0d39" stroke="#ba0d39" points="534.12,-773.95 525.41,-767.92 528.46,-778.07 534.12,-773.95"/>
</g>
<!-- orderskip_5 -->
<g id="node33" class="node">
<title>orderskip_5</title>
<polygon fill="#000000" stroke="black" points="611,-766.47 557,-766.47 557,-730.47 611,-730.47 611,-766.47"/>
<text text-anchor="middle" x="584" y="-744.77" font-family="Times New Roman,serif" font-size="14.00" fill="#ffffff">t10</text>
<text text-anchor="middle" x="544.5" y="-770.27" font-family="Times New Roman,serif" font-size="14.00" fill="#ffffff">Test</text>
</g>
<!-- order7&#45;&gt;orderskip_5 -->
<g id="edge44" class="edge">
<title>order7&#45;&gt;orderskip_5</title>
<path fill="none" stroke="#ba0d39" d="M584,-816.64C584,-804.26 584,-790.18 584,-778.12"/>
<polygon fill="#ba0d39" stroke="#ba0d39" points="587.5,-778.39 584,-768.39 580.5,-778.39 587.5,-778.39"/>
</g>
<!-- delivery3 -->
<g id="node12" class="node">
<title>delivery3</title>
<ellipse fill="none" stroke="#a13ccd" cx="70" cy="-445.29" rx="41.12" ry="41.12"/>
<text text-anchor="middle" x="70" y="-441.89" font-family="Times New Roman,serif" font-size="13.00">delivery3</text>
</g>
<!-- delivery3&#45;&gt;Start Route -->
<g id="edge32" class="edge">
<title>delivery3&#45;&gt;Start Route</title>
<path fill="none" stroke="#a13ccd" d="M98.92,-415.64C111.32,-403.36 125.83,-388.99 138.5,-376.44"/>
<polygon fill="#a13ccd" stroke="#a13ccd" points="140.8,-379.08 145.45,-369.56 135.88,-374.11 140.8,-379.08"/>
</g>
<!-- delivery7 -->
<g id="node13" class="node">
<title>delivery7</title>
<ellipse fill="none" stroke="#a13ccd" cx="215" cy="-243.18" rx="41.12" ry="41.12"/>
<text text-anchor="middle" x="215" y="-239.78" font-family="Times New Roman,serif" font-size="13.00">delivery7</text>
</g>
<!-- delivery7&#45;&gt;End Route -->
<g id="edge13" class="edge">
<title>delivery7&#45;&gt;End Route</title>
<path fill="none" stroke="#a13ccd" d="M198.24,-205.29C194,-195.96 189.47,-185.99 185.31,-176.82"/>
<polygon fill="#a13ccd" stroke="#a13ccd" points="188.58,-175.56 181.26,-167.9 182.21,-178.45 188.58,-175.56"/>
</g>
<!-- item2 -->
<g id="node14" class="node">
<title>item2</title>
<ellipse fill="none" stroke="#05b202" cx="259" cy="-445.29" rx="29.88" ry="29.88"/>
<text text-anchor="middle" x="259" y="-441.89" font-family="Times New Roman,serif" font-size="13.00">item2</text>
</g>
<!-- item2&#45;&gt;Start Route -->
<g id="edge35" class="edge">
<title>item2&#45;&gt;Start Route</title>
<path fill="none" stroke="#05b202" d="M237.76,-423.65C225.77,-410.31 210.27,-393.05 196.98,-378.26"/>
<path fill="none" stroke="white" d="M239.25,-422.31C227.26,-408.97 211.76,-391.72 198.47,-376.92"/>
<path fill="none" stroke="#05b202" d="M240.74,-420.97C228.75,-407.63 213.25,-390.38 199.95,-375.58"/>
<polygon fill="#05b202" stroke="#05b202" points="201.24,-374.76 191.95,-369.66 196.03,-379.44 201.24,-374.76"/>
</g>
<!-- item9 -->
<g id="node15" class="node">
<title>item9</title>
<ellipse fill="none" stroke="#05b202" cx="299" cy="-1042.8" rx="29.88" ry="29.88"/>
<text text-anchor="middle" x="299" y="-1039.4" font-family="Times New Roman,serif" font-size="13.00">item9</text>
</g>
<!-- Reorder Item -->
<g id="node35" class="node">
<title>Reorder Item</title>
<polygon fill="none" stroke="black" points="399.5,-974.59 194.5,-974.59 194.5,-926.59 399.5,-926.59 399.5,-974.59"/>
<text text-anchor="middle" x="297" y="-941.79" font-family="Times New Roman,serif" font-size="36.00">Reorder Item</text>
</g>
<!-- item9&#45;&gt;Reorder Item -->
<g id="edge20" class="edge">
<title>item9&#45;&gt;Reorder Item</title>
<path fill="none" stroke="#05b202" d="M298.36,-1012.76C298.17,-1004.34 297.96,-995.05 297.77,-986.31"/>
<polygon fill="#05b202" stroke="#05b202" points="301.27,-986.3 297.55,-976.38 294.27,-986.45 301.27,-986.3"/>
</g>
<!-- order6 -->
<g id="node16" class="node">
<title>order6</title>
<ellipse fill="none" stroke="#ba0d39" cx="496" cy="-647.41" rx="32.43" ry="32.43"/>
<text text-anchor="middle" x="496" y="-644.01" font-family="Times New Roman,serif" font-size="13.00">order6</text>
</g>
<!-- Pay Order -->
<g id="node38" class="node">
<title>Pay Order</title>
<polygon fill="none" stroke="black" points="577,-570.35 415,-570.35 415,-522.35 577,-522.35 577,-570.35"/>
<text text-anchor="middle" x="496" y="-537.55" font-family="Times New Roman,serif" font-size="36.00">Pay Order</text>
</g>
<!-- order6&#45;&gt;Pay Order -->
<g id="edge41" class="edge">
<title>order6&#45;&gt;Pay Order</title>
<path fill="none" stroke="#ba0d39" d="M496,-614.52C496,-604.17 496,-592.63 496,-582.08"/>
<polygon fill="#ba0d39" stroke="#ba0d39" points="499.5,-582.21 496,-572.21 492.5,-582.21 499.5,-582.21"/>
</g>
<!-- delivery2 -->
<g id="node17" class="node">
<title>delivery2</title>
<ellipse fill="#a13ccd" stroke="#a13ccd" cx="104" cy="-849.53" rx="41.12" ry="41.12"/>
<text text-anchor="middle" x="104" y="-846.13" font-family="Times New Roman,serif" font-size="13.00">delivery2</text>
</g>
<!-- deliverytauSplit_1 -->
<g id="node39" class="node">
<title>deliverytauSplit_1</title>
<polygon fill="#000000" stroke="black" points="131,-766.47 77,-766.47 77,-730.47 131,-730.47 131,-766.47"/>
<text text-anchor="middle" x="104" y="-744.77" font-family="Times New Roman,serif" font-size="14.00" fill="#ffffff">t16</text>
<text text-anchor="middle" x="64.5" y="-770.27" font-family="Times New Roman,serif" font-size="14.00" fill="#ffffff">Test</text>
</g>
<!-- delivery2&#45;&gt;deliverytauSplit_1 -->
<g id="edge1" class="edge">
<title>delivery2&#45;&gt;deliverytauSplit_1</title>
<path fill="none" stroke="#a13ccd" d="M104,-807.95C104,-798 104,-787.54 104,-778.27"/>
<polygon fill="#a13ccd" stroke="#a13ccd" points="107.5,-778.42 104,-768.42 100.5,-778.42 107.5,-778.42"/>
</g>
<!-- delivery5 -->
<g id="node18" class="node">
<title>delivery5</title>
<ellipse fill="none" stroke="#a13ccd" cx="170" cy="-647.41" rx="41.12" ry="41.12"/>
<text text-anchor="middle" x="170" y="-644.01" font-family="Times New Roman,serif" font-size="13.00">delivery5</text>
</g>
<!-- Load Cargo -->
<g id="node34" class="node">
<title>Load Cargo</title>
<polygon fill="none" stroke="black" points="347.5,-570.35 162.5,-570.35 162.5,-522.35 347.5,-522.35 347.5,-570.35"/>
<text text-anchor="middle" x="255" y="-537.55" font-family="Times New Roman,serif" font-size="36.00">Load Cargo</text>
</g>
<!-- delivery5&#45;&gt;Load Cargo -->
<g id="edge33" class="edge">
<title>delivery5&#45;&gt;Load Cargo</title>
<path fill="none" stroke="#a13ccd" d="M196.43,-615.61C206.37,-604.03 217.69,-590.84 227.71,-579.16"/>
<polygon fill="#a13ccd" stroke="#a13ccd" points="230.23,-581.6 234.09,-571.73 224.92,-577.04 230.23,-581.6"/>
</g>
<!-- item1 -->
<g id="node19" class="node">
<title>item1</title>
<ellipse fill="none" stroke="#05b202" cx="259" cy="-647.41" rx="29.88" ry="29.88"/>
<text text-anchor="middle" x="259" y="-644.01" font-family="Times New Roman,serif" font-size="13.00">item1</text>
</g>
<!-- item1&#45;&gt;Load Cargo -->
<g id="edge2" class="edge">
<title>item1&#45;&gt;Load Cargo</title>
<path fill="none" stroke="#05b202" d="M255.82,-617.31C255.38,-606.3 254.87,-593.66 254.4,-582.19"/>
<path fill="none" stroke="white" d="M257.82,-617.23C257.38,-606.21 256.87,-593.58 256.4,-582.11"/>
<path fill="none" stroke="#05b202" d="M259.82,-617.15C259.38,-606.13 258.86,-593.5 258.4,-582.02"/>
<polygon fill="#05b202" stroke="#05b202" points="259.9,-582.05 256,-572.2 252.91,-582.33 259.9,-582.05"/>
</g>
<!-- item4 -->
<g id="node20" class="node">
<title>item4</title>
<ellipse fill="#05b202" stroke="#05b202" cx="339" cy="-1596.1" rx="29.88" ry="29.88"/>
<text text-anchor="middle" x="339" y="-1592.7" font-family="Times New Roman,serif" font-size="13.00">item4</text>
</g>
<!-- Place Order -->
<g id="node25" class="node">
<title>Place Order</title>
<polygon fill="none" stroke="black" points="472,-1527.88 286,-1527.88 286,-1479.88 472,-1479.88 472,-1527.88"/>
<text text-anchor="middle" x="379" y="-1495.08" font-family="Times New Roman,serif" font-size="36.00">Place Order</text>
</g>
<!-- item4&#45;&gt;Place Order -->
<g id="edge16" class="edge">
<title>item4&#45;&gt;Place Order</title>
<path fill="none" stroke="#05b202" d="M348.96,-1567.71C353.12,-1558.32 357.86,-1547.63 362.25,-1537.73"/>
<path fill="none" stroke="white" d="M350.78,-1568.52C354.95,-1559.13 359.69,-1548.44 364.08,-1538.54"/>
<path fill="none" stroke="#05b202" d="M352.61,-1569.33C356.78,-1559.94 361.51,-1549.25 365.9,-1539.35"/>
<polygon fill="#05b202" stroke="#05b202" points="367.19,-1540.15 368.04,-1529.59 360.79,-1537.32 367.19,-1540.15"/>
</g>
<!-- order1 -->
<g id="node21" class="node">
<title>order1</title>
<ellipse fill="#ba0d39" stroke="#ba0d39" cx="419" cy="-1596.1" rx="32.43" ry="32.43"/>
<text text-anchor="middle" x="419" y="-1592.7" font-family="Times New Roman,serif" font-size="13.00">order1</text>
</g>
<!-- order1&#45;&gt;Place Order -->
<g id="edge29" class="edge">
<title>order1&#45;&gt;Place Order</title>
<path fill="none" stroke="#ba0d39" d="M406.12,-1566.06C402.22,-1557.25 397.89,-1547.49 393.87,-1538.41"/>
<polygon fill="#ba0d39" stroke="#ba0d39" points="397.19,-1537.26 389.93,-1529.54 390.79,-1540.1 397.19,-1537.26"/>
</g>
<!-- delivery1 -->
<g id="node22" class="node">
<title>delivery1</title>
<ellipse fill="none" stroke="#a13ccd" cx="70" cy="-647.41" rx="41.12" ry="41.12"/>
<text text-anchor="middle" x="70" y="-644.01" font-family="Times New Roman,serif" font-size="13.00">delivery1</text>
</g>
<!-- Fuel Car -->
<g id="node40" class="node">
<title>Fuel Car</title>
<polygon fill="none" stroke="black" points="140,-570.35 0,-570.35 0,-522.35 140,-522.35 140,-570.35"/>
<text text-anchor="middle" x="70" y="-537.55" font-family="Times New Roman,serif" font-size="36.00">Fuel Car</text>
</g>
<!-- delivery1&#45;&gt;Fuel Car -->
<g id="edge24" class="edge">
<title>delivery1&#45;&gt;Fuel Car</title>
<path fill="none" stroke="#a13ccd" d="M70,-605.84C70,-597.98 70,-589.82 70,-582.17"/>
<polygon fill="#a13ccd" stroke="#a13ccd" points="73.5,-582.2 70,-572.2 66.5,-582.2 73.5,-582.2"/>
</g>
<!-- delivery4 -->
<g id="node23" class="node">
<title>delivery4</title>
<ellipse fill="#a13ccd" stroke="#a13ccd" cx="215" cy="-41.06" rx="41.12" ry="41.12"/>
<text text-anchor="middle" x="215" y="-37.66" font-family="Times New Roman,serif" font-size="13.00">delivery4</text>
</g>
<!-- Pick Item&#45;&gt;item1 -->
<g id="edge14" class="edge">
<title>Pick Item&#45;&gt;item1</title>
<path fill="none" stroke="#05b202" d="M259,-724C259,-713.61 259,-701.09 259,-689.25"/>
<polygon fill="#05b202" stroke="#05b202" points="262.5,-689.26 259,-679.26 255.5,-689.26 262.5,-689.26"/>
</g>
<!-- Place Order&#45;&gt;item7 -->
<g id="edge18" class="edge">
<title>Place Order&#45;&gt;item7</title>
<path fill="none" stroke="#05b202" d="M366.87,-1480.46C362.82,-1471.32 358.06,-1460.59 353.56,-1450.43"/>
<path fill="none" stroke="white" d="M368.7,-1479.65C364.64,-1470.51 359.89,-1459.78 355.39,-1449.62"/>
<path fill="none" stroke="#05b202" d="M370.53,-1478.84C366.47,-1469.69 361.72,-1458.97 357.21,-1448.81"/>
<polygon fill="#05b202" stroke="#05b202" points="358.69,-1448.44 351.44,-1440.72 352.29,-1451.28 358.69,-1448.44"/>
</g>
<!-- Place Order&#45;&gt;order4 -->
<g id="edge8" class="edge">
<title>Place Order&#45;&gt;order4</title>
<path fill="none" stroke="#ba0d39" d="M389.3,-1479.65C393.03,-1471.23 397.36,-1461.47 401.54,-1452.04"/>
<polygon fill="#ba0d39" stroke="#ba0d39" points="404.69,-1453.58 405.54,-1443.02 398.29,-1450.74 404.69,-1453.58"/>
</g>
<!-- End Route&#45;&gt;item8 -->
<g id="edge6" class="edge">
<title>End Route&#45;&gt;item8</title>
<path fill="none" stroke="#05b202" d="M157.74,-118.45C152.66,-107.01 146.43,-92.98 140.72,-80.12"/>
<path fill="none" stroke="white" d="M159.57,-117.64C154.49,-106.2 148.26,-92.16 142.54,-79.31"/>
<path fill="none" stroke="#05b202" d="M161.4,-116.83C156.32,-105.39 150.08,-91.35 144.37,-78.49"/>
<polygon fill="#05b202" stroke="#05b202" points="145.78,-77.97 138.52,-70.25 139.38,-80.81 145.78,-77.97"/>
</g>
<!-- End Route&#45;&gt;delivery4 -->
<g id="edge12" class="edge">
<title>End Route&#45;&gt;delivery4</title>
<path fill="none" stroke="#a13ccd" d="M180.66,-117.64C184.56,-109.06 189.12,-99.03 193.62,-89.13"/>
<polygon fill="#a13ccd" stroke="#a13ccd" points="196.68,-90.85 197.63,-80.3 190.31,-87.96 196.68,-90.85"/>
</g>
<!-- Start Route&#45;&gt;item3 -->
<g id="edge3" class="edge">
<title>Start Route&#45;&gt;item3</title>
<path fill="none" stroke="#05b202" d="M157.74,-320.57C152.66,-309.13 146.43,-295.09 140.72,-282.24"/>
<path fill="none" stroke="white" d="M159.57,-319.76C154.49,-308.32 148.26,-294.28 142.54,-281.42"/>
<path fill="none" stroke="#05b202" d="M161.4,-318.95C156.32,-307.51 150.08,-293.47 144.37,-280.61"/>
<polygon fill="#05b202" stroke="#05b202" points="145.78,-280.09 138.52,-272.37 139.38,-282.93 145.78,-280.09"/>
</g>
<!-- Start Route&#45;&gt;delivery7 -->
<g id="edge34" class="edge">
<title>Start Route&#45;&gt;delivery7</title>
<path fill="none" stroke="#a13ccd" d="M180.66,-319.76C184.56,-311.18 189.12,-301.15 193.62,-291.24"/>
<polygon fill="#a13ccd" stroke="#a13ccd" points="196.68,-292.97 197.63,-282.42 190.31,-290.07 196.68,-292.97"/>
</g>
<!-- itemskip_1&#45;&gt;item5 -->
<g id="edge37" class="edge">
<title>itemskip_1&#45;&gt;item5</title>
<path fill="none" stroke="#05b202" d="M158.36,-1024.37C160.81,-1000.86 167.47,-958.3 185,-926.59 195.58,-907.45 212.26,-889.71 227.11,-876.18"/>
<polygon fill="#05b202" stroke="#05b202" points="229.25,-878.96 234.44,-869.73 224.62,-873.71 229.25,-878.96"/>
</g>
<!-- Item out of stock&#45;&gt;item9 -->
<g id="edge19" class="edge">
<title>Item out of stock&#45;&gt;item9</title>
<path fill="none" stroke="#05b202" d="M300.48,-1110.79C300.31,-1102.71 300.1,-1093.4 299.9,-1084.34"/>
<polygon fill="#05b202" stroke="#05b202" points="303.4,-1084.54 299.68,-1074.62 296.41,-1084.7 303.4,-1084.54"/>
</g>
<!-- orderskip_1&#45;&gt;order6 -->
<g id="edge11" class="edge">
<title>orderskip_1&#45;&gt;order6</title>
<path fill="none" stroke="#ba0d39" d="M457.44,-932.23C458.64,-894.29 462.78,-801.2 476,-724.47 477.97,-713.07 480.82,-700.88 483.76,-689.67"/>
<polygon fill="#ba0d39" stroke="#ba0d39" points="487.06,-690.89 486.31,-680.32 480.3,-689.06 487.06,-690.89"/>
</g>
<!-- orderskip_4&#45;&gt;order5 -->
<g id="edge9" class="edge">
<title>orderskip_4&#45;&gt;order5</title>
<path fill="none" stroke="#ba0d39" d="M512.29,-766.67C513.06,-811.58 515.15,-933.35 516.26,-998.81"/>
<polygon fill="#ba0d39" stroke="#ba0d39" points="512.76,-998.51 516.43,-1008.45 519.76,-998.39 512.76,-998.51"/>
</g>
<!-- Payment Reminder&#45;&gt;order7 -->
<g id="edge42" class="edge">
<title>Payment Reminder&#45;&gt;order7</title>
<path fill="none" stroke="#ba0d39" d="M660.3,-926.11C646.66,-912.6 629.36,-895.46 614.68,-880.92"/>
<polygon fill="#ba0d39" stroke="#ba0d39" points="617.48,-878.77 607.92,-874.22 612.56,-883.75 617.48,-878.77"/>
</g>
<!-- orderskip_5&#45;&gt;order6 -->
<g id="edge22" class="edge">
<title>orderskip_5&#45;&gt;order6</title>
<path fill="none" stroke="#ba0d39" d="M568.67,-730.22C556.51,-716.53 539.17,-697.01 524.48,-680.48"/>
<polygon fill="#ba0d39" stroke="#ba0d39" points="527.35,-678.43 518.09,-673.28 522.12,-683.08 527.35,-678.43"/>
</g>
<!-- Load Cargo&#45;&gt;delivery6 -->
<g id="edge45" class="edge">
<title>Load Cargo&#45;&gt;delivery6</title>
<path fill="none" stroke="#a13ccd" d="M234.86,-521.88C225.61,-511.11 214.4,-498.03 203.91,-485.81"/>
<polygon fill="#a13ccd" stroke="#a13ccd" points="206.59,-483.56 197.42,-478.25 201.28,-488.12 206.59,-483.56"/>
</g>
<!-- Load Cargo&#45;&gt;item2 -->
<g id="edge36" class="edge">
<title>Load Cargo&#45;&gt;item2</title>
<path fill="none" stroke="#05b202" d="M253.95,-521.8C254.37,-511.31 254.88,-498.63 255.37,-486.69"/>
<path fill="none" stroke="white" d="M255.95,-521.88C256.37,-511.39 256.88,-498.71 257.37,-486.77"/>
<path fill="none" stroke="#05b202" d="M257.95,-521.96C258.37,-511.47 258.88,-498.79 259.36,-486.85"/>
<polygon fill="#05b202" stroke="#05b202" points="260.85,-487.28 257.75,-477.14 253.85,-487 260.85,-487.28"/>
</g>
<!-- Reorder Item&#45;&gt;item5 -->
<g id="edge4" class="edge">
<title>Reorder Item&#45;&gt;item5</title>
<path fill="none" stroke="#05b202" d="M287.99,-926.11C283.64,-914.76 278.3,-900.85 273.4,-888.08"/>
<polygon fill="#05b202" stroke="#05b202" points="276.81,-887.19 269.96,-879.11 270.28,-889.7 276.81,-887.19"/>
</g>
<!-- Confirm Order&#45;&gt;item6 -->
<g id="edge28" class="edge">
<title>Confirm Order&#45;&gt;item6</title>
<path fill="none" stroke="#05b202" d="M357.4,-1296.53C347.9,-1285.54 336.43,-1272.28 326.22,-1260.46"/>
<path fill="none" stroke="white" d="M358.91,-1295.22C349.42,-1284.24 337.95,-1270.97 327.73,-1259.15"/>
<path fill="none" stroke="#05b202" d="M360.43,-1293.91C350.93,-1282.93 339.46,-1269.66 329.24,-1257.84"/>
<polygon fill="#05b202" stroke="#05b202" points="330.39,-1256.88 321.2,-1251.6 325.09,-1261.46 330.39,-1256.88"/>
</g>
<!-- Confirm Order&#45;&gt;order2 -->
<g id="edge39" class="edge">
<title>Confirm Order&#45;&gt;order2</title>
<path fill="none" stroke="#ba0d39" d="M399.09,-1295.22C408.15,-1284.73 419.01,-1272.17 428.87,-1260.77"/>
<polygon fill="#ba0d39" stroke="#ba0d39" points="431.28,-1263.33 435.17,-1253.48 425.99,-1258.75 431.28,-1263.33"/>
</g>
<!-- orderinit_loop_2&#45;&gt;order5 -->
<g id="edge21" class="edge">
<title>orderinit_loop_2&#45;&gt;order5</title>
<path fill="none" stroke="#ba0d39" d="M515.39,-1116.63C515.58,-1108.05 515.81,-1097.3 516.05,-1086.71"/>
<polygon fill="#ba0d39" stroke="#ba0d39" points="519.54,-1086.98 516.27,-1076.9 512.55,-1086.82 519.54,-1086.98"/>
</g>
<!-- Pay Order&#45;&gt;order3 -->
<g id="edge30" class="edge">
<title>Pay Order&#45;&gt;order3</title>
<path fill="none" stroke="#ba0d39" d="M496,-521.88C496,-512.2 496,-500.66 496,-489.55"/>
<polygon fill="#ba0d39" stroke="#ba0d39" points="499.5,-489.73 496,-479.73 492.5,-489.73 499.5,-489.73"/>
</g>
<!-- deliverytauSplit_1&#45;&gt;delivery5 -->
<g id="edge26" class="edge">
<title>deliverytauSplit_1&#45;&gt;delivery5</title>
<path fill="none" stroke="#a13ccd" d="M115.5,-730.22C122.64,-719.5 132.16,-705.21 141.25,-691.57"/>
<polygon fill="#a13ccd" stroke="#a13ccd" points="143.96,-693.81 146.59,-683.55 138.13,-689.93 143.96,-693.81"/>
</g>
<!-- deliverytauSplit_1&#45;&gt;delivery1 -->
<g id="edge23" class="edge">
<title>deliverytauSplit_1&#45;&gt;delivery1</title>
<path fill="none" stroke="#a13ccd" d="M98.08,-730.22C94.93,-721.05 90.89,-709.27 86.86,-697.52"/>
<polygon fill="#a13ccd" stroke="#a13ccd" points="90.23,-696.57 83.67,-688.25 83.61,-698.84 90.23,-696.57"/>
</g>
<!-- Fuel Car&#45;&gt;delivery3 -->
<g id="edge25" class="edge">
<title>Fuel Car&#45;&gt;delivery3</title>
<path fill="none" stroke="#a13ccd" d="M70,-521.88C70,-514.64 70,-506.37 70,-498.01"/>
<polygon fill="#a13ccd" stroke="#a13ccd" points="73.5,-498.16 70,-488.16 66.5,-498.16 73.5,-498.16"/>
</g>
</g>
</svg>
