<?xml version="1.0" encoding="UTF-8" standalone="no"?>
<!DOCTYPE svg PUBLIC "-//W3C//DTD SVG 1.1//EN"
 "http://www.w3.org/Graphics/SVG/1.1/DTD/svg11.dtd">
<!-- Generated by graphviz version 7.1.0 (20230121.1956)
 -->
<!-- Pages: 1 -->
<svg width="763pt" height="1636pt"
 viewBox="0.00 0.00 763.00 1636.31" xmlns="http://www.w3.org/2000/svg" xmlns:xlink="http://www.w3.org/1999/xlink">
<g id="graph0" class="graph" transform="scale(1 1) rotate(0) translate(4 1632.31)">
<!-- order2 -->
<g id="node1" class="node">
<title>order2</title>
<ellipse fill="none" stroke="#a13ccd" cx="442" cy="-1227.24" rx="32.43" ry="32.43"/>
<text text-anchor="middle" x="442" y="-1223.84" font-family="Times New Roman,serif" font-size="13.00">order2</text>
</g>
<!-- orderskip_5 -->
<g id="node25" class="node">
<title>orderskip_5</title>
<polygon fill="#000000" stroke="black" points="541,-1153.02 487,-1153.02 487,-1117.02 541,-1117.02 541,-1153.02"/>
<text text-anchor="middle" x="514" y="-1131.32" font-family="Times New Roman,serif" font-size="14.00" fill="#ffffff">t2</text>
<text text-anchor="middle" x="474.5" y="-1156.82" font-family="Times New Roman,serif" font-size="14.00" fill="#ffffff">Test</text>
</g>
<!-- order2&#45;&gt;orderskip_5 -->
<g id="edge18" class="edge">
<title>order2&#45;&gt;orderskip_5</title>
<path fill="none" stroke="#a13ccd" d="M461.67,-1201.58C471.36,-1189.44 483.05,-1174.8 492.92,-1162.43"/>
<polygon fill="#a13ccd" stroke="#a13ccd" points="495.61,-1164.68 499.11,-1154.68 490.14,-1160.31 495.61,-1164.68"/>
</g>
<!-- orderskip_4 -->
<g id="node35" class="node">
<title>orderskip_4</title>
<polygon fill="#000000" stroke="black" points="469,-1153.02 415,-1153.02 415,-1117.02 469,-1117.02 469,-1153.02"/>
<text text-anchor="middle" x="442" y="-1131.32" font-family="Times New Roman,serif" font-size="14.00" fill="#ffffff">t12</text>
<text text-anchor="middle" x="402.5" y="-1156.82" font-family="Times New Roman,serif" font-size="14.00" fill="#ffffff">Test</text>
</g>
<!-- order2&#45;&gt;orderskip_4 -->
<g id="edge5" class="edge">
<title>order2&#45;&gt;orderskip_4</title>
<path fill="none" stroke="#a13ccd" d="M442,-1194.43C442,-1184.73 442,-1174.12 442,-1164.65"/>
<polygon fill="#a13ccd" stroke="#a13ccd" points="445.5,-1164.91 442,-1154.91 438.5,-1164.91 445.5,-1164.91"/>
</g>
<!-- item6 -->
<g id="node2" class="node">
<title>item6</title>
<ellipse fill="none" stroke="#ba0d39" cx="387" cy="-1411.67" rx="29.88" ry="29.88"/>
<text text-anchor="middle" x="387" y="-1408.27" font-family="Times New Roman,serif" font-size="13.00">item6</text>
</g>
<!-- Confirm Order -->
<g id="node28" class="node">
<title>Confirm Order</title>
<polygon fill="none" stroke="black" points="541,-1343.45 313,-1343.45 313,-1295.45 541,-1295.45 541,-1343.45"/>
<text text-anchor="middle" x="427" y="-1310.65" font-family="Times New Roman,serif" font-size="36.00">Confirm Order</text>
</g>
<!-- item6&#45;&gt;Confirm Order -->
<g id="edge16" class="edge">
<title>item6&#45;&gt;Confirm Order</title>
<path fill="none" stroke="#ba0d39" d="M396.96,-1383.28C401.12,-1373.89 405.86,-1363.2 410.25,-1353.3"/>
<path fill="none" stroke="white" d="M398.78,-1384.09C402.95,-1374.7 407.69,-1364.01 412.08,-1354.11"/>
<path fill="none" stroke="#ba0d39" d="M400.61,-1384.9C404.78,-1375.51 409.51,-1364.82 413.9,-1354.92"/>
<polygon fill="#ba0d39" stroke="#ba0d39" points="415.19,-1355.72 416.04,-1345.16 408.79,-1352.89 415.19,-1355.72"/>
</g>
<!-- item2 -->
<g id="node3" class="node">
<title>item2</title>
<ellipse fill="none" stroke="#ba0d39" cx="239" cy="-243.18" rx="29.88" ry="29.88"/>
<text text-anchor="middle" x="239" y="-239.78" font-family="Times New Roman,serif" font-size="13.00">item2</text>
</g>
<!-- End Route -->
<g id="node37" class="node">
<title>End Route</title>
<polygon fill="none" stroke="black" points="366.5,-166.12 199.5,-166.12 199.5,-118.12 366.5,-118.12 366.5,-166.12"/>
<text text-anchor="middle" x="283" y="-133.32" font-family="Times New Roman,serif" font-size="36.00">End Route</text>
</g>
<!-- item2&#45;&gt;End Route -->
<g id="edge19" class="edge">
<title>item2&#45;&gt;End Route</title>
<path fill="none" stroke="#ba0d39" d="M249.08,-214.56C254.32,-202.77 260.53,-188.79 266.08,-176.28"/>
<path fill="none" stroke="white" d="M250.91,-215.37C256.14,-203.58 262.35,-189.6 267.91,-177.09"/>
<path fill="none" stroke="#ba0d39" d="M252.73,-216.18C257.97,-204.39 264.18,-190.41 269.74,-177.91"/>
<polygon fill="#ba0d39" stroke="#ba0d39" points="271.11,-178.52 271.97,-167.96 264.71,-175.67 271.11,-178.52"/>
</g>
<!-- item5 -->
<g id="node4" class="node">
<title>item5</title>
<ellipse fill="none" stroke="#ba0d39" cx="194" cy="-849.53" rx="29.88" ry="29.88"/>
<text text-anchor="middle" x="194" y="-846.13" font-family="Times New Roman,serif" font-size="13.00">item5</text>
</g>
<!-- Pick Item -->
<g id="node33" class="node">
<title>Pick Item</title>
<polygon fill="none" stroke="black" points="270,-772.47 118,-772.47 118,-724.47 270,-724.47 270,-772.47"/>
<text text-anchor="middle" x="194" y="-739.67" font-family="Times New Roman,serif" font-size="36.00">Pick Item</text>
</g>
<!-- item5&#45;&gt;Pick Item -->
<g id="edge2" class="edge">
<title>item5&#45;&gt;Pick Item</title>
<path fill="none" stroke="#ba0d39" d="M194,-819.35C194,-808.33 194,-795.7 194,-784.22"/>
<polygon fill="#ba0d39" stroke="#ba0d39" points="197.5,-784.32 194,-774.32 190.5,-784.32 197.5,-784.32"/>
</g>
<!-- delivery2 -->
<g id="node5" class="node">
<title>delivery2</title>
<ellipse fill="none" stroke="#05b202" cx="383" cy="-647.41" rx="41.12" ry="41.12"/>
<text text-anchor="middle" x="383" y="-644.01" font-family="Times New Roman,serif" font-size="13.00">delivery2</text>
</g>
<!-- Fuel Car -->
<g id="node40" class="node">
<title>Fuel Car</title>
<polygon fill="none" stroke="black" points="453,-570.35 313,-570.35 313,-522.35 453,-522.35 453,-570.35"/>
<text text-anchor="middle" x="383" y="-537.55" font-family="Times New Roman,serif" font-size="36.00">Fuel Car</text>
</g>
<!-- delivery2&#45;&gt;Fuel Car -->
<g id="edge21" class="edge">
<title>delivery2&#45;&gt;Fuel Car</title>
<path fill="none" stroke="#05b202" d="M383,-605.84C383,-597.98 383,-589.82 383,-582.17"/>
<polygon fill="#05b202" stroke="#05b202" points="386.5,-582.2 383,-572.2 379.5,-582.2 386.5,-582.2"/>
</g>
<!-- delivery3 -->
<g id="node6" class="node">
<title>delivery3</title>
<ellipse fill="none" stroke="#05b202" cx="383" cy="-445.29" rx="41.12" ry="41.12"/>
<text text-anchor="middle" x="383" y="-441.89" font-family="Times New Roman,serif" font-size="13.00">delivery3</text>
</g>
<!-- Start Route -->
<g id="node30" class="node">
<title>Start Route</title>
<polygon fill="none" stroke="black" points="372,-368.24 194,-368.24 194,-320.24 372,-320.24 372,-368.24"/>
<text text-anchor="middle" x="283" y="-335.44" font-family="Times New Roman,serif" font-size="36.00">Start Route</text>
</g>
<!-- delivery3&#45;&gt;Start Route -->
<g id="edge27" class="edge">
<title>delivery3&#45;&gt;Start Route</title>
<path fill="none" stroke="#05b202" d="M354.08,-415.64C341.68,-403.36 327.17,-388.99 314.5,-376.44"/>
<polygon fill="#05b202" stroke="#05b202" points="317.12,-374.11 307.55,-369.56 312.2,-379.08 317.12,-374.11"/>
</g>
<!-- order7 -->
<g id="node7" class="node">
<title>order7</title>
<ellipse fill="none" stroke="#a13ccd" cx="447" cy="-1042.8" rx="32.43" ry="32.43"/>
<text text-anchor="middle" x="447" y="-1039.4" font-family="Times New Roman,serif" font-size="13.00">order7</text>
</g>
<!-- Payment Reminder -->
<g id="node36" class="node">
<title>Payment Reminder</title>
<polygon fill="none" stroke="black" points="575,-974.59 287,-974.59 287,-926.59 575,-926.59 575,-974.59"/>
<text text-anchor="middle" x="431" y="-941.79" font-family="Times New Roman,serif" font-size="36.00">Payment Reminder</text>
</g>
<!-- order7&#45;&gt;Payment Reminder -->
<g id="edge24" class="edge">
<title>order7&#45;&gt;Payment Reminder</title>
<path fill="none" stroke="#a13ccd" d="M441.45,-1010.51C440.05,-1002.64 438.55,-994.16 437.13,-986.14"/>
<polygon fill="#a13ccd" stroke="#a13ccd" points="440.59,-985.59 435.39,-976.36 433.69,-986.81 440.59,-985.59"/>
</g>
<!-- item9 -->
<g id="node8" class="node">
<title>item9</title>
<ellipse fill="none" stroke="#ba0d39" cx="194" cy="-445.29" rx="29.88" ry="29.88"/>
<text text-anchor="middle" x="194" y="-441.89" font-family="Times New Roman,serif" font-size="13.00">item9</text>
</g>
<!-- item9&#45;&gt;Start Route -->
<g id="edge20" class="edge">
<title>item9&#45;&gt;Start Route</title>
<path fill="none" stroke="#ba0d39" d="M212.26,-420.97C224.25,-407.63 239.75,-390.38 253.05,-375.58"/>
<path fill="none" stroke="white" d="M213.75,-422.31C225.74,-408.97 241.24,-391.72 254.53,-376.92"/>
<path fill="none" stroke="#ba0d39" d="M215.24,-423.65C227.23,-410.31 242.73,-393.05 256.02,-378.26"/>
<polygon fill="#ba0d39" stroke="#ba0d39" points="256.97,-379.44 261.05,-369.66 251.76,-374.76 256.97,-379.44"/>
</g>
<!-- delivery5 -->
<g id="node9" class="node">
<title>delivery5</title>
<ellipse fill="none" stroke="#05b202" cx="283" cy="-445.29" rx="41.12" ry="41.12"/>
<text text-anchor="middle" x="283" y="-441.89" font-family="Times New Roman,serif" font-size="13.00">delivery5</text>
</g>
<!-- delivery5&#45;&gt;Start Route -->
<g id="edge46" class="edge">
<title>delivery5&#45;&gt;Start Route</title>
<path fill="none" stroke="#05b202" d="M283,-403.72C283,-395.86 283,-387.7 283,-380.05"/>
<polygon fill="#05b202" stroke="#05b202" points="286.5,-380.08 283,-370.08 279.5,-380.08 286.5,-380.08"/>
</g>
<!-- item3 -->
<g id="node10" class="node">
<title>item3</title>
<ellipse fill="#ba0d39" stroke="#ba0d39" cx="239" cy="-41.06" rx="29.88" ry="29.88"/>
<text text-anchor="middle" x="239" y="-37.66" font-family="Times New Roman,serif" font-size="13.00">item3</text>
</g>
<!-- item7 -->
<g id="node11" class="node">
<title>item7</title>
<ellipse fill="none" stroke="#ba0d39" cx="128" cy="-1042.8" rx="29.88" ry="29.88"/>
<text text-anchor="middle" x="128" y="-1039.4" font-family="Times New Roman,serif" font-size="13.00">item7</text>
</g>
<!-- Reorder Item -->
<g id="node32" class="node">
<title>Reorder Item</title>
<polygon fill="none" stroke="black" points="230.5,-974.59 25.5,-974.59 25.5,-926.59 230.5,-926.59 230.5,-974.59"/>
<text text-anchor="middle" x="128" y="-941.79" font-family="Times New Roman,serif" font-size="36.00">Reorder Item</text>
</g>
<!-- item7&#45;&gt;Reorder Item -->
<g id="edge31" class="edge">
<title>item7&#45;&gt;Reorder Item</title>
<path fill="none" stroke="#ba0d39" d="M128,-1012.76C128,-1004.34 128,-995.05 128,-986.31"/>
<polygon fill="#ba0d39" stroke="#ba0d39" points="131.5,-986.38 128,-976.38 124.5,-986.38 131.5,-986.38"/>
</g>
<!-- delivery6 -->
<g id="node12" class="node">
<title>delivery6</title>
<ellipse fill="#05b202" stroke="#05b202" cx="328" cy="-41.06" rx="41.12" ry="41.12"/>
<text text-anchor="middle" x="328" y="-37.66" font-family="Times New Roman,serif" font-size="13.00">delivery6</text>
</g>
<!-- order3 -->
<g id="node13" class="node">
<title>order3</title>
<ellipse fill="#a13ccd" stroke="#a13ccd" cx="387" cy="-1596.1" rx="32.43" ry="32.43"/>
<text text-anchor="middle" x="387" y="-1592.7" font-family="Times New Roman,serif" font-size="13.00">order3</text>
</g>
<!-- Place Order -->
<g id="node27" class="node">
<title>Place Order</title>
<polygon fill="none" stroke="black" points="520,-1527.88 334,-1527.88 334,-1479.88 520,-1479.88 520,-1527.88"/>
<text text-anchor="middle" x="427" y="-1495.08" font-family="Times New Roman,serif" font-size="36.00">Place Order</text>
</g>
<!-- order3&#45;&gt;Place Order -->
<g id="edge6" class="edge">
<title>order3&#45;&gt;Place Order</title>
<path fill="none" stroke="#a13ccd" d="M399.88,-1566.06C403.78,-1557.25 408.11,-1547.49 412.13,-1538.41"/>
<polygon fill="#a13ccd" stroke="#a13ccd" points="415.21,-1540.1 416.07,-1529.54 408.81,-1537.26 415.21,-1540.1"/>
</g>
<!-- order4 -->
<g id="node14" class="node">
<title>order4</title>
<ellipse fill="#a13ccd" stroke="#a13ccd" cx="674" cy="-849.53" rx="32.43" ry="32.43"/>
<text text-anchor="middle" x="674" y="-846.13" font-family="Times New Roman,serif" font-size="13.00">order4</text>
</g>
<!-- order6 -->
<g id="node15" class="node">
<title>order6</title>
<ellipse fill="none" stroke="#a13ccd" cx="467" cy="-1411.67" rx="32.43" ry="32.43"/>
<text text-anchor="middle" x="467" y="-1408.27" font-family="Times New Roman,serif" font-size="13.00">order6</text>
</g>
<!-- order6&#45;&gt;Confirm Order -->
<g id="edge8" class="edge">
<title>order6&#45;&gt;Confirm Order</title>
<path fill="none" stroke="#a13ccd" d="M454.12,-1381.63C450.22,-1372.81 445.89,-1363.06 441.87,-1353.98"/>
<polygon fill="#a13ccd" stroke="#a13ccd" points="445.19,-1352.83 437.93,-1345.11 438.79,-1355.67 445.19,-1352.83"/>
</g>
<!-- item4 -->
<g id="node16" class="node">
<title>item4</title>
<ellipse fill="none" stroke="#ba0d39" cx="284" cy="-1227.24" rx="29.88" ry="29.88"/>
<text text-anchor="middle" x="284" y="-1223.84" font-family="Times New Roman,serif" font-size="13.00">item4</text>
</g>
<!-- Item out of stock -->
<g id="node31" class="node">
<title>Item out of stock</title>
<polygon fill="none" stroke="black" points="256,-1159.02 0,-1159.02 0,-1111.02 256,-1111.02 256,-1159.02"/>
<text text-anchor="middle" x="128" y="-1126.22" font-family="Times New Roman,serif" font-size="36.00">Item out of stock</text>
</g>
<!-- item4&#45;&gt;Item out of stock -->
<g id="edge25" class="edge">
<title>item4&#45;&gt;Item out of stock</title>
<path fill="none" stroke="#ba0d39" d="M258.24,-1211.34C236.6,-1198.82 205.03,-1180.57 178.4,-1165.16"/>
<polygon fill="#ba0d39" stroke="#ba0d39" points="180.18,-1162.15 169.77,-1160.18 176.67,-1168.21 180.18,-1162.15"/>
</g>
<!-- itemskip_1 -->
<g id="node38" class="node">
<title>itemskip_1</title>
<polygon fill="#000000" stroke="black" points="298,-1060.8 244,-1060.8 244,-1024.8 298,-1024.8 298,-1060.8"/>
<text text-anchor="middle" x="271" y="-1039.1" font-family="Times New Roman,serif" font-size="14.00" fill="#ffffff">t15</text>
<text text-anchor="middle" x="231.5" y="-1064.6" font-family="Times New Roman,serif" font-size="14.00" fill="#ffffff">Test</text>
</g>
<!-- item4&#45;&gt;itemskip_1 -->
<g id="edge37" class="edge">
<title>item4&#45;&gt;itemskip_1</title>
<path fill="none" stroke="#ba0d39" d="M281.94,-1197.33C279.5,-1163.15 275.48,-1106.6 273.05,-1072.51"/>
<polygon fill="#ba0d39" stroke="#ba0d39" points="276.54,-1072.28 272.34,-1062.56 269.56,-1072.78 276.54,-1072.28"/>
</g>
<!-- delivery4 -->
<g id="node17" class="node">
<title>delivery4</title>
<ellipse fill="none" stroke="#05b202" cx="283" cy="-647.41" rx="41.12" ry="41.12"/>
<text text-anchor="middle" x="283" y="-644.01" font-family="Times New Roman,serif" font-size="13.00">delivery4</text>
</g>
<!-- Load Cargo -->
<g id="node34" class="node">
<title>Load Cargo</title>
<polygon fill="none" stroke="black" points="290.5,-570.35 105.5,-570.35 105.5,-522.35 290.5,-522.35 290.5,-570.35"/>
<text text-anchor="middle" x="198" y="-537.55" font-family="Times New Roman,serif" font-size="36.00">Load Cargo</text>
</g>
<!-- delivery4&#45;&gt;Load Cargo -->
<g id="edge34" class="edge">
<title>delivery4&#45;&gt;Load Cargo</title>
<path fill="none" stroke="#05b202" d="M256.57,-615.61C246.63,-604.03 235.31,-590.84 225.29,-579.16"/>
<polygon fill="#05b202" stroke="#05b202" points="228.08,-577.04 218.91,-571.73 222.77,-581.6 228.08,-577.04"/>
</g>
<!-- order1 -->
<g id="node18" class="node">
<title>order1</title>
<ellipse fill="none" stroke="#a13ccd" cx="658" cy="-1042.8" rx="32.43" ry="32.43"/>
<text text-anchor="middle" x="658" y="-1039.4" font-family="Times New Roman,serif" font-size="13.00">order1</text>
</g>
<!-- Pay Order -->
<g id="node26" class="node">
<title>Pay Order</title>
<polygon fill="none" stroke="black" points="755,-974.59 593,-974.59 593,-926.59 755,-926.59 755,-974.59"/>
<text text-anchor="middle" x="674" y="-941.79" font-family="Times New Roman,serif" font-size="36.00">Pay Order</text>
</g>
<!-- order1&#45;&gt;Pay Order -->
<g id="edge29" class="edge">
<title>order1&#45;&gt;Pay Order</title>
<path fill="none" stroke="#a13ccd" d="M663.55,-1010.51C664.95,-1002.64 666.45,-994.16 667.87,-986.14"/>
<polygon fill="#a13ccd" stroke="#a13ccd" points="671.31,-986.81 669.61,-976.36 664.41,-985.59 671.31,-986.81"/>
</g>
<!-- order5 -->
<g id="node19" class="node">
<title>order5</title>
<ellipse fill="none" stroke="#a13ccd" cx="586" cy="-1227.24" rx="32.43" ry="32.43"/>
<text text-anchor="middle" x="586" y="-1223.84" font-family="Times New Roman,serif" font-size="13.00">order5</text>
</g>
<!-- orderskip_1 -->
<g id="node24" class="node">
<title>orderskip_1</title>
<polygon fill="#000000" stroke="black" points="685,-1153.02 631,-1153.02 631,-1117.02 685,-1117.02 685,-1153.02"/>
<text text-anchor="middle" x="658" y="-1131.32" font-family="Times New Roman,serif" font-size="14.00" fill="#ffffff">t1</text>
<text text-anchor="middle" x="618.5" y="-1156.82" font-family="Times New Roman,serif" font-size="14.00" fill="#ffffff">Test</text>
</g>
<!-- order5&#45;&gt;orderskip_1 -->
<g id="edge7" class="edge">
<title>order5&#45;&gt;orderskip_1</title>
<path fill="none" stroke="#a13ccd" d="M605.67,-1201.58C615.36,-1189.44 627.05,-1174.8 636.92,-1162.43"/>
<polygon fill="#a13ccd" stroke="#a13ccd" points="639.61,-1164.68 643.11,-1154.68 634.14,-1160.31 639.61,-1164.68"/>
</g>
<!-- orderinit_loop_2 -->
<g id="node29" class="node">
<title>orderinit_loop_2</title>
<polygon fill="#000000" stroke="black" points="613,-1153.02 559,-1153.02 559,-1117.02 613,-1117.02 613,-1153.02"/>
<text text-anchor="middle" x="586" y="-1131.32" font-family="Times New Roman,serif" font-size="14.00" fill="#ffffff">t6</text>
<text text-anchor="middle" x="546.5" y="-1156.82" font-family="Times New Roman,serif" font-size="14.00" fill="#ffffff">Test</text>
</g>
<!-- order5&#45;&gt;orderinit_loop_2 -->
<g id="edge12" class="edge">
<title>order5&#45;&gt;orderinit_loop_2</title>
<path fill="none" stroke="#a13ccd" d="M586,-1194.43C586,-1184.73 586,-1174.12 586,-1164.65"/>
<polygon fill="#a13ccd" stroke="#a13ccd" points="589.5,-1164.91 586,-1154.91 582.5,-1164.91 589.5,-1164.91"/>
</g>
<!-- delivery1 -->
<g id="node20" class="node">
<title>delivery1</title>
<ellipse fill="#05b202" stroke="#05b202" cx="349" cy="-849.53" rx="41.12" ry="41.12"/>
<text text-anchor="middle" x="349" y="-846.13" font-family="Times New Roman,serif" font-size="13.00">delivery1</text>
</g>
<!-- deliverytauSplit_1 -->
<g id="node39" class="node">
<title>deliverytauSplit_1</title>
<polygon fill="#000000" stroke="black" points="376,-766.47 322,-766.47 322,-730.47 376,-730.47 376,-766.47"/>
<text text-anchor="middle" x="349" y="-744.77" font-family="Times New Roman,serif" font-size="14.00" fill="#ffffff">t16</text>
<text text-anchor="middle" x="309.5" y="-770.27" font-family="Times New Roman,serif" font-size="14.00" fill="#ffffff">Test</text>
</g>
<!-- delivery1&#45;&gt;deliverytauSplit_1 -->
<g id="edge32" class="edge">
<title>delivery1&#45;&gt;deliverytauSplit_1</title>
<path fill="none" stroke="#05b202" d="M349,-807.95C349,-798 349,-787.54 349,-778.27"/>
<polygon fill="#05b202" stroke="#05b202" points="352.5,-778.42 349,-768.42 345.5,-778.42 352.5,-778.42"/>
</g>
<!-- item8 -->
<g id="node21" class="node">
<title>item8</title>
<ellipse fill="none" stroke="#ba0d39" cx="194" cy="-647.41" rx="29.88" ry="29.88"/>
<text text-anchor="middle" x="194" y="-644.01" font-family="Times New Roman,serif" font-size="13.00">item8</text>
</g>
<!-- item8&#45;&gt;Load Cargo -->
<g id="edge4" class="edge">
<title>item8&#45;&gt;Load Cargo</title>
<path fill="none" stroke="#ba0d39" d="M193.18,-617.15C193.62,-606.13 194.14,-593.5 194.6,-582.02"/>
<path fill="none" stroke="white" d="M195.18,-617.23C195.62,-606.21 196.13,-593.58 196.6,-582.11"/>
<path fill="none" stroke="#ba0d39" d="M197.18,-617.31C197.62,-606.3 198.13,-593.66 198.6,-582.19"/>
<polygon fill="#ba0d39" stroke="#ba0d39" points="200.09,-582.33 197,-572.2 193.1,-582.05 200.09,-582.33"/>
</g>
<!-- item1 -->
<g id="node22" class="node">
<title>item1</title>
<ellipse fill="#ba0d39" stroke="#ba0d39" cx="467" cy="-1596.1" rx="29.88" ry="29.88"/>
<text text-anchor="middle" x="467" y="-1592.7" font-family="Times New Roman,serif" font-size="13.00">item1</text>
</g>
<!-- item1&#45;&gt;Place Order -->
<g id="edge14" class="edge">
<title>item1&#45;&gt;Place Order</title>
<path fill="none" stroke="#ba0d39" d="M453.39,-1569.33C449.22,-1559.94 444.49,-1549.25 440.1,-1539.35"/>
<path fill="none" stroke="white" d="M455.22,-1568.52C451.05,-1559.13 446.31,-1548.44 441.92,-1538.54"/>
<path fill="none" stroke="#ba0d39" d="M457.04,-1567.71C452.88,-1558.32 448.14,-1547.63 443.75,-1537.73"/>
<polygon fill="#ba0d39" stroke="#ba0d39" points="445.21,-1537.32 437.96,-1529.59 438.81,-1540.15 445.21,-1537.32"/>
</g>
<!-- delivery7 -->
<g id="node23" class="node">
<title>delivery7</title>
<ellipse fill="none" stroke="#05b202" cx="328" cy="-243.18" rx="41.12" ry="41.12"/>
<text text-anchor="middle" x="328" y="-239.78" font-family="Times New Roman,serif" font-size="13.00">delivery7</text>
</g>
<!-- delivery7&#45;&gt;End Route -->
<g id="edge9" class="edge">
<title>delivery7&#45;&gt;End Route</title>
<path fill="none" stroke="#05b202" d="M311.24,-205.29C307,-195.96 302.47,-185.99 298.31,-176.82"/>
<polygon fill="#05b202" stroke="#05b202" points="301.58,-175.56 294.26,-167.9 295.21,-178.45 301.58,-175.56"/>
</g>
<!-- orderskip_1&#45;&gt;order1 -->
<g id="edge17" class="edge">
<title>orderskip_1&#45;&gt;order1</title>
<path fill="none" stroke="#a13ccd" d="M658,-1116.63C658,-1108.05 658,-1097.3 658,-1086.71"/>
<polygon fill="#a13ccd" stroke="#a13ccd" points="661.5,-1086.9 658,-1076.9 654.5,-1086.9 661.5,-1086.9"/>
</g>
<!-- orderskip_5&#45;&gt;order1 -->
<g id="edge10" class="edge">
<title>orderskip_5&#45;&gt;order1</title>
<path fill="none" stroke="#a13ccd" d="M541.1,-1116.66C544.1,-1114.75 547.11,-1112.84 550,-1111.02 573.6,-1096.14 600.21,-1079.58 621.11,-1066.62"/>
<polygon fill="#a13ccd" stroke="#a13ccd" points="622.93,-1069.61 629.58,-1061.36 619.24,-1063.66 622.93,-1069.61"/>
</g>
<!-- Pay Order&#45;&gt;order4 -->
<g id="edge11" class="edge">
<title>Pay Order&#45;&gt;order4</title>
<path fill="none" stroke="#a13ccd" d="M674,-926.11C674,-916.43 674,-904.89 674,-893.78"/>
<polygon fill="#a13ccd" stroke="#a13ccd" points="677.5,-893.97 674,-883.97 670.5,-893.97 677.5,-893.97"/>
</g>
<!-- Place Order&#45;&gt;item6 -->
<g id="edge38" class="edge">
<title>Place Order&#45;&gt;item6</title>
<path fill="none" stroke="#ba0d39" d="M414.87,-1480.46C410.82,-1471.32 406.06,-1460.59 401.56,-1450.43"/>
<path fill="none" stroke="white" d="M416.7,-1479.65C412.64,-1470.51 407.89,-1459.78 403.39,-1449.62"/>
<path fill="none" stroke="#ba0d39" d="M418.53,-1478.84C414.47,-1469.69 409.72,-1458.97 405.21,-1448.81"/>
<polygon fill="#ba0d39" stroke="#ba0d39" points="406.69,-1448.44 399.44,-1440.72 400.29,-1451.28 406.69,-1448.44"/>
</g>
<!-- Place Order&#45;&gt;order6 -->
<g id="edge41" class="edge">
<title>Place Order&#45;&gt;order6</title>
<path fill="none" stroke="#a13ccd" d="M437.3,-1479.65C441.03,-1471.23 445.36,-1461.47 449.54,-1452.04"/>
<polygon fill="#a13ccd" stroke="#a13ccd" points="452.69,-1453.58 453.54,-1443.02 446.29,-1450.74 452.69,-1453.58"/>
</g>
<!-- Confirm Order&#45;&gt;item4 -->
<g id="edge36" class="edge">
<title>Confirm Order&#45;&gt;item4</title>
<path fill="none" stroke="#ba0d39" d="M388.73,-1296.68C366.73,-1282.79 339.05,-1265.33 317.52,-1251.75"/>
<path fill="none" stroke="white" d="M389.8,-1294.98C367.8,-1281.1 340.11,-1263.64 318.58,-1250.05"/>
<path fill="none" stroke="#ba0d39" d="M390.87,-1293.29C368.87,-1279.41 341.18,-1261.95 319.65,-1248.36"/>
<polygon fill="#ba0d39" stroke="#ba0d39" points="320.47,-1247.11 310.15,-1244.73 316.74,-1253.03 320.47,-1247.11"/>
</g>
<!-- Confirm Order&#45;&gt;order5 -->
<g id="edge35" class="edge">
<title>Confirm Order&#45;&gt;order5</title>
<path fill="none" stroke="#a13ccd" d="M468.36,-1294.98C493,-1281.01 524.04,-1263.39 548.05,-1249.77"/>
<polygon fill="#a13ccd" stroke="#a13ccd" points="549.58,-1252.92 556.55,-1244.95 546.13,-1246.84 549.58,-1252.92"/>
</g>
<!-- orderinit_loop_2&#45;&gt;order7 -->
<g id="edge23" class="edge">
<title>orderinit_loop_2&#45;&gt;order7</title>
<path fill="none" stroke="#a13ccd" d="M559.2,-1116.63C537.57,-1102.59 506.92,-1082.7 483.12,-1067.25"/>
<polygon fill="#a13ccd" stroke="#a13ccd" points="485.28,-1064.48 474.99,-1061.97 481.47,-1070.35 485.28,-1064.48"/>
</g>
<!-- Start Route&#45;&gt;item2 -->
<g id="edge42" class="edge">
<title>Start Route&#45;&gt;item2</title>
<path fill="none" stroke="#ba0d39" d="M270.74,-320.57C265.66,-309.13 259.43,-295.09 253.72,-282.24"/>
<path fill="none" stroke="white" d="M272.57,-319.76C267.49,-308.32 261.26,-294.28 255.54,-281.42"/>
<path fill="none" stroke="#ba0d39" d="M274.4,-318.95C269.32,-307.51 263.08,-293.47 257.37,-280.61"/>
<polygon fill="#ba0d39" stroke="#ba0d39" points="258.78,-280.09 251.52,-272.37 252.38,-282.93 258.78,-280.09"/>
</g>
<!-- Start Route&#45;&gt;delivery7 -->
<g id="edge28" class="edge">
<title>Start Route&#45;&gt;delivery7</title>
<path fill="none" stroke="#05b202" d="M293.66,-319.76C297.56,-311.18 302.12,-301.15 306.62,-291.24"/>
<polygon fill="#05b202" stroke="#05b202" points="309.68,-292.97 310.63,-282.42 303.31,-290.07 309.68,-292.97"/>
</g>
<!-- Item out of stock&#45;&gt;item7 -->
<g id="edge26" class="edge">
<title>Item out of stock&#45;&gt;item7</title>
<path fill="none" stroke="#ba0d39" d="M128,-1110.79C128,-1102.71 128,-1093.4 128,-1084.34"/>
<polygon fill="#ba0d39" stroke="#ba0d39" points="131.5,-1084.62 128,-1074.62 124.5,-1084.62 131.5,-1084.62"/>
</g>
<!-- Reorder Item&#45;&gt;item5 -->
<g id="edge30" class="edge">
<title>Reorder Item&#45;&gt;item5</title>
<path fill="none" stroke="#ba0d39" d="M143.64,-926.11C152,-913.56 162.44,-897.89 171.65,-884.08"/>
<polygon fill="#ba0d39" stroke="#ba0d39" points="174.31,-886.39 176.94,-876.13 168.49,-882.51 174.31,-886.39"/>
</g>
<!-- Pick Item&#45;&gt;item8 -->
<g id="edge3" class="edge">
<title>Pick Item&#45;&gt;item8</title>
<path fill="none" stroke="#ba0d39" d="M194,-724C194,-713.61 194,-701.09 194,-689.25"/>
<polygon fill="#ba0d39" stroke="#ba0d39" points="197.5,-689.26 194,-679.26 190.5,-689.26 197.5,-689.26"/>
</g>
<!-- Load Cargo&#45;&gt;item9 -->
<g id="edge44" class="edge">
<title>Load Cargo&#45;&gt;item9</title>
<path fill="none" stroke="#ba0d39" d="M195.05,-521.96C194.63,-511.47 194.12,-498.79 193.64,-486.85"/>
<path fill="none" stroke="white" d="M197.05,-521.88C196.63,-511.39 196.12,-498.71 195.63,-486.77"/>
<path fill="none" stroke="#ba0d39" d="M199.05,-521.8C198.63,-511.31 198.12,-498.63 197.63,-486.69"/>
<polygon fill="#ba0d39" stroke="#ba0d39" points="199.15,-487 195.25,-477.14 192.15,-487.28 199.15,-487"/>
</g>
<!-- Load Cargo&#45;&gt;delivery5 -->
<g id="edge22" class="edge">
<title>Load Cargo&#45;&gt;delivery5</title>
<path fill="none" stroke="#05b202" d="M218.14,-521.88C227.39,-511.11 238.6,-498.03 249.09,-485.81"/>
<polygon fill="#05b202" stroke="#05b202" points="251.72,-488.12 255.58,-478.25 246.41,-483.56 251.72,-488.12"/>
</g>
<!-- orderskip_4&#45;&gt;order7 -->
<g id="edge13" class="edge">
<title>orderskip_4&#45;&gt;order7</title>
<path fill="none" stroke="#a13ccd" d="M442.96,-1116.63C443.44,-1108.05 444.04,-1097.3 444.62,-1086.71"/>
<polygon fill="#a13ccd" stroke="#a13ccd" points="448.11,-1087.08 445.17,-1076.9 441.12,-1086.69 448.11,-1087.08"/>
</g>
<!-- Payment Reminder&#45;&gt;order2 -->
<g id="edge1" class="edge">
<title>Payment Reminder&#45;&gt;order2</title>
<path fill="none" stroke="#a13ccd" d="M418.52,-975C413.58,-985.56 408.48,-998.38 406,-1010.59 392.87,-1075.24 389.94,-1095.03 406,-1159.02 408.68,-1169.69 413.41,-1180.52 418.59,-1190.28"/>
<polygon fill="#a13ccd" stroke="#a13ccd" points="415.37,-1191.7 423.32,-1198.69 421.47,-1188.26 415.37,-1191.7"/>
</g>
<!-- End Route&#45;&gt;item3 -->
<g id="edge15" class="edge">
<title>End Route&#45;&gt;item3</title>
<path fill="none" stroke="#ba0d39" d="M270.74,-118.45C265.66,-107.01 259.43,-92.98 253.72,-80.12"/>
<path fill="none" stroke="white" d="M272.57,-117.64C267.49,-106.2 261.26,-92.16 255.54,-79.31"/>
<path fill="none" stroke="#ba0d39" d="M274.4,-116.83C269.32,-105.39 263.08,-91.35 257.37,-78.49"/>
<polygon fill="#ba0d39" stroke="#ba0d39" points="258.78,-77.97 251.52,-70.25 252.38,-80.81 258.78,-77.97"/>
</g>
<!-- End Route&#45;&gt;delivery6 -->
<g id="edge40" class="edge">
<title>End Route&#45;&gt;delivery6</title>
<path fill="none" stroke="#05b202" d="M293.66,-117.64C297.56,-109.06 302.12,-99.03 306.62,-89.13"/>
<polygon fill="#05b202" stroke="#05b202" points="309.68,-90.85 310.63,-80.3 303.31,-87.96 309.68,-90.85"/>
</g>
<!-- itemskip_1&#45;&gt;item5 -->
<g id="edge43" class="edge">
<title>itemskip_1&#45;&gt;item5</title>
<path fill="none" stroke="#ba0d39" d="M267.69,-1024.54C262.96,-1001.58 253.23,-960.01 239,-926.59 232.82,-912.08 224.35,-896.96 216.42,-884.06"/>
<polygon fill="#ba0d39" stroke="#ba0d39" points="219.61,-882.55 211.32,-875.95 213.68,-886.28 219.61,-882.55"/>
</g>
<!-- deliverytauSplit_1&#45;&gt;delivery2 -->
<g id="edge39" class="edge">
<title>deliverytauSplit_1&#45;&gt;delivery2</title>
<path fill="none" stroke="#05b202" d="M354.92,-730.22C358.07,-721.05 362.11,-709.27 366.14,-697.52"/>
<polygon fill="#05b202" stroke="#05b202" points="369.39,-698.84 369.33,-688.25 362.77,-696.57 369.39,-698.84"/>
</g>
<!-- deliverytauSplit_1&#45;&gt;delivery4 -->
<g id="edge33" class="edge">
<title>deliverytauSplit_1&#45;&gt;delivery4</title>
<path fill="none" stroke="#05b202" d="M337.5,-730.22C330.36,-719.5 320.84,-705.21 311.75,-691.57"/>
<polygon fill="#05b202" stroke="#05b202" points="314.87,-689.93 306.41,-683.55 309.04,-693.81 314.87,-689.93"/>
</g>
<!-- Fuel Car&#45;&gt;delivery3 -->
<g id="edge45" class="edge">
<title>Fuel Car&#45;&gt;delivery3</title>
<path fill="none" stroke="#05b202" d="M383,-521.88C383,-514.64 383,-506.37 383,-498.01"/>
<polygon fill="#05b202" stroke="#05b202" points="386.5,-498.16 383,-488.16 379.5,-498.16 386.5,-498.16"/>
</g>
</g>
</svg>
