<?xml version="1.0" encoding="UTF-8" standalone="no"?>
<!DOCTYPE svg PUBLIC "-//W3C//DTD SVG 1.1//EN"
 "http://www.w3.org/Graphics/SVG/1.1/DTD/svg11.dtd">
<!-- Generated by graphviz version 7.1.0 (20230121.1956)
 -->
<!-- Pages: 1 -->
<svg width="438pt" height="1463pt"
 viewBox="0.00 0.00 438.00 1463.26" xmlns="http://www.w3.org/2000/svg" xmlns:xlink="http://www.w3.org/1999/xlink">
<g id="graph0" class="graph" transform="scale(1 1) rotate(0) translate(4 1459.26)">
<!-- order1 -->
<g id="node1" class="node">
<title>order1</title>
<ellipse fill="#a13ccd" stroke="#a13ccd" cx="128" cy="-1423.04" rx="32.43" ry="32.43"/>
<text text-anchor="middle" x="128" y="-1419.64" font-family="Times New Roman,serif" font-size="13.00">order1</text>
</g>
<!-- Place Order -->
<g id="node17" class="node">
<title>Place Order</title>
<polygon fill="none" stroke="black" points="261,-1354.83 75,-1354.83 75,-1306.83 261,-1306.83 261,-1354.83"/>
<text text-anchor="middle" x="168" y="-1322.03" font-family="Times New Roman,serif" font-size="36.00">Place Order</text>
</g>
<!-- order1&#45;&gt;Place Order -->
<g id="edge1" class="edge">
<title>order1&#45;&gt;Place Order</title>
<path fill="none" stroke="#a13ccd" d="M140.88,-1393C144.78,-1384.19 149.11,-1374.44 153.13,-1365.36"/>
<polygon fill="#a13ccd" stroke="#a13ccd" points="156.21,-1367.05 157.07,-1356.49 149.81,-1364.21 156.21,-1367.05"/>
</g>
<!-- order2 -->
<g id="node2" class="node">
<title>order2</title>
<ellipse fill="none" stroke="#a13ccd" cx="128" cy="-1054.18" rx="32.43" ry="32.43"/>
<text text-anchor="middle" x="128" y="-1050.78" font-family="Times New Roman,serif" font-size="13.00">order2</text>
</g>
<!-- Pay Order -->
<g id="node23" class="node">
<title>Pay Order</title>
<polygon fill="none" stroke="black" points="162,-985.97 0,-985.97 0,-937.97 162,-937.97 162,-985.97"/>
<text text-anchor="middle" x="81" y="-953.17" font-family="Times New Roman,serif" font-size="36.00">Pay Order</text>
</g>
<!-- order2&#45;&gt;Pay Order -->
<g id="edge8" class="edge">
<title>order2&#45;&gt;Pay Order</title>
<path fill="none" stroke="#a13ccd" d="M113.39,-1025.13C108.69,-1016.11 103.43,-1006.03 98.55,-996.65"/>
<polygon fill="#a13ccd" stroke="#a13ccd" points="101.66,-995.04 93.93,-987.79 95.45,-998.28 101.66,-995.04"/>
</g>
<!-- order4 -->
<g id="node3" class="node">
<title>order4</title>
<ellipse fill="#a13ccd" stroke="#a13ccd" cx="81" cy="-860.91" rx="32.43" ry="32.43"/>
<text text-anchor="middle" x="81" y="-857.51" font-family="Times New Roman,serif" font-size="13.00">order4</text>
</g>
<!-- item1 -->
<g id="node4" class="node">
<title>item1</title>
<ellipse fill="#ba0d39" stroke="#ba0d39" cx="208" cy="-1423.04" rx="29.88" ry="29.88"/>
<text text-anchor="middle" x="208" y="-1419.64" font-family="Times New Roman,serif" font-size="13.00">item1</text>
</g>
<!-- item1&#45;&gt;Place Order -->
<g id="edge11" class="edge">
<title>item1&#45;&gt;Place Order</title>
<path fill="none" stroke="#ba0d39" d="M194.39,-1396.28C190.22,-1386.89 185.49,-1376.2 181.1,-1366.3"/>
<path fill="none" stroke="white" d="M196.22,-1395.46C192.05,-1386.08 187.31,-1375.39 182.92,-1365.49"/>
<path fill="none" stroke="#ba0d39" d="M198.04,-1394.65C193.88,-1385.26 189.14,-1374.58 184.75,-1364.68"/>
<polygon fill="#ba0d39" stroke="#ba0d39" points="186.21,-1364.26 178.96,-1356.54 179.81,-1367.1 186.21,-1364.26"/>
</g>
<!-- item2 -->
<g id="node5" class="node">
<title>item2</title>
<ellipse fill="#ba0d39" stroke="#ba0d39" cx="256" cy="-41.06" rx="29.88" ry="29.88"/>
<text text-anchor="middle" x="256" y="-37.66" font-family="Times New Roman,serif" font-size="13.00">item2</text>
</g>
<!-- item3 -->
<g id="node6" class="node">
<title>item3</title>
<ellipse fill="none" stroke="#ba0d39" cx="232" cy="-1054.18" rx="29.88" ry="29.88"/>
<text text-anchor="middle" x="232" y="-1050.78" font-family="Times New Roman,serif" font-size="13.00">item3</text>
</g>
<!-- Pick Item -->
<g id="node24" class="node">
<title>Pick Item</title>
<polygon fill="none" stroke="black" points="332,-985.97 180,-985.97 180,-937.97 332,-937.97 332,-985.97"/>
<text text-anchor="middle" x="256" y="-953.17" font-family="Times New Roman,serif" font-size="36.00">Pick Item</text>
</g>
<!-- item3&#45;&gt;Pick Item -->
<g id="edge14" class="edge">
<title>item3&#45;&gt;Pick Item</title>
<path fill="none" stroke="#ba0d39" d="M239.46,-1025.13C241.78,-1016.4 244.37,-1006.68 246.8,-997.56"/>
<polygon fill="#ba0d39" stroke="#ba0d39" points="250.18,-998.48 249.36,-987.91 243.41,-996.68 250.18,-998.48"/>
</g>
<!-- item4 -->
<g id="node7" class="node">
<title>item4</title>
<ellipse fill="none" stroke="#ba0d39" cx="256" cy="-243.18" rx="29.88" ry="29.88"/>
<text text-anchor="middle" x="256" y="-239.78" font-family="Times New Roman,serif" font-size="13.00">item4</text>
</g>
<!-- End Route -->
<g id="node18" class="node">
<title>End Route</title>
<polygon fill="none" stroke="black" points="383.5,-166.12 216.5,-166.12 216.5,-118.12 383.5,-118.12 383.5,-166.12"/>
<text text-anchor="middle" x="300" y="-133.32" font-family="Times New Roman,serif" font-size="36.00">End Route</text>
</g>
<!-- item4&#45;&gt;End Route -->
<g id="edge21" class="edge">
<title>item4&#45;&gt;End Route</title>
<path fill="none" stroke="#ba0d39" d="M266.08,-214.56C271.32,-202.77 277.53,-188.79 283.08,-176.28"/>
<path fill="none" stroke="white" d="M267.91,-215.37C273.14,-203.58 279.35,-189.6 284.91,-177.09"/>
<path fill="none" stroke="#ba0d39" d="M269.73,-216.18C274.97,-204.39 281.18,-190.41 286.74,-177.91"/>
<polygon fill="#ba0d39" stroke="#ba0d39" points="288.11,-178.52 288.97,-167.96 281.71,-175.67 288.11,-178.52"/>
</g>
<!-- item6 -->
<g id="node8" class="node">
<title>item6</title>
<ellipse fill="none" stroke="#ba0d39" cx="128" cy="-1238.61" rx="29.88" ry="29.88"/>
<text text-anchor="middle" x="128" y="-1235.21" font-family="Times New Roman,serif" font-size="13.00">item6</text>
</g>
<!-- Confirm Order -->
<g id="node19" class="node">
<title>Confirm Order</title>
<polygon fill="none" stroke="black" points="282,-1170.4 54,-1170.4 54,-1122.4 282,-1122.4 282,-1170.4"/>
<text text-anchor="middle" x="168" y="-1137.6" font-family="Times New Roman,serif" font-size="36.00">Confirm Order</text>
</g>
<!-- item6&#45;&gt;Confirm Order -->
<g id="edge15" class="edge">
<title>item6&#45;&gt;Confirm Order</title>
<path fill="none" stroke="#ba0d39" d="M137.96,-1210.22C142.12,-1200.83 146.86,-1190.15 151.25,-1180.25"/>
<path fill="none" stroke="white" d="M139.78,-1211.03C143.95,-1201.64 148.69,-1190.96 153.08,-1181.06"/>
<path fill="none" stroke="#ba0d39" d="M141.61,-1211.84C145.78,-1202.45 150.51,-1191.77 154.9,-1181.87"/>
<polygon fill="#ba0d39" stroke="#ba0d39" points="156.19,-1182.67 157.04,-1172.11 149.79,-1179.83 156.19,-1182.67"/>
</g>
<!-- delivery5 -->
<g id="node9" class="node">
<title>delivery5</title>
<ellipse fill="none" stroke="#05b202" cx="345" cy="-243.18" rx="41.12" ry="41.12"/>
<text text-anchor="middle" x="345" y="-239.78" font-family="Times New Roman,serif" font-size="13.00">delivery5</text>
</g>
<!-- delivery5&#45;&gt;End Route -->
<g id="edge26" class="edge">
<title>delivery5&#45;&gt;End Route</title>
<path fill="none" stroke="#05b202" d="M328.24,-205.29C324,-195.96 319.47,-185.99 315.31,-176.82"/>
<polygon fill="#05b202" stroke="#05b202" points="318.58,-175.56 311.26,-167.9 312.21,-178.45 318.58,-175.56"/>
</g>
<!-- order3 -->
<g id="node10" class="node">
<title>order3</title>
<ellipse fill="none" stroke="#a13ccd" cx="208" cy="-1238.61" rx="32.43" ry="32.43"/>
<text text-anchor="middle" x="208" y="-1235.21" font-family="Times New Roman,serif" font-size="13.00">order3</text>
</g>
<!-- order3&#45;&gt;Confirm Order -->
<g id="edge2" class="edge">
<title>order3&#45;&gt;Confirm Order</title>
<path fill="none" stroke="#a13ccd" d="M195.12,-1208.57C191.22,-1199.76 186.89,-1190.01 182.87,-1180.93"/>
<polygon fill="#a13ccd" stroke="#a13ccd" points="186.19,-1179.78 178.93,-1172.06 179.79,-1182.62 186.19,-1179.78"/>
</g>
<!-- item5 -->
<g id="node11" class="node">
<title>item5</title>
<ellipse fill="none" stroke="#ba0d39" cx="256" cy="-860.91" rx="29.88" ry="29.88"/>
<text text-anchor="middle" x="256" y="-857.51" font-family="Times New Roman,serif" font-size="13.00">item5</text>
</g>
<!-- Load Cargo -->
<g id="node21" class="node">
<title>Load Cargo</title>
<polygon fill="none" stroke="black" points="392.5,-783.85 207.5,-783.85 207.5,-735.85 392.5,-735.85 392.5,-783.85"/>
<text text-anchor="middle" x="300" y="-751.05" font-family="Times New Roman,serif" font-size="36.00">Load Cargo</text>
</g>
<!-- item5&#45;&gt;Load Cargo -->
<g id="edge4" class="edge">
<title>item5&#45;&gt;Load Cargo</title>
<path fill="none" stroke="#ba0d39" d="M266.08,-832.29C271.32,-820.5 277.53,-806.52 283.08,-794.01"/>
<path fill="none" stroke="white" d="M267.91,-833.1C273.14,-821.31 279.35,-807.33 284.91,-794.82"/>
<path fill="none" stroke="#ba0d39" d="M269.73,-833.91C274.97,-822.12 281.18,-808.14 286.74,-795.64"/>
<polygon fill="#ba0d39" stroke="#ba0d39" points="288.11,-796.25 288.97,-785.69 281.71,-793.41 288.11,-796.25"/>
</g>
<!-- item7 -->
<g id="node12" class="node">
<title>item7</title>
<ellipse fill="none" stroke="#ba0d39" cx="242" cy="-552.04" rx="29.88" ry="29.88"/>
<text text-anchor="middle" x="242" y="-548.64" font-family="Times New Roman,serif" font-size="13.00">item7</text>
</g>
<!-- Start Route -->
<g id="node20" class="node">
<title>Start Route</title>
<polygon fill="none" stroke="black" points="389,-368.24 211,-368.24 211,-320.24 389,-320.24 389,-368.24"/>
<text text-anchor="middle" x="300" y="-335.44" font-family="Times New Roman,serif" font-size="36.00">Start Route</text>
</g>
<!-- item7&#45;&gt;Start Route -->
<g id="edge12" class="edge">
<title>item7&#45;&gt;Start Route</title>
<path fill="none" stroke="#ba0d39" d="M248.02,-522.31C258.54,-484.96 277.1,-419.11 288.42,-378.94"/>
<path fill="none" stroke="white" d="M249.94,-522.86C260.47,-485.5 279.03,-419.65 290.35,-379.48"/>
<path fill="none" stroke="#ba0d39" d="M251.87,-523.4C262.39,-486.05 280.95,-420.19 292.27,-380.02"/>
<polygon fill="#ba0d39" stroke="#ba0d39" points="293.65,-380.66 293,-370.09 286.92,-378.76 293.65,-380.66"/>
</g>
<!-- delivery1 -->
<g id="node13" class="node">
<title>delivery1</title>
<ellipse fill="#05b202" stroke="#05b202" cx="345" cy="-860.91" rx="41.12" ry="41.12"/>
<text text-anchor="middle" x="345" y="-857.51" font-family="Times New Roman,serif" font-size="13.00">delivery1</text>
</g>
<!-- delivery1&#45;&gt;Load Cargo -->
<g id="edge5" class="edge">
<title>delivery1&#45;&gt;Load Cargo</title>
<path fill="none" stroke="#05b202" d="M328.24,-823.02C324,-813.69 319.47,-803.72 315.31,-794.55"/>
<polygon fill="#05b202" stroke="#05b202" points="318.58,-793.29 311.26,-785.63 312.21,-796.18 318.58,-793.29"/>
</g>
<!-- delivery2 -->
<g id="node14" class="node">
<title>delivery2</title>
<ellipse fill="#05b202" stroke="#05b202" cx="345" cy="-41.06" rx="41.12" ry="41.12"/>
<text text-anchor="middle" x="345" y="-37.66" font-family="Times New Roman,serif" font-size="13.00">delivery2</text>
</g>
<!-- delivery3 -->
<g id="node15" class="node">
<title>delivery3</title>
<ellipse fill="none" stroke="#05b202" cx="347" cy="-445.29" rx="41.12" ry="41.12"/>
<text text-anchor="middle" x="347" y="-441.89" font-family="Times New Roman,serif" font-size="13.00">delivery3</text>
</g>
<!-- delivery3&#45;&gt;Start Route -->
<g id="edge16" class="edge">
<title>delivery3&#45;&gt;Start Route</title>
<path fill="none" stroke="#05b202" d="M329.63,-407.69C325.11,-398.16 320.26,-387.94 315.83,-378.59"/>
<polygon fill="#05b202" stroke="#05b202" points="319.13,-377.38 311.68,-369.85 312.8,-380.38 319.13,-377.38"/>
</g>
<!-- delivery4 -->
<g id="node16" class="node">
<title>delivery4</title>
<ellipse fill="none" stroke="#05b202" cx="347" cy="-658.79" rx="41.12" ry="41.12"/>
<text text-anchor="middle" x="347" y="-655.39" font-family="Times New Roman,serif" font-size="13.00">delivery4</text>
</g>
<!-- Fuel Car -->
<g id="node22" class="node">
<title>Fuel Car</title>
<polygon fill="none" stroke="black" points="430,-576.04 290,-576.04 290,-528.04 430,-528.04 430,-576.04"/>
<text text-anchor="middle" x="360" y="-543.24" font-family="Times New Roman,serif" font-size="36.00">Fuel Car</text>
</g>
<!-- delivery4&#45;&gt;Fuel Car -->
<g id="edge18" class="edge">
<title>delivery4&#45;&gt;Fuel Car</title>
<path fill="none" stroke="#05b202" d="M351.99,-617.59C353.22,-607.67 354.53,-597.12 355.72,-587.5"/>
<polygon fill="#05b202" stroke="#05b202" points="359.17,-588.17 356.93,-577.82 352.22,-587.31 359.17,-588.17"/>
</g>
<!-- Place Order&#45;&gt;item6 -->
<g id="edge22" class="edge">
<title>Place Order&#45;&gt;item6</title>
<path fill="none" stroke="#ba0d39" d="M155.87,-1307.41C151.82,-1298.26 147.06,-1287.54 142.56,-1277.38"/>
<path fill="none" stroke="white" d="M157.7,-1306.6C153.64,-1297.45 148.89,-1286.72 144.39,-1276.57"/>
<path fill="none" stroke="#ba0d39" d="M159.53,-1305.79C155.47,-1296.64 150.72,-1285.91 146.21,-1275.76"/>
<polygon fill="#ba0d39" stroke="#ba0d39" points="147.69,-1275.39 140.44,-1267.66 141.29,-1278.22 147.69,-1275.39"/>
</g>
<!-- Place Order&#45;&gt;order3 -->
<g id="edge23" class="edge">
<title>Place Order&#45;&gt;order3</title>
<path fill="none" stroke="#a13ccd" d="M178.3,-1306.6C182.03,-1298.18 186.36,-1288.41 190.54,-1278.99"/>
<polygon fill="#a13ccd" stroke="#a13ccd" points="193.69,-1280.53 194.54,-1269.97 187.29,-1277.69 193.69,-1280.53"/>
</g>
<!-- End Route&#45;&gt;item2 -->
<g id="edge13" class="edge">
<title>End Route&#45;&gt;item2</title>
<path fill="none" stroke="#ba0d39" d="M287.74,-118.45C282.66,-107.01 276.43,-92.98 270.72,-80.12"/>
<path fill="none" stroke="white" d="M289.57,-117.64C284.49,-106.2 278.26,-92.16 272.54,-79.31"/>
<path fill="none" stroke="#ba0d39" d="M291.4,-116.83C286.32,-105.39 280.08,-91.35 274.37,-78.49"/>
<polygon fill="#ba0d39" stroke="#ba0d39" points="275.78,-77.97 268.52,-70.25 269.38,-80.81 275.78,-77.97"/>
</g>
<!-- End Route&#45;&gt;delivery2 -->
<g id="edge6" class="edge">
<title>End Route&#45;&gt;delivery2</title>
<path fill="none" stroke="#05b202" d="M310.66,-117.64C314.56,-109.06 319.12,-99.03 323.62,-89.13"/>
<polygon fill="#05b202" stroke="#05b202" points="326.68,-90.85 327.63,-80.3 320.31,-87.96 326.68,-90.85"/>
</g>
<!-- Confirm Order&#45;&gt;order2 -->
<g id="edge10" class="edge">
<title>Confirm Order&#45;&gt;order2</title>
<path fill="none" stroke="#a13ccd" d="M157.7,-1122.17C153.97,-1113.74 149.64,-1103.98 145.46,-1094.56"/>
<polygon fill="#a13ccd" stroke="#a13ccd" points="148.71,-1093.26 141.46,-1085.54 142.31,-1096.1 148.71,-1093.26"/>
</g>
<!-- Confirm Order&#45;&gt;item3 -->
<g id="edge20" class="edge">
<title>Confirm Order&#45;&gt;item3</title>
<path fill="none" stroke="#ba0d39" d="M182.85,-1121.01C190.14,-1110.73 198.85,-1098.45 206.81,-1087.23"/>
<path fill="none" stroke="white" d="M184.48,-1122.17C191.77,-1111.89 200.48,-1099.61 208.44,-1088.39"/>
<path fill="none" stroke="#ba0d39" d="M186.11,-1123.32C193.4,-1113.04 202.11,-1100.77 210.07,-1089.55"/>
<polygon fill="#ba0d39" stroke="#ba0d39" points="211.1,-1090.7 214.03,-1080.52 205.39,-1086.65 211.1,-1090.7"/>
</g>
<!-- Start Route&#45;&gt;item4 -->
<g id="edge3" class="edge">
<title>Start Route&#45;&gt;item4</title>
<path fill="none" stroke="#ba0d39" d="M287.74,-320.57C282.66,-309.13 276.43,-295.09 270.72,-282.24"/>
<path fill="none" stroke="white" d="M289.57,-319.76C284.49,-308.32 278.26,-294.28 272.54,-281.42"/>
<path fill="none" stroke="#ba0d39" d="M291.4,-318.95C286.32,-307.51 280.08,-293.47 274.37,-280.61"/>
<polygon fill="#ba0d39" stroke="#ba0d39" points="275.78,-280.09 268.52,-272.37 269.38,-282.93 275.78,-280.09"/>
</g>
<!-- Start Route&#45;&gt;delivery5 -->
<g id="edge25" class="edge">
<title>Start Route&#45;&gt;delivery5</title>
<path fill="none" stroke="#05b202" d="M310.66,-319.76C314.56,-311.18 319.12,-301.15 323.62,-291.24"/>
<polygon fill="#05b202" stroke="#05b202" points="326.68,-292.97 327.63,-282.42 320.31,-290.07 326.68,-292.97"/>
</g>
<!-- Load Cargo&#45;&gt;item7 -->
<g id="edge9" class="edge">
<title>Load Cargo&#45;&gt;item7</title>
<path fill="none" stroke="#ba0d39" d="M291.53,-736.18C281.71,-701.32 263.03,-635.03 251.08,-592.64"/>
<path fill="none" stroke="white" d="M293.46,-735.64C283.64,-700.78 264.95,-634.48 253.01,-592.09"/>
<path fill="none" stroke="#ba0d39" d="M295.38,-735.1C285.56,-700.24 266.88,-633.94 254.93,-591.55"/>
<polygon fill="#ba0d39" stroke="#ba0d39" points="256.39,-591.21 250.31,-582.53 249.66,-593.11 256.39,-591.21"/>
</g>
<!-- Load Cargo&#45;&gt;delivery4 -->
<g id="edge24" class="edge">
<title>Load Cargo&#45;&gt;delivery4</title>
<path fill="none" stroke="#05b202" d="M311.14,-735.37C315.25,-726.71 320.06,-716.56 324.81,-706.56"/>
<polygon fill="#05b202" stroke="#05b202" points="327.92,-708.17 329.04,-697.63 321.6,-705.17 327.92,-708.17"/>
</g>
<!-- Fuel Car&#45;&gt;delivery3 -->
<g id="edge7" class="edge">
<title>Fuel Car&#45;&gt;delivery3</title>
<path fill="none" stroke="#05b202" d="M357.11,-527.8C356.01,-518.85 354.69,-508.25 353.38,-497.7"/>
<polygon fill="#05b202" stroke="#05b202" points="356.86,-497.35 352.16,-487.86 349.92,-498.21 356.86,-497.35"/>
</g>
<!-- Pay Order&#45;&gt;order4 -->
<g id="edge19" class="edge">
<title>Pay Order&#45;&gt;order4</title>
<path fill="none" stroke="#a13ccd" d="M81,-937.49C81,-927.81 81,-916.27 81,-905.16"/>
<polygon fill="#a13ccd" stroke="#a13ccd" points="84.5,-905.35 81,-895.35 77.5,-905.35 84.5,-905.35"/>
</g>
<!-- Pick Item&#45;&gt;item5 -->
<g id="edge17" class="edge">
<title>Pick Item&#45;&gt;item5</title>
<path fill="none" stroke="#ba0d39" d="M256,-937.49C256,-927.11 256,-914.59 256,-902.75"/>
<polygon fill="#ba0d39" stroke="#ba0d39" points="259.5,-902.76 256,-892.76 252.5,-902.76 259.5,-902.76"/>
</g>
</g>
</svg>
