<?xml version="1.0" encoding="UTF-8" standalone="no"?>
<!DOCTYPE svg PUBLIC "-//W3C//DTD SVG 1.1//EN"
 "http://www.w3.org/Graphics/SVG/1.1/DTD/svg11.dtd">
<!-- Generated by graphviz version 7.1.0 (20230121.1956)
 -->
<!-- Pages: 1 -->
<svg width="829pt" height="1818pt"
 viewBox="0.00 0.00 828.50 1818.26" xmlns="http://www.w3.org/2000/svg" xmlns:xlink="http://www.w3.org/1999/xlink">
<g id="graph0" class="graph" transform="scale(1 1) rotate(0) translate(4 1814.26)">
<!-- MATERIAL8 -->
<g id="node1" class="node">
<title>MATERIAL8</title>
<ellipse fill="none" stroke="#ba0d39" cx="131.5" cy="-521.73" rx="53.89" ry="53.89"/>
<text text-anchor="middle" x="131.5" y="-518.33" font-family="Times New Roman,serif" font-size="13.00">MATERIAL8</text>
</g>
<!-- Plan Goods Issue -->
<g id="node30" class="node">
<title>Plan Goods Issue</title>
<polygon fill="none" stroke="black" points="263,-427.61 0,-427.61 0,-379.61 263,-379.61 263,-427.61"/>
<text text-anchor="middle" x="131.5" y="-394.81" font-family="Times New Roman,serif" font-size="36.00">Plan Goods Issue</text>
</g>
<!-- MATERIAL8&#45;&gt;Plan Goods Issue -->
<g id="edge4" class="edge">
<title>MATERIAL8&#45;&gt;Plan Goods Issue</title>
<path fill="none" stroke="#ba0d39" d="M129.5,-467.43C129.5,-457.92 129.5,-448.24 129.5,-439.42"/>
<path fill="none" stroke="white" d="M131.5,-467.43C131.5,-457.92 131.5,-448.24 131.5,-439.42"/>
<path fill="none" stroke="#ba0d39" d="M133.5,-467.43C133.5,-457.92 133.5,-448.24 133.5,-439.42"/>
<polygon fill="#ba0d39" stroke="#ba0d39" points="135,-439.53 131.5,-429.53 128,-439.53 135,-439.53"/>
</g>
<!-- PURCHORD3 -->
<g id="node2" class="node">
<title>PURCHORD3</title>
<ellipse fill="#a13ccd" stroke="#a13ccd" cx="625.5" cy="-285.5" rx="58.23" ry="58.23"/>
<text text-anchor="middle" x="625.5" y="-282.1" font-family="Times New Roman,serif" font-size="13.00">PURCHORD3</text>
</g>
<!-- PURCHORD4 -->
<g id="node3" class="node">
<title>PURCHORD4</title>
<ellipse fill="none" stroke="#a13ccd" cx="381.5" cy="-521.73" rx="58.23" ry="58.23"/>
<text text-anchor="middle" x="381.5" y="-518.33" font-family="Times New Roman,serif" font-size="13.00">PURCHORD4</text>
</g>
<!-- Clear Invoice -->
<g id="node32" class="node">
<title>Clear Invoice</title>
<polygon fill="none" stroke="black" points="606.5,-427.61 400.5,-427.61 400.5,-379.61 606.5,-379.61 606.5,-427.61"/>
<text text-anchor="middle" x="503.5" y="-394.81" font-family="Times New Roman,serif" font-size="36.00">Clear Invoice</text>
</g>
<!-- PURCHORD4&#45;&gt;Clear Invoice -->
<g id="edge32" class="edge">
<title>PURCHORD4&#45;&gt;Clear Invoice</title>
<path fill="none" stroke="#a13ccd" d="M423.49,-480.77C438.93,-466.07 456.17,-449.66 470.69,-435.84"/>
<polygon fill="#a13ccd" stroke="#a13ccd" points="472.96,-438.51 477.79,-429.08 468.14,-433.44 472.96,-438.51"/>
</g>
<!-- GDSRCPT4 -->
<g id="node4" class="node">
<title>GDSRCPT4</title>
<ellipse fill="#39f6c0" stroke="#39f6c0" cx="389.5" cy="-285.5" rx="49.81" ry="49.81"/>
<text text-anchor="middle" x="389.5" y="-282.1" font-family="Times New Roman,serif" font-size="13.00">GDSRCPT4</text>
</g>
<!-- MATERIAL4 -->
<g id="node5" class="node">
<title>MATERIAL4</title>
<ellipse fill="#ba0d39" stroke="#ba0d39" cx="547.5" cy="-1753.41" rx="53.89" ry="53.89"/>
<text text-anchor="middle" x="547.5" y="-1750.01" font-family="Times New Roman,serif" font-size="13.00">MATERIAL4</text>
</g>
<!-- Create Purchase Requisition -->
<g id="node27" class="node">
<title>Create Purchase Requisition</title>
<polygon fill="none" stroke="black" points="820.5,-1660.56 402.5,-1660.56 402.5,-1612.56 820.5,-1612.56 820.5,-1660.56"/>
<text text-anchor="middle" x="611.5" y="-1627.76" font-family="Times New Roman,serif" font-size="36.00">Create Purchase Requisition</text>
</g>
<!-- MATERIAL4&#45;&gt;Create Purchase Requisition -->
<g id="edge19" class="edge">
<title>MATERIAL4&#45;&gt;Create Purchase Requisition</title>
<path fill="none" stroke="#ba0d39" d="M571.78,-1704.72C578.29,-1693.05 585.13,-1680.77 591.19,-1669.89"/>
<path fill="none" stroke="white" d="M573.53,-1705.7C580.04,-1694.03 586.88,-1681.74 592.94,-1670.87"/>
<path fill="none" stroke="#ba0d39" d="M575.28,-1706.67C581.78,-1695 588.63,-1682.72 594.69,-1671.84"/>
<polygon fill="#ba0d39" stroke="#ba0d39" points="595.92,-1672.7 597.73,-1662.26 589.81,-1669.29 595.92,-1672.7"/>
</g>
<!-- MATERIAL7 -->
<g id="node6" class="node">
<title>MATERIAL7</title>
<ellipse fill="none" stroke="#ba0d39" cx="166.5" cy="-809.76" rx="53.89" ry="53.89"/>
<text text-anchor="middle" x="166.5" y="-806.36" font-family="Times New Roman,serif" font-size="13.00">MATERIAL7</text>
</g>
<!-- Verify Material -->
<g id="node31" class="node">
<title>Verify Material</title>
<polygon fill="none" stroke="black" points="249.5,-689.74 13.5,-689.74 13.5,-641.74 249.5,-641.74 249.5,-689.74"/>
<text text-anchor="middle" x="131.5" y="-656.94" font-family="Times New Roman,serif" font-size="36.00">Verify Material</text>
</g>
<!-- MATERIAL7&#45;&gt;Verify Material -->
<g id="edge10" class="edge">
<title>MATERIAL7&#45;&gt;Verify Material</title>
<path fill="none" stroke="#ba0d39" d="M151.82,-757.57C147.22,-738.88 142.14,-718.26 137.99,-701.44"/>
<path fill="none" stroke="white" d="M153.77,-757.09C149.16,-738.4 144.08,-717.78 139.93,-700.96"/>
<path fill="none" stroke="#ba0d39" d="M155.71,-756.61C151.1,-737.92 146.02,-717.3 141.87,-700.48"/>
<polygon fill="#ba0d39" stroke="#ba0d39" points="143.38,-700.34 137.59,-691.47 136.59,-702.01 143.38,-700.34"/>
</g>
<!-- PURCHREQ1 -->
<g id="node7" class="node">
<title>PURCHREQ1</title>
<ellipse fill="#e90638" stroke="#e90638" cx="676.5" cy="-1753.41" rx="56.7" ry="56.7"/>
<text text-anchor="middle" x="676.5" y="-1750.01" font-family="Times New Roman,serif" font-size="13.00">PURCHREQ1</text>
</g>
<!-- PURCHREQ1&#45;&gt;Create Purchase Requisition -->
<g id="edge24" class="edge">
<title>PURCHREQ1&#45;&gt;Create Purchase Requisition</title>
<path fill="none" stroke="#e90638" d="M648.93,-1703.7C642.65,-1692.61 636.12,-1681.07 630.31,-1670.79"/>
<polygon fill="#e90638" stroke="#e90638" points="633.48,-1669.3 625.51,-1662.32 627.39,-1672.74 633.48,-1669.3"/>
</g>
<!-- PURCHORD1 -->
<g id="node8" class="node">
<title>PURCHORD1</title>
<ellipse fill="#a13ccd" stroke="#a13ccd" cx="417.5" cy="-1518.45" rx="58.23" ry="58.23"/>
<text text-anchor="middle" x="417.5" y="-1515.05" font-family="Times New Roman,serif" font-size="13.00">PURCHORD1</text>
</g>
<!-- Create Purchase Order -->
<g id="node28" class="node">
<title>Create Purchase Order</title>
<polygon fill="none" stroke="black" points="718,-1424.33 377,-1424.33 377,-1376.33 718,-1376.33 718,-1424.33"/>
<text text-anchor="middle" x="547.5" y="-1391.53" font-family="Times New Roman,serif" font-size="36.00">Create Purchase Order</text>
</g>
<!-- PURCHORD1&#45;&gt;Create Purchase Order -->
<g id="edge25" class="edge">
<title>PURCHORD1&#45;&gt;Create Purchase Order</title>
<path fill="none" stroke="#a13ccd" d="M460.79,-1478.78C477.74,-1463.64 496.92,-1446.51 512.92,-1432.22"/>
<polygon fill="#a13ccd" stroke="#a13ccd" points="515.19,-1434.88 520.32,-1425.61 510.53,-1429.66 515.19,-1434.88"/>
</g>
<!-- PURCHORD6 -->
<g id="node9" class="node">
<title>PURCHORD6</title>
<ellipse fill="none" stroke="#a13ccd" cx="414.5" cy="-809.76" rx="58.23" ry="58.23"/>
<text text-anchor="middle" x="414.5" y="-806.36" font-family="Times New Roman,serif" font-size="13.00">PURCHORD6</text>
</g>
<!-- Receive Invoice -->
<g id="node33" class="node">
<title>Receive Invoice</title>
<polygon fill="none" stroke="black" points="509.5,-689.74 267.5,-689.74 267.5,-641.74 509.5,-641.74 509.5,-689.74"/>
<text text-anchor="middle" x="388.5" y="-656.94" font-family="Times New Roman,serif" font-size="36.00">Receive Invoice</text>
</g>
<!-- PURCHORD6&#45;&gt;Receive Invoice -->
<g id="edge13" class="edge">
<title>PURCHORD6&#45;&gt;Receive Invoice</title>
<path fill="none" stroke="#a13ccd" d="M404.15,-752.22C400.99,-734.97 397.61,-716.51 394.81,-701.19"/>
<polygon fill="#a13ccd" stroke="#a13ccd" points="398.3,-700.85 393.06,-691.64 391.42,-702.11 398.3,-700.85"/>
</g>
<!-- GDSRCPT3 -->
<g id="node10" class="node">
<title>GDSRCPT3</title>
<ellipse fill="none" stroke="#39f6c0" cx="577.5" cy="-665.74" rx="49.81" ry="49.81"/>
<text text-anchor="middle" x="577.5" y="-662.34" font-family="Times New Roman,serif" font-size="13.00">GDSRCPT3</text>
</g>
<!-- GDSRCPT3&#45;&gt;Clear Invoice -->
<g id="edge34" class="edge">
<title>GDSRCPT3&#45;&gt;Clear Invoice</title>
<path fill="none" stroke="#39f6c0" d="M581.47,-615.79C582.93,-573.63 580.28,-512.08 558.5,-463.61 554.03,-453.66 547.18,-444.3 539.82,-436.09"/>
<polygon fill="#39f6c0" stroke="#39f6c0" points="542.54,-433.87 533.09,-429.07 537.49,-438.71 542.54,-433.87"/>
</g>
<!-- INVOICE3 -->
<g id="node11" class="node">
<title>INVOICE3</title>
<ellipse fill="none" stroke="#05b202" cx="503.5" cy="-521.73" rx="46.22" ry="46.22"/>
<text text-anchor="middle" x="503.5" y="-518.33" font-family="Times New Roman,serif" font-size="13.00">INVOICE3</text>
</g>
<!-- INVOICE3&#45;&gt;Clear Invoice -->
<g id="edge35" class="edge">
<title>INVOICE3&#45;&gt;Clear Invoice</title>
<path fill="none" stroke="#05b202" d="M501.5,-475.17C501.5,-463.19 501.5,-450.47 501.5,-439.17"/>
<path fill="none" stroke="white" d="M503.5,-475.17C503.5,-463.19 503.5,-450.47 503.5,-439.17"/>
<path fill="none" stroke="#05b202" d="M505.5,-475.17C505.5,-463.19 505.5,-450.47 505.5,-439.17"/>
<polygon fill="#05b202" stroke="#05b202" points="507,-439.52 503.5,-429.53 500,-439.53 507,-439.52"/>
</g>
<!-- MATERIAL2 -->
<g id="node12" class="node">
<title>MATERIAL2</title>
<ellipse fill="none" stroke="#ba0d39" cx="292.5" cy="-1045.99" rx="53.89" ry="53.89"/>
<text text-anchor="middle" x="292.5" y="-1042.59" font-family="Times New Roman,serif" font-size="13.00">MATERIAL2</text>
</g>
<!-- Issue Goods Receipt -->
<g id="node29" class="node">
<title>Issue Goods Receipt</title>
<polygon fill="none" stroke="black" points="569,-951.88 260,-951.88 260,-903.88 569,-903.88 569,-951.88"/>
<text text-anchor="middle" x="414.5" y="-919.08" font-family="Times New Roman,serif" font-size="36.00">Issue Goods Receipt</text>
</g>
<!-- MATERIAL2&#45;&gt;Issue Goods Receipt -->
<g id="edge2" class="edge">
<title>MATERIAL2&#45;&gt;Issue Goods Receipt</title>
<path fill="none" stroke="#ba0d39" d="M329.72,-1006.8C345.98,-991.33 364.7,-973.51 380.28,-958.68"/>
<path fill="none" stroke="white" d="M331.1,-1008.25C347.36,-992.78 366.08,-974.96 381.66,-960.13"/>
<path fill="none" stroke="#ba0d39" d="M332.48,-1009.7C348.74,-994.23 367.46,-976.41 383.04,-961.58"/>
<polygon fill="#ba0d39" stroke="#ba0d39" points="384.03,-962.71 388.86,-953.28 379.21,-957.64 384.03,-962.71"/>
</g>
<!-- INVOICE1 -->
<g id="node13" class="node">
<title>INVOICE1</title>
<ellipse fill="#05b202" stroke="#05b202" cx="292.5" cy="-809.76" rx="46.22" ry="46.22"/>
<text text-anchor="middle" x="292.5" y="-806.36" font-family="Times New Roman,serif" font-size="13.00">INVOICE1</text>
</g>
<!-- INVOICE1&#45;&gt;Receive Invoice -->
<g id="edge16" class="edge">
<title>INVOICE1&#45;&gt;Receive Invoice</title>
<path fill="none" stroke="#05b202" d="M316.32,-769.96C331.44,-747.58 350.43,-719.49 364.89,-698.1"/>
<path fill="none" stroke="white" d="M317.97,-771.08C333.1,-748.7 352.08,-720.62 366.55,-699.22"/>
<path fill="none" stroke="#05b202" d="M319.63,-772.2C334.76,-749.82 353.74,-721.74 368.2,-700.34"/>
<polygon fill="#05b202" stroke="#05b202" points="369.29,-701.41 371.99,-691.16 363.49,-697.49 369.29,-701.41"/>
</g>
<!-- GDSRCPT1 -->
<g id="node14" class="node">
<title>GDSRCPT1</title>
<ellipse fill="#39f6c0" stroke="#39f6c0" cx="288.5" cy="-1282.22" rx="49.81" ry="49.81"/>
<text text-anchor="middle" x="288.5" y="-1278.82" font-family="Times New Roman,serif" font-size="13.00">GDSRCPT1</text>
</g>
<!-- Receive Goods -->
<g id="node26" class="node">
<title>Receive Goods</title>
<polygon fill="none" stroke="black" points="530.5,-1188.1 298.5,-1188.1 298.5,-1140.1 530.5,-1140.1 530.5,-1188.1"/>
<text text-anchor="middle" x="414.5" y="-1155.3" font-family="Times New Roman,serif" font-size="36.00">Receive Goods</text>
</g>
<!-- GDSRCPT1&#45;&gt;Receive Goods -->
<g id="edge14" class="edge">
<title>GDSRCPT1&#45;&gt;Receive Goods</title>
<path fill="none" stroke="#39f6c0" d="M323.81,-1246.51C331.55,-1239.05 339.75,-1231.26 347.5,-1224.1 357.64,-1214.74 368.84,-1204.75 379.12,-1195.7"/>
<polygon fill="#39f6c0" stroke="#39f6c0" points="381.15,-1198.58 386.37,-1189.36 376.54,-1193.31 381.15,-1198.58"/>
</g>
<!-- MATERIAL5 -->
<g id="node15" class="node">
<title>MATERIAL5</title>
<ellipse fill="none" stroke="#ba0d39" cx="676.5" cy="-1282.22" rx="53.89" ry="53.89"/>
<text text-anchor="middle" x="676.5" y="-1278.82" font-family="Times New Roman,serif" font-size="13.00">MATERIAL5</text>
</g>
<!-- MATERIAL5&#45;&gt;Receive Goods -->
<g id="edge21" class="edge">
<title>MATERIAL5&#45;&gt;Receive Goods</title>
<path fill="none" stroke="#ba0d39" d="M638.02,-1244.12C630.1,-1237.34 621.31,-1230.77 612.52,-1225.85 589.1,-1212.65 562.12,-1202.06 535.95,-1193.8"/>
<path fill="none" stroke="white" d="M639.32,-1242.6C631.3,-1235.74 622.51,-1229.17 613.5,-1224.1 589.83,-1210.79 562.85,-1200.2 536.56,-1191.89"/>
<path fill="none" stroke="#ba0d39" d="M640.62,-1241.08C632.5,-1234.13 623.7,-1227.57 614.48,-1222.36 590.56,-1208.93 563.58,-1198.34 537.16,-1189.98"/>
<polygon fill="#ba0d39" stroke="#ba0d39" points="537.77,-1188.6 527.19,-1189.02 535.73,-1195.29 537.77,-1188.6"/>
</g>
<!-- PURCHREQ3 -->
<g id="node16" class="node">
<title>PURCHREQ3</title>
<ellipse fill="none" stroke="#e90638" cx="676.5" cy="-1518.45" rx="56.7" ry="56.7"/>
<text text-anchor="middle" x="676.5" y="-1515.05" font-family="Times New Roman,serif" font-size="13.00">PURCHREQ3</text>
</g>
<!-- PURCHREQ3&#45;&gt;Create Purchase Order -->
<g id="edge38" class="edge">
<title>PURCHREQ3&#45;&gt;Create Purchase Order</title>
<path fill="none" stroke="#e90638" d="M634.62,-1479.75C617.45,-1464.3 597.84,-1446.64 581.57,-1432"/>
<polygon fill="#e90638" stroke="#e90638" points="584.3,-1429.75 574.53,-1425.66 579.62,-1434.95 584.3,-1429.75"/>
</g>
<!-- GDSRCPT2 -->
<g id="node17" class="node">
<title>GDSRCPT2</title>
<ellipse fill="none" stroke="#39f6c0" cx="414.5" cy="-1045.99" rx="49.81" ry="49.81"/>
<text text-anchor="middle" x="414.5" y="-1042.59" font-family="Times New Roman,serif" font-size="13.00">GDSRCPT2</text>
</g>
<!-- GDSRCPT2&#45;&gt;Issue Goods Receipt -->
<g id="edge15" class="edge">
<title>GDSRCPT2&#45;&gt;Issue Goods Receipt</title>
<path fill="none" stroke="#39f6c0" d="M414.5,-995.75C414.5,-984.91 414.5,-973.65 414.5,-963.53"/>
<polygon fill="#39f6c0" stroke="#39f6c0" points="418,-963.78 414.5,-953.78 411,-963.78 418,-963.78"/>
</g>
<!-- INVOICE2 -->
<g id="node18" class="node">
<title>INVOICE2</title>
<ellipse fill="#05b202" stroke="#05b202" cx="503.5" cy="-285.5" rx="46.22" ry="46.22"/>
<text text-anchor="middle" x="503.5" y="-282.1" font-family="Times New Roman,serif" font-size="13.00">INVOICE2</text>
</g>
<!-- MATERIAL3 -->
<g id="node19" class="node">
<title>MATERIAL3</title>
<ellipse fill="none" stroke="#ba0d39" cx="131.5" cy="-285.5" rx="53.89" ry="53.89"/>
<text text-anchor="middle" x="131.5" y="-282.1" font-family="Times New Roman,serif" font-size="13.00">MATERIAL3</text>
</g>
<!-- Goods Issue -->
<g id="node25" class="node">
<title>Goods Issue</title>
<polygon fill="none" stroke="black" points="227.5,-191.38 35.5,-191.38 35.5,-143.38 227.5,-143.38 227.5,-191.38"/>
<text text-anchor="middle" x="131.5" y="-158.58" font-family="Times New Roman,serif" font-size="36.00">Goods Issue</text>
</g>
<!-- MATERIAL3&#45;&gt;Goods Issue -->
<g id="edge7" class="edge">
<title>MATERIAL3&#45;&gt;Goods Issue</title>
<path fill="none" stroke="#ba0d39" d="M129.5,-231.2C129.5,-221.69 129.5,-212.01 129.5,-203.19"/>
<path fill="none" stroke="white" d="M131.5,-231.2C131.5,-221.69 131.5,-212.01 131.5,-203.19"/>
<path fill="none" stroke="#ba0d39" d="M133.5,-231.2C133.5,-221.69 133.5,-212.01 133.5,-203.19"/>
<polygon fill="#ba0d39" stroke="#ba0d39" points="135,-203.3 131.5,-193.3 128,-203.3 135,-203.3"/>
</g>
<!-- MATERIAL6 -->
<g id="node20" class="node">
<title>MATERIAL6</title>
<ellipse fill="none" stroke="#ba0d39" cx="547.5" cy="-1518.45" rx="53.89" ry="53.89"/>
<text text-anchor="middle" x="547.5" y="-1515.05" font-family="Times New Roman,serif" font-size="13.00">MATERIAL6</text>
</g>
<!-- MATERIAL6&#45;&gt;Create Purchase Order -->
<g id="edge30" class="edge">
<title>MATERIAL6&#45;&gt;Create Purchase Order</title>
<path fill="none" stroke="#ba0d39" d="M545.5,-1464.15C545.5,-1454.64 545.5,-1444.96 545.5,-1436.13"/>
<path fill="none" stroke="white" d="M547.5,-1464.15C547.5,-1454.64 547.5,-1444.96 547.5,-1436.13"/>
<path fill="none" stroke="#ba0d39" d="M549.5,-1464.15C549.5,-1454.64 549.5,-1444.96 549.5,-1436.13"/>
<polygon fill="#ba0d39" stroke="#ba0d39" points="551,-1436.25 547.5,-1426.25 544,-1436.25 551,-1436.25"/>
</g>
<!-- PURCHORD2 -->
<g id="node21" class="node">
<title>PURCHORD2</title>
<ellipse fill="none" stroke="#a13ccd" cx="414.5" cy="-1282.22" rx="58.23" ry="58.23"/>
<text text-anchor="middle" x="414.5" y="-1278.82" font-family="Times New Roman,serif" font-size="13.00">PURCHORD2</text>
</g>
<!-- PURCHORD2&#45;&gt;Receive Goods -->
<g id="edge8" class="edge">
<title>PURCHORD2&#45;&gt;Receive Goods</title>
<path fill="none" stroke="#a13ccd" d="M414.5,-1223.5C414.5,-1215.45 414.5,-1207.4 414.5,-1199.96"/>
<polygon fill="#a13ccd" stroke="#a13ccd" points="418,-1200 414.5,-1190 411,-1200 418,-1200"/>
</g>
<!-- MATERIAL1 -->
<g id="node22" class="node">
<title>MATERIAL1</title>
<ellipse fill="#ba0d39" stroke="#ba0d39" cx="131.5" cy="-53.69" rx="53.89" ry="53.89"/>
<text text-anchor="middle" x="131.5" y="-50.29" font-family="Times New Roman,serif" font-size="13.00">MATERIAL1</text>
</g>
<!-- PURCHREQ2 -->
<g id="node23" class="node">
<title>PURCHREQ2</title>
<ellipse fill="#e90638" stroke="#e90638" cx="547.5" cy="-1282.22" rx="56.7" ry="56.7"/>
<text text-anchor="middle" x="547.5" y="-1278.82" font-family="Times New Roman,serif" font-size="13.00">PURCHREQ2</text>
</g>
<!-- PURCHORD5 -->
<g id="node24" class="node">
<title>PURCHORD5</title>
<ellipse fill="none" stroke="#a13ccd" cx="540.5" cy="-1045.99" rx="58.23" ry="58.23"/>
<text text-anchor="middle" x="540.5" y="-1042.59" font-family="Times New Roman,serif" font-size="13.00">PURCHORD5</text>
</g>
<!-- PURCHORD5&#45;&gt;Issue Goods Receipt -->
<g id="edge33" class="edge">
<title>PURCHORD5&#45;&gt;Issue Goods Receipt</title>
<path fill="none" stroke="#a13ccd" d="M497.84,-1005.68C481.58,-990.69 463.29,-973.83 447.99,-959.74"/>
<polygon fill="#a13ccd" stroke="#a13ccd" points="450.68,-957.45 440.95,-953.25 445.93,-962.6 450.68,-957.45"/>
</g>
<!-- Goods Issue&#45;&gt;MATERIAL1 -->
<g id="edge1" class="edge">
<title>Goods Issue&#45;&gt;MATERIAL1</title>
<path fill="none" stroke="#ba0d39" d="M129.5,-142.97C129.5,-135.93 129.5,-127.85 129.5,-119.48"/>
<path fill="none" stroke="white" d="M131.5,-142.97C131.5,-135.93 131.5,-127.85 131.5,-119.48"/>
<path fill="none" stroke="#ba0d39" d="M133.5,-142.97C133.5,-135.93 133.5,-127.85 133.5,-119.48"/>
<polygon fill="#ba0d39" stroke="#ba0d39" points="135,-119.5 131.5,-109.5 128,-119.5 135,-119.5"/>
</g>
<!-- Receive Goods&#45;&gt;MATERIAL2 -->
<g id="edge36" class="edge">
<title>Receive Goods&#45;&gt;MATERIAL2</title>
<path fill="none" stroke="#ba0d39" d="M388.43,-1141.05C373.95,-1127.27 355.18,-1109.41 337.99,-1093.05"/>
<path fill="none" stroke="white" d="M389.81,-1139.61C375.33,-1125.82 356.56,-1107.96 339.37,-1091.6"/>
<path fill="none" stroke="#ba0d39" d="M391.19,-1138.16C376.71,-1124.38 357.94,-1106.51 340.75,-1090.15"/>
<polygon fill="#ba0d39" stroke="#ba0d39" points="341.84,-1089.12 332.18,-1084.76 337.01,-1094.19 341.84,-1089.12"/>
</g>
<!-- Receive Goods&#45;&gt;GDSRCPT2 -->
<g id="edge27" class="edge">
<title>Receive Goods&#45;&gt;GDSRCPT2</title>
<path fill="none" stroke="#39f6c0" d="M414.5,-1139.61C414.5,-1130.16 414.5,-1118.8 414.5,-1107.32"/>
<polygon fill="#39f6c0" stroke="#39f6c0" points="418,-1107.38 414.5,-1097.38 411,-1107.38 418,-1107.38"/>
</g>
<!-- Receive Goods&#45;&gt;PURCHORD5 -->
<g id="edge18" class="edge">
<title>Receive Goods&#45;&gt;PURCHORD5</title>
<path fill="none" stroke="#a13ccd" d="M440,-1139.61C454.27,-1126.45 472.59,-1109.57 489.66,-1093.84"/>
<polygon fill="#a13ccd" stroke="#a13ccd" points="491.83,-1096.6 496.81,-1087.25 487.08,-1091.46 491.83,-1096.6"/>
</g>
<!-- Create Purchase Requisition&#45;&gt;PURCHREQ3 -->
<g id="edge11" class="edge">
<title>Create Purchase Requisition&#45;&gt;PURCHREQ3</title>
<path fill="none" stroke="#e90638" d="M624.65,-1612.06C630.16,-1602.23 636.83,-1590.31 643.53,-1578.34"/>
<polygon fill="#e90638" stroke="#e90638" points="646.57,-1580.08 648.4,-1569.65 640.46,-1576.66 646.57,-1580.08"/>
</g>
<!-- Create Purchase Requisition&#45;&gt;MATERIAL6 -->
<g id="edge22" class="edge">
<title>Create Purchase Requisition&#45;&gt;MATERIAL6</title>
<path fill="none" stroke="#ba0d39" d="M596.8,-1613.03C590.98,-1602.47 583.83,-1589.51 576.75,-1576.66"/>
<path fill="none" stroke="white" d="M598.55,-1612.06C592.73,-1601.5 585.58,-1588.54 578.51,-1575.7"/>
<path fill="none" stroke="#ba0d39" d="M600.3,-1611.1C594.48,-1600.54 587.34,-1587.58 580.26,-1574.73"/>
<polygon fill="#ba0d39" stroke="#ba0d39" points="581.75,-1574.34 573.86,-1567.27 575.62,-1577.72 581.75,-1574.34"/>
</g>
<!-- Create Purchase Order&#45;&gt;MATERIAL5 -->
<g id="edge20" class="edge">
<title>Create Purchase Order&#45;&gt;MATERIAL5</title>
<path fill="none" stroke="#ba0d39" d="M572.22,-1374.62C584.38,-1363.77 599.03,-1350.67 612.16,-1338.85 617.01,-1334.48 622.06,-1329.92 627.1,-1325.36"/>
<path fill="none" stroke="white" d="M573.56,-1376.12C585.71,-1365.26 600.36,-1352.16 613.5,-1340.33 618.35,-1335.97 623.4,-1331.4 628.45,-1326.85"/>
<path fill="none" stroke="#ba0d39" d="M574.89,-1377.61C587.04,-1366.75 601.7,-1353.65 614.84,-1341.82 619.69,-1337.45 624.74,-1332.89 629.79,-1328.33"/>
<polygon fill="#ba0d39" stroke="#ba0d39" points="630.69,-1329.53 635.76,-1320.23 626,-1324.34 630.69,-1329.53"/>
</g>
<!-- Create Purchase Order&#45;&gt;PURCHORD2 -->
<g id="edge5" class="edge">
<title>Create Purchase Order&#45;&gt;PURCHORD2</title>
<path fill="none" stroke="#a13ccd" d="M520.59,-1375.83C505.12,-1362.33 485.17,-1344.91 466.74,-1328.83"/>
<polygon fill="#a13ccd" stroke="#a13ccd" points="469.1,-1326.24 459.27,-1322.3 464.5,-1331.52 469.1,-1326.24"/>
</g>
<!-- Create Purchase Order&#45;&gt;PURCHREQ2 -->
<g id="edge37" class="edge">
<title>Create Purchase Order&#45;&gt;PURCHREQ2</title>
<path fill="none" stroke="#e90638" d="M547.5,-1375.83C547.5,-1368.38 547.5,-1359.73 547.5,-1350.77"/>
<polygon fill="#e90638" stroke="#e90638" points="551,-1350.83 547.5,-1340.83 544,-1350.83 551,-1350.83"/>
</g>
<!-- Issue Goods Receipt&#45;&gt;MATERIAL7 -->
<g id="edge17" class="edge">
<title>Issue Goods Receipt&#45;&gt;MATERIAL7</title>
<path fill="none" stroke="#ba0d39" d="M323.07,-905.33C294.48,-896.16 263.51,-884.33 236.54,-869.63 228.79,-865.39 221.18,-860.39 213.84,-855.05"/>
<path fill="none" stroke="white" d="M323.68,-903.42C295.19,-894.29 264.23,-882.46 237.5,-867.88 229.88,-863.72 222.27,-858.72 215.01,-853.44"/>
<path fill="none" stroke="#ba0d39" d="M324.29,-901.52C295.9,-892.42 264.94,-880.59 238.46,-866.12 230.98,-862.05 223.37,-857.05 216.19,-851.82"/>
<polygon fill="#ba0d39" stroke="#ba0d39" points="217.32,-850.79 207.24,-847.54 213.09,-856.37 217.32,-850.79"/>
</g>
<!-- Issue Goods Receipt&#45;&gt;PURCHORD6 -->
<g id="edge26" class="edge">
<title>Issue Goods Receipt&#45;&gt;PURCHORD6</title>
<path fill="none" stroke="#a13ccd" d="M414.5,-903.38C414.5,-896.28 414.5,-888.1 414.5,-879.6"/>
<polygon fill="#a13ccd" stroke="#a13ccd" points="418,-879.83 414.5,-869.83 411,-879.83 418,-879.83"/>
</g>
<!-- Issue Goods Receipt&#45;&gt;GDSRCPT3 -->
<g id="edge9" class="edge">
<title>Issue Goods Receipt&#45;&gt;GDSRCPT3</title>
<path fill="none" stroke="#39f6c0" d="M446.01,-903.63C458.16,-893.58 471.5,-881.11 481.5,-867.88 514.87,-823.72 540.92,-766.11 557.41,-723.87"/>
<polygon fill="#39f6c0" stroke="#39f6c0" points="560.65,-725.21 560.96,-714.62 554.11,-722.7 560.65,-725.21"/>
</g>
<!-- Plan Goods Issue&#45;&gt;MATERIAL3 -->
<g id="edge3" class="edge">
<title>Plan Goods Issue&#45;&gt;MATERIAL3</title>
<path fill="none" stroke="#ba0d39" d="M129.5,-379.12C129.5,-370.83 129.5,-361.08 129.5,-351.06"/>
<path fill="none" stroke="white" d="M131.5,-379.12C131.5,-370.83 131.5,-361.08 131.5,-351.06"/>
<path fill="none" stroke="#ba0d39" d="M133.5,-379.12C133.5,-370.83 133.5,-361.08 133.5,-351.06"/>
<polygon fill="#ba0d39" stroke="#ba0d39" points="135,-351.22 131.5,-341.22 128,-351.22 135,-351.22"/>
</g>
<!-- Verify Material&#45;&gt;MATERIAL8 -->
<g id="edge23" class="edge">
<title>Verify Material&#45;&gt;MATERIAL8</title>
<path fill="none" stroke="#ba0d39" d="M129.5,-641.29C129.5,-626.54 129.5,-606.73 129.5,-587.53"/>
<path fill="none" stroke="white" d="M131.5,-641.29C131.5,-626.54 131.5,-606.73 131.5,-587.53"/>
<path fill="none" stroke="#ba0d39" d="M133.5,-641.29C133.5,-626.54 133.5,-606.73 133.5,-587.53"/>
<polygon fill="#ba0d39" stroke="#ba0d39" points="135,-587.53 131.5,-577.53 128,-587.53 135,-587.53"/>
</g>
<!-- Clear Invoice&#45;&gt;PURCHORD3 -->
<g id="edge31" class="edge">
<title>Clear Invoice&#45;&gt;PURCHORD3</title>
<path fill="none" stroke="#a13ccd" d="M528.19,-379.12C541.83,-366.13 559.28,-349.52 575.63,-333.96"/>
<polygon fill="#a13ccd" stroke="#a13ccd" points="577.62,-336.9 582.45,-327.47 572.79,-331.83 577.62,-336.9"/>
</g>
<!-- Clear Invoice&#45;&gt;GDSRCPT4 -->
<g id="edge28" class="edge">
<title>Clear Invoice&#45;&gt;GDSRCPT4</title>
<path fill="none" stroke="#39f6c0" d="M480.43,-379.12C466.56,-364.99 448.49,-346.58 432.11,-329.89"/>
<polygon fill="#39f6c0" stroke="#39f6c0" points="434.79,-327.63 425.29,-322.95 429.79,-332.54 434.79,-327.63"/>
</g>
<!-- Clear Invoice&#45;&gt;INVOICE2 -->
<g id="edge29" class="edge">
<title>Clear Invoice&#45;&gt;INVOICE2</title>
<path fill="none" stroke="#05b202" d="M501.5,-379.12C501.5,-368.77 501.5,-356.11 501.5,-343.52"/>
<path fill="none" stroke="white" d="M503.5,-379.12C503.5,-368.77 503.5,-356.11 503.5,-343.52"/>
<path fill="none" stroke="#05b202" d="M505.5,-379.12C505.5,-368.77 505.5,-356.11 505.5,-343.52"/>
<polygon fill="#05b202" stroke="#05b202" points="507,-343.56 503.5,-333.56 500,-343.56 507,-343.56"/>
</g>
<!-- Receive Invoice&#45;&gt;PURCHORD4 -->
<g id="edge12" class="edge">
<title>Receive Invoice&#45;&gt;PURCHORD4</title>
<path fill="none" stroke="#a13ccd" d="M387.34,-641.29C386.67,-627.59 385.78,-609.52 384.9,-591.63"/>
<polygon fill="#a13ccd" stroke="#a13ccd" points="388.4,-591.57 384.41,-581.76 381.41,-591.92 388.4,-591.57"/>
</g>
<!-- Receive Invoice&#45;&gt;INVOICE3 -->
<g id="edge6" class="edge">
<title>Receive Invoice&#45;&gt;INVOICE3</title>
<path fill="none" stroke="#05b202" d="M405.94,-640.03C422.24,-619.9 446.2,-590.32 466.1,-565.74"/>
<path fill="none" stroke="white" d="M407.49,-641.29C423.8,-621.16 447.75,-591.57 467.65,-567"/>
<path fill="none" stroke="#05b202" d="M409.04,-642.55C425.35,-622.41 449.31,-592.83 469.21,-568.26"/>
<polygon fill="#05b202" stroke="#05b202" points="470.25,-569.35 473.83,-559.37 464.81,-564.94 470.25,-569.35"/>
</g>
</g>
</svg>
