<?xml version="1.0" encoding="UTF-8" standalone="no"?>
<!DOCTYPE svg PUBLIC "-//W3C//DTD SVG 1.1//EN"
 "http://www.w3.org/Graphics/SVG/1.1/DTD/svg11.dtd">
<!-- Generated by graphviz version 7.1.0 (20230121.1956)
 -->
<!-- Pages: 1 -->
<svg width="904pt" height="1591pt"
 viewBox="0.00 0.00 903.50 1590.88" xmlns="http://www.w3.org/2000/svg" xmlns:xlink="http://www.w3.org/1999/xlink">
<g id="graph0" class="graph" transform="scale(1 1) rotate(0) translate(4 1586.88)">
<!-- MATERIAL5 -->
<g id="node1" class="node">
<title>MATERIAL5</title>
<ellipse fill="#a13ccd" stroke="#a13ccd" cx="204.5" cy="-1526.03" rx="53.89" ry="53.89"/>
<text text-anchor="middle" x="204.5" y="-1522.63" font-family="Times New Roman,serif" font-size="13.00">MATERIAL5</text>
</g>
<!-- Create Purchase Requisition -->
<g id="node29" class="node">
<title>Create Purchase Requisition</title>
<polygon fill="none" stroke="black" points="477.5,-1433.18 59.5,-1433.18 59.5,-1385.18 477.5,-1385.18 477.5,-1433.18"/>
<text text-anchor="middle" x="268.5" y="-1400.38" font-family="Times New Roman,serif" font-size="36.00">Create Purchase Requisition</text>
</g>
<!-- MATERIAL5&#45;&gt;Create Purchase Requisition -->
<g id="edge13" class="edge">
<title>MATERIAL5&#45;&gt;Create Purchase Requisition</title>
<path fill="none" stroke="#a13ccd" d="M228.78,-1477.34C235.29,-1465.67 242.13,-1453.38 248.19,-1442.51"/>
<path fill="none" stroke="white" d="M230.53,-1478.31C237.04,-1466.64 243.88,-1454.36 249.94,-1443.48"/>
<path fill="none" stroke="#a13ccd" d="M232.28,-1479.29C238.78,-1467.61 245.63,-1455.33 251.69,-1444.46"/>
<polygon fill="#a13ccd" stroke="#a13ccd" points="252.92,-1445.32 254.73,-1434.88 246.81,-1441.91 252.92,-1445.32"/>
</g>
<!-- MATERIAL8 -->
<g id="node2" class="node">
<title>MATERIAL8</title>
<ellipse fill="none" stroke="#a13ccd" cx="214.5" cy="-582.38" rx="53.89" ry="53.89"/>
<text text-anchor="middle" x="214.5" y="-578.98" font-family="Times New Roman,serif" font-size="13.00">MATERIAL8</text>
</g>
<!-- Plan Goods Issue -->
<g id="node28" class="node">
<title>Plan Goods Issue</title>
<polygon fill="none" stroke="black" points="263,-462.36 0,-462.36 0,-414.36 263,-414.36 263,-462.36"/>
<text text-anchor="middle" x="131.5" y="-429.56" font-family="Times New Roman,serif" font-size="36.00">Plan Goods Issue</text>
</g>
<!-- MATERIAL8&#45;&gt;Plan Goods Issue -->
<g id="edge6" class="edge">
<title>MATERIAL8&#45;&gt;Plan Goods Issue</title>
<path fill="none" stroke="#a13ccd" d="M185.83,-536.28C173.84,-515.78 160.01,-492.1 149.08,-473.41"/>
<path fill="none" stroke="white" d="M187.55,-535.27C175.57,-514.77 161.74,-491.09 150.81,-472.4"/>
<path fill="none" stroke="#a13ccd" d="M189.28,-534.26C177.3,-513.76 163.46,-490.09 152.54,-471.39"/>
<polygon fill="#a13ccd" stroke="#a13ccd" points="153.9,-470.75 145.83,-463.88 147.86,-474.28 153.9,-470.75"/>
</g>
<!-- MATERIAL9 -->
<g id="node3" class="node">
<title>MATERIAL9</title>
<ellipse fill="none" stroke="#a13ccd" cx="167.5" cy="-294.34" rx="53.89" ry="53.89"/>
<text text-anchor="middle" x="167.5" y="-290.94" font-family="Times New Roman,serif" font-size="13.00">MATERIAL9</text>
</g>
<!-- Goods Issue -->
<g id="node26" class="node">
<title>Goods Issue</title>
<polygon fill="none" stroke="black" points="344.5,-200.23 152.5,-200.23 152.5,-152.23 344.5,-152.23 344.5,-200.23"/>
<text text-anchor="middle" x="248.5" y="-167.43" font-family="Times New Roman,serif" font-size="36.00">Goods Issue</text>
</g>
<!-- MATERIAL9&#45;&gt;Goods Issue -->
<g id="edge40" class="edge">
<title>MATERIAL9&#45;&gt;Goods Issue</title>
<path fill="none" stroke="#a13ccd" d="M196.48,-248.3C205.6,-235.23 215.43,-221.13 223.97,-208.9"/>
<path fill="none" stroke="white" d="M198.12,-249.44C207.24,-236.37 217.08,-222.28 225.61,-210.04"/>
<path fill="none" stroke="#a13ccd" d="M199.76,-250.59C208.88,-237.51 218.72,-223.42 227.25,-211.18"/>
<polygon fill="#a13ccd" stroke="#a13ccd" points="228.42,-212.13 231.27,-201.92 222.68,-208.12 228.42,-212.13"/>
</g>
<!-- PURCHREQ3 -->
<g id="node4" class="node">
<title>PURCHREQ3</title>
<ellipse fill="none" stroke="#05b202" cx="204.5" cy="-1291.06" rx="56.7" ry="56.7"/>
<text text-anchor="middle" x="204.5" y="-1287.66" font-family="Times New Roman,serif" font-size="13.00">PURCHREQ3</text>
</g>
<!-- Create Purchase Order -->
<g id="node30" class="node">
<title>Create Purchase Order</title>
<polygon fill="none" stroke="black" points="504,-1196.95 163,-1196.95 163,-1148.95 504,-1148.95 504,-1196.95"/>
<text text-anchor="middle" x="333.5" y="-1164.15" font-family="Times New Roman,serif" font-size="36.00">Create Purchase Order</text>
</g>
<!-- PURCHREQ3&#45;&gt;Create Purchase Order -->
<g id="edge11" class="edge">
<title>PURCHREQ3&#45;&gt;Create Purchase Order</title>
<path fill="none" stroke="#05b202" d="M246.38,-1252.36C263.55,-1236.91 283.16,-1219.26 299.43,-1204.62"/>
<polygon fill="#05b202" stroke="#05b202" points="301.38,-1207.57 306.47,-1198.28 296.7,-1202.37 301.38,-1207.57"/>
</g>
<!-- MATERIAL2 -->
<g id="node5" class="node">
<title>MATERIAL2</title>
<ellipse fill="#a13ccd" stroke="#a13ccd" cx="248.5" cy="-58.11" rx="53.89" ry="53.89"/>
<text text-anchor="middle" x="248.5" y="-54.71" font-family="Times New Roman,serif" font-size="13.00">MATERIAL2</text>
</g>
<!-- MATERIAL3 -->
<g id="node6" class="node">
<title>MATERIAL3</title>
<ellipse fill="none" stroke="#a13ccd" cx="410.5" cy="-582.38" rx="53.89" ry="53.89"/>
<text text-anchor="middle" x="410.5" y="-578.98" font-family="Times New Roman,serif" font-size="13.00">MATERIAL3</text>
</g>
<!-- Verify Material -->
<g id="node31" class="node">
<title>Verify Material</title>
<polygon fill="none" stroke="black" points="517.5,-462.36 281.5,-462.36 281.5,-414.36 517.5,-414.36 517.5,-462.36"/>
<text text-anchor="middle" x="399.5" y="-429.56" font-family="Times New Roman,serif" font-size="36.00">Verify Material</text>
</g>
<!-- MATERIAL3&#45;&gt;Verify Material -->
<g id="edge32" class="edge">
<title>MATERIAL3&#45;&gt;Verify Material</title>
<path fill="none" stroke="#a13ccd" d="M404.41,-528.65C402.99,-510.37 401.45,-490.38 400.17,-473.97"/>
<path fill="none" stroke="white" d="M406.4,-528.49C404.99,-510.22 403.44,-490.22 402.17,-473.81"/>
<path fill="none" stroke="#a13ccd" d="M408.4,-528.34C406.98,-510.06 405.43,-490.07 404.16,-473.66"/>
<polygon fill="#a13ccd" stroke="#a13ccd" points="405.68,-473.78 401.41,-464.08 398.7,-474.32 405.68,-473.78"/>
</g>
<!-- GDSRCPT4 -->
<g id="node7" class="node">
<title>GDSRCPT4</title>
<ellipse fill="#ba0d39" stroke="#ba0d39" cx="533.5" cy="-58.11" rx="49.81" ry="49.81"/>
<text text-anchor="middle" x="533.5" y="-54.71" font-family="Times New Roman,serif" font-size="13.00">GDSRCPT4</text>
</g>
<!-- MATERIAL1 -->
<g id="node8" class="node">
<title>MATERIAL1</title>
<ellipse fill="none" stroke="#a13ccd" cx="333.5" cy="-1291.06" rx="53.89" ry="53.89"/>
<text text-anchor="middle" x="333.5" y="-1287.66" font-family="Times New Roman,serif" font-size="13.00">MATERIAL1</text>
</g>
<!-- MATERIAL1&#45;&gt;Create Purchase Order -->
<g id="edge3" class="edge">
<title>MATERIAL1&#45;&gt;Create Purchase Order</title>
<path fill="none" stroke="#a13ccd" d="M331.5,-1236.76C331.5,-1227.25 331.5,-1217.57 331.5,-1208.75"/>
<path fill="none" stroke="white" d="M333.5,-1236.76C333.5,-1227.25 333.5,-1217.57 333.5,-1208.75"/>
<path fill="none" stroke="#a13ccd" d="M335.5,-1236.76C335.5,-1227.25 335.5,-1217.57 335.5,-1208.75"/>
<polygon fill="#a13ccd" stroke="#a13ccd" points="337,-1208.86 333.5,-1198.86 330,-1208.86 337,-1208.86"/>
</g>
<!-- MATERIAL4 -->
<g id="node9" class="node">
<title>MATERIAL4</title>
<ellipse fill="none" stroke="#a13ccd" cx="328.5" cy="-294.34" rx="53.89" ry="53.89"/>
<text text-anchor="middle" x="328.5" y="-290.94" font-family="Times New Roman,serif" font-size="13.00">MATERIAL4</text>
</g>
<!-- MATERIAL4&#45;&gt;Goods Issue -->
<g id="edge5" class="edge">
<title>MATERIAL4&#45;&gt;Goods Issue</title>
<path fill="none" stroke="#a13ccd" d="M296.61,-250.58C287.6,-237.51 277.89,-223.41 269.46,-211.17"/>
<path fill="none" stroke="white" d="M298.26,-249.44C289.25,-236.37 279.54,-222.28 271.11,-210.04"/>
<path fill="none" stroke="#a13ccd" d="M299.9,-248.31C290.89,-235.24 281.18,-221.14 272.75,-208.91"/>
<polygon fill="#a13ccd" stroke="#a13ccd" points="274.07,-208.18 265.52,-201.93 268.31,-212.15 274.07,-208.18"/>
</g>
<!-- PURCHORD3 -->
<g id="node10" class="node">
<title>PURCHORD3</title>
<ellipse fill="none" stroke="#e90638" cx="200.5" cy="-1054.83" rx="58.23" ry="58.23"/>
<text text-anchor="middle" x="200.5" y="-1051.43" font-family="Times New Roman,serif" font-size="13.00">PURCHORD3</text>
</g>
<!-- Receive Goods -->
<g id="node32" class="node">
<title>Receive Goods</title>
<polygon fill="none" stroke="black" points="578.5,-960.72 346.5,-960.72 346.5,-912.72 578.5,-912.72 578.5,-960.72"/>
<text text-anchor="middle" x="462.5" y="-927.92" font-family="Times New Roman,serif" font-size="36.00">Receive Goods</text>
</g>
<!-- PURCHORD3&#45;&gt;Receive Goods -->
<g id="edge28" class="edge">
<title>PURCHORD3&#45;&gt;Receive Goods</title>
<path fill="none" stroke="#e90638" d="M242.17,-1013.85C250.17,-1007.51 258.78,-1001.48 267.5,-996.72 291.65,-983.53 319.12,-972.91 345.67,-964.52"/>
<polygon fill="#e90638" stroke="#e90638" points="346.6,-967.89 355.14,-961.61 344.55,-961.2 346.6,-967.89"/>
</g>
<!-- PURCHORD5 -->
<g id="node11" class="node">
<title>PURCHORD5</title>
<ellipse fill="#e90638" stroke="#e90638" cx="659.5" cy="-58.11" rx="58.23" ry="58.23"/>
<text text-anchor="middle" x="659.5" y="-54.71" font-family="Times New Roman,serif" font-size="13.00">PURCHORD5</text>
</g>
<!-- INVOICE3 -->
<g id="node12" class="node">
<title>INVOICE3</title>
<ellipse fill="none" stroke="#39f6c0" cx="659.5" cy="-294.34" rx="46.22" ry="46.22"/>
<text text-anchor="middle" x="659.5" y="-290.94" font-family="Times New Roman,serif" font-size="13.00">INVOICE3</text>
</g>
<!-- Clear Invoice -->
<g id="node34" class="node">
<title>Clear Invoice</title>
<polygon fill="none" stroke="black" points="762.5,-200.23 556.5,-200.23 556.5,-152.23 762.5,-152.23 762.5,-200.23"/>
<text text-anchor="middle" x="659.5" y="-167.43" font-family="Times New Roman,serif" font-size="36.00">Clear Invoice</text>
</g>
<!-- INVOICE3&#45;&gt;Clear Invoice -->
<g id="edge30" class="edge">
<title>INVOICE3&#45;&gt;Clear Invoice</title>
<path fill="none" stroke="#39f6c0" d="M657.5,-247.78C657.5,-235.81 657.5,-223.08 657.5,-211.79"/>
<path fill="none" stroke="white" d="M659.5,-247.78C659.5,-235.81 659.5,-223.08 659.5,-211.79"/>
<path fill="none" stroke="#39f6c0" d="M661.5,-247.78C661.5,-235.81 661.5,-223.08 661.5,-211.79"/>
<polygon fill="#39f6c0" stroke="#39f6c0" points="663,-212.14 659.5,-202.14 656,-212.14 663,-212.14"/>
</g>
<!-- INVOICE2 -->
<g id="node13" class="node">
<title>INVOICE2</title>
<ellipse fill="#39f6c0" stroke="#39f6c0" cx="781.5" cy="-58.11" rx="46.22" ry="46.22"/>
<text text-anchor="middle" x="781.5" y="-54.71" font-family="Times New Roman,serif" font-size="13.00">INVOICE2</text>
</g>
<!-- GDSRCPT2 -->
<g id="node14" class="node">
<title>GDSRCPT2</title>
<ellipse fill="none" stroke="#ba0d39" cx="336.5" cy="-818.6" rx="49.81" ry="49.81"/>
<text text-anchor="middle" x="336.5" y="-815.2" font-family="Times New Roman,serif" font-size="13.00">GDSRCPT2</text>
</g>
<!-- Issue Goods Receipt -->
<g id="node27" class="node">
<title>Issue Goods Receipt</title>
<polygon fill="none" stroke="black" points="617,-724.49 308,-724.49 308,-676.49 617,-676.49 617,-724.49"/>
<text text-anchor="middle" x="462.5" y="-691.69" font-family="Times New Roman,serif" font-size="36.00">Issue Goods Receipt</text>
</g>
<!-- GDSRCPT2&#45;&gt;Issue Goods Receipt -->
<g id="edge17" class="edge">
<title>GDSRCPT2&#45;&gt;Issue Goods Receipt</title>
<path fill="none" stroke="#ba0d39" d="M371.81,-782.9C379.55,-775.44 387.75,-767.65 395.5,-760.49 405.64,-751.13 416.84,-741.14 427.12,-732.09"/>
<polygon fill="#ba0d39" stroke="#ba0d39" points="429.15,-734.97 434.37,-725.74 424.54,-729.7 429.15,-734.97"/>
</g>
<!-- PURCHORD4 -->
<g id="node15" class="node">
<title>PURCHORD4</title>
<ellipse fill="none" stroke="#e90638" cx="462.5" cy="-818.6" rx="58.23" ry="58.23"/>
<text text-anchor="middle" x="462.5" y="-815.2" font-family="Times New Roman,serif" font-size="13.00">PURCHORD4</text>
</g>
<!-- PURCHORD4&#45;&gt;Issue Goods Receipt -->
<g id="edge16" class="edge">
<title>PURCHORD4&#45;&gt;Issue Goods Receipt</title>
<path fill="none" stroke="#e90638" d="M462.5,-759.89C462.5,-751.84 462.5,-743.79 462.5,-736.34"/>
<polygon fill="#e90638" stroke="#e90638" points="466,-736.38 462.5,-726.38 459,-736.38 466,-736.38"/>
</g>
<!-- GDSRCPT1 -->
<g id="node16" class="node">
<title>GDSRCPT1</title>
<ellipse fill="#ba0d39" stroke="#ba0d39" cx="584.5" cy="-1054.83" rx="49.81" ry="49.81"/>
<text text-anchor="middle" x="584.5" y="-1051.43" font-family="Times New Roman,serif" font-size="13.00">GDSRCPT1</text>
</g>
<!-- GDSRCPT1&#45;&gt;Receive Goods -->
<g id="edge29" class="edge">
<title>GDSRCPT1&#45;&gt;Receive Goods</title>
<path fill="none" stroke="#ba0d39" d="M549.02,-1019.31C541.29,-1011.83 533.14,-1003.99 525.5,-996.72 515.93,-987.61 505.48,-977.77 495.89,-968.8"/>
<polygon fill="#ba0d39" stroke="#ba0d39" points="498.53,-966.47 488.83,-962.2 493.75,-971.59 498.53,-966.47"/>
</g>
<!-- PURCHREQ1 -->
<g id="node17" class="node">
<title>PURCHREQ1</title>
<ellipse fill="#05b202" stroke="#05b202" cx="333.5" cy="-1526.03" rx="56.7" ry="56.7"/>
<text text-anchor="middle" x="333.5" y="-1522.63" font-family="Times New Roman,serif" font-size="13.00">PURCHREQ1</text>
</g>
<!-- PURCHREQ1&#45;&gt;Create Purchase Requisition -->
<g id="edge10" class="edge">
<title>PURCHREQ1&#45;&gt;Create Purchase Requisition</title>
<path fill="none" stroke="#05b202" d="M305.93,-1476.32C299.65,-1465.22 293.12,-1453.68 287.31,-1443.41"/>
<polygon fill="#05b202" stroke="#05b202" points="290.48,-1441.91 282.51,-1434.93 284.39,-1445.36 290.48,-1441.91"/>
</g>
<!-- PURCHREQ2 -->
<g id="node18" class="node">
<title>PURCHREQ2</title>
<ellipse fill="#05b202" stroke="#05b202" cx="333.5" cy="-1054.83" rx="56.7" ry="56.7"/>
<text text-anchor="middle" x="333.5" y="-1051.43" font-family="Times New Roman,serif" font-size="13.00">PURCHREQ2</text>
</g>
<!-- PURCHORD6 -->
<g id="node19" class="node">
<title>PURCHORD6</title>
<ellipse fill="none" stroke="#e90638" cx="781.5" cy="-294.34" rx="58.23" ry="58.23"/>
<text text-anchor="middle" x="781.5" y="-290.94" font-family="Times New Roman,serif" font-size="13.00">PURCHORD6</text>
</g>
<!-- PURCHORD6&#45;&gt;Clear Invoice -->
<g id="edge18" class="edge">
<title>PURCHORD6&#45;&gt;Clear Invoice</title>
<path fill="none" stroke="#e90638" d="M739.51,-253.38C724.07,-238.69 706.83,-222.27 692.31,-208.45"/>
<polygon fill="#e90638" stroke="#e90638" points="694.86,-206.05 685.21,-201.7 690.04,-211.12 694.86,-206.05"/>
</g>
<!-- GDSRCPT3 -->
<g id="node20" class="node">
<title>GDSRCPT3</title>
<ellipse fill="none" stroke="#ba0d39" cx="585.5" cy="-438.36" rx="49.81" ry="49.81"/>
<text text-anchor="middle" x="585.5" y="-434.96" font-family="Times New Roman,serif" font-size="13.00">GDSRCPT3</text>
</g>
<!-- GDSRCPT3&#45;&gt;Clear Invoice -->
<g id="edge8" class="edge">
<title>GDSRCPT3&#45;&gt;Clear Invoice</title>
<path fill="none" stroke="#ba0d39" d="M581.53,-388.41C580.07,-346.24 582.72,-284.7 604.5,-236.23 608.97,-226.27 615.82,-216.91 623.18,-208.71"/>
<polygon fill="#ba0d39" stroke="#ba0d39" points="625.51,-211.33 629.91,-201.69 620.46,-206.48 625.51,-211.33"/>
</g>
<!-- INVOICE1 -->
<g id="node21" class="node">
<title>INVOICE1</title>
<ellipse fill="#39f6c0" stroke="#39f6c0" cx="774.5" cy="-582.38" rx="46.22" ry="46.22"/>
<text text-anchor="middle" x="774.5" y="-578.98" font-family="Times New Roman,serif" font-size="13.00">INVOICE1</text>
</g>
<!-- Receive Invoice -->
<g id="node33" class="node">
<title>Receive Invoice</title>
<polygon fill="none" stroke="black" points="895.5,-462.36 653.5,-462.36 653.5,-414.36 895.5,-414.36 895.5,-462.36"/>
<text text-anchor="middle" x="774.5" y="-429.56" font-family="Times New Roman,serif" font-size="36.00">Receive Invoice</text>
</g>
<!-- INVOICE1&#45;&gt;Receive Invoice -->
<g id="edge9" class="edge">
<title>INVOICE1&#45;&gt;Receive Invoice</title>
<path fill="none" stroke="#39f6c0" d="M772.5,-535.66C772.5,-515.7 772.5,-492.68 772.5,-474.16"/>
<path fill="none" stroke="white" d="M774.5,-535.66C774.5,-515.7 774.5,-492.68 774.5,-474.16"/>
<path fill="none" stroke="#39f6c0" d="M776.5,-535.66C776.5,-515.7 776.5,-492.68 776.5,-474.16"/>
<polygon fill="#39f6c0" stroke="#39f6c0" points="778,-474.22 774.5,-464.22 771,-474.22 778,-474.22"/>
</g>
<!-- MATERIAL6 -->
<g id="node22" class="node">
<title>MATERIAL6</title>
<ellipse fill="none" stroke="#a13ccd" cx="462.5" cy="-1054.83" rx="53.89" ry="53.89"/>
<text text-anchor="middle" x="462.5" y="-1051.43" font-family="Times New Roman,serif" font-size="13.00">MATERIAL6</text>
</g>
<!-- MATERIAL6&#45;&gt;Receive Goods -->
<g id="edge33" class="edge">
<title>MATERIAL6&#45;&gt;Receive Goods</title>
<path fill="none" stroke="#a13ccd" d="M460.5,-1000.53C460.5,-991.02 460.5,-981.34 460.5,-972.52"/>
<path fill="none" stroke="white" d="M462.5,-1000.53C462.5,-991.02 462.5,-981.34 462.5,-972.52"/>
<path fill="none" stroke="#a13ccd" d="M464.5,-1000.53C464.5,-991.02 464.5,-981.34 464.5,-972.52"/>
<polygon fill="#a13ccd" stroke="#a13ccd" points="466,-972.63 462.5,-962.63 459,-972.63 466,-972.63"/>
</g>
<!-- MATERIAL7 -->
<g id="node23" class="node">
<title>MATERIAL7</title>
<ellipse fill="none" stroke="#a13ccd" cx="592.5" cy="-818.6" rx="53.89" ry="53.89"/>
<text text-anchor="middle" x="592.5" y="-815.2" font-family="Times New Roman,serif" font-size="13.00">MATERIAL7</text>
</g>
<!-- MATERIAL7&#45;&gt;Issue Goods Receipt -->
<g id="edge1" class="edge">
<title>MATERIAL7&#45;&gt;Issue Goods Receipt</title>
<path fill="none" stroke="#a13ccd" d="M551.58,-783.05C543.84,-776.04 535.76,-768.76 528.17,-761.98 517.88,-752.79 506.64,-742.85 496.36,-733.8"/>
<path fill="none" stroke="white" d="M552.92,-781.57C545.17,-774.55 537.1,-767.28 529.5,-760.49 519.21,-751.29 507.97,-741.35 497.68,-732.3"/>
<path fill="none" stroke="#a13ccd" d="M554.26,-780.08C546.51,-773.07 538.43,-765.79 530.83,-759 520.53,-749.79 509.29,-739.86 499,-730.8"/>
<polygon fill="#a13ccd" stroke="#a13ccd" points="500.27,-729.92 490.45,-725.94 495.65,-735.17 500.27,-729.92"/>
</g>
<!-- PURCHORD1 -->
<g id="node24" class="node">
<title>PURCHORD1</title>
<ellipse fill="#e90638" stroke="#e90638" cx="463.5" cy="-1291.06" rx="58.23" ry="58.23"/>
<text text-anchor="middle" x="463.5" y="-1287.66" font-family="Times New Roman,serif" font-size="13.00">PURCHORD1</text>
</g>
<!-- PURCHORD1&#45;&gt;Create Purchase Order -->
<g id="edge2" class="edge">
<title>PURCHORD1&#45;&gt;Create Purchase Order</title>
<path fill="none" stroke="#e90638" d="M420.21,-1251.4C403.26,-1236.26 384.08,-1219.13 368.08,-1204.84"/>
<polygon fill="#e90638" stroke="#e90638" points="370.47,-1202.28 360.68,-1198.23 365.81,-1207.5 370.47,-1202.28"/>
</g>
<!-- PURCHORD2 -->
<g id="node25" class="node">
<title>PURCHORD2</title>
<ellipse fill="none" stroke="#e90638" cx="631.5" cy="-582.38" rx="58.23" ry="58.23"/>
<text text-anchor="middle" x="631.5" y="-578.98" font-family="Times New Roman,serif" font-size="13.00">PURCHORD2</text>
</g>
<!-- PURCHORD2&#45;&gt;Receive Invoice -->
<g id="edge34" class="edge">
<title>PURCHORD2&#45;&gt;Receive Invoice</title>
<path fill="none" stroke="#e90638" d="M672.48,-540.68C694.82,-518.49 722.06,-491.44 742.77,-470.88"/>
<polygon fill="#e90638" stroke="#e90638" points="745.22,-473.37 749.85,-463.84 740.29,-468.4 745.22,-473.37"/>
</g>
<!-- Goods Issue&#45;&gt;MATERIAL2 -->
<g id="edge4" class="edge">
<title>Goods Issue&#45;&gt;MATERIAL2</title>
<path fill="none" stroke="#a13ccd" d="M246.5,-151.73C246.5,-143.45 246.5,-133.69 246.5,-123.68"/>
<path fill="none" stroke="white" d="M248.5,-151.73C248.5,-143.45 248.5,-133.69 248.5,-123.68"/>
<path fill="none" stroke="#a13ccd" d="M250.5,-151.73C250.5,-143.45 250.5,-133.69 250.5,-123.68"/>
<polygon fill="#a13ccd" stroke="#a13ccd" points="252,-123.83 248.5,-113.83 245,-123.83 252,-123.83"/>
</g>
<!-- Issue Goods Receipt&#45;&gt;MATERIAL8 -->
<g id="edge39" class="edge">
<title>Issue Goods Receipt&#45;&gt;MATERIAL8</title>
<path fill="none" stroke="#a13ccd" d="M411.47,-677.8C371.32,-659.01 314.96,-632.62 272.66,-612.81"/>
<path fill="none" stroke="white" d="M412.31,-675.99C372.17,-657.2 315.8,-630.81 273.5,-611"/>
<path fill="none" stroke="#a13ccd" d="M413.16,-674.18C373.02,-655.39 316.65,-629 274.35,-609.19"/>
<polygon fill="#a13ccd" stroke="#a13ccd" points="275.26,-607.96 264.71,-606.89 272.29,-614.3 275.26,-607.96"/>
</g>
<!-- Issue Goods Receipt&#45;&gt;MATERIAL3 -->
<g id="edge24" class="edge">
<title>Issue Goods Receipt&#45;&gt;MATERIAL3</title>
<path fill="none" stroke="#a13ccd" d="M450.15,-676.81C445.74,-666.97 440.4,-655.05 435.04,-643.08"/>
<path fill="none" stroke="white" d="M451.98,-675.99C447.57,-666.15 442.23,-654.23 436.87,-642.26"/>
<path fill="none" stroke="#a13ccd" d="M453.8,-675.18C449.4,-665.33 444.06,-653.41 438.69,-641.44"/>
<polygon fill="#a13ccd" stroke="#a13ccd" points="440.08,-640.86 432.79,-633.16 433.69,-643.72 440.08,-640.86"/>
</g>
<!-- Issue Goods Receipt&#45;&gt;GDSRCPT3 -->
<g id="edge20" class="edge">
<title>Issue Goods Receipt&#45;&gt;GDSRCPT3</title>
<path fill="none" stroke="#ba0d39" d="M473.42,-676.41C492.62,-635.79 532.95,-550.5 559.62,-494.09"/>
<polygon fill="#ba0d39" stroke="#ba0d39" points="562.68,-495.81 563.79,-485.27 556.35,-492.82 562.68,-495.81"/>
</g>
<!-- Issue Goods Receipt&#45;&gt;PURCHORD2 -->
<g id="edge14" class="edge">
<title>Issue Goods Receipt&#45;&gt;PURCHORD2</title>
<path fill="none" stroke="#e90638" d="M496.7,-675.99C518.95,-660.71 548.51,-640.4 574.28,-622.69"/>
<polygon fill="#e90638" stroke="#e90638" points="576.08,-625.7 582.34,-617.15 572.11,-619.93 576.08,-625.7"/>
</g>
<!-- Plan Goods Issue&#45;&gt;MATERIAL9 -->
<g id="edge37" class="edge">
<title>Plan Goods Issue&#45;&gt;MATERIAL9</title>
<path fill="none" stroke="#a13ccd" d="M135.51,-413.42C139.4,-398.06 144.68,-377.22 149.74,-357.28"/>
<path fill="none" stroke="white" d="M137.44,-413.91C141.34,-398.55 146.62,-377.71 151.67,-357.77"/>
<path fill="none" stroke="#a13ccd" d="M139.38,-414.4C143.28,-399.04 148.56,-378.2 153.61,-358.27"/>
<polygon fill="#a13ccd" stroke="#a13ccd" points="155.01,-358.86 154.07,-348.3 148.22,-357.14 155.01,-358.86"/>
</g>
<!-- Create Purchase Requisition&#45;&gt;PURCHREQ3 -->
<g id="edge12" class="edge">
<title>Create Purchase Requisition&#45;&gt;PURCHREQ3</title>
<path fill="none" stroke="#05b202" d="M255.55,-1384.68C250.13,-1374.84 243.56,-1362.92 236.96,-1350.96"/>
<polygon fill="#05b202" stroke="#05b202" points="240.06,-1349.33 232.17,-1342.27 233.93,-1352.71 240.06,-1349.33"/>
</g>
<!-- Create Purchase Requisition&#45;&gt;MATERIAL1 -->
<g id="edge23" class="edge">
<title>Create Purchase Requisition&#45;&gt;MATERIAL1</title>
<path fill="none" stroke="#a13ccd" d="M279.91,-1383.7C285.82,-1373.14 293.08,-1360.18 300.27,-1347.34"/>
<path fill="none" stroke="white" d="M281.65,-1384.68C287.57,-1374.12 294.82,-1361.16 302.01,-1348.31"/>
<path fill="none" stroke="#a13ccd" d="M283.4,-1385.65C289.31,-1375.09 296.57,-1362.13 303.76,-1349.29"/>
<polygon fill="#a13ccd" stroke="#a13ccd" points="304.9,-1350.31 306.73,-1339.88 298.79,-1346.89 304.9,-1350.31"/>
</g>
<!-- Create Purchase Order&#45;&gt;PURCHORD3 -->
<g id="edge27" class="edge">
<title>Create Purchase Order&#45;&gt;PURCHORD3</title>
<path fill="none" stroke="#e90638" d="M306.59,-1148.45C291.12,-1134.95 271.17,-1117.53 252.74,-1101.44"/>
<polygon fill="#e90638" stroke="#e90638" points="255.1,-1098.86 245.27,-1094.92 250.5,-1104.13 255.1,-1098.86"/>
</g>
<!-- Create Purchase Order&#45;&gt;PURCHREQ2 -->
<g id="edge31" class="edge">
<title>Create Purchase Order&#45;&gt;PURCHREQ2</title>
<path fill="none" stroke="#05b202" d="M333.5,-1148.45C333.5,-1140.99 333.5,-1132.34 333.5,-1123.38"/>
<polygon fill="#05b202" stroke="#05b202" points="337,-1123.45 333.5,-1113.45 330,-1123.45 337,-1123.45"/>
</g>
<!-- Create Purchase Order&#45;&gt;MATERIAL6 -->
<g id="edge26" class="edge">
<title>Create Purchase Order&#45;&gt;MATERIAL6</title>
<path fill="none" stroke="#a13ccd" d="M358.22,-1147.24C370.38,-1136.39 385.03,-1123.28 398.16,-1111.46 403.01,-1107.1 408.06,-1102.53 413.1,-1097.98"/>
<path fill="none" stroke="white" d="M359.56,-1148.73C371.71,-1137.88 386.36,-1124.77 399.5,-1112.95 404.35,-1108.58 409.4,-1104.02 414.45,-1099.46"/>
<path fill="none" stroke="#a13ccd" d="M360.89,-1150.22C373.04,-1139.37 387.7,-1126.26 400.84,-1114.43 405.69,-1110.07 410.74,-1105.5 415.79,-1100.94"/>
<polygon fill="#a13ccd" stroke="#a13ccd" points="416.69,-1102.15 421.76,-1092.84 412,-1096.96 416.69,-1102.15"/>
</g>
<!-- Verify Material&#45;&gt;MATERIAL4 -->
<g id="edge25" class="edge">
<title>Verify Material&#45;&gt;MATERIAL4</title>
<path fill="none" stroke="#a13ccd" d="M385.99,-414.8C377.73,-398.28 366.29,-375.41 355.67,-354.15"/>
<path fill="none" stroke="white" d="M387.78,-413.91C379.52,-397.39 368.08,-374.51 357.45,-353.26"/>
<path fill="none" stroke="#a13ccd" d="M389.56,-413.01C381.31,-396.49 369.87,-373.62 359.24,-352.36"/>
<polygon fill="#a13ccd" stroke="#a13ccd" points="360.6,-351.72 353,-344.34 354.34,-354.85 360.6,-351.72"/>
</g>
<!-- Receive Goods&#45;&gt;GDSRCPT2 -->
<g id="edge19" class="edge">
<title>Receive Goods&#45;&gt;GDSRCPT2</title>
<path fill="none" stroke="#ba0d39" d="M435.51,-912.46C423.19,-901.72 408.48,-888.71 395.5,-876.72 390.41,-872.02 385.13,-867.05 379.92,-862.08"/>
<polygon fill="#ba0d39" stroke="#ba0d39" points="382.54,-859.75 372.9,-855.36 377.7,-864.8 382.54,-859.75"/>
</g>
<!-- Receive Goods&#45;&gt;PURCHORD4 -->
<g id="edge15" class="edge">
<title>Receive Goods&#45;&gt;PURCHORD4</title>
<path fill="none" stroke="#e90638" d="M462.5,-912.22C462.5,-905.13 462.5,-896.95 462.5,-888.45"/>
<polygon fill="#e90638" stroke="#e90638" points="466,-888.67 462.5,-878.67 459,-888.67 466,-888.67"/>
</g>
<!-- Receive Goods&#45;&gt;MATERIAL7 -->
<g id="edge38" class="edge">
<title>Receive Goods&#45;&gt;MATERIAL7</title>
<path fill="none" stroke="#a13ccd" d="M487.99,-910.76C500.27,-899.98 515,-886.99 528.17,-875.23 533.03,-870.88 538.09,-866.33 543.14,-861.78"/>
<path fill="none" stroke="white" d="M489.31,-912.26C501.6,-901.48 516.32,-888.49 529.5,-876.72 534.37,-872.37 539.43,-867.82 544.48,-863.27"/>
<path fill="none" stroke="#a13ccd" d="M490.63,-913.77C502.92,-902.98 517.65,-889.99 530.83,-878.21 535.7,-873.86 540.77,-869.31 545.82,-864.76"/>
<polygon fill="#a13ccd" stroke="#a13ccd" points="546.72,-865.96 551.8,-856.66 542.03,-860.76 546.72,-865.96"/>
</g>
<!-- Receive Invoice&#45;&gt;INVOICE3 -->
<g id="edge21" class="edge">
<title>Receive Invoice&#45;&gt;INVOICE3</title>
<path fill="none" stroke="#39f6c0" d="M753.96,-415.17C737.65,-395.03 713.69,-365.45 693.79,-340.87"/>
<path fill="none" stroke="white" d="M755.51,-413.91C739.2,-393.77 715.25,-364.19 695.35,-339.61"/>
<path fill="none" stroke="#39f6c0" d="M757.06,-412.65C740.76,-392.51 716.8,-362.93 696.9,-338.35"/>
<polygon fill="#39f6c0" stroke="#39f6c0" points="698.19,-337.56 689.17,-331.99 692.75,-341.96 698.19,-337.56"/>
</g>
<!-- Receive Invoice&#45;&gt;PURCHORD6 -->
<g id="edge7" class="edge">
<title>Receive Invoice&#45;&gt;PURCHORD6</title>
<path fill="none" stroke="#e90638" d="M775.66,-413.91C776.33,-400.21 777.22,-382.13 778.1,-364.24"/>
<polygon fill="#e90638" stroke="#e90638" points="781.59,-364.53 778.59,-354.37 774.6,-364.19 781.59,-364.53"/>
</g>
<!-- Clear Invoice&#45;&gt;GDSRCPT4 -->
<g id="edge36" class="edge">
<title>Clear Invoice&#45;&gt;GDSRCPT4</title>
<path fill="none" stroke="#ba0d39" d="M632.51,-151.97C620.19,-141.23 605.48,-128.21 592.5,-116.23 587.41,-111.53 582.13,-106.56 576.92,-101.59"/>
<polygon fill="#ba0d39" stroke="#ba0d39" points="579.54,-99.26 569.9,-94.87 574.7,-104.31 579.54,-99.26"/>
</g>
<!-- Clear Invoice&#45;&gt;PURCHORD5 -->
<g id="edge35" class="edge">
<title>Clear Invoice&#45;&gt;PURCHORD5</title>
<path fill="none" stroke="#e90638" d="M659.5,-151.73C659.5,-144.64 659.5,-136.46 659.5,-127.96"/>
<polygon fill="#e90638" stroke="#e90638" points="663,-128.18 659.5,-118.18 656,-128.18 663,-128.18"/>
</g>
<!-- Clear Invoice&#45;&gt;INVOICE2 -->
<g id="edge22" class="edge">
<title>Clear Invoice&#45;&gt;INVOICE2</title>
<path fill="none" stroke="#39f6c0" d="M685.7,-150.39C697.98,-139.75 712.51,-126.84 725.12,-114.78 730.37,-109.76 735.83,-104.35 741.14,-98.96"/>
<path fill="none" stroke="white" d="M687.01,-151.9C699.31,-141.25 713.84,-128.33 726.5,-116.23 731.78,-111.18 737.24,-105.77 742.57,-100.36"/>
<path fill="none" stroke="#39f6c0" d="M688.32,-153.41C700.63,-142.74 715.17,-129.83 727.88,-117.67 733.19,-112.6 738.64,-107.19 743.99,-101.77"/>
<polygon fill="#39f6c0" stroke="#39f6c0" points="744.71,-103.17 749.19,-93.57 739.7,-98.28 744.71,-103.17"/>
</g>
</g>
</svg>
