<?xml version="1.0" encoding="UTF-8" standalone="no"?>
<!DOCTYPE svg PUBLIC "-//W3C//DTD SVG 1.1//EN"
 "http://www.w3.org/Graphics/SVG/1.1/DTD/svg11.dtd">
<!-- Generated by graphviz version 7.1.0 (20230121.1956)
 -->
<!-- Pages: 1 -->
<svg width="1640pt" height="854pt"
 viewBox="0.00 0.00 1639.50 853.75" xmlns="http://www.w3.org/2000/svg" xmlns:xlink="http://www.w3.org/1999/xlink">
<g id="graph0" class="graph" transform="scale(1 1) rotate(0) translate(4 849.75)">
<!-- PURCHORD -->
<g id="node1" class="node">
<title>PURCHORD</title>
<ellipse fill="#a13ccd" stroke="#a13ccd" cx="856.5" cy="-792.05" rx="53.89" ry="53.89"/>
<text text-anchor="middle" x="856.5" y="-788.65" font-family="Times New Roman,serif" font-size="13.00">PURCHORD</text>
</g>
<!-- Issue Goods Receipt -->
<g id="node6" class="node">
<title>Issue Goods Receipt</title>
<polygon fill="none" stroke="black" points="1011,-702.36 702,-702.36 702,-654.36 1011,-654.36 1011,-702.36"/>
<text text-anchor="middle" x="856.5" y="-669.56" font-family="Times New Roman,serif" font-size="36.00">Issue Goods Receipt</text>
</g>
<!-- PURCHORD&#45;&gt;Issue Goods Receipt -->
<g id="edge1" class="edge">
<title>PURCHORD&#45;&gt;Issue Goods Receipt</title>
<path fill="none" stroke="#a13ccd" d="M849.76,-738.15C849.71,-730.01 849.86,-721.79 850.19,-714.17"/>
<polygon fill="#a13ccd" stroke="#a13ccd" points="853.68,-714.52 850.79,-704.32 846.69,-714.09 853.68,-714.52"/>
</g>
<!-- Create Purchase Order -->
<g id="node8" class="node">
<title>Create Purchase Order</title>
<polygon fill="none" stroke="black" points="341,-48 0,-48 0,0 341,0 341,-48"/>
<text text-anchor="middle" x="170.5" y="-15.2" font-family="Times New Roman,serif" font-size="36.00">Create Purchase Order</text>
</g>
<!-- PURCHORD&#45;&gt;Create Purchase Order -->
<g id="edge11" class="edge">
<title>PURCHORD&#45;&gt;Create Purchase Order</title>
<path fill="none" stroke="#a13ccd" d="M802.43,-787.28C630.08,-773.41 105.5,-718.34 105.5,-573.88 105.5,-573.88 105.5,-573.88 105.5,-247.86 105.5,-178.9 131.03,-101.46 150.38,-58.44"/>
<polygon fill="#a13ccd" stroke="#a13ccd" points="153.44,-60.17 154.51,-49.63 147.1,-57.2 153.44,-60.17"/>
</g>
<!-- Receive Goods -->
<g id="node10" class="node">
<title>Receive Goods</title>
<polygon fill="none" stroke="black" points="780.5,-491.4 548.5,-491.4 548.5,-443.4 780.5,-443.4 780.5,-491.4"/>
<text text-anchor="middle" x="664.5" y="-458.6" font-family="Times New Roman,serif" font-size="36.00">Receive Goods</text>
</g>
<!-- PURCHORD&#45;&gt;Receive Goods -->
<g id="edge19" class="edge">
<title>PURCHORD&#45;&gt;Receive Goods</title>
<path fill="none" stroke="#a13ccd" d="M803.87,-779.18C763.79,-766.69 711.16,-743.05 683.5,-702.36 642.39,-641.89 645.04,-551.79 653.44,-502.93"/>
<polygon fill="#a13ccd" stroke="#a13ccd" points="656.86,-503.69 655.33,-493.21 649.99,-502.36 656.86,-503.69"/>
</g>
<!-- Clear Invoice -->
<g id="node12" class="node">
<title>Clear Invoice</title>
<polygon fill="none" stroke="black" points="1151.5,-491.4 945.5,-491.4 945.5,-443.4 1151.5,-443.4 1151.5,-491.4"/>
<text text-anchor="middle" x="1048.5" y="-458.6" font-family="Times New Roman,serif" font-size="36.00">Clear Invoice</text>
</g>
<!-- PURCHORD&#45;&gt;Clear Invoice -->
<g id="edge27" class="edge">
<title>PURCHORD&#45;&gt;Clear Invoice</title>
<path fill="none" stroke="#a13ccd" d="M907.62,-774.28C942.35,-760.84 986.11,-738.18 1010.5,-702.36 1051.69,-641.89 1049.49,-551.79 1047.49,-502.93"/>
<polygon fill="#a13ccd" stroke="#a13ccd" points="1050.99,-503.08 1047.08,-493.23 1044,-503.37 1050.99,-503.08"/>
</g>
<!-- Receive Invoice -->
<g id="node13" class="node">
<title>Receive Invoice</title>
<polygon fill="none" stroke="black" points="1631.5,-272.86 1389.5,-272.86 1389.5,-224.86 1631.5,-224.86 1631.5,-272.86"/>
<text text-anchor="middle" x="1510.5" y="-240.06" font-family="Times New Roman,serif" font-size="36.00">Receive Invoice</text>
</g>
<!-- PURCHORD&#45;&gt;Receive Invoice -->
<g id="edge33" class="edge">
<title>PURCHORD&#45;&gt;Receive Invoice</title>
<path fill="none" stroke="#a13ccd" d="M909.49,-780.89C1045.08,-754.43 1393.5,-678.19 1393.5,-573.88 1393.5,-573.88 1393.5,-573.88 1393.5,-466.4 1393.5,-394.54 1441.72,-322.03 1476.41,-281.82"/>
<polygon fill="#a13ccd" stroke="#a13ccd" points="1478.98,-284.19 1483.01,-274.4 1473.75,-279.54 1478.98,-284.19"/>
</g>
<!-- INVOICE -->
<g id="node2" class="node">
<title>INVOICE</title>
<ellipse fill="#05b202" stroke="#05b202" cx="1185.5" cy="-358.13" rx="41.88" ry="41.88"/>
<text text-anchor="middle" x="1185.5" y="-354.73" font-family="Times New Roman,serif" font-size="13.00">INVOICE</text>
</g>
<!-- INVOICE&#45;&gt;Clear Invoice -->
<g id="edge29" class="edge">
<title>INVOICE&#45;&gt;Clear Invoice</title>
<path fill="none" stroke="#05b202" d="M1156.8,-388.86C1138.43,-403.97 1114.75,-422.54 1094.25,-437.92"/>
<path fill="none" stroke="white" d="M1155.53,-387.32C1137.2,-402.39 1113.52,-420.96 1093.05,-436.32"/>
<path fill="none" stroke="#05b202" d="M1154.25,-385.77C1135.97,-400.82 1112.29,-419.39 1091.85,-434.72"/>
<polygon fill="#05b202" stroke="#05b202" points="1091.05,-433.44 1085.12,-442.22 1095.23,-439.06 1091.05,-433.44"/>
</g>
<!-- INVOICE&#45;&gt;Receive Invoice -->
<g id="edge35" class="edge">
<title>INVOICE&#45;&gt;Receive Invoice</title>
<path fill="none" stroke="#05b202" d="M1224.22,-340.66C1273.23,-323.78 1358.12,-295.63 1422.71,-274.77"/>
<path fill="none" stroke="white" d="M1224.87,-342.55C1273.86,-325.67 1358.75,-297.53 1423.32,-276.67"/>
<path fill="none" stroke="#05b202" d="M1225.52,-344.44C1274.49,-327.57 1359.38,-299.43 1423.94,-278.58"/>
<polygon fill="#05b202" stroke="#05b202" points="1424.02,-280.13 1432.47,-273.73 1421.87,-273.46 1424.02,-280.13"/>
</g>
<!-- PURCHREQ -->
<g id="node3" class="node">
<title>PURCHREQ</title>
<ellipse fill="#e90638" stroke="#e90638" cx="710.5" cy="-136.43" rx="52.36" ry="52.36"/>
<text text-anchor="middle" x="710.5" y="-133.03" font-family="Times New Roman,serif" font-size="13.00">PURCHREQ</text>
</g>
<!-- Create Purchase Requisition -->
<g id="node7" class="node">
<title>Create Purchase Requisition</title>
<polygon fill="none" stroke="black" points="1371.5,-272.86 953.5,-272.86 953.5,-224.86 1371.5,-224.86 1371.5,-272.86"/>
<text text-anchor="middle" x="1162.5" y="-240.06" font-family="Times New Roman,serif" font-size="36.00">Create Purchase Requisition</text>
</g>
<!-- PURCHREQ&#45;&gt;Create Purchase Requisition -->
<g id="edge7" class="edge">
<title>PURCHREQ&#45;&gt;Create Purchase Requisition</title>
<path fill="none" stroke="#e90638" d="M761.68,-148.88C834.12,-165.94 967.87,-198.49 1060.87,-221.6"/>
<polygon fill="#e90638" stroke="#e90638" points="1059.99,-224.99 1070.54,-224.01 1061.68,-218.2 1059.99,-224.99"/>
</g>
<!-- PURCHREQ&#45;&gt;Create Purchase Order -->
<g id="edge13" class="edge">
<title>PURCHREQ&#45;&gt;Create Purchase Order</title>
<path fill="none" stroke="#e90638" d="M659.02,-125.73C574.93,-109.12 406.12,-74.72 290.69,-50.77"/>
<polygon fill="#e90638" stroke="#e90638" points="291.68,-47.4 281.17,-48.79 290.25,-54.25 291.68,-47.4"/>
</g>
<!-- MATERIAL -->
<g id="node4" class="node">
<title>MATERIAL</title>
<ellipse fill="#ba0d39" stroke="#ba0d39" cx="664.5" cy="-358.13" rx="49.04" ry="49.04"/>
<text text-anchor="middle" x="664.5" y="-354.73" font-family="Times New Roman,serif" font-size="13.00">MATERIAL</text>
</g>
<!-- MATERIAL&#45;&gt;Issue Goods Receipt -->
<g id="edge3" class="edge">
<title>MATERIAL&#45;&gt;Issue Goods Receipt</title>
<path fill="none" stroke="#ba0d39" d="M711.2,-374.24C740.88,-388.52 777.48,-411.32 800.12,-442.22 823.69,-474.95 848.77,-585.24 857.08,-642.38"/>
<path fill="none" stroke="white" d="M710.33,-376.04C739.82,-390.21 776.43,-413.01 798.5,-443.4 821.74,-475.39 846.82,-585.69 855.1,-642.67"/>
<path fill="none" stroke="#ba0d39" d="M709.46,-377.85C738.76,-391.91 775.37,-414.71 796.88,-444.58 819.79,-475.84 844.87,-586.13 853.12,-642.96"/>
<polygon fill="#ba0d39" stroke="#ba0d39" points="851.61,-643.02 856.4,-652.47 858.55,-642.1 851.61,-643.02"/>
</g>
<!-- MATERIAL&#45;&gt;Create Purchase Requisition -->
<g id="edge9" class="edge">
<title>MATERIAL&#45;&gt;Create Purchase Requisition</title>
<path fill="none" stroke="#ba0d39" d="M711.63,-344C785.68,-327.49 930.75,-296.13 1036.34,-273.72"/>
<path fill="none" stroke="white" d="M712.06,-345.95C786.1,-329.45 931.17,-298.09 1036.75,-275.68"/>
<path fill="none" stroke="#ba0d39" d="M712.5,-347.9C786.52,-331.4 931.59,-300.04 1037.17,-277.64"/>
<polygon fill="#ba0d39" stroke="#ba0d39" points="1037.27,-279.15 1046.33,-273.65 1035.82,-272.3 1037.27,-279.15"/>
</g>
<!-- MATERIAL&#45;&gt;Create Purchase Order -->
<g id="edge15" class="edge">
<title>MATERIAL&#45;&gt;Create Purchase Order</title>
<path fill="none" stroke="#ba0d39" d="M615.18,-357.61C505.36,-353.03 246.31,-335.71 188.04,-274.22 133.07,-214.49 142.42,-111.91 155.38,-58.51"/>
<path fill="none" stroke="white" d="M615.26,-355.61C505.49,-351.04 246.44,-333.72 189.5,-272.86 135.06,-214.68 144.41,-112.09 157.32,-58.98"/>
<path fill="none" stroke="#ba0d39" d="M615.35,-353.61C505.62,-349.04 246.58,-331.72 190.96,-271.49 137.05,-214.86 146.4,-112.27 159.26,-59.46"/>
<polygon fill="#ba0d39" stroke="#ba0d39" points="160.63,-60.16 159.81,-49.59 153.86,-58.36 160.63,-60.16"/>
</g>
<!-- Verify Material -->
<g id="node9" class="node">
<title>Verify Material</title>
<polygon fill="none" stroke="black" points="443.5,-272.86 207.5,-272.86 207.5,-224.86 443.5,-224.86 443.5,-272.86"/>
<text text-anchor="middle" x="325.5" y="-240.06" font-family="Times New Roman,serif" font-size="36.00">Verify Material</text>
</g>
<!-- MATERIAL&#45;&gt;Verify Material -->
<g id="edge17" class="edge">
<title>MATERIAL&#45;&gt;Verify Material</title>
<path fill="none" stroke="#ba0d39" d="M616.67,-345.57C561.58,-328.85 469.88,-299.97 403.93,-278.65"/>
<path fill="none" stroke="white" d="M617.25,-343.65C562.18,-326.94 470.49,-298.06 404.55,-276.75"/>
<path fill="none" stroke="#ba0d39" d="M617.83,-341.74C562.78,-325.03 471.09,-296.15 405.16,-274.85"/>
<polygon fill="#ba0d39" stroke="#ba0d39" points="405.82,-273.48 395.22,-273.73 403.66,-280.14 405.82,-273.48"/>
</g>
<!-- MATERIAL&#45;&gt;Receive Goods -->
<g id="edge21" class="edge">
<title>MATERIAL&#45;&gt;Receive Goods</title>
<path fill="none" stroke="#ba0d39" d="M673.22,-407.01C673.32,-415.39 673.2,-423.9 672.86,-431.83"/>
<path fill="none" stroke="white" d="M671.22,-407.03C671.32,-415.36 671.2,-423.87 670.86,-431.75"/>
<path fill="none" stroke="#ba0d39" d="M669.22,-407.06C669.32,-415.33 669.2,-423.84 668.86,-431.66"/>
<polygon fill="#ba0d39" stroke="#ba0d39" points="667.37,-431.42 670.27,-441.61 674.36,-431.84 667.37,-431.42"/>
</g>
<!-- Goods Issue -->
<g id="node11" class="node">
<title>Goods Issue</title>
<polygon fill="none" stroke="black" points="653.5,-272.86 461.5,-272.86 461.5,-224.86 653.5,-224.86 653.5,-272.86"/>
<text text-anchor="middle" x="557.5" y="-240.06" font-family="Times New Roman,serif" font-size="36.00">Goods Issue</text>
</g>
<!-- MATERIAL&#45;&gt;Goods Issue -->
<g id="edge25" class="edge">
<title>MATERIAL&#45;&gt;Goods Issue</title>
<path fill="none" stroke="#ba0d39" d="M625.68,-327.26C611.03,-313.3 594.69,-296.92 581.43,-282.91"/>
<path fill="none" stroke="white" d="M627.06,-325.81C612.44,-311.88 596.1,-295.51 582.88,-281.54"/>
<path fill="none" stroke="#ba0d39" d="M628.44,-324.37C613.86,-310.47 597.52,-294.1 584.33,-280.16"/>
<polygon fill="#ba0d39" stroke="#ba0d39" points="585.51,-279.22 576.12,-274.3 580.39,-284 585.51,-279.22"/>
</g>
<!-- Plan Goods Issue -->
<g id="node14" class="node">
<title>Plan Goods Issue</title>
<polygon fill="none" stroke="black" points="935,-272.86 672,-272.86 672,-224.86 935,-224.86 935,-272.86"/>
<text text-anchor="middle" x="803.5" y="-240.06" font-family="Times New Roman,serif" font-size="36.00">Plan Goods Issue</text>
</g>
<!-- MATERIAL&#45;&gt;Plan Goods Issue -->
<g id="edge37" class="edge">
<title>MATERIAL&#45;&gt;Plan Goods Issue</title>
<path fill="none" stroke="#ba0d39" d="M699.44,-322.8C717.09,-308.65 738.41,-292.24 757.11,-278.39"/>
<path fill="none" stroke="white" d="M700.69,-324.36C718.31,-310.24 739.63,-293.82 758.3,-280"/>
<path fill="none" stroke="#ba0d39" d="M701.94,-325.92C719.53,-311.82 740.85,-295.41 759.49,-281.61"/>
<polygon fill="#ba0d39" stroke="#ba0d39" points="760.3,-282.88 766.29,-274.14 756.16,-277.23 760.3,-282.88"/>
</g>
<!-- GDSRCPT -->
<g id="node5" class="node">
<title>GDSRCPT</title>
<ellipse fill="#39f6c0" stroke="#39f6c0" cx="899.5" cy="-572.88" rx="45.46" ry="45.46"/>
<text text-anchor="middle" x="899.5" y="-569.48" font-family="Times New Roman,serif" font-size="13.00">GDSRCPT</text>
</g>
<!-- GDSRCPT&#45;&gt;Issue Goods Receipt -->
<g id="edge5" class="edge">
<title>GDSRCPT&#45;&gt;Issue Goods Receipt</title>
<path fill="none" stroke="#39f6c0" d="M888.16,-617.22C884.66,-626.05 880.75,-635.22 876.87,-643.66"/>
<polygon fill="#39f6c0" stroke="#39f6c0" points="873.8,-641.98 872.67,-652.51 880.12,-644.98 873.8,-641.98"/>
</g>
<!-- GDSRCPT&#45;&gt;Receive Goods -->
<g id="edge23" class="edge">
<title>GDSRCPT&#45;&gt;Receive Goods</title>
<path fill="none" stroke="#39f6c0" d="M857.17,-555.48C819.45,-539.67 764.05,-515.42 722.28,-496.52"/>
<polygon fill="#39f6c0" stroke="#39f6c0" points="723.9,-493.41 713.35,-492.47 721.01,-499.79 723.9,-493.41"/>
</g>
<!-- GDSRCPT&#45;&gt;Clear Invoice -->
<g id="edge31" class="edge">
<title>GDSRCPT&#45;&gt;Clear Invoice</title>
<path fill="none" stroke="#39f6c0" d="M934.5,-543.33C953.91,-529.27 978.28,-512.33 999.53,-498.12"/>
<polygon fill="#39f6c0" stroke="#39f6c0" points="1001.4,-501.08 1007.79,-492.64 997.52,-495.25 1001.4,-501.08"/>
</g>
<!-- Issue Goods Receipt&#45;&gt;PURCHORD -->
<g id="edge2" class="edge">
<title>Issue Goods Receipt&#45;&gt;PURCHORD</title>
<path fill="none" stroke="#a13ccd" d="M862.12,-702.81C862.69,-710 863.04,-718.28 863.18,-726.83"/>
<polygon fill="#a13ccd" stroke="#a13ccd" points="859.68,-726.66 863.23,-736.64 866.68,-726.62 859.68,-726.66"/>
</g>
<!-- Issue Goods Receipt&#45;&gt;MATERIAL -->
<g id="edge4" class="edge">
<title>Issue Goods Receipt&#45;&gt;MATERIAL</title>
<path fill="none" stroke="#ba0d39" d="M845.33,-654.52C830.44,-602.2 803.44,-478.09 778.88,-444.58 762.82,-422.31 738.24,-403.85 716.03,-390.16"/>
<path fill="none" stroke="white" d="M847.25,-653.97C832.39,-601.77 805.39,-477.67 780.5,-443.4 764.02,-420.71 739.44,-402.25 717.08,-388.46"/>
<path fill="none" stroke="#ba0d39" d="M849.18,-653.42C834.35,-601.35 807.35,-477.24 782.12,-442.22 765.22,-419.11 740.64,-400.65 718.13,-386.76"/>
<polygon fill="#ba0d39" stroke="#ba0d39" points="719.02,-385.54 708.64,-383.42 715.43,-391.55 719.02,-385.54"/>
</g>
<!-- Issue Goods Receipt&#45;&gt;GDSRCPT -->
<g id="edge6" class="edge">
<title>Issue Goods Receipt&#45;&gt;GDSRCPT</title>
<path fill="none" stroke="#39f6c0" d="M860.5,-653.88C863.61,-644.66 867.83,-633.72 872.38,-622.93"/>
<polygon fill="#39f6c0" stroke="#39f6c0" points="875.45,-624.65 876.21,-614.08 869.02,-621.87 875.45,-624.65"/>
</g>
<!-- Create Purchase Requisition&#45;&gt;PURCHREQ -->
<g id="edge8" class="edge">
<title>Create Purchase Requisition&#45;&gt;PURCHREQ</title>
<path fill="none" stroke="#e90638" d="M1060.72,-224.37C972.01,-203.11 846.32,-172.34 772.08,-153.68"/>
<polygon fill="#e90638" stroke="#e90638" points="773.08,-150.33 762.53,-151.28 771.37,-157.11 773.08,-150.33"/>
</g>
<!-- Create Purchase Requisition&#45;&gt;MATERIAL -->
<g id="edge10" class="edge">
<title>Create Purchase Requisition&#45;&gt;MATERIAL</title>
<path fill="none" stroke="#ba0d39" d="M1059.69,-275.28C958.28,-297.5 807.18,-329.95 724.37,-347.23"/>
<path fill="none" stroke="white" d="M1059.26,-273.32C957.86,-295.54 806.76,-328 723.96,-345.27"/>
<path fill="none" stroke="#ba0d39" d="M1058.84,-271.37C957.44,-293.59 806.34,-326.04 723.55,-343.32"/>
<polygon fill="#ba0d39" stroke="#ba0d39" points="723.3,-341.84 714.22,-347.3 724.73,-348.69 723.3,-341.84"/>
</g>
<!-- Create Purchase Order&#45;&gt;PURCHORD -->
<g id="edge12" class="edge">
<title>Create Purchase Order&#45;&gt;PURCHORD</title>
<path fill="none" stroke="#a13ccd" d="M166.08,-48.26C153.54,-88.28 123.5,-173.06 123.5,-247.86 123.5,-573.88 123.5,-573.88 123.5,-573.88 123.5,-713.18 611.3,-769.36 791.08,-785.63"/>
<polygon fill="#a13ccd" stroke="#a13ccd" points="790.69,-789.11 800.96,-786.51 791.31,-782.14 790.69,-789.11"/>
</g>
<!-- Create Purchase Order&#45;&gt;PURCHREQ -->
<g id="edge14" class="edge">
<title>Create Purchase Order&#45;&gt;PURCHREQ</title>
<path fill="none" stroke="#e90638" d="M290.84,-48.46C401.64,-70.75 561.55,-103.52 648.53,-121.81"/>
<polygon fill="#e90638" stroke="#e90638" points="647.55,-125.18 658.06,-123.82 649,-118.33 647.55,-125.18"/>
</g>
<!-- Create Purchase Order&#45;&gt;MATERIAL -->
<g id="edge16" class="edge">
<title>Create Purchase Order&#45;&gt;MATERIAL</title>
<path fill="none" stroke="#ba0d39" d="M171.92,-48.37C166.11,-97.06 151.05,-210.67 208.96,-271.49 261.1,-327.98 492.52,-346.74 604.09,-352.61"/>
<path fill="none" stroke="white" d="M169.93,-48.13C164.13,-96.79 149.06,-210.41 207.5,-272.86 260.94,-329.97 492.36,-348.74 603.98,-354.61"/>
<path fill="none" stroke="#ba0d39" d="M167.95,-47.89C162.15,-96.53 147.08,-210.14 206.04,-274.22 260.78,-331.96 492.19,-350.73 603.88,-356.61"/>
<polygon fill="#ba0d39" stroke="#ba0d39" points="603.69,-358.1 613.86,-355.11 604.05,-351.11 603.69,-358.1"/>
</g>
<!-- Verify Material&#45;&gt;MATERIAL -->
<g id="edge18" class="edge">
<title>Verify Material&#45;&gt;MATERIAL</title>
<path fill="none" stroke="#ba0d39" d="M405.97,-271.42C468.17,-290.63 552.88,-317.47 608.32,-335.56"/>
<path fill="none" stroke="white" d="M405.38,-273.33C467.57,-292.53 552.27,-319.37 607.7,-337.46"/>
<path fill="none" stroke="#ba0d39" d="M404.79,-275.24C466.96,-294.44 551.67,-321.28 607.08,-339.36"/>
<polygon fill="#ba0d39" stroke="#ba0d39" points="606.35,-340.7 616.94,-340.48 608.52,-334.05 606.35,-340.7"/>
</g>
<!-- Receive Goods&#45;&gt;PURCHORD -->
<g id="edge20" class="edge">
<title>Receive Goods&#45;&gt;PURCHORD</title>
<path fill="none" stroke="#a13ccd" d="M665.85,-491.72C663.77,-536.73 657,-636.9 701.5,-702.36 723.67,-734.97 761.87,-756.63 794.86,-770.37"/>
<polygon fill="#a13ccd" stroke="#a13ccd" points="793.38,-773.55 803.96,-774 795.97,-767.04 793.38,-773.55"/>
</g>
<!-- Receive Goods&#45;&gt;MATERIAL -->
<g id="edge22" class="edge">
<title>Receive Goods&#45;&gt;MATERIAL</title>
<path fill="none" stroke="#ba0d39" d="M656.83,-443.28C656.24,-435.84 655.89,-427.33 655.78,-418.55"/>
<path fill="none" stroke="white" d="M658.82,-443.12C658.24,-435.75 657.89,-427.24 657.78,-418.53"/>
<path fill="none" stroke="#ba0d39" d="M660.82,-442.97C660.23,-435.67 659.89,-427.16 659.78,-418.51"/>
<polygon fill="#ba0d39" stroke="#ba0d39" points="661.28,-418.55 657.78,-408.55 654.28,-418.55 661.28,-418.55"/>
</g>
<!-- Receive Goods&#45;&gt;GDSRCPT -->
<g id="edge24" class="edge">
<title>Receive Goods&#45;&gt;GDSRCPT</title>
<path fill="none" stroke="#39f6c0" d="M723.27,-491.75C761.92,-508.19 811.9,-530.19 848.8,-546.97"/>
<polygon fill="#39f6c0" stroke="#39f6c0" points="846.92,-549.96 857.47,-550.93 849.83,-543.59 846.92,-549.96"/>
</g>
<!-- Goods Issue&#45;&gt;MATERIAL -->
<g id="edge26" class="edge">
<title>Goods Issue&#45;&gt;MATERIAL</title>
<path fill="none" stroke="#ba0d39" d="M587.76,-271.67C599.9,-282.94 614.09,-296.83 627.09,-310.09"/>
<path fill="none" stroke="white" d="M586.4,-273.13C598.5,-284.37 612.69,-298.26 625.66,-311.49"/>
<path fill="none" stroke="#ba0d39" d="M585.03,-274.6C597.1,-285.8 611.29,-299.69 624.23,-312.89"/>
<polygon fill="#ba0d39" stroke="#ba0d39" points="623.02,-313.79 632.49,-318.53 628.04,-308.91 623.02,-313.79"/>
</g>
<!-- Clear Invoice&#45;&gt;PURCHORD -->
<g id="edge28" class="edge">
<title>Clear Invoice&#45;&gt;PURCHORD</title>
<path fill="none" stroke="#a13ccd" d="M1057.24,-491.72C1066.84,-536.73 1073.08,-636.9 1028.5,-702.36 1003.39,-739.24 957.75,-762.17 919.71,-775.45"/>
<polygon fill="#a13ccd" stroke="#a13ccd" points="919.03,-771.99 910.64,-778.47 921.24,-778.63 919.03,-771.99"/>
</g>
<!-- Clear Invoice&#45;&gt;INVOICE -->
<g id="edge30" class="edge">
<title>Clear Invoice&#45;&gt;INVOICE</title>
<path fill="none" stroke="#05b202" d="M1071.27,-441.59C1090.38,-425.63 1117.37,-404.38 1140.27,-387.22"/>
<path fill="none" stroke="white" d="M1072.55,-443.12C1091.62,-427.2 1118.61,-405.96 1141.47,-388.82"/>
<path fill="none" stroke="#05b202" d="M1073.83,-444.66C1092.86,-428.77 1119.84,-407.53 1142.67,-390.42"/>
<polygon fill="#05b202" stroke="#05b202" points="1143.5,-391.67 1149.44,-382.89 1139.33,-386.05 1143.5,-391.67"/>
</g>
<!-- Clear Invoice&#45;&gt;GDSRCPT -->
<g id="edge32" class="edge">
<title>Clear Invoice&#45;&gt;GDSRCPT</title>
<path fill="none" stroke="#39f6c0" d="M1020.75,-491.66C1000.21,-506.75 971.84,-526.55 947.67,-542.7"/>
<polygon fill="#39f6c0" stroke="#39f6c0" points="945.95,-539.63 939.55,-548.08 949.82,-545.47 945.95,-539.63"/>
</g>
<!-- Receive Invoice&#45;&gt;PURCHORD -->
<g id="edge34" class="edge">
<title>Receive Invoice&#45;&gt;PURCHORD</title>
<path fill="none" stroke="#a13ccd" d="M1495.33,-273.27C1467.29,-311.05 1411.5,-389.1 1411.5,-466.4 1411.5,-573.88 1411.5,-573.88 1411.5,-573.88 1411.5,-677.65 1066.65,-753.65 920.56,-780.48"/>
<polygon fill="#a13ccd" stroke="#a13ccd" points="920.26,-776.97 911.04,-782.2 921.51,-783.86 920.26,-776.97"/>
</g>
<!-- Receive Invoice&#45;&gt;INVOICE -->
<g id="edge36" class="edge">
<title>Receive Invoice&#45;&gt;INVOICE</title>
<path fill="none" stroke="#05b202" d="M1445.66,-275.25C1384.09,-296.11 1293.35,-325.97 1237.02,-343.84"/>
<path fill="none" stroke="white" d="M1445.02,-273.35C1383.47,-294.21 1292.73,-324.07 1236.41,-341.93"/>
<path fill="none" stroke="#05b202" d="M1444.38,-271.46C1382.84,-292.31 1292.1,-322.17 1235.81,-340.03"/>
<polygon fill="#05b202" stroke="#05b202" points="1235.55,-338.54 1227.07,-344.89 1237.66,-345.21 1235.55,-338.54"/>
</g>
<!-- Plan Goods Issue&#45;&gt;MATERIAL -->
<g id="edge38" class="edge">
<title>Plan Goods Issue&#45;&gt;MATERIAL</title>
<path fill="none" stroke="#ba0d39" d="M780.41,-274.58C762.45,-289.35 737.62,-308.68 715.58,-325.11"/>
<path fill="none" stroke="white" d="M779.14,-273.04C761.22,-287.77 736.39,-307.1 714.38,-323.51"/>
<path fill="none" stroke="#ba0d39" d="M777.87,-271.49C759.99,-286.2 735.16,-305.52 713.19,-321.9"/>
<polygon fill="#ba0d39" stroke="#ba0d39" points="712.32,-320.67 706.37,-329.44 716.49,-326.3 712.32,-320.67"/>
</g>
</g>
</svg>
