<?xml version="1.0" encoding="UTF-8" standalone="no"?>
<!DOCTYPE svg PUBLIC "-//W3C//DTD SVG 1.1//EN"
 "http://www.w3.org/Graphics/SVG/1.1/DTD/svg11.dtd">
<!-- Generated by graphviz version 7.1.0 (20230121.1956)
 -->
<!-- Pages: 1 -->
<svg width="903pt" height="1591pt"
 viewBox="0.00 0.00 903.00 1590.88" xmlns="http://www.w3.org/2000/svg" xmlns:xlink="http://www.w3.org/1999/xlink">
<g id="graph0" class="graph" transform="scale(1 1) rotate(0) translate(4 1586.88)">
<!-- PURCHREQ1 -->
<g id="node1" class="node">
<title>PURCHREQ1</title>
<ellipse fill="#05b202" stroke="#05b202" cx="502" cy="-1526.03" rx="56.7" ry="56.7"/>
<text text-anchor="middle" x="502" y="-1522.63" font-family="Times New Roman,serif" font-size="13.00">PURCHREQ1</text>
</g>
<!-- Create Purchase Requisition -->
<g id="node28" class="node">
<title>Create Purchase Requisition</title>
<polygon fill="none" stroke="black" points="775,-1433.18 357,-1433.18 357,-1385.18 775,-1385.18 775,-1433.18"/>
<text text-anchor="middle" x="566" y="-1400.38" font-family="Times New Roman,serif" font-size="36.00">Create Purchase Requisition</text>
</g>
<!-- PURCHREQ1&#45;&gt;Create Purchase Requisition -->
<g id="edge22" class="edge">
<title>PURCHREQ1&#45;&gt;Create Purchase Requisition</title>
<path fill="none" stroke="#05b202" d="M529.33,-1475.99C535.49,-1464.92 541.9,-1453.43 547.59,-1443.21"/>
<polygon fill="#05b202" stroke="#05b202" points="550.47,-1445.23 552.28,-1434.79 544.36,-1441.82 550.47,-1445.23"/>
</g>
<!-- PURCHREQ2 -->
<g id="node2" class="node">
<title>PURCHREQ2</title>
<ellipse fill="#05b202" stroke="#05b202" cx="631" cy="-1054.83" rx="56.7" ry="56.7"/>
<text text-anchor="middle" x="631" y="-1051.43" font-family="Times New Roman,serif" font-size="13.00">PURCHREQ2</text>
</g>
<!-- MATERIAL4 -->
<g id="node3" class="node">
<title>MATERIAL4</title>
<ellipse fill="none" stroke="#a13ccd" cx="315" cy="-294.34" rx="53.89" ry="53.89"/>
<text text-anchor="middle" x="315" y="-290.94" font-family="Times New Roman,serif" font-size="13.00">MATERIAL4</text>
</g>
<!-- Goods Issue -->
<g id="node31" class="node">
<title>Goods Issue</title>
<polygon fill="none" stroke="black" points="331,-200.23 139,-200.23 139,-152.23 331,-152.23 331,-200.23"/>
<text text-anchor="middle" x="235" y="-167.43" font-family="Times New Roman,serif" font-size="36.00">Goods Issue</text>
</g>
<!-- MATERIAL4&#45;&gt;Goods Issue -->
<g id="edge3" class="edge">
<title>MATERIAL4&#45;&gt;Goods Issue</title>
<path fill="none" stroke="#a13ccd" d="M283.11,-250.58C274.1,-237.51 264.39,-223.41 255.96,-211.17"/>
<path fill="none" stroke="white" d="M284.76,-249.44C275.75,-236.37 266.04,-222.28 257.61,-210.04"/>
<path fill="none" stroke="#a13ccd" d="M286.4,-248.31C277.39,-235.24 267.68,-221.14 259.25,-208.91"/>
<polygon fill="#a13ccd" stroke="#a13ccd" points="260.57,-208.18 252.02,-201.93 254.81,-212.15 260.57,-208.18"/>
</g>
<!-- MATERIAL7 -->
<g id="node4" class="node">
<title>MATERIAL7</title>
<ellipse fill="#a13ccd" stroke="#a13ccd" cx="631" cy="-1526.03" rx="53.89" ry="53.89"/>
<text text-anchor="middle" x="631" y="-1522.63" font-family="Times New Roman,serif" font-size="13.00">MATERIAL7</text>
</g>
<!-- MATERIAL7&#45;&gt;Create Purchase Requisition -->
<g id="edge35" class="edge">
<title>MATERIAL7&#45;&gt;Create Purchase Requisition</title>
<path fill="none" stroke="#a13ccd" d="M603.01,-1479.63C596.26,-1467.71 589.15,-1455.14 582.88,-1444.06"/>
<path fill="none" stroke="white" d="M604.75,-1478.64C598.01,-1466.73 590.89,-1454.15 584.62,-1443.07"/>
<path fill="none" stroke="#a13ccd" d="M606.49,-1477.66C599.75,-1465.74 592.63,-1453.17 586.36,-1442.09"/>
<polygon fill="#a13ccd" stroke="#a13ccd" points="587.85,-1441.68 579.88,-1434.7 581.76,-1445.13 587.85,-1441.68"/>
</g>
<!-- MATERIAL8 -->
<g id="node5" class="node">
<title>MATERIAL8</title>
<ellipse fill="#a13ccd" stroke="#a13ccd" cx="235" cy="-58.11" rx="53.89" ry="53.89"/>
<text text-anchor="middle" x="235" y="-54.71" font-family="Times New Roman,serif" font-size="13.00">MATERIAL8</text>
</g>
<!-- PURCHORD5 -->
<g id="node6" class="node">
<title>PURCHORD5</title>
<ellipse fill="#ba0d39" stroke="#ba0d39" cx="793" cy="-58.11" rx="58.23" ry="58.23"/>
<text text-anchor="middle" x="793" y="-54.71" font-family="Times New Roman,serif" font-size="13.00">PURCHORD5</text>
</g>
<!-- MATERIAL1 -->
<g id="node7" class="node">
<title>MATERIAL1</title>
<ellipse fill="none" stroke="#a13ccd" cx="760" cy="-1054.83" rx="53.89" ry="53.89"/>
<text text-anchor="middle" x="760" y="-1051.43" font-family="Times New Roman,serif" font-size="13.00">MATERIAL1</text>
</g>
<!-- Receive Goods -->
<g id="node27" class="node">
<title>Receive Goods</title>
<polygon fill="none" stroke="black" points="622,-960.72 390,-960.72 390,-912.72 622,-912.72 622,-960.72"/>
<text text-anchor="middle" x="506" y="-927.92" font-family="Times New Roman,serif" font-size="36.00">Receive Goods</text>
</g>
<!-- MATERIAL1&#45;&gt;Receive Goods -->
<g id="edge13" class="edge">
<title>MATERIAL1&#45;&gt;Receive Goods</title>
<path fill="none" stroke="#a13ccd" d="M721.47,-1016.82C713.56,-1010.02 704.78,-1003.44 696.01,-998.46 673.17,-985.42 646.81,-974.85 621.32,-966.55"/>
<path fill="none" stroke="white" d="M722.77,-1015.3C714.76,-1008.42 705.98,-1001.84 697,-996.72 673.91,-983.56 647.55,-973 621.94,-964.65"/>
<path fill="none" stroke="#a13ccd" d="M724.08,-1013.78C715.96,-1006.82 707.18,-1000.24 697.99,-994.98 674.66,-981.7 648.3,-971.14 622.56,-962.75"/>
<polygon fill="#a13ccd" stroke="#a13ccd" points="623.06,-961.33 612.47,-961.66 620.95,-968.01 623.06,-961.33"/>
</g>
<!-- MATERIAL3 -->
<g id="node8" class="node">
<title>MATERIAL3</title>
<ellipse fill="none" stroke="#a13ccd" cx="410" cy="-582.38" rx="53.89" ry="53.89"/>
<text text-anchor="middle" x="410" y="-578.98" font-family="Times New Roman,serif" font-size="13.00">MATERIAL3</text>
</g>
<!-- Plan Goods Issue -->
<g id="node30" class="node">
<title>Plan Goods Issue</title>
<polygon fill="none" stroke="black" points="517.5,-462.36 254.5,-462.36 254.5,-414.36 517.5,-414.36 517.5,-462.36"/>
<text text-anchor="middle" x="386" y="-429.56" font-family="Times New Roman,serif" font-size="36.00">Plan Goods Issue</text>
</g>
<!-- MATERIAL3&#45;&gt;Plan Goods Issue -->
<g id="edge2" class="edge">
<title>MATERIAL3&#45;&gt;Plan Goods Issue</title>
<path fill="none" stroke="#a13ccd" d="M399.16,-529.23C396.06,-510.92 392.67,-490.84 389.88,-474.35"/>
<path fill="none" stroke="white" d="M401.13,-528.9C398.04,-510.59 394.64,-490.51 391.86,-474.01"/>
<path fill="none" stroke="#a13ccd" d="M403.1,-528.56C400.01,-510.25 396.62,-490.17 393.83,-473.68"/>
<polygon fill="#a13ccd" stroke="#a13ccd" points="395.32,-473.48 390.2,-464.2 388.41,-474.65 395.32,-473.48"/>
</g>
<!-- MATERIAL6 -->
<g id="node9" class="node">
<title>MATERIAL6</title>
<ellipse fill="none" stroke="#a13ccd" cx="154" cy="-294.34" rx="53.89" ry="53.89"/>
<text text-anchor="middle" x="154" y="-290.94" font-family="Times New Roman,serif" font-size="13.00">MATERIAL6</text>
</g>
<!-- MATERIAL6&#45;&gt;Goods Issue -->
<g id="edge26" class="edge">
<title>MATERIAL6&#45;&gt;Goods Issue</title>
<path fill="none" stroke="#a13ccd" d="M182.98,-248.3C192.1,-235.23 201.93,-221.13 210.47,-208.9"/>
<path fill="none" stroke="white" d="M184.62,-249.44C193.74,-236.37 203.58,-222.28 212.11,-210.04"/>
<path fill="none" stroke="#a13ccd" d="M186.26,-250.59C195.38,-237.51 205.22,-223.42 213.75,-211.18"/>
<polygon fill="#a13ccd" stroke="#a13ccd" points="214.92,-212.13 217.77,-201.92 209.18,-208.12 214.92,-212.13"/>
</g>
<!-- PURCHORD2 -->
<g id="node10" class="node">
<title>PURCHORD2</title>
<ellipse fill="none" stroke="#ba0d39" cx="774" cy="-582.38" rx="58.23" ry="58.23"/>
<text text-anchor="middle" x="774" y="-578.98" font-family="Times New Roman,serif" font-size="13.00">PURCHORD2</text>
</g>
<!-- Receive Invoice -->
<g id="node33" class="node">
<title>Receive Invoice</title>
<polygon fill="none" stroke="black" points="895,-462.36 653,-462.36 653,-414.36 895,-414.36 895,-462.36"/>
<text text-anchor="middle" x="774" y="-429.56" font-family="Times New Roman,serif" font-size="36.00">Receive Invoice</text>
</g>
<!-- PURCHORD2&#45;&gt;Receive Invoice -->
<g id="edge5" class="edge">
<title>PURCHORD2&#45;&gt;Receive Invoice</title>
<path fill="none" stroke="#ba0d39" d="M774,-524.02C774,-507.13 774,-489.18 774,-474.17"/>
<polygon fill="#ba0d39" stroke="#ba0d39" points="777.5,-474.35 774,-464.35 770.5,-474.35 777.5,-474.35"/>
</g>
<!-- GDSRCPT2 -->
<g id="node11" class="node">
<title>GDSRCPT2</title>
<ellipse fill="#39f6c0" stroke="#39f6c0" cx="557" cy="-58.11" rx="49.81" ry="49.81"/>
<text text-anchor="middle" x="557" y="-54.71" font-family="Times New Roman,serif" font-size="13.00">GDSRCPT2</text>
</g>
<!-- INVOICE3 -->
<g id="node12" class="node">
<title>INVOICE3</title>
<ellipse fill="#e90638" stroke="#e90638" cx="671" cy="-58.11" rx="46.22" ry="46.22"/>
<text text-anchor="middle" x="671" y="-54.71" font-family="Times New Roman,serif" font-size="13.00">INVOICE3</text>
</g>
<!-- MATERIAL5 -->
<g id="node13" class="node">
<title>MATERIAL5</title>
<ellipse fill="none" stroke="#a13ccd" cx="214" cy="-582.38" rx="53.89" ry="53.89"/>
<text text-anchor="middle" x="214" y="-578.98" font-family="Times New Roman,serif" font-size="13.00">MATERIAL5</text>
</g>
<!-- Verify Material -->
<g id="node32" class="node">
<title>Verify Material</title>
<polygon fill="none" stroke="black" points="236,-462.36 0,-462.36 0,-414.36 236,-414.36 236,-462.36"/>
<text text-anchor="middle" x="118" y="-429.56" font-family="Times New Roman,serif" font-size="36.00">Verify Material</text>
</g>
<!-- MATERIAL5&#45;&gt;Verify Material -->
<g id="edge24" class="edge">
<title>MATERIAL5&#45;&gt;Verify Material</title>
<path fill="none" stroke="#a13ccd" d="M182.49,-538.34C168.27,-517.3 151.56,-492.58 138.49,-473.25"/>
<path fill="none" stroke="white" d="M184.15,-537.22C169.93,-516.18 153.22,-491.46 140.15,-472.13"/>
<path fill="none" stroke="#a13ccd" d="M185.81,-536.1C171.59,-515.06 154.88,-490.34 141.81,-471.01"/>
<polygon fill="#a13ccd" stroke="#a13ccd" points="143.22,-470.41 134.72,-464.09 137.42,-474.33 143.22,-470.41"/>
</g>
<!-- PURCHORD1 -->
<g id="node14" class="node">
<title>PURCHORD1</title>
<ellipse fill="#ba0d39" stroke="#ba0d39" cx="764" cy="-1291.06" rx="58.23" ry="58.23"/>
<text text-anchor="middle" x="764" y="-1287.66" font-family="Times New Roman,serif" font-size="13.00">PURCHORD1</text>
</g>
<!-- Create Purchase Order -->
<g id="node29" class="node">
<title>Create Purchase Order</title>
<polygon fill="none" stroke="black" points="801.5,-1196.95 460.5,-1196.95 460.5,-1148.95 801.5,-1148.95 801.5,-1196.95"/>
<text text-anchor="middle" x="631" y="-1164.15" font-family="Times New Roman,serif" font-size="36.00">Create Purchase Order</text>
</g>
<!-- PURCHORD1&#45;&gt;Create Purchase Order -->
<g id="edge37" class="edge">
<title>PURCHORD1&#45;&gt;Create Purchase Order</title>
<path fill="none" stroke="#ba0d39" d="M720.45,-1252.04C702.77,-1236.61 682.63,-1219.02 665.94,-1204.45"/>
<polygon fill="#ba0d39" stroke="#ba0d39" points="668.54,-1202.07 658.7,-1198.13 663.93,-1207.34 668.54,-1202.07"/>
</g>
<!-- PURCHORD3 -->
<g id="node15" class="node">
<title>PURCHORD3</title>
<ellipse fill="none" stroke="#ba0d39" cx="380" cy="-818.6" rx="58.23" ry="58.23"/>
<text text-anchor="middle" x="380" y="-815.2" font-family="Times New Roman,serif" font-size="13.00">PURCHORD3</text>
</g>
<!-- Issue Goods Receipt -->
<g id="node26" class="node">
<title>Issue Goods Receipt</title>
<polygon fill="none" stroke="black" points="660.5,-724.49 351.5,-724.49 351.5,-676.49 660.5,-676.49 660.5,-724.49"/>
<text text-anchor="middle" x="506" y="-691.69" font-family="Times New Roman,serif" font-size="36.00">Issue Goods Receipt</text>
</g>
<!-- PURCHORD3&#45;&gt;Issue Goods Receipt -->
<g id="edge38" class="edge">
<title>PURCHORD3&#45;&gt;Issue Goods Receipt</title>
<path fill="none" stroke="#ba0d39" d="M422.66,-778.29C438.92,-763.31 457.21,-746.45 472.51,-732.36"/>
<polygon fill="#ba0d39" stroke="#ba0d39" points="474.57,-735.22 479.55,-725.86 469.82,-730.07 474.57,-735.22"/>
</g>
<!-- PURCHORD6 -->
<g id="node16" class="node">
<title>PURCHORD6</title>
<ellipse fill="none" stroke="#ba0d39" cx="671" cy="-294.34" rx="58.23" ry="58.23"/>
<text text-anchor="middle" x="671" y="-290.94" font-family="Times New Roman,serif" font-size="13.00">PURCHORD6</text>
</g>
<!-- Clear Invoice -->
<g id="node34" class="node">
<title>Clear Invoice</title>
<polygon fill="none" stroke="black" points="774,-200.23 568,-200.23 568,-152.23 774,-152.23 774,-200.23"/>
<text text-anchor="middle" x="671" y="-167.43" font-family="Times New Roman,serif" font-size="36.00">Clear Invoice</text>
</g>
<!-- PURCHORD6&#45;&gt;Clear Invoice -->
<g id="edge8" class="edge">
<title>PURCHORD6&#45;&gt;Clear Invoice</title>
<path fill="none" stroke="#ba0d39" d="M671,-235.63C671,-227.58 671,-219.53 671,-212.08"/>
<polygon fill="#ba0d39" stroke="#ba0d39" points="674.5,-212.12 671,-202.12 667.5,-212.12 674.5,-212.12"/>
</g>
<!-- GDSRCPT1 -->
<g id="node17" class="node">
<title>GDSRCPT1</title>
<ellipse fill="#39f6c0" stroke="#39f6c0" cx="506" cy="-1054.83" rx="49.81" ry="49.81"/>
<text text-anchor="middle" x="506" y="-1051.43" font-family="Times New Roman,serif" font-size="13.00">GDSRCPT1</text>
</g>
<!-- GDSRCPT1&#45;&gt;Receive Goods -->
<g id="edge18" class="edge">
<title>GDSRCPT1&#45;&gt;Receive Goods</title>
<path fill="none" stroke="#39f6c0" d="M506,-1004.59C506,-993.75 506,-982.49 506,-972.37"/>
<polygon fill="#39f6c0" stroke="#39f6c0" points="509.5,-972.62 506,-962.62 502.5,-972.62 509.5,-972.62"/>
</g>
<!-- GDSRCPT4 -->
<g id="node18" class="node">
<title>GDSRCPT4</title>
<ellipse fill="none" stroke="#39f6c0" cx="506" cy="-818.6" rx="49.81" ry="49.81"/>
<text text-anchor="middle" x="506" y="-815.2" font-family="Times New Roman,serif" font-size="13.00">GDSRCPT4</text>
</g>
<!-- GDSRCPT4&#45;&gt;Issue Goods Receipt -->
<g id="edge31" class="edge">
<title>GDSRCPT4&#45;&gt;Issue Goods Receipt</title>
<path fill="none" stroke="#39f6c0" d="M506,-768.36C506,-757.52 506,-746.26 506,-736.14"/>
<polygon fill="#39f6c0" stroke="#39f6c0" points="509.5,-736.39 506,-726.39 502.5,-736.39 509.5,-736.39"/>
</g>
<!-- INVOICE1 -->
<g id="node19" class="node">
<title>INVOICE1</title>
<ellipse fill="#e90638" stroke="#e90638" cx="652" cy="-582.38" rx="46.22" ry="46.22"/>
<text text-anchor="middle" x="652" y="-578.98" font-family="Times New Roman,serif" font-size="13.00">INVOICE1</text>
</g>
<!-- INVOICE1&#45;&gt;Receive Invoice -->
<g id="edge9" class="edge">
<title>INVOICE1&#45;&gt;Receive Invoice</title>
<path fill="none" stroke="#e90638" d="M680.33,-545.33C700.13,-522.28 725.92,-492.25 745.18,-469.83"/>
<path fill="none" stroke="white" d="M681.84,-546.63C701.65,-523.58 727.44,-493.56 746.7,-471.14"/>
<path fill="none" stroke="#e90638" d="M683.36,-547.94C703.17,-524.88 728.96,-494.86 748.22,-472.44"/>
<polygon fill="#e90638" stroke="#e90638" points="749.15,-473.66 753.01,-463.79 743.84,-469.1 749.15,-473.66"/>
</g>
<!-- INVOICE2 -->
<g id="node20" class="node">
<title>INVOICE2</title>
<ellipse fill="none" stroke="#e90638" cx="793" cy="-294.34" rx="46.22" ry="46.22"/>
<text text-anchor="middle" x="793" y="-290.94" font-family="Times New Roman,serif" font-size="13.00">INVOICE2</text>
</g>
<!-- INVOICE2&#45;&gt;Clear Invoice -->
<g id="edge21" class="edge">
<title>INVOICE2&#45;&gt;Clear Invoice</title>
<path fill="none" stroke="#e90638" d="M760.31,-261.36C752.69,-253.47 744.44,-245.15 736.62,-237.67 726.87,-228.35 715.96,-218.5 705.85,-209.61"/>
<path fill="none" stroke="white" d="M761.75,-259.97C754.11,-252.06 745.86,-243.74 738,-236.23 728.21,-226.87 717.3,-217.02 707.17,-208.11"/>
<path fill="none" stroke="#e90638" d="M763.19,-258.58C755.53,-250.65 747.28,-242.34 739.38,-234.78 729.55,-225.38 718.64,-215.53 708.49,-206.61"/>
<polygon fill="#e90638" stroke="#e90638" points="709.49,-205.49 699.65,-201.55 704.89,-210.77 709.49,-205.49"/>
</g>
<!-- MATERIAL2 -->
<g id="node21" class="node">
<title>MATERIAL2</title>
<ellipse fill="none" stroke="#a13ccd" cx="628" cy="-818.6" rx="53.89" ry="53.89"/>
<text text-anchor="middle" x="628" y="-815.2" font-family="Times New Roman,serif" font-size="13.00">MATERIAL2</text>
</g>
<!-- MATERIAL2&#45;&gt;Issue Goods Receipt -->
<g id="edge14" class="edge">
<title>MATERIAL2&#45;&gt;Issue Goods Receipt</title>
<path fill="none" stroke="#a13ccd" d="M588.02,-782.31C571.76,-766.84 553.04,-749.02 537.46,-734.19"/>
<path fill="none" stroke="white" d="M589.4,-780.87C573.14,-765.39 554.42,-747.57 538.84,-732.74"/>
<path fill="none" stroke="#a13ccd" d="M590.78,-779.42C574.52,-763.94 555.8,-746.13 540.22,-731.3"/>
<polygon fill="#a13ccd" stroke="#a13ccd" points="541.29,-730.25 531.64,-725.89 536.47,-735.32 541.29,-730.25"/>
</g>
<!-- PURCHREQ3 -->
<g id="node22" class="node">
<title>PURCHREQ3</title>
<ellipse fill="none" stroke="#05b202" cx="631" cy="-1291.06" rx="56.7" ry="56.7"/>
<text text-anchor="middle" x="631" y="-1287.66" font-family="Times New Roman,serif" font-size="13.00">PURCHREQ3</text>
</g>
<!-- PURCHREQ3&#45;&gt;Create Purchase Order -->
<g id="edge11" class="edge">
<title>PURCHREQ3&#45;&gt;Create Purchase Order</title>
<path fill="none" stroke="#05b202" d="M631,-1234.04C631,-1225.42 631,-1216.73 631,-1208.75"/>
<polygon fill="#05b202" stroke="#05b202" points="634.5,-1208.78 631,-1198.78 627.5,-1208.78 634.5,-1208.78"/>
</g>
<!-- MATERIAL9 -->
<g id="node23" class="node">
<title>MATERIAL9</title>
<ellipse fill="none" stroke="#a13ccd" cx="502" cy="-1291.06" rx="53.89" ry="53.89"/>
<text text-anchor="middle" x="502" y="-1287.66" font-family="Times New Roman,serif" font-size="13.00">MATERIAL9</text>
</g>
<!-- MATERIAL9&#45;&gt;Create Purchase Order -->
<g id="edge27" class="edge">
<title>MATERIAL9&#45;&gt;Create Purchase Order</title>
<path fill="none" stroke="#a13ccd" d="M540.28,-1252.59C548.02,-1245.57 556.09,-1238.28 563.66,-1231.46 573.93,-1222.22 585.12,-1212.2 595.32,-1203.08"/>
<path fill="none" stroke="white" d="M541.62,-1254.07C549.36,-1247.05 557.43,-1239.76 565,-1232.95 575.26,-1223.71 586.45,-1213.69 596.65,-1204.57"/>
<path fill="none" stroke="#a13ccd" d="M542.96,-1255.55C550.7,-1248.54 558.77,-1241.25 566.34,-1234.43 576.6,-1225.2 587.79,-1215.18 597.98,-1206.06"/>
<polygon fill="#a13ccd" stroke="#a13ccd" points="598.69,-1207.44 603.82,-1198.17 594.03,-1202.22 598.69,-1207.44"/>
</g>
<!-- PURCHORD4 -->
<g id="node24" class="node">
<title>PURCHORD4</title>
<ellipse fill="none" stroke="#ba0d39" cx="380" cy="-1054.83" rx="58.23" ry="58.23"/>
<text text-anchor="middle" x="380" y="-1051.43" font-family="Times New Roman,serif" font-size="13.00">PURCHORD4</text>
</g>
<!-- PURCHORD4&#45;&gt;Receive Goods -->
<g id="edge29" class="edge">
<title>PURCHORD4&#45;&gt;Receive Goods</title>
<path fill="none" stroke="#ba0d39" d="M422.66,-1014.52C438.92,-999.53 457.21,-982.68 472.51,-968.58"/>
<polygon fill="#ba0d39" stroke="#ba0d39" points="474.57,-971.44 479.55,-962.09 469.82,-966.3 474.57,-971.44"/>
</g>
<!-- GDSRCPT3 -->
<g id="node25" class="node">
<title>GDSRCPT3</title>
<ellipse fill="none" stroke="#39f6c0" cx="585" cy="-438.36" rx="49.81" ry="49.81"/>
<text text-anchor="middle" x="585" y="-434.96" font-family="Times New Roman,serif" font-size="13.00">GDSRCPT3</text>
</g>
<!-- GDSRCPT3&#45;&gt;Clear Invoice -->
<g id="edge40" class="edge">
<title>GDSRCPT3&#45;&gt;Clear Invoice</title>
<path fill="none" stroke="#39f6c0" d="M579.89,-388.68C577.61,-346.13 579.7,-283.88 604,-236.23 609.39,-225.66 617.54,-216.14 626.33,-207.98"/>
<polygon fill="#39f6c0" stroke="#39f6c0" points="628.46,-210.77 633.73,-201.58 623.88,-205.47 628.46,-210.77"/>
</g>
<!-- Issue Goods Receipt&#45;&gt;MATERIAL3 -->
<g id="edge33" class="edge">
<title>Issue Goods Receipt&#45;&gt;MATERIAL3</title>
<path fill="none" stroke="#a13ccd" d="M485.03,-677.27C474.77,-664.86 461.78,-649.14 449.42,-634.19"/>
<path fill="none" stroke="white" d="M486.57,-675.99C476.31,-663.58 463.32,-647.86 450.96,-632.91"/>
<path fill="none" stroke="#a13ccd" d="M488.11,-674.72C477.86,-662.31 464.86,-646.59 452.5,-631.64"/>
<polygon fill="#a13ccd" stroke="#a13ccd" points="453.81,-630.88 444.74,-625.4 448.42,-635.34 453.81,-630.88"/>
</g>
<!-- Issue Goods Receipt&#45;&gt;PURCHORD2 -->
<g id="edge28" class="edge">
<title>Issue Goods Receipt&#45;&gt;PURCHORD2</title>
<path fill="none" stroke="#ba0d39" d="M616.49,-676.05C646.85,-667.24 679.09,-655.58 707,-640.49 712.6,-637.46 718.15,-633.91 723.52,-630.08"/>
<polygon fill="#ba0d39" stroke="#ba0d39" points="725.27,-633.14 731.15,-624.33 721.06,-627.55 725.27,-633.14"/>
</g>
<!-- Issue Goods Receipt&#45;&gt;MATERIAL5 -->
<g id="edge15" class="edge">
<title>Issue Goods Receipt&#45;&gt;MATERIAL5</title>
<path fill="none" stroke="#a13ccd" d="M440.05,-677.99C411.18,-667.43 376.92,-654.61 346.26,-642.35 322.15,-632.7 295.88,-621.56 273.08,-611.68"/>
<path fill="none" stroke="white" d="M440.73,-676.11C411.88,-665.56 377.62,-652.74 347,-640.49 322.93,-630.86 296.66,-619.72 273.87,-609.85"/>
<path fill="none" stroke="#a13ccd" d="M441.42,-674.23C412.58,-663.69 378.32,-650.86 347.74,-638.63 323.71,-629.02 297.44,-617.88 274.67,-608.01"/>
<polygon fill="#a13ccd" stroke="#a13ccd" points="275.29,-606.64 264.72,-605.87 272.5,-613.06 275.29,-606.64"/>
</g>
<!-- Issue Goods Receipt&#45;&gt;GDSRCPT3 -->
<g id="edge39" class="edge">
<title>Issue Goods Receipt&#45;&gt;GDSRCPT3</title>
<path fill="none" stroke="#39f6c0" d="M513.01,-676.41C525.12,-636.54 550.29,-553.64 567.42,-497.25"/>
<polygon fill="#39f6c0" stroke="#39f6c0" points="570.74,-498.37 570.29,-487.79 564.04,-496.34 570.74,-498.37"/>
</g>
<!-- Receive Goods&#45;&gt;PURCHORD3 -->
<g id="edge16" class="edge">
<title>Receive Goods&#45;&gt;PURCHORD3</title>
<path fill="none" stroke="#ba0d39" d="M480.5,-912.22C466.23,-899.07 447.91,-882.19 430.84,-866.45"/>
<polygon fill="#ba0d39" stroke="#ba0d39" points="433.42,-864.07 423.69,-859.87 428.67,-869.22 433.42,-864.07"/>
</g>
<!-- Receive Goods&#45;&gt;GDSRCPT4 -->
<g id="edge19" class="edge">
<title>Receive Goods&#45;&gt;GDSRCPT4</title>
<path fill="none" stroke="#39f6c0" d="M506,-912.22C506,-902.78 506,-891.42 506,-879.94"/>
<polygon fill="#39f6c0" stroke="#39f6c0" points="509.5,-880 506,-870 502.5,-880 509.5,-880"/>
</g>
<!-- Receive Goods&#45;&gt;MATERIAL2 -->
<g id="edge32" class="edge">
<title>Receive Goods&#45;&gt;MATERIAL2</title>
<path fill="none" stroke="#a13ccd" d="M529.31,-910.77C543.79,-896.99 562.56,-879.12 579.75,-862.77"/>
<path fill="none" stroke="white" d="M530.69,-912.22C545.17,-898.44 563.94,-880.57 581.13,-864.21"/>
<path fill="none" stroke="#a13ccd" d="M532.07,-913.67C546.55,-899.89 565.32,-882.02 582.51,-865.66"/>
<polygon fill="#a13ccd" stroke="#a13ccd" points="583.49,-866.8 588.32,-857.37 578.66,-861.73 583.49,-866.8"/>
</g>
<!-- Create Purchase Requisition&#45;&gt;PURCHREQ3 -->
<g id="edge23" class="edge">
<title>Create Purchase Requisition&#45;&gt;PURCHREQ3</title>
<path fill="none" stroke="#05b202" d="M579.15,-1384.68C584.66,-1374.84 591.33,-1362.92 598.03,-1350.96"/>
<polygon fill="#05b202" stroke="#05b202" points="601.07,-1352.7 602.9,-1342.26 594.96,-1349.28 601.07,-1352.7"/>
</g>
<!-- Create Purchase Requisition&#45;&gt;MATERIAL9 -->
<g id="edge4" class="edge">
<title>Create Purchase Requisition&#45;&gt;MATERIAL9</title>
<path fill="none" stroke="#a13ccd" d="M551.3,-1385.64C545.48,-1375.08 538.33,-1362.12 531.25,-1349.28"/>
<path fill="none" stroke="white" d="M553.05,-1384.68C547.23,-1374.12 540.08,-1361.16 533.01,-1348.31"/>
<path fill="none" stroke="#a13ccd" d="M554.8,-1383.71C548.98,-1373.15 541.84,-1360.19 534.76,-1347.35"/>
<polygon fill="#a13ccd" stroke="#a13ccd" points="536.25,-1346.95 528.36,-1339.88 530.12,-1350.33 536.25,-1346.95"/>
</g>
<!-- Create Purchase Order&#45;&gt;PURCHREQ2 -->
<g id="edge1" class="edge">
<title>Create Purchase Order&#45;&gt;PURCHREQ2</title>
<path fill="none" stroke="#05b202" d="M631,-1148.45C631,-1140.99 631,-1132.34 631,-1123.38"/>
<polygon fill="#05b202" stroke="#05b202" points="634.5,-1123.45 631,-1113.45 627.5,-1123.45 634.5,-1123.45"/>
</g>
<!-- Create Purchase Order&#45;&gt;MATERIAL1 -->
<g id="edge12" class="edge">
<title>Create Purchase Order&#45;&gt;MATERIAL1</title>
<path fill="none" stroke="#a13ccd" d="M655.72,-1147.24C667.88,-1136.39 682.53,-1123.28 695.66,-1111.46 700.51,-1107.1 705.56,-1102.53 710.6,-1097.98"/>
<path fill="none" stroke="white" d="M657.06,-1148.73C669.21,-1137.88 683.86,-1124.77 697,-1112.95 701.85,-1108.58 706.9,-1104.02 711.95,-1099.46"/>
<path fill="none" stroke="#a13ccd" d="M658.39,-1150.22C670.54,-1139.37 685.2,-1126.26 698.34,-1114.43 703.19,-1110.07 708.24,-1105.5 713.29,-1100.94"/>
<polygon fill="#a13ccd" stroke="#a13ccd" points="714.19,-1102.15 719.26,-1092.84 709.5,-1096.96 714.19,-1102.15"/>
</g>
<!-- Create Purchase Order&#45;&gt;PURCHORD4 -->
<g id="edge6" class="edge">
<title>Create Purchase Order&#45;&gt;PURCHORD4</title>
<path fill="none" stroke="#ba0d39" d="M533.46,-1148.52C504.63,-1139.55 473.67,-1127.8 447,-1112.95 441.44,-1109.85 435.92,-1106.25 430.56,-1102.39"/>
<polygon fill="#ba0d39" stroke="#ba0d39" points="433.03,-1099.87 422.95,-1096.61 428.8,-1105.45 433.03,-1099.87"/>
</g>
<!-- Plan Goods Issue&#45;&gt;MATERIAL4 -->
<g id="edge34" class="edge">
<title>Plan Goods Issue&#45;&gt;MATERIAL4</title>
<path fill="none" stroke="#a13ccd" d="M372.49,-414.8C364.23,-398.28 352.79,-375.41 342.17,-354.15"/>
<path fill="none" stroke="white" d="M374.28,-413.91C366.02,-397.39 354.58,-374.51 343.95,-353.26"/>
<path fill="none" stroke="#a13ccd" d="M376.06,-413.01C367.81,-396.49 356.37,-373.62 345.74,-352.36"/>
<polygon fill="#a13ccd" stroke="#a13ccd" points="347.1,-351.72 339.5,-344.34 340.84,-354.85 347.1,-351.72"/>
</g>
<!-- Goods Issue&#45;&gt;MATERIAL8 -->
<g id="edge36" class="edge">
<title>Goods Issue&#45;&gt;MATERIAL8</title>
<path fill="none" stroke="#a13ccd" d="M233,-151.73C233,-143.45 233,-133.69 233,-123.68"/>
<path fill="none" stroke="white" d="M235,-151.73C235,-143.45 235,-133.69 235,-123.68"/>
<path fill="none" stroke="#a13ccd" d="M237,-151.73C237,-143.45 237,-133.69 237,-123.68"/>
<polygon fill="#a13ccd" stroke="#a13ccd" points="238.5,-123.83 235,-113.83 231.5,-123.83 238.5,-123.83"/>
</g>
<!-- Verify Material&#45;&gt;MATERIAL6 -->
<g id="edge25" class="edge">
<title>Verify Material&#45;&gt;MATERIAL6</title>
<path fill="none" stroke="#a13ccd" d="M122.01,-413.42C125.9,-398.06 131.18,-377.22 136.24,-357.28"/>
<path fill="none" stroke="white" d="M123.94,-413.91C127.84,-398.55 133.12,-377.71 138.17,-357.77"/>
<path fill="none" stroke="#a13ccd" d="M125.88,-414.4C129.78,-399.04 135.06,-378.2 140.11,-358.27"/>
<polygon fill="#a13ccd" stroke="#a13ccd" points="141.51,-358.86 140.57,-348.3 134.72,-357.14 141.51,-358.86"/>
</g>
<!-- Receive Invoice&#45;&gt;PURCHORD6 -->
<g id="edge17" class="edge">
<title>Receive Invoice&#45;&gt;PURCHORD6</title>
<path fill="none" stroke="#ba0d39" d="M756.99,-413.91C744.64,-396.88 727.4,-373.1 711.59,-351.31"/>
<polygon fill="#ba0d39" stroke="#ba0d39" points="714.51,-349.38 705.81,-343.34 708.85,-353.49 714.51,-349.38"/>
</g>
<!-- Receive Invoice&#45;&gt;INVOICE2 -->
<g id="edge20" class="edge">
<title>Receive Invoice&#45;&gt;INVOICE2</title>
<path fill="none" stroke="#e90638" d="M775.16,-413.64C777.42,-396.74 780.57,-373.17 783.47,-351.5"/>
<path fill="none" stroke="white" d="M777.14,-413.91C779.4,-397 782.55,-373.44 785.45,-351.77"/>
<path fill="none" stroke="#e90638" d="M779.12,-414.17C781.38,-397.27 784.53,-373.7 787.43,-352.03"/>
<polygon fill="#e90638" stroke="#e90638" points="788.88,-352.53 786.74,-342.16 781.94,-351.6 788.88,-352.53"/>
</g>
<!-- Clear Invoice&#45;&gt;PURCHORD5 -->
<g id="edge7" class="edge">
<title>Clear Invoice&#45;&gt;PURCHORD5</title>
<path fill="none" stroke="#ba0d39" d="M695.69,-151.73C709.33,-138.75 726.78,-122.14 743.13,-106.58"/>
<polygon fill="#ba0d39" stroke="#ba0d39" points="745.12,-109.52 749.95,-100.09 740.29,-104.45 745.12,-109.52"/>
</g>
<!-- Clear Invoice&#45;&gt;GDSRCPT2 -->
<g id="edge30" class="edge">
<title>Clear Invoice&#45;&gt;GDSRCPT2</title>
<path fill="none" stroke="#39f6c0" d="M647.93,-151.73C634.06,-137.61 615.99,-119.19 599.61,-102.51"/>
<polygon fill="#39f6c0" stroke="#39f6c0" points="602.29,-100.25 592.79,-95.56 597.29,-105.15 602.29,-100.25"/>
</g>
<!-- Clear Invoice&#45;&gt;INVOICE3 -->
<g id="edge10" class="edge">
<title>Clear Invoice&#45;&gt;INVOICE3</title>
<path fill="none" stroke="#e90638" d="M669,-151.73C669,-141.38 669,-128.73 669,-116.14"/>
<path fill="none" stroke="white" d="M671,-151.73C671,-141.38 671,-128.73 671,-116.14"/>
<path fill="none" stroke="#e90638" d="M673,-151.73C673,-141.38 673,-128.73 673,-116.14"/>
<polygon fill="#e90638" stroke="#e90638" points="674.5,-116.18 671,-106.18 667.5,-116.18 674.5,-116.18"/>
</g>
</g>
</svg>
